<?xml version="1.0" encoding="UTF-8" standalone="no"?>
<!-- Created with Inkscape (http://www.inkscape.org/) -->

<svg
   xmlns:ns0="http://www.iki.fi/pav/software/textext/"
   xmlns:dc="http://purl.org/dc/elements/1.1/"
   xmlns:cc="http://creativecommons.org/ns#"
   xmlns:rdf="http://www.w3.org/1999/02/22-rdf-syntax-ns#"
   xmlns:svg="http://www.w3.org/2000/svg"
   xmlns="http://www.w3.org/2000/svg"
   xmlns:sodipodi="http://sodipodi.sourceforge.net/DTD/sodipodi-0.dtd"
   xmlns:inkscape="http://www.inkscape.org/namespaces/inkscape"
   width="210mm"
   height="297mm"
   id="svg2"
   version="1.1"
   inkscape:version="0.48.4 r9939"
   sodipodi:docname="checkmod2exp.eps">
  <defs
     id="defs4">
    <marker
       style="overflow:visible"
       id="Arrow2Mend-4"
       refX="0"
       refY="0"
       orient="auto"
       inkscape:stockid="Arrow2Mend">
      <path
         inkscape:connector-curvature="0"
         transform="scale(-0.6,-0.6)"
         d="M 8.7185878,4.0337352 -2.2072895,0.01601326 8.7185884,-4.0017078 c -1.7454984,2.3720609 -1.7354408,5.6174519 -6e-7,8.035443 z"
         style="fill-rule:evenodd;stroke-width:0.625;stroke-linejoin:round"
         id="path3981-4" />
    </marker>
    <inkscape:path-effect
       effect="spiro"
       id="path-effect3954-3"
       is_visible="true" />
  </defs>
  <sodipodi:namedview
     id="base"
     pagecolor="#ffffff"
     bordercolor="#666666"
     borderopacity="1.0"
     inkscape:pageopacity="0.0"
     inkscape:pageshadow="2"
     inkscape:zoom="1.979899"
     inkscape:cx="459.87293"
     inkscape:cy="572.32912"
     inkscape:document-units="px"
     inkscape:current-layer="layer1"
     showgrid="false"
     inkscape:window-width="1847"
     inkscape:window-height="1056"
     inkscape:window-x="73"
     inkscape:window-y="24"
     inkscape:window-maximized="1" />
  <metadata
     id="metadata7">
    <rdf:RDF>
      <cc:Work
         rdf:about="">
        <dc:format>image/svg+xml</dc:format>
        <dc:type
           rdf:resource="http://purl.org/dc/dcmitype/StillImage" />
        <dc:title></dc:title>
      </cc:Work>
    </rdf:RDF>
  </metadata>
  <g
     inkscape:label="レイヤー 1"
     inkscape:groupmode="layer"
     id="layer1">
    <g
       transform="matrix(1.25,0,0,-1.25,138.95506,669.19665)"
       inkscape:label="ink_ext_XXXXXX"
       id="g2993">
      <g
         transform="scale(0.1,0.1)"
         id="g2995">
        <path
           id="path2997"
           style="fill:none;stroke:#000000;stroke-width:5;stroke-linecap:butt;stroke-linejoin:miter;stroke-miterlimit:3.79999995;stroke-opacity:1;stroke-dasharray:none"
           d="m 335.98,372.441 3436.99,0 0,1854.53 -3436.99,0 0,-1854.53 z"
           inkscape:connector-curvature="0" />
        <g
           transform="scale(10,10)"
           id="g2999">
          <text
             id="text3001"
             transform="matrix(0,1,1,0,10.7621,58.918)">
            <tspan
               id="tspan3003"
               sodipodi:role="line"
               y="0"
               x="0 9.4705 15.5 19.809 24.118 36.176998 43.058998 47.368 51.676998 59.426998 67.177002 71.052002 82.242996 89.125 93.433998 101.184 108.066 111.941 117.1025 122.264 129.146 136.896"
               style="font-size:15.5px;font-variant:normal;font-weight:normal;writing-mode:lr-tb;fill:#000000;fill-opacity:1;fill-rule:nonzero;stroke:none;font-family:Times New Roman;-inkscape-font-specification:TimesNewRomanPSMT">Estimation Value [rad]</tspan>
          </text>
          <text
             id="text3005"
             transform="matrix(1,0,0,-1,178.975,4.08047)">
            <tspan
               id="tspan3007"
               sodipodi:role="line"
               y="0"
               x="0 9.4705 13.7795 25.838499 32.720501 36.595501 41.757 47.786499"
               style="font-size:15.5px;font-variant:normal;font-weight:normal;writing-mode:lr-tb;fill:#000000;fill-opacity:1;fill-rule:nonzero;stroke:none;font-family:Times New Roman;-inkscape-font-specification:TimesNewRomanPSMT">Time [s]</tspan>
          </text>
        </g>
        <path
           id="path3009"
           style="fill:none;stroke:#ff0000;stroke-width:7.5;stroke-linecap:butt;stroke-linejoin:miter;stroke-miterlimit:3.79999995;stroke-opacity:1;stroke-dasharray:none"
           d="m 335.98,1594.47 0,18.47 86.008,0 0,1.99 85.981,0 0,48.52 86.011,0 0,45 85.508,0 0,-49.49 85.981,0 0,-64.49 86.011,0 0,4.49 85.981,0 0,30.51 86.019,0 0,36.48 86.01,0 0,-32.5 85.98,0 0,-30.51 85.51,0 0,43.52 86.01,0 0,-49.03 85.98,0 0,-118.98 86.01,0 0,130 1030.98,0 0,-130 86.02,0 0,118.98 86.01,0 0,49.03 85.98,0 0,-43.52 86.01,0 0,30.51 85.51,0 0,32.5 85.98,0 0,-36.48 86.01,0 0,-30.51 85.98,0 0,-4.49 86.02,0 0,64.49 86.01,0 0,49.49 85.47,0 0,-45 86.02,0 0,-48.52 86.01,0 0,-1.99 85.98,0 0,-18.47"
           inkscape:connector-curvature="0" />
        <path
           id="path3011"
           style="fill:none;stroke:#000000;stroke-width:5;stroke-linecap:butt;stroke-linejoin:miter;stroke-miterlimit:3.79999995;stroke-opacity:1;stroke-dasharray:none"
           d="m 335.98,372.441 3436.99,0 0,1854.53 -3436.99,0 0,-1854.53 z"
           inkscape:connector-curvature="0" />
        <path
           id="path3013"
           style="fill:#000000;fill-opacity:1;fill-rule:nonzero;stroke:none"
           d="m 1885.51,303.719 16.17,0 c 3.44,0 5,0 5,3.25 0,1.793 -1.56,1.793 -4.65,1.793 l -15.12,0 c 6.18,22.886 7.04,26.136 7.04,27.109 0,2.578 -2.07,4.219 -5,4.219 -0.51,0 -5.32,-0.192 -6.88,-5.699 l -6.52,-25.629 -16.17,0 c -3.44,0 -5.16,0 -5.16,-3.082 0,-1.961 1.4,-1.961 4.84,-1.961 l 15.12,0 c -12.38,-45.739 -13.09,-48.469 -13.09,-51.399 0,-8.75 6.57,-14.769 15.67,-14.769 17.54,0 27.34,23.519 27.34,24.808 0,1.641 -1.37,1.641 -2.07,1.641 -1.56,0 -1.72,-0.672 -2.58,-2.27 -7.38,-16.871 -16.52,-20.781 -22.34,-20.781 -3.44,0 -5.16,2.11 -5.16,7.461 0,3.91 0.32,5.039 0.86,7.809 l 12.7,47.5 z"
           inkscape:connector-curvature="0" />
        <path
           id="path3015"
           style="fill:#000000;fill-opacity:1;fill-rule:nonzero;stroke:none"
           d="m 1921.13,201.219 0,-0.149 -0.19,-0.351 0,-0.469 -0.16,-0.32 0,-0.149 -0.19,-0.351 0,-0.16 -0.16,-0.161 0,-0.148 -0.16,-0.16 0,-0.153 -0.35,-0.359 0,-0.148 -0.19,-0.161 -0.16,0 -0.16,-0.152 -0.19,0 -0.16,-0.156 -0.19,0 -0.32,-0.203 -0.19,0 -0.16,-0.149 -1.21,0 -0.19,-0.16 -1.53,0 c -1.56,0 -3.28,0 -3.28,-2.262 0,-1.289 1.21,-1.796 1.72,-1.796 3.09,0 7.07,0.507 10.31,0.507 4.14,0 8.6,-0.507 12.58,-0.507 1.02,0 2.38,0.347 2.38,2.457 0,1.601 -1.71,1.601 -3.08,1.601 -2.58,0 -5.86,0 -5.86,1.488 0,0.461 0.86,3.391 1.21,5.153 1.56,5.859 3.09,12.027 4.49,16.719 1.53,-2.258 5.16,-6.641 12.38,-6.641 l 0,3.242 c -8.59,0 -10.66,8.598 -10.66,9.731 0,0.507 0.16,1.289 0.31,1.796 l 6.06,22.532 c 6.87,8.75 12.89,10.398 16.64,10.398 4.84,0 8.79,-3.25 8.79,-10.898 0,-4.692 -2.58,-16.211 -6.17,-22.7 -2.93,-5.511 -8.79,-10.859 -14.97,-10.859 l 0,-3.242 c 14.61,0 30.75,15.23 30.75,32.109 0,13.121 -9.61,18.832 -17.85,18.832 -7.58,0 -13.95,-4.73 -17.04,-7.968 -2.07,6.476 -8.78,7.968 -12.38,7.968 -4.65,0 -7.58,-2.929 -9.45,-6.019 -2.42,-3.903 -4.3,-10.699 -4.3,-11.371 0,-1.442 1.72,-1.442 2.07,-1.442 1.53,0 1.72,0.313 2.58,3.403 1.72,6.679 4.1,12.187 8.75,12.187 3.09,0 3.95,-2.469 3.95,-5.508 0,-1.172 -0.32,-2.781 -0.32,-3.441 l -13.75,-51.41 z"
           inkscape:connector-curvature="0" />
        <path
           id="path3017"
           style="fill:#000000;fill-opacity:1;fill-rule:nonzero;stroke:none"
           d="m 2034.77,224.078 0,-0.156 -0.16,-0.16 0,-0.473 -0.2,-0.348 0,-0.152 -0.15,-0.469 -0.2,-0.672 -0.15,-0.468 0,-0.5 -0.16,-0.16 0,-0.309 -0.2,-0.16 0,-0.512 -0.15,-0.309 0,-0.308 -0.2,-0.352 0,-0.629 -0.15,0 0,-0.511 c 0,-2.418 2.22,-3.551 4.14,-3.551 2.03,0 4.1,1.449 4.61,2.422 0.54,1.129 1.56,4.73 2.26,7.148 0.51,2.11 1.88,7.313 2.58,10.039 0.66,2.461 1.37,5.043 2.07,7.621 1.17,4.879 1.17,5.039 3.59,8.629 3.95,5.512 9.81,11.84 19.26,11.84 6.72,0 7.03,-5.199 7.03,-7.816 0,-6.793 -5.15,-19.293 -7.03,-24.141 -1.36,-3.082 -1.87,-4.062 -1.87,-6.012 0,-6.019 5.31,-9.73 11.33,-9.73 12.03,0 17.38,15.551 17.38,17.191 0,1.641 -1.56,1.641 -1.92,1.641 -1.71,0 -1.87,-0.82 -2.38,-1.949 -2.77,-9.114 -7.93,-13.641 -12.58,-13.641 -2.57,0 -3.08,1.449 -3.08,3.91 0,2.578 0.7,4.02 2.73,9.059 1.56,3.558 6.37,15.59 6.37,21.922 0,1.75 0,6.476 -4.45,9.718 -2.07,1.45 -5.51,3.09 -11.18,3.09 -10.66,0 -17.18,-6.679 -21.17,-11.531 -0.86,9.731 -9.45,11.531 -15.47,11.531 -9.96,0 -16.68,-5.859 -20.27,-10.242 -0.86,7.621 -7.93,10.242 -12.89,10.242 -5,0 -7.93,-3.601 -9.45,-6.172 -2.58,-4.07 -4.3,-10.546 -4.3,-11.218 0,-1.442 1.72,-1.442 2.03,-1.442 1.72,0 1.91,0.313 2.77,3.403 1.72,6.679 3.95,12.187 8.6,12.187 3.28,0 3.94,-2.469 3.94,-5.508 0,-2.109 -1.01,-6.332 -1.87,-9.261 -0.86,-3.09 -2.07,-7.809 -2.58,-10.231 l -3.79,-14.418 c -0.51,-1.48 -1.21,-4.371 -1.21,-4.73 0,-2.418 2.07,-3.551 3.95,-3.551 2.22,0 4.14,1.449 4.84,2.422 0.51,1.129 1.52,4.73 2.03,7.148 0.7,2.11 1.91,7.313 2.58,10.039 0.86,2.461 1.56,5.043 2.07,7.621 1.37,4.571 1.56,5.539 5.16,10.071 3.28,4.539 8.94,10.398 17.89,10.398 6.87,0 7.03,-5.707 7.03,-7.816 0,-2.891 -0.32,-4.371 -2.03,-10.703 l -5,-18.981 z"
           inkscape:connector-curvature="0" />
        <path
           id="path3019"
           style="fill:#280b0b;fill-opacity:1;fill-rule:nonzero;stroke:none"
           d="m 1562.77,1605.52 c 0,-13.12 -10.66,-23.75 -23.75,-23.75 -13.12,0 -23.75,10.63 -23.75,23.75 0,13.09 10.63,23.71 23.75,23.71 13.09,0 23.75,-10.62 23.75,-23.71 z"
           inkscape:connector-curvature="0" />
        <path
           id="path3021"
           style="fill:#280b0b;fill-opacity:1;fill-rule:nonzero;stroke:none"
           d="m 2425.94,1607.28 c 0,-13.09 -10.63,-23.75 -23.71,-23.75 -13.13,0 -23.75,10.66 -23.75,23.75 0,13.12 10.62,23.75 23.75,23.75 13.08,0 23.71,-10.63 23.71,-23.75 z"
           inkscape:connector-curvature="0" />
        <path
           id="path3023"
           style="fill:none;stroke:#000000;stroke-width:8.02713966;stroke-linecap:butt;stroke-linejoin:miter;stroke-miterlimit:4;stroke-opacity:1;stroke-dasharray:32.1086, 32.1086;stroke-dashoffset:0"
           d="m 1968.52,2207.71 0.46,-1828.237"
           inkscape:connector-curvature="0" />
        <path
           id="path3025"
           style="fill:none;stroke:#000000;stroke-width:7.66232014;stroke-linecap:butt;stroke-linejoin:miter;stroke-miterlimit:4;stroke-opacity:1;stroke-dasharray:none"
           d="m 1548.24,2342.79 410.47,0"
           inkscape:connector-curvature="0" />
        <path
           id="path3027"
           style="fill:#000000;fill-opacity:1;fill-rule:evenodd;stroke:none"
           d="m 1588.32,2324.23 -50.23,18.48 50.23,18.47 c -8.01,-10.89 -7.97,-25.82 0,-36.95 z"
           inkscape:connector-curvature="0" />
        <path
           id="path3029"
           style="fill:#000000;fill-opacity:1;fill-rule:evenodd;stroke:none"
           d="m 1918.63,2361.34 50.2,-18.48 -50.2,-18.47 c 8.01,10.9 7.97,25.82 0,36.95 z"
           inkscape:connector-curvature="0" />
        <path
           id="path3031"
           style="fill:#000000;fill-opacity:1;fill-rule:nonzero;stroke:none"
           d="m 1728.44,2484.51 0.58,1.01 0.63,1.06 0.58,0.89 0.59,1.02 0.23,0.39 0.4,0.51 0.23,0.39 0.35,0.39 0.35,0.51 0.71,0.78 0.39,0.39 0.35,0.27 0.47,0.39 0.35,0.24 0.51,0.39 0.35,0.27 0.47,0.24 0.47,0.27 0.62,0.27 0.47,0.24 0.58,0.11 0.47,0.28 0.63,0.11 0.58,0.16 0.71,0.12 0.62,0.12 0.71,0 c 1.09,0.15 2.26,0.15 2.26,2.57 0,0.51 -0.47,1.45 -1.4,1.45 -2.9,0 -6.25,-0.39 -9.22,-0.39 -4.07,0 -8.4,0.39 -12.35,0.39 -0.7,0 -2.26,0 -2.26,-2.46 0,-1.41 1.09,-1.56 1.79,-1.56 2.86,-0.12 7.07,-1.14 7.07,-5 0,-1.45 -0.62,-2.35 -1.56,-4.15 l -32.19,-60.35 -4.41,63.56 c -0.12,2.46 -0.39,5.82 8.36,5.94 2.03,0 3.24,0 3.24,2.57 0,1.29 -1.33,1.45 -1.79,1.45 -4.81,0 -9.81,-0.39 -14.61,-0.39 -2.62,0 -9.69,0.39 -12.43,0.39 -0.74,0 -2.3,0 -2.3,-2.58 0,-1.44 1.21,-1.44 2.89,-1.44 5.27,0 6.09,-0.79 6.33,-3.21 l 0.74,-9.8 -30.16,-56.49 -4.57,64.85 c 0,1.56 0,4.53 9.11,4.65 1.21,0 2.53,0 2.53,2.57 0,1.45 -1.44,1.45 -1.68,1.45 -4.8,0 -9.84,-0.39 -14.72,-0.39 -4.18,0 -8.36,0.39 -12.46,0.39 -0.59,0 -2.15,0 -2.15,-2.46 0,-1.56 1.09,-1.56 3.01,-1.56 5.97,0 6.09,-1.14 6.32,-4.77 l 5.28,-78.24 c 0.11,-2.19 0.23,-3.24 1.91,-3.24 1.45,0 1.8,0.78 2.85,2.57 l 35.08,65.39 4.3,-64.72 c 0.23,-2.58 0.47,-3.24 1.91,-3.24 1.56,0 2.27,1.28 2.89,2.34 l 38.99,73.09 z"
           inkscape:connector-curvature="0" />
        <path
           id="path3033"
           style="fill:#000000;fill-opacity:1;fill-rule:nonzero;stroke:none"
           d="m 1752.62,2402.12 0,-0.27 -0.12,-0.39 -0.12,-0.24 -0.11,-0.39 -0.16,-0.27 -0.12,-0.39 -0.11,-0.24 -0.24,-0.39 -0.12,-0.27 -0.23,-0.39 -0.12,-0.23 -0.23,-0.39 -0.24,-0.28 -0.11,-0.39 -0.24,-0.23 -0.27,-0.39 -0.35,-0.28 -0.24,-0.23 -0.23,-0.28 -0.24,-0.23 -0.35,-0.27 -0.23,-0.28 -0.39,-0.23 -0.35,-0.16 -0.24,-0.23 -0.35,-0.12 -0.35,-0.15 -0.39,-0.12 -0.35,0 -0.36,-0.12 -0.82,0 c -0.23,0 -2.77,0 -4.57,1.13 3.48,1.18 3.71,4.42 3.71,5.04 0,1.96 -1.44,3.24 -3.36,3.24 -2.26,0 -4.64,-2.07 -4.64,-5.42 0,-4.54 4.64,-6.57 8.75,-6.57 3.82,0 7.15,2.58 9.29,6.29 1.92,-4.61 6.6,-6.29 9.85,-6.29 9.68,0 14.68,11.21 14.68,13.64 0,1.28 -1.05,1.28 -1.28,1.28 -1.22,0 -1.33,-0.5 -1.57,-1.52 -1.79,-6.21 -6.83,-10.82 -11.48,-10.82 -3.36,0 -5.04,2.31 -5.04,5.78 0,2.35 2.03,10.47 4.3,20.39 1.68,6.96 5.39,9.14 8.16,9.14 0.24,0 2.74,0 4.53,-1.17 -2.62,-0.9 -3.71,-3.36 -3.71,-5 0,-1.95 1.45,-3.24 3.36,-3.24 1.91,0 4.65,1.68 4.65,5.43 0,5 -5.24,6.56 -8.59,6.56 -4.18,0 -7.54,-2.97 -9.34,-6.44 -1.56,3.75 -5.39,6.44 -10.04,6.44 -9.34,0 -14.61,-11.09 -14.61,-13.79 0,-1.17 1.09,-1.17 1.33,-1.17 1.05,0 1.17,0.39 1.68,1.56 2.03,6.96 7.26,10.82 11.37,10.82 2.73,0 5,-1.56 5,-5.93 0,-1.68 -0.94,-6.18 -1.8,-9.26 l -2.85,-12.27 z"
           inkscape:connector-curvature="0" />
        <path
           id="path3035"
           style="fill:#000000;fill-opacity:1;fill-rule:nonzero;stroke:none"
           d="m 1842.7,2489.66 0.11,0.27 0.12,0.24 0,0.39 0.12,0.27 0.11,0.24 0,0.27 0.12,0.27 0,0.24 0.12,0.12 0.12,0.27 0,0.12 0.11,0.27 0,0.12 0.16,0.15 0,0.12 0.23,0.24 0,0.15 0.24,0.24 0.12,0.15 0.11,0.12 0.12,0 0.12,0.12 0.11,0.15 0.24,0 0.12,0.12 0.23,0 c 1.09,0.23 5.04,0.23 7.54,0.23 12.11,0 17.34,-0.5 17.34,-10.43 0,-1.91 -0.47,-6.95 -0.93,-10.31 -0.12,-0.51 -0.36,-2.07 -0.36,-2.46 0,-0.74 0.36,-1.68 1.45,-1.68 1.29,0 1.52,1.17 1.76,2.97 l 3.24,22.3 c 0.12,0.55 0.23,1.84 0.23,2.19 0,1.45 -1.17,1.45 -3.2,1.45 l -66.05,0 c -2.9,0 -3.01,-0.16 -3.83,-2.58 l -7.07,-22.58 c -0.12,-0.23 -0.71,-2.07 -0.71,-2.3 0,-0.78 0.59,-1.45 1.33,-1.45 1.29,0 1.29,0.67 2.03,2.74 6.45,19.84 9.57,22.14 27.15,22.14 l 4.65,0 c 3.36,0 3.36,-0.5 3.36,-1.52 0,-0.78 -0.35,-2.34 -0.47,-2.69 l -15.94,-68.36 c -1.05,-4.77 -1.4,-6.18 -14.22,-6.18 -4.29,0 -4.92,0 -4.92,-2.46 0,-1.52 1.21,-1.52 1.92,-1.52 3.24,0 6.6,0.35 9.84,0.35 3.32,0 6.8,0.16 10.16,0.16 3.24,0 6.56,-0.16 9.8,-0.16 3.48,0 7.07,-0.35 10.43,-0.35 1.17,0 2.62,0 2.62,2.58 0,1.4 -0.98,1.4 -4.06,1.4 -3.01,0 -4.57,0 -7.66,0.24 -3.48,0.39 -4.45,0.78 -4.45,2.85 0,0.12 0,0.78 0.5,2.7 l 15.79,68.08 z"
           inkscape:connector-curvature="0" />
        <path
           id="path3037"
           style="fill:#000000;fill-opacity:1;fill-rule:nonzero;stroke:none"
           d="m 1897.5,2426.34 -0.23,-0.12 -0.12,0 -0.27,-0.11 -0.12,0 -0.24,-0.12 -0.11,-0.16 -0.24,-0.11 -0.12,0 -0.11,-0.12 -0.24,-0.16 -0.23,-0.23 -0.12,-0.16 -0.12,-0.12 -0.15,-0.11 -0.12,-0.12 -0.12,-0.16 -0.11,-0.11 -0.12,-0.28 -0.12,-0.11 0,-0.12 -0.11,-0.16 -0.12,-0.11 0,-0.24 -0.12,-0.15 0,-0.4 -0.12,-0.11 0,-0.63 c 0,-2.07 1.68,-2.85 2.74,-2.85 0.86,0 3.94,0.51 3.94,5.04 0,5.78 -5.97,7.85 -10.97,7.85 -13.05,0 -15.43,-10.31 -15.43,-13.16 0,-3.32 1.75,-5.39 2.97,-6.57 2.14,-1.67 3.59,-2.07 9.33,-3.2 1.8,-0.27 7.19,-1.44 7.19,-5.82 0,-1.56 -0.98,-5.04 -4.45,-7.23 -3.21,-1.91 -7.39,-1.91 -8.36,-1.91 -3.36,0 -8.01,0.74 -9.93,3.71 2.74,0.39 4.54,2.58 4.54,5.16 0,2.19 -1.57,3.24 -3.21,3.24 -2.42,0 -4.92,-2.07 -4.92,-5.94 0,-5.43 5.39,-8.75 13.4,-8.75 15.43,0 18.2,11.33 18.2,14.81 0,8.24 -8.4,9.8 -11.48,10.47 -0.74,0.23 -2.78,0.5 -3.36,0.74 -3.01,0.66 -4.57,2.46 -4.57,4.53 0,2.07 1.56,4.37 3.36,5.66 2.26,1.57 5.15,1.68 6.6,1.68 1.64,0 6.09,-0.27 7.89,-3.24 z"
           inkscape:connector-curvature="0" />
        <path
           id="path3039"
           style="fill:none;stroke:#000000;stroke-width:7.6578598;stroke-linecap:butt;stroke-linejoin:miter;stroke-miterlimit:4;stroke-opacity:1;stroke-dasharray:none"
           d="m 1982.03,2342.71 409.57,0"
           inkscape:connector-curvature="0" />
        <path
           id="path3041"
           style="fill:#000000;fill-opacity:1;fill-rule:evenodd;stroke:none"
           d="m 2022.11,2324.15 -50.2,18.48 50.2,18.44 c -8.05,-10.9 -7.97,-25.78 0,-36.92 z"
           inkscape:connector-curvature="0" />
        <path
           id="path3043"
           style="fill:#000000;fill-opacity:1;fill-rule:evenodd;stroke:none"
           d="m 2351.56,2361.22 50.2,-18.43 -50.2,-18.48 c 8.01,10.9 7.97,25.82 0,36.91 z"
           inkscape:connector-curvature="0" />
        <path
           id="path3045"
           style="fill:#000000;fill-opacity:1;fill-rule:nonzero;stroke:none"
           d="m 2155.23,2483.41 0.59,1.02 0.59,1.05 0.58,0.9 0.63,1.02 0.23,0.39 0.35,0.5 0.24,0.39 0.35,0.4 0.39,0.5 1.05,1.18 0.36,0.23 0.5,0.39 0.36,0.27 0.46,0.39 0.36,0.24 0.5,0.27 0.47,0.28 0.59,0.23 0.47,0.27 0.62,0.12 0.47,0.27 0.59,0.12 0.62,0.12 0.7,0.15 0.59,0.12 0.74,0 c 1.06,0.12 2.27,0.12 2.27,2.58 0,0.51 -0.47,1.41 -1.45,1.41 -2.85,0 -6.21,-0.39 -9.22,-0.39 -4.06,0 -8.35,0.39 -12.3,0.39 -0.74,0 -2.27,0 -2.27,-2.43 0,-1.44 1.06,-1.56 1.76,-1.56 2.89,-0.12 7.07,-1.17 7.07,-5.04 0,-1.4 -0.58,-2.3 -1.56,-4.1 l -32.19,-60.35 -4.41,63.55 c -0.12,2.47 -0.35,5.82 8.4,5.94 2.03,0 3.2,0 3.2,2.58 0,1.29 -1.29,1.41 -1.8,1.41 -4.76,0 -9.8,-0.39 -14.57,-0.39 -2.65,0 -9.68,0.39 -12.46,0.39 -0.7,0 -2.26,0 -2.26,-2.58 0,-1.41 1.21,-1.41 2.85,-1.41 5.27,0 6.13,-0.78 6.36,-3.24 l 0.71,-9.77 -30.16,-56.48 -4.53,64.84 c 0,1.57 0,4.53 9.1,4.65 1.17,0 2.5,0 2.5,2.58 0,1.41 -1.44,1.41 -1.68,1.41 -4.76,0 -9.8,-0.39 -14.72,-0.39 -4.18,0 -8.36,0.39 -12.43,0.39 -0.58,0 -2.14,0 -2.14,-2.43 0,-1.56 1.05,-1.56 2.96,-1.56 5.98,0 6.14,-1.17 6.37,-4.76 l 5.24,-78.29 c 0.11,-2.18 0.27,-3.2 1.91,-3.2 1.44,0 1.8,0.78 2.89,2.58 l 35.04,65.35 4.34,-64.73 c 0.23,-2.57 0.46,-3.2 1.91,-3.2 1.52,0 2.26,1.29 2.85,2.31 l 39.02,73.12 z"
           inkscape:connector-curvature="0" />
        <path
           id="path3047"
           style="fill:#000000;fill-opacity:1;fill-rule:nonzero;stroke:none"
           d="m 2179.38,2401.03 0,-0.27 -0.12,-0.4 -0.12,-0.23 -0.12,-0.39 -0.11,-0.27 -0.12,-0.39 -0.12,-0.24 -0.23,-0.39 -0.12,-0.27 -0.23,-0.39 -0.16,-0.24 -0.23,-0.39 -0.24,-0.27 -0.12,-0.39 -0.23,-0.24 -0.23,-0.39 -0.36,-0.27 -0.23,-0.27 -0.27,-0.24 -0.24,-0.27 -0.35,-0.24 -0.23,-0.27 -0.36,-0.27 -0.35,-0.12 -0.23,-0.24 -0.39,-0.15 -0.71,-0.24 -0.35,0 -0.35,-0.15 -0.86,0 c -0.23,0 -2.73,0 -4.53,1.17 3.48,1.17 3.71,4.37 3.71,5.04 0,1.91 -1.44,3.2 -3.36,3.2 -2.26,0 -4.65,-2.07 -4.65,-5.39 0,-4.53 4.65,-6.6 8.71,-6.6 3.83,0 7.19,2.58 9.34,6.33 1.91,-4.65 6.56,-6.33 9.8,-6.33 9.69,0 14.73,11.21 14.73,13.67 0,1.29 -1.09,1.29 -1.33,1.29 -1.17,0 -1.32,-0.51 -1.56,-1.52 -1.8,-6.21 -6.8,-10.86 -11.48,-10.86 -3.32,0 -5,2.34 -5,5.82 0,2.3 2.03,10.43 4.29,20.35 1.68,6.99 5.39,9.18 8.13,9.18 0.23,0 2.77,0 4.57,-1.17 -2.66,-0.9 -3.71,-3.36 -3.71,-5.04 0,-1.92 1.4,-3.2 3.32,-3.2 1.91,0 4.69,1.68 4.69,5.39 0,5.04 -5.28,6.6 -8.64,6.6 -4.18,0 -7.54,-2.97 -9.33,-6.45 -1.53,3.71 -5.35,6.45 -10.04,6.45 -9.34,0 -14.57,-11.1 -14.57,-13.79 0,-1.17 1.05,-1.17 1.29,-1.17 1.09,0 1.21,0.39 1.68,1.52 2.03,6.99 7.3,10.86 11.36,10.86 2.74,0 5.04,-1.56 5.04,-5.94 0,-1.68 -0.97,-6.21 -1.79,-9.29 l -2.89,-12.23 z"
           inkscape:connector-curvature="0" />
        <path
           id="path3049"
           style="fill:#000000;fill-opacity:1;fill-rule:nonzero;stroke:none"
           d="m 2269.45,2488.57 0.16,0.23 0.12,0.28 0,0.39 0.11,0.23 0.12,0.27 0,0.28 0.12,0.23 0,0.28 0.12,0.11 0.11,0.28 0,0.11 0.12,0.28 0,0.11 0.12,0.12 0,0.16 0.23,0.23 0,0.12 0.12,0.15 0.23,0.24 0.12,0.16 0.12,0 0.15,0.11 0.12,0.12 0.24,0 0.11,0.16 0.24,0 c 1.05,0.23 5.04,0.23 7.54,0.23 12.07,0 17.34,-0.51 17.34,-10.43 0,-1.95 -0.47,-6.95 -0.98,-10.31 -0.11,-0.51 -0.35,-2.07 -0.35,-2.46 0,-0.78 0.35,-1.68 1.45,-1.68 1.32,0 1.56,1.17 1.79,2.97 l 3.25,22.3 c 0.11,0.51 0.23,1.8 0.23,2.19 0,1.4 -1.21,1.4 -3.24,1.4 l -66.06,0 c -2.85,0 -2.97,-0.11 -3.82,-2.57 l -7.04,-22.54 c -0.11,-0.28 -0.74,-2.07 -0.74,-2.35 0,-0.74 0.63,-1.4 1.33,-1.4 1.33,0 1.33,0.66 2.03,2.69 6.49,19.89 9.57,22.19 27.15,22.19 l 4.69,0 c 3.36,0 3.36,-0.51 3.36,-1.52 0,-0.78 -0.39,-2.35 -0.51,-2.74 l -15.9,-68.32 c -1.09,-4.76 -1.45,-6.17 -14.22,-6.17 -4.33,0 -4.92,0 -4.92,-2.46 0,-1.56 1.21,-1.56 1.91,-1.56 3.25,0 6.57,0.39 9.81,0.39 3.36,0 6.83,0.11 10.15,0.11 3.25,0 6.61,-0.11 9.85,-0.11 3.44,0 7.03,-0.39 10.39,-0.39 1.21,0 2.62,0 2.62,2.58 0,1.44 -0.94,1.44 -4.07,1.44 -2.97,0 -4.53,0 -7.65,0.23 -3.48,0.4 -4.42,0.79 -4.42,2.86 0,0.11 0,0.78 0.47,2.69 l 15.78,68.09 z"
           inkscape:connector-curvature="0" />
        <path
           id="path3051"
           style="fill:#000000;fill-opacity:1;fill-rule:nonzero;stroke:none"
           d="m 2324.26,2425.25 -0.24,-0.12 -0.11,0 -0.24,-0.12 -0.12,0 -0.23,-0.15 -0.12,-0.12 -0.23,-0.12 -0.16,0 -0.11,-0.15 -0.24,-0.12 -0.12,-0.12 -0.11,-0.15 -0.35,-0.36 -0.12,-0.15 -0.24,-0.24 -0.11,-0.27 -0.12,-0.12 0,-0.15 -0.24,-0.24 0,-0.27 -0.15,-0.12 0,-0.39 -0.12,-0.12 0,-0.66 c 0,-2.07 1.68,-2.81 2.77,-2.81 0.83,0 3.95,0.5 3.95,5 0,5.82 -5.98,7.89 -11.02,7.89 -13.04,0 -15.43,-10.31 -15.43,-13.17 0,-3.36 1.8,-5.43 3.01,-6.56 2.15,-1.68 3.56,-2.07 9.34,-3.24 1.76,-0.24 7.15,-1.41 7.15,-5.78 0,-1.56 -0.94,-5.04 -4.42,-7.23 -3.24,-1.95 -7.42,-1.95 -8.36,-1.95 -3.36,0 -8.04,0.78 -9.96,3.75 2.78,0.39 4.57,2.58 4.57,5.15 0,2.19 -1.56,3.25 -3.24,3.25 -2.38,0 -4.92,-2.07 -4.92,-5.94 0,-5.43 5.39,-8.79 13.4,-8.79 15.47,0 18.2,11.37 18.2,14.84 0,8.25 -8.36,9.81 -11.48,10.43 -0.71,0.28 -2.74,0.51 -3.36,0.78 -2.97,0.67 -4.53,2.47 -4.53,4.54 0,2.03 1.56,4.37 3.35,5.66 2.27,1.52 5.12,1.68 6.57,1.68 1.68,0 6.09,-0.27 7.89,-3.24 z"
           inkscape:connector-curvature="0" />
        <path
           id="path3053"
           style="fill:none;stroke:#000000;stroke-width:8.03028011;stroke-linecap:butt;stroke-linejoin:miter;stroke-miterlimit:4;stroke-opacity:1;stroke-dasharray:32.1211, 32.1211;stroke-dashoffset:0"
           d="m 2399.06,2212.36 0.51,-1831.137"
           inkscape:connector-curvature="0" />
        <path
           id="path3055"
           style="fill:none;stroke:#000000;stroke-width:8.02978992;stroke-linecap:butt;stroke-linejoin:miter;stroke-miterlimit:4;stroke-opacity:1;stroke-dasharray:32.1192, 32.1192;stroke-dashoffset:0"
           d="m 1539.61,2212.51 0.47,-1839.651"
           inkscape:connector-curvature="0" />
      </g>
    </g>
    <path
       transform="matrix(0.4956665,0,0,0.52491264,177.8088,280.48987)"
       d="m 315.71428,358.07648 a 6.0714288,5.7142859 0 1 1 -12.14286,0 6.0714288,5.7142859 0 1 1 12.14286,0 z"
       sodipodi:ry="5.7142859"
       sodipodi:rx="6.0714288"
       sodipodi:cy="358.07648"
       sodipodi:cx="309.64285"
       id="path3099-6-1-9-7-8"
       style="fill:#0000ff"
       sodipodi:type="arc" />
    <g
       style="font-style:normal;font-variant:normal;font-weight:normal;font-stretch:normal;letter-spacing:normal;word-spacing:normal;text-anchor:start;fill:none;stroke:#000000;stroke-linecap:butt;stroke-linejoin:miter;stroke-miterlimit:10.43299961;stroke-opacity:1;stroke-dasharray:none;stroke-dashoffset:0"
       ns0:preamble=""
       ns0:text="$\\hat{\\omega}_x$"
       word-spacing="normal"
       letter-spacing="normal"
       font-size-adjust="none"
       font-stretch="normal"
       font-weight="normal"
       font-variant="normal"
       font-style="normal"
       stroke-miterlimit="10.433"
       xml:space="preserve"
       transform="matrix(2.3941453,0,0,-2.4829072,-258.09031,2263.3582)"
       id="content-7-5"><polygon
         style="fill:#000000;stroke-width:0"
         id="polygon2991-6"
         points="226.71,714.02 225.38,712.67 225.55,712.49 226.71,713.5 227.85,712.49 228.03,712.67 " /><path
         style="fill:#000000;stroke-width:0"
         inkscape:connector-curvature="0"
         id="path2993-1"
         d="m 229.45,710.82 0,0.04 0,0.04 0,0.04 -0.01,0.04 0,0.03 -0.01,0.04 0,0.03 -0.01,0.04 -0.01,0.03 -0.01,0.03 -0.01,0.03 -0.01,0.03 -0.01,0.02 -0.01,0.03 -0.01,0.02 -0.02,0.03 -0.01,0.02 -0.01,0.02 -0.02,0.02 -0.01,0.01 -0.02,0.02 -0.02,0.01 -0.01,0.02 -0.02,0.01 -0.02,0.01 -0.02,0.01 -0.02,0.01 -0.02,0 -0.02,0.01 -0.02,0 -0.02,0.01 -0.02,0 c -0.26,0 -0.52,-0.24 -0.52,-0.47 0,-0.1 0.05,-0.21 0.15,-0.3 0.16,-0.15 0.34,-0.42 0.34,-0.83 0,-0.4 -0.19,-0.97 -0.49,-1.42 -0.3,-0.43 -0.67,-0.77 -1.14,-0.77 -0.57,0 -0.87,0.36 -0.96,0.89 0.11,0.26 0.33,0.9 0.33,1.18 0,0.12 -0.05,0.22 -0.17,0.22 -0.08,0 -0.19,-0.02 -0.27,-0.17 -0.11,-0.2 -0.23,-0.85 -0.23,-1.2 -0.33,-0.47 -0.73,-0.92 -1.35,-0.92 -0.66,0 -0.87,0.59 -0.87,1.14 0,1.24 1.01,2.29 1.01,2.42 0,0.11 -0.08,0.19 -0.18,0.19 -0.13,0 -0.2,-0.13 -0.26,-0.22 -0.51,-0.74 -0.89,-1.92 -0.89,-2.82 0,-0.69 0.23,-1.42 1.05,-1.42 0.7,0 1.17,0.49 1.53,1.04 0.09,-0.58 0.48,-1.04 1.09,-1.04 0.78,0 1.26,0.6 1.61,1.35 0.24,0.48 0.62,1.83 0.62,2.45 z" /><path
         style="fill:#000000;stroke-width:0"
         inkscape:connector-curvature="0"
         id="path2995-9"
         d="m 231.37,706.37 -0.01,-0.02 -0.01,-0.03 -0.01,-0.02 -0.01,-0.03 -0.01,-0.02 -0.01,-0.03 -0.01,-0.02 -0.01,-0.03 -0.02,-0.02 -0.01,-0.03 -0.02,-0.02 -0.02,-0.03 -0.01,-0.02 -0.02,-0.03 -0.02,-0.02 -0.02,-0.03 -0.02,-0.02 -0.03,-0.02 -0.02,-0.02 -0.02,-0.02 -0.03,-0.02 -0.02,-0.02 -0.03,-0.02 -0.02,-0.01 -0.03,-0.02 -0.03,-0.01 -0.03,-0.01 -0.03,-0.01 -0.03,0 -0.03,-0.01 -0.03,0 -0.04,0 c -0.02,0 -0.23,0 -0.37,0.09 0.28,0.09 0.3,0.34 0.3,0.39 0,0.15 -0.12,0.25 -0.28,0.25 -0.19,0 -0.39,-0.16 -0.39,-0.42 0,-0.35 0.39,-0.51 0.73,-0.51 0.32,0 0.6,0.2 0.78,0.49 0.17,-0.36 0.55,-0.49 0.83,-0.49 0.8,0 1.22,0.87 1.22,1.06 0,0.1 -0.09,0.1 -0.11,0.1 -0.1,0 -0.1,-0.04 -0.13,-0.12 -0.15,-0.48 -0.56,-0.84 -0.95,-0.84 -0.28,0 -0.43,0.18 -0.43,0.45 0,0.18 0.17,0.81 0.36,1.58 0.14,0.54 0.46,0.71 0.69,0.71 0.01,0 0.22,0 0.37,-0.09 -0.22,-0.07 -0.31,-0.26 -0.31,-0.39 0,-0.15 0.12,-0.25 0.28,-0.25 0.16,0 0.39,0.13 0.39,0.42 0,0.39 -0.44,0.51 -0.72,0.51 -0.35,0 -0.63,-0.23 -0.78,-0.5 -0.13,0.29 -0.45,0.5 -0.84,0.5 -0.78,0 -1.22,-0.86 -1.22,-1.07 0,-0.09 0.1,-0.09 0.12,-0.09 0.09,0 0.09,0.03 0.13,0.12 0.17,0.54 0.61,0.84 0.95,0.84 0.23,0 0.42,-0.12 0.42,-0.46 0,-0.13 -0.08,-0.48 -0.15,-0.72 z" /></g>    <path
       style="fill:none;stroke:#000000;stroke-width:1px;stroke-linecap:butt;stroke-linejoin:miter;stroke-opacity:1;marker-end:url(#Arrow2Mend-4)"
       d="m 299.57398,493.23672 26.42857,-20.71429"
       id="path3952-2"
       inkscape:path-effect="#path-effect3954-3"
       inkscape:original-d="m 299.57398,493.23672 c 27.14285,-22.14286 26.42857,-20.71429 26.42857,-20.71429"
       inkscape:connector-curvature="0" />
  </g>
</svg>
