<?xml version="1.0" encoding="UTF-8" standalone="no"?>
<!-- Created with Inkscape (http://www.inkscape.org/) -->

<svg
   xmlns:ns0="http://www.iki.fi/pav/software/textext/"
   xmlns:dc="http://purl.org/dc/elements/1.1/"
   xmlns:cc="http://creativecommons.org/ns#"
   xmlns:rdf="http://www.w3.org/1999/02/22-rdf-syntax-ns#"
   xmlns:svg="http://www.w3.org/2000/svg"
   xmlns="http://www.w3.org/2000/svg"
   xmlns:sodipodi="http://sodipodi.sourceforge.net/DTD/sodipodi-0.dtd"
   xmlns:inkscape="http://www.inkscape.org/namespaces/inkscape"
   width="210mm"
   height="297mm"
   id="svg2"
   version="1.1"
   inkscape:version="0.48.4 r9939"
   sodipodi:docname="check.eps">
  <defs
     id="defs4" />
  <sodipodi:namedview
     id="base"
     pagecolor="#ffffff"
     bordercolor="#666666"
     borderopacity="1.0"
     inkscape:pageopacity="0.0"
     inkscape:pageshadow="2"
     inkscape:zoom="0.98994949"
     inkscape:cx="263.73489"
     inkscape:cy="406.96662"
     inkscape:document-units="px"
     inkscape:current-layer="layer1"
     showgrid="false"
     inkscape:window-width="1847"
     inkscape:window-height="1056"
     inkscape:window-x="73"
     inkscape:window-y="24"
     inkscape:window-maximized="1" />
  <metadata
     id="metadata7">
    <rdf:RDF>
      <cc:Work
         rdf:about="">
        <dc:format>image/svg+xml</dc:format>
        <dc:type
           rdf:resource="http://purl.org/dc/dcmitype/StillImage" />
        <dc:title></dc:title>
      </cc:Work>
    </rdf:RDF>
  </metadata>
  <g
     inkscape:label="レイヤー 1"
     inkscape:groupmode="layer"
     id="layer1">
    <g
       transform="matrix(1.25,0,0,-1.25,108.4924,650.05871)"
       inkscape:label="ink_ext_XXXXXX"
       id="g2993">
      <g
         transform="scale(0.1,0.1)"
         id="g2995">
        <path
           id="path2997"
           style="fill:none;stroke:#000000;stroke-width:5;stroke-linecap:butt;stroke-linejoin:miter;stroke-miterlimit:3.79999995;stroke-opacity:1;stroke-dasharray:none"
           d="m 189,434 31.5,0"
           inkscape:connector-curvature="0" />
        <g
           transform="scale(10,10)"
           id="g2999">
          <text
             id="text3001"
             transform="matrix(1,0,0,-1,1.78867,38.2352)">
            <tspan
               id="tspan3003"
               sodipodi:role="line"
               y="0"
               x="0 5.1615"
               style="font-size:15.5px;font-variant:normal;font-weight:normal;writing-mode:lr-tb;fill:#000000;fill-opacity:1;fill-rule:nonzero;stroke:none;font-family:Times New Roman;-inkscape-font-specification:Times New">-8</tspan>
          </text>
        </g>
        <path
           id="path3005"
           style="fill:none;stroke:#000000;stroke-width:5;stroke-linecap:butt;stroke-linejoin:miter;stroke-miterlimit:3.79999995;stroke-opacity:1;stroke-dasharray:none"
           d="m 189,652.5 31.5,0"
           inkscape:connector-curvature="0" />
        <g
           transform="scale(10,10)"
           id="g3007">
          <text
             id="text3009"
             transform="matrix(1,0,0,-1,1.78867,60.0852)">
            <tspan
               id="tspan3011"
               sodipodi:role="line"
               y="0"
               x="0 5.1615"
               style="font-size:15.5px;font-variant:normal;font-weight:normal;writing-mode:lr-tb;fill:#000000;fill-opacity:1;fill-rule:nonzero;stroke:none;font-family:Times New Roman;-inkscape-font-specification:Times New">-6</tspan>
          </text>
        </g>
        <path
           id="path3013"
           style="fill:none;stroke:#000000;stroke-width:5;stroke-linecap:butt;stroke-linejoin:miter;stroke-miterlimit:3.79999995;stroke-opacity:1;stroke-dasharray:none"
           d="m 189,871.5 31.5,0"
           inkscape:connector-curvature="0" />
        <g
           transform="scale(10,10)"
           id="g3015">
          <text
             id="text3017"
             transform="matrix(1,0,0,-1,1.78867,81.9852)">
            <tspan
               id="tspan3019"
               sodipodi:role="line"
               y="0"
               x="0 5.1615"
               style="font-size:15.5px;font-variant:normal;font-weight:normal;writing-mode:lr-tb;fill:#000000;fill-opacity:1;fill-rule:nonzero;stroke:none;font-family:Times New Roman;-inkscape-font-specification:Times New">-4</tspan>
          </text>
        </g>
        <path
           id="path3021"
           style="fill:none;stroke:#000000;stroke-width:5;stroke-linecap:butt;stroke-linejoin:miter;stroke-miterlimit:3.79999995;stroke-opacity:1;stroke-dasharray:none"
           d="m 189,1090 31.5,0"
           inkscape:connector-curvature="0" />
        <g
           transform="scale(10,10)"
           id="g3023">
          <text
             id="text3025"
             transform="matrix(1,0,0,-1,1.78867,103.835)">
            <tspan
               id="tspan3027"
               sodipodi:role="line"
               y="0"
               x="0 5.1615"
               style="font-size:15.5px;font-variant:normal;font-weight:normal;writing-mode:lr-tb;fill:#000000;fill-opacity:1;fill-rule:nonzero;stroke:none;font-family:Times New Roman;-inkscape-font-specification:Times New">-2</tspan>
          </text>
        </g>
        <path
           id="path3029"
           style="fill:none;stroke:#000000;stroke-width:5;stroke-linecap:butt;stroke-linejoin:miter;stroke-miterlimit:3.79999995;stroke-opacity:1;stroke-dasharray:none"
           d="m 189,1309 31.5,0"
           inkscape:connector-curvature="0" />
        <g
           transform="scale(10,10)"
           id="g3031">
          <text
             id="text3033"
             transform="matrix(1,0,0,-1,6.95,125.735)">
            <tspan
               id="tspan3035"
               y="0"
               x="0"
               style="font-size:15.5px;font-variant:normal;font-weight:normal;writing-mode:lr-tb;fill:#000000;fill-opacity:1;fill-rule:nonzero;stroke:none;font-family:Times New Roman;-inkscape-font-specification:Times New">0</tspan>
          </text>
        </g>
        <path
           id="path3037"
           style="fill:none;stroke:#000000;stroke-width:5;stroke-linecap:butt;stroke-linejoin:miter;stroke-miterlimit:3.79999995;stroke-opacity:1;stroke-dasharray:none"
           d="m 189,1527.5 31.5,0"
           inkscape:connector-curvature="0" />
        <g
           transform="scale(10,10)"
           id="g3039">
          <text
             id="text3041"
             transform="matrix(1,0,0,-1,6.95,147.585)">
            <tspan
               id="tspan3043"
               y="0"
               x="0"
               style="font-size:15.5px;font-variant:normal;font-weight:normal;writing-mode:lr-tb;fill:#000000;fill-opacity:1;fill-rule:nonzero;stroke:none;font-family:Times New Roman;-inkscape-font-specification:Times New">2</tspan>
          </text>
        </g>
        <path
           id="path3045"
           style="fill:none;stroke:#000000;stroke-width:5;stroke-linecap:butt;stroke-linejoin:miter;stroke-miterlimit:3.79999995;stroke-opacity:1;stroke-dasharray:none"
           d="m 189,1746 31.5,0"
           inkscape:connector-curvature="0" />
        <g
           transform="scale(10,10)"
           id="g3047">
          <text
             id="text3049"
             transform="matrix(1,0,0,-1,6.95,169.435)">
            <tspan
               id="tspan3051"
               y="0"
               x="0"
               style="font-size:15.5px;font-variant:normal;font-weight:normal;writing-mode:lr-tb;fill:#000000;fill-opacity:1;fill-rule:nonzero;stroke:none;font-family:Times New Roman;-inkscape-font-specification:Times New">4</tspan>
          </text>
        </g>
        <path
           id="path3053"
           style="fill:none;stroke:#000000;stroke-width:5;stroke-linecap:butt;stroke-linejoin:miter;stroke-miterlimit:3.79999995;stroke-opacity:1;stroke-dasharray:none"
           d="m 189,1965 31.5,0"
           inkscape:connector-curvature="0" />
        <g
           transform="scale(10,10)"
           id="g3055">
          <text
             id="text3057"
             transform="matrix(1,0,0,-1,6.95,191.335)">
            <tspan
               id="tspan3059"
               y="0"
               x="0"
               style="font-size:15.5px;font-variant:normal;font-weight:normal;writing-mode:lr-tb;fill:#000000;fill-opacity:1;fill-rule:nonzero;stroke:none;font-family:Times New Roman;-inkscape-font-specification:Times New">6</tspan>
          </text>
        </g>
        <path
           id="path3061"
           style="fill:none;stroke:#000000;stroke-width:5;stroke-linecap:butt;stroke-linejoin:miter;stroke-miterlimit:3.79999995;stroke-opacity:1;stroke-dasharray:none"
           d="m 189,2183.5 31.5,0"
           inkscape:connector-curvature="0" />
        <g
           transform="scale(10,10)"
           id="g3063">
          <text
             id="text3065"
             transform="matrix(1,0,0,-1,6.95,213.185)">
            <tspan
               id="tspan3067"
               y="0"
               x="0"
               style="font-size:15.5px;font-variant:normal;font-weight:normal;writing-mode:lr-tb;fill:#000000;fill-opacity:1;fill-rule:nonzero;stroke:none;font-family:Times New Roman;-inkscape-font-specification:Times New">8</tspan>
          </text>
        </g>
        <path
           id="path3069"
           style="fill:none;stroke:#000000;stroke-width:5;stroke-linecap:butt;stroke-linejoin:miter;stroke-miterlimit:3.79999995;stroke-opacity:1;stroke-dasharray:none"
           d="m 189,434 0,31.5 m 0,1718 0,-31.5"
           inkscape:connector-curvature="0" />
        <g
           transform="scale(10,10)"
           id="g3071">
          <text
             id="text3073"
             transform="matrix(1,0,0,-1,16.9625,31.2352)">
            <tspan
               id="tspan3075"
               y="0"
               x="0"
               style="font-size:15.5px;font-variant:normal;font-weight:normal;writing-mode:lr-tb;fill:#000000;fill-opacity:1;fill-rule:nonzero;stroke:none;font-family:Times New Roman;-inkscape-font-specification:Times New">0</tspan>
          </text>
        </g>
        <path
           id="path3077"
           style="fill:none;stroke:#000000;stroke-width:5;stroke-linecap:butt;stroke-linejoin:miter;stroke-miterlimit:3.79999995;stroke-opacity:1;stroke-dasharray:none"
           d="m 760.5,434 0,31.5 m 0,1718 0,-31.5"
           inkscape:connector-curvature="0" />
        <g
           transform="scale(10,10)"
           id="g3079">
          <text
             id="text3081"
             transform="matrix(1,0,0,-1,74.1125,31.2352)">
            <tspan
               id="tspan3083"
               y="0"
               x="0"
               style="font-size:15.5px;font-variant:normal;font-weight:normal;writing-mode:lr-tb;fill:#000000;fill-opacity:1;fill-rule:nonzero;stroke:none;font-family:Times New Roman;-inkscape-font-specification:Times New">1</tspan>
          </text>
        </g>
        <path
           id="path3085"
           style="fill:none;stroke:#000000;stroke-width:5;stroke-linecap:butt;stroke-linejoin:miter;stroke-miterlimit:3.79999995;stroke-opacity:1;stroke-dasharray:none"
           d="m 1332.5,434 0,31.5 m 0,1718 0,-31.5"
           inkscape:connector-curvature="0" />
        <g
           transform="scale(10,10)"
           id="g3087">
          <text
             id="text3089"
             transform="matrix(1,0,0,-1,131.313,31.2352)">
            <tspan
               id="tspan3091"
               y="0"
               x="0"
               style="font-size:15.5px;font-variant:normal;font-weight:normal;writing-mode:lr-tb;fill:#000000;fill-opacity:1;fill-rule:nonzero;stroke:none;font-family:Times New Roman;-inkscape-font-specification:Times New">2</tspan>
          </text>
        </g>
        <path
           id="path3093"
           style="fill:none;stroke:#000000;stroke-width:5;stroke-linecap:butt;stroke-linejoin:miter;stroke-miterlimit:3.79999995;stroke-opacity:1;stroke-dasharray:none"
           d="m 1904,434 0,31.5 m 0,1718 0,-31.5"
           inkscape:connector-curvature="0" />
        <g
           transform="scale(10,10)"
           id="g3095">
          <text
             id="text3097"
             transform="matrix(1,0,0,-1,188.463,31.2352)">
            <tspan
               id="tspan3099"
               y="0"
               x="0"
               style="font-size:15.5px;font-variant:normal;font-weight:normal;writing-mode:lr-tb;fill:#000000;fill-opacity:1;fill-rule:nonzero;stroke:none;font-family:Times New Roman;-inkscape-font-specification:Times New">3</tspan>
          </text>
        </g>
        <path
           id="path3101"
           style="fill:none;stroke:#000000;stroke-width:5;stroke-linecap:butt;stroke-linejoin:miter;stroke-miterlimit:3.79999995;stroke-opacity:1;stroke-dasharray:none"
           d="m 2475.5,434 0,31.5 m 0,1718 0,-31.5"
           inkscape:connector-curvature="0" />
        <g
           transform="scale(10,10)"
           id="g3103">
          <text
             id="text3105"
             transform="matrix(1,0,0,-1,245.613,31.2352)">
            <tspan
               id="tspan3107"
               y="0"
               x="0"
               style="font-size:15.5px;font-variant:normal;font-weight:normal;writing-mode:lr-tb;fill:#000000;fill-opacity:1;fill-rule:nonzero;stroke:none;font-family:Times New Roman;-inkscape-font-specification:Times New">4</tspan>
          </text>
        </g>
        <path
           id="path3109"
           style="fill:none;stroke:#000000;stroke-width:5;stroke-linecap:butt;stroke-linejoin:miter;stroke-miterlimit:3.79999995;stroke-opacity:1;stroke-dasharray:none"
           d="m 3047.5,434 0,31.5 m 0,1718 0,-31.5"
           inkscape:connector-curvature="0" />
        <g
           transform="scale(10,10)"
           id="g3111">
          <text
             id="text3113"
             transform="matrix(1,0,0,-1,302.813,31.2352)">
            <tspan
               id="tspan3115"
               y="0"
               x="0"
               style="font-size:15.5px;font-variant:normal;font-weight:normal;writing-mode:lr-tb;fill:#000000;fill-opacity:1;fill-rule:nonzero;stroke:none;font-family:Times New Roman;-inkscape-font-specification:Times New">5</tspan>
          </text>
        </g>
        <path
           id="path3117"
           style="fill:none;stroke:#000000;stroke-width:5;stroke-linecap:butt;stroke-linejoin:miter;stroke-miterlimit:3.79999995;stroke-opacity:1;stroke-dasharray:none"
           d="m 3619,434 0,31.5 m 0,1718 0,-31.5"
           inkscape:connector-curvature="0" />
        <g
           transform="scale(10,10)"
           id="g3119">
          <text
             id="text3121"
             transform="matrix(1,0,0,-1,359.963,31.2352)">
            <tspan
               id="tspan3123"
               y="0"
               x="0"
               style="font-size:15.5px;font-variant:normal;font-weight:normal;writing-mode:lr-tb;fill:#000000;fill-opacity:1;fill-rule:nonzero;stroke:none;font-family:Times New Roman;-inkscape-font-specification:Times New">6</tspan>
          </text>
        </g>
        <path
           id="path3125"
           style="fill:none;stroke:#000000;stroke-width:5;stroke-linecap:butt;stroke-linejoin:miter;stroke-miterlimit:3.79999995;stroke-opacity:1;stroke-dasharray:none"
           d="m 3619,434 -31.5,0"
           inkscape:connector-curvature="0" />
        <g
           transform="scale(10,10)"
           id="g3127">
          <text
             id="text3129"
             transform="matrix(1,0,0,-1,366.1,38.2352)">
            <tspan
               id="tspan3131"
               sodipodi:role="line"
               y="0"
               x="0 7.75 11.625 19.375 27.125"
               style="font-size:15.5px;font-variant:normal;font-weight:normal;writing-mode:lr-tb;fill:#000000;fill-opacity:1;fill-rule:nonzero;stroke:none;font-family:Times New Roman;-inkscape-font-specification:Times New">1.540</tspan>
          </text>
        </g>
        <path
           id="path3133"
           style="fill:none;stroke:#000000;stroke-width:5;stroke-linecap:butt;stroke-linejoin:miter;stroke-miterlimit:3.79999995;stroke-opacity:1;stroke-dasharray:none"
           d="m 3619,725.5 -31.5,0"
           inkscape:connector-curvature="0" />
        <g
           transform="scale(10,10)"
           id="g3135">
          <text
             id="text3137"
             transform="matrix(1,0,0,-1,366.1,67.3852)">
            <tspan
               id="tspan3139"
               sodipodi:role="line"
               y="0"
               x="0 7.75 11.625 19.375 27.125"
               style="font-size:15.5px;font-variant:normal;font-weight:normal;writing-mode:lr-tb;fill:#000000;fill-opacity:1;fill-rule:nonzero;stroke:none;font-family:Times New Roman;-inkscape-font-specification:Times New">1.550</tspan>
          </text>
        </g>
        <path
           id="path3141"
           style="fill:none;stroke:#000000;stroke-width:5;stroke-linecap:butt;stroke-linejoin:miter;stroke-miterlimit:3.79999995;stroke-opacity:1;stroke-dasharray:none"
           d="m 3619,1017 -31.5,0"
           inkscape:connector-curvature="0" />
        <g
           transform="scale(10,10)"
           id="g3143">
          <text
             id="text3145"
             transform="matrix(1,0,0,-1,366.1,96.5352)">
            <tspan
               id="tspan3147"
               sodipodi:role="line"
               y="0"
               x="0 7.75 11.625 19.375 27.125"
               style="font-size:15.5px;font-variant:normal;font-weight:normal;writing-mode:lr-tb;fill:#000000;fill-opacity:1;fill-rule:nonzero;stroke:none;font-family:Times New Roman;-inkscape-font-specification:Times New">1.560</tspan>
          </text>
        </g>
        <path
           id="path3149"
           style="fill:none;stroke:#000000;stroke-width:5;stroke-linecap:butt;stroke-linejoin:miter;stroke-miterlimit:3.79999995;stroke-opacity:1;stroke-dasharray:none"
           d="m 3619,1309 -31.5,0"
           inkscape:connector-curvature="0" />
        <g
           transform="scale(10,10)"
           id="g3151">
          <text
             id="text3153"
             transform="matrix(1,0,0,-1,366.1,125.735)">
            <tspan
               id="tspan3155"
               sodipodi:role="line"
               y="0"
               x="0 7.75 11.625 19.375 27.125"
               style="font-size:15.5px;font-variant:normal;font-weight:normal;writing-mode:lr-tb;fill:#000000;fill-opacity:1;fill-rule:nonzero;stroke:none;font-family:Times New Roman;-inkscape-font-specification:Times New">1.570</tspan>
          </text>
        </g>
        <path
           id="path3157"
           style="fill:none;stroke:#000000;stroke-width:5;stroke-linecap:butt;stroke-linejoin:miter;stroke-miterlimit:3.79999995;stroke-opacity:1;stroke-dasharray:none"
           d="m 3619,1600.5 -31.5,0"
           inkscape:connector-curvature="0" />
        <g
           transform="scale(10,10)"
           id="g3159">
          <text
             id="text3161"
             transform="matrix(1,0,0,-1,366.1,154.885)">
            <tspan
               id="tspan3163"
               sodipodi:role="line"
               y="0"
               x="0 7.75 11.625 19.375 27.125"
               style="font-size:15.5px;font-variant:normal;font-weight:normal;writing-mode:lr-tb;fill:#000000;fill-opacity:1;fill-rule:nonzero;stroke:none;font-family:Times New Roman;-inkscape-font-specification:Times New">1.580</tspan>
          </text>
        </g>
        <path
           id="path3165"
           style="fill:none;stroke:#000000;stroke-width:5;stroke-linecap:butt;stroke-linejoin:miter;stroke-miterlimit:3.79999995;stroke-opacity:1;stroke-dasharray:none"
           d="m 3619,1892 -31.5,0"
           inkscape:connector-curvature="0" />
        <g
           transform="scale(10,10)"
           id="g3167">
          <text
             id="text3169"
             transform="matrix(1,0,0,-1,366.1,184.035)">
            <tspan
               id="tspan3171"
               sodipodi:role="line"
               y="0"
               x="0 7.75 11.625 19.375 27.125"
               style="font-size:15.5px;font-variant:normal;font-weight:normal;writing-mode:lr-tb;fill:#000000;fill-opacity:1;fill-rule:nonzero;stroke:none;font-family:Times New Roman;-inkscape-font-specification:Times New">1.590</tspan>
          </text>
        </g>
        <path
           id="path3173"
           style="fill:none;stroke:#000000;stroke-width:5;stroke-linecap:butt;stroke-linejoin:miter;stroke-miterlimit:3.79999995;stroke-opacity:1;stroke-dasharray:none"
           d="m 3619,2183.5 -31.5,0"
           inkscape:connector-curvature="0" />
        <g
           transform="scale(10,10)"
           id="g3175">
          <text
             id="text3177"
             transform="matrix(1,0,0,-1,366.1,213.185)">
            <tspan
               id="tspan3179"
               sodipodi:role="line"
               y="0"
               x="0 7.75 11.625 19.375 27.125"
               style="font-size:15.5px;font-variant:normal;font-weight:normal;writing-mode:lr-tb;fill:#000000;fill-opacity:1;fill-rule:nonzero;stroke:none;font-family:Times New Roman;-inkscape-font-specification:Times New">1.600</tspan>
          </text>
        </g>
        <path
           id="path3181"
           style="fill:none;stroke:#000000;stroke-width:5;stroke-linecap:butt;stroke-linejoin:miter;stroke-miterlimit:3.79999995;stroke-opacity:1;stroke-dasharray:none"
           d="m 189,434 3430,0 0,1749.5 -3430,0 0,-1749.5 z"
           inkscape:connector-curvature="0" />
        <g
           transform="scale(10,10)"
           id="g3183">
          <text
             id="text3185"
             transform="matrix(0,1,1,0,420.915,59.8227)">
            <tspan
               id="tspan3187"
               sodipodi:role="line"
               y="0"
               x="0 9.4705 15.5 19.809 24.118 36.176998 43.058998 47.368 51.676998 59.426998 67.177002 71.052002 82.242996 89.125 93.433998 101.184 108.066 111.941 117.1025 122.264 129.146 136.896"
               style="font-size:15.5px;font-variant:normal;font-weight:normal;writing-mode:lr-tb;fill:#000000;fill-opacity:1;fill-rule:nonzero;stroke:none;font-family:Times New Roman;-inkscape-font-specification:Times">Estimation Value [rad]</tspan>
          </text>
          <text
             id="text3189"
             transform="matrix(1,0,0,-1,163.927,-0.264844)">
            <tspan
               id="tspan3191"
               sodipodi:role="line"
               y="0"
               x="0 9.4705 13.7795 25.838499 32.720501 36.595501 41.757 47.786499"
               style="font-size:15.5px;font-variant:normal;font-weight:normal;writing-mode:lr-tb;fill:#000000;fill-opacity:1;fill-rule:nonzero;stroke:none;font-family:Times New Roman;-inkscape-font-specification:Times">Time [s]</tspan>
          </text>
          <text
             id="text3193"
             transform="matrix(1,0,0,-1,249.1743,205.41516)">
            <tspan
               id="tspan3195"
               sodipodi:role="line"
               y="0"
               x="0 7.0265002 11.5 14.697 17.893999 26.841 31.947001 35.144001 38.341 44.091 49.841 52.716 61.019001 66.125 69.321999 75.071999"
               style="font-size:11.5px;font-variant:normal;font-weight:normal;writing-mode:lr-tb;fill:#000000;fill-opacity:1;fill-rule:nonzero;stroke:none;font-family:Times New Roman;-inkscape-font-specification:Times">Estimation Value</tspan>
          </text>
        </g>
        <path
           id="path3197"
           style="fill:none;stroke:#ff0000;stroke-width:7.5;stroke-linecap:butt;stroke-linejoin:miter;stroke-miterlimit:3.79999995;stroke-opacity:1;stroke-dasharray:none"
           d="m 3335.5,2092.5 199.5,0 m -3226,-748 6,0 0,-16.5 5.5,0 0,-14 5.5,0 0,-2 6,0 0,29.5 5.5,0 0,22.5 6,0 0,-20.5 5.5,0 0,-22 6,0 0,-1 5.5,0 0,-8.5 5.5,0 0,4.5 6,0 0,36.5 5.5,0 0,17 6,0 0,-29.5 5.5,0 0,-17.5 6,0 0,4 5.5,0 0,-4.5 5.5,0 0,-3.5 6,0 0,-9.5 5.5,0 0,14.5 6,0 0,34 5.5,0 0,-3.5 6,0 0,-35 5.5,0 0,2.5 6,0 0,30 5.5,0 0,-1 5.5,0 0,-23.5 6,0 0,-12.5 5.5,0 0,4 6,0 0,3 5.5,0 0,7.5 6,0 0,15 5.5,0 0,-3.5 5.5,0 0,-16.5 6,0 0,3 5.5,0 0,14.5 6,0 0,-5 5.5,0 0,-6.5 6,0 0,3 5.5,0 0,-6 5.5,0 0,4 6,0 0,6 5.5,0 0,-5 6,0 0,1.5 5.5,0 0,-4.5 6,0 0,-12.5 5.5,0 0,5.5 5.5,0 0,16 11.5,0 0,-0.5 6,0 0,5 5.5,0 0,-11.5 6,0"
           inkscape:connector-curvature="0" />
        <path
           id="path3199"
           style="fill:none;stroke:#ff0000;stroke-width:7.5;stroke-linecap:butt;stroke-linejoin:miter;stroke-miterlimit:3.79999995;stroke-opacity:1;stroke-dasharray:none"
           d="m 606.5,1331.5 0,-10 5.5,0 0,0.5 6,0 0,1.5 5.5,0 0,11 5.5,0 0,5.5 6,0 0,-3.5 5.5,0 0,3 6,0 0,3 5.5,0 0,-14 6,0 0,-13 5.5,0 0,15 5.5,0 0,17 6,0 0,-16 5.5,0 0,-11.5 6,0 0,10 11.5,0 0,3 5.5,0 0,8.5 5.5,0 0,-2 6,0 0,-12.5 5.5,0 0,-9 6,0 0,10 5.5,0 0,14 6,0 0,2.5 5.5,0 0,-11.5 5.5,0 0,-14.5 6,0 0,-1.5 5.5,0 0,16 6,0 0,13.5 5.5,0 0,-5.5 6,0 0,-12 5.5,0 0,-8 6,0 0,4 5.5,0 0,9 5.5,0 0,5 6,0 0,-1 5.5,0 0,-9 11.5,0 0,9 6,0 0,1 5.5,0 0,-5 5.5,0 0,-9 6,0 0,-4 5.5,0 0,8 6,0 0,12 5.5,0 0,5.5 6,0 0,-13.5 5.5,0 0,-16 5.5,0 0,1.5 6,0 0,14.5 5.5,0 0,11.5 6,0 0,-2.5 5.5,0 0,-14 6,0"
           inkscape:connector-curvature="0" />
        <path
           id="path3201"
           style="fill:none;stroke:#ff0000;stroke-width:7.5;stroke-linecap:butt;stroke-linejoin:miter;stroke-miterlimit:3.79999995;stroke-opacity:1;stroke-dasharray:none"
           d="m 909.5,1328 0,-10 5.5,0 0,9 5.5,0 0,12.5 6,0 0,2 5.5,0 0,-8.5 6,0 0,-3 11.5,0 0,-10 5.5,0 0,11.5 6,0 0,16 5.5,0 0,-17 5.5,0 0,-15 6,0 0,13 5.5,0 0,14 6,0 0,-3 5.5,0 0,-3 6,0 0,3.5 5.5,0 0,-5.5 5.5,0 0,-11 6,0 0,-1.5 5.5,0 0,-0.5 6,0 0,10 5.5,0 0,11.5 6,0 0,-5 5.5,0 0,0.5 11.5,0 0,-16 5.5,0 0,-5.5 6,0 0,12.5 5.5,0 0,4.5 6,0 0,-1.5 5.5,0 0,5 5.5,0 0,-6 6,0 0,-4 5.5,0 0,6 6,0 0,-3 5.5,0 0,6.5 6,0 0,5 5.5,0 0,-14.5 6,0 0,-3 5.5,0 0,16.5 5.5,0 0,3.5 6,0 0,-15 5.5,0 0,-7.5 6,0 0,-3 5.5,0 0,-4 6,0 0,12.5 5.5,0 0,23.5 5.5,0 0,1 6,0 0,-30 5.5,0 0,-2.5 6,0 0,35 5.5,0 0,3.5 6,0"
           inkscape:connector-curvature="0" />
        <path
           id="path3203"
           style="fill:none;stroke:#ff0000;stroke-width:7.5;stroke-linecap:butt;stroke-linejoin:miter;stroke-miterlimit:3.79999995;stroke-opacity:1;stroke-dasharray:none"
           d="m 1212.5,1358 0,-34 5.5,0 0,-14.5 5.5,0 0,9.5 6,0 0,3.5 5.5,0 0,4.5 6,0 0,-4 5.5,0 0,17.5 6,0 0,29.5 5.5,0 0,-17 5.5,0 0,-36.5 6,0 0,-4.5 5.5,0 0,8.5 6,0 0,1 5.5,0 0,22 6,0 0,20.5 5.5,0 0,-22.5 6,0 0,-29.5 5.5,0 0,2 5.5,0 0,14 6,0 0,16.5 5.5,0 0,-14.5 6,0 0,-14 5.5,0 0,20 6,0 0,-22.5 5.5,0 0,-54.5 5.5,0 0,59.5 6,0 0,166 5.5,0 0,-53 6,0 0,-171.5 5.5,0 0,-123.5 6,0 0,-290.5 11,0 0,290.5 6,0 0,123.5 5.5,0 0,171.5 6,0 0,53 5.5,0 0,-166 6,0 0,-59.5 5.5,0 0,54.5 5.5,0 0,22.5 6,0 0,-20 5.5,0 0,14 6,0 0,14.5 5.5,0 0,-16.5 6,0 0,-14 5.5,0 0,-2 6,0 0,29.5 5.5,0 0,22.5 5.5,0 0,-20.5 6,0 0,-22 5.5,0 0,-1 6,0 0,-8.5 5.5,0 0,4.5"
           inkscape:connector-curvature="0" />
        <path
           id="path3205"
           style="fill:none;stroke:#ff0000;stroke-width:7.5;stroke-linecap:butt;stroke-linejoin:miter;stroke-miterlimit:3.79999995;stroke-opacity:1;stroke-dasharray:none"
           d="m 1509.5,1316.5 6,0 0,36.5 5.5,0 0,17 5.5,0 0,-29.5 6,0 0,-17.5 5.5,0 0,4 6,0 0,-4.5 5.5,0 0,-3.5 6,0 0,-9.5 5.5,0 0,14.5 5.5,0 0,34 6,0 0,-3.5 5.5,0 0,-35 6,0 0,2.5 5.5,0 0,30 6,0 0,-1 5.5,0 0,-23.5 5.5,0 0,-12.5 6,0 0,4 5.5,0 0,3 6,0 0,7.5 5.5,0 0,15 6,0 0,-3.5 5.5,0 0,-16.5 5.5,0 0,3 6,0 0,14.5 5.5,0 0,-5 6,0 0,-6.5 5.5,0 0,3 6,0 0,-6 5.5,0 0,4 6,0 0,6 5.5,0 0,-5 5.5,0 0,1.5 6,0 0,-4.5 5.5,0 0,-12.5 6,0 0,5.5 5.5,0 0,16 11.5,0 0,-0.5 5.5,0 0,5 6,0 0,-11.5 5.5,0 0,-10 6,0 0,0.5 5.5,0 0,1.5 6,0 0,11 5.5,0 0,5.5 5.5,0 0,-3.5 6,0 0,3 5.5,0 0,3 6,0 0,-14 5.5,0 0,-13 6,0 0,15 5.5,0"
           inkscape:connector-curvature="0" />
        <path
           id="path3207"
           style="fill:none;stroke:#ff0000;stroke-width:7.5;stroke-linecap:butt;stroke-linejoin:miter;stroke-miterlimit:3.79999995;stroke-opacity:1;stroke-dasharray:none"
           d="m 1812.5,1330.5 0,17 6,0 0,-16 5.5,0 0,-11.5 5.5,0 0,10 11.5,0 0,3 6,0 0,8.5 5.5,0 0,-2 6,0 0,-12.5 5.5,0 0,-9 5.5,0 0,10 6,0 0,14 5.5,0 0,2.5 6,0 0,-11.5 5.5,0 0,-14.5 6,0 0,-1.5 5.5,0 0,16 5.5,0 0,13.5 6,0 0,-5.5 5.5,0 0,-12 6,0 0,-8 5.5,0 0,4 6,0 0,9 5.5,0 0,5 5.5,0 0,-1 6,0 0,-9 11.5,0 0,9 5.5,0 0,1 6,0 0,-5 5.5,0 0,-9 5.5,0 0,-4 6,0 0,8 5.5,0 0,12 6,0 0,5.5 5.5,0 0,-13.5 6,0 0,-16 5.5,0 0,1.5 6,0 0,14.5 5.5,0 0,11.5 5.5,0 0,-2.5 6,0 0,-14 5.5,0 0,-10 6,0 0,9 5.5,0 0,12.5 6,0 0,2 5.5,0 0,-8.5 5.5,0 0,-3 11.5,0 0,-10 6,0 0,11.5 5.5,0 0,16 6,0 0,-17 5.5,0 0,-15"
           inkscape:connector-curvature="0" />
        <path
           id="path3209"
           style="fill:none;stroke:#ff0000;stroke-width:7.5;stroke-linecap:butt;stroke-linejoin:miter;stroke-miterlimit:3.79999995;stroke-opacity:1;stroke-dasharray:none"
           d="m 2115.5,1315.5 5.5,0 0,13 6,0 0,14 5.5,0 0,-3 6,0 0,-3 5.5,0 0,3.5 6,0 0,-5.5 5.5,0 0,-11 6,0 0,-1.5 5.5,0 0,-0.5 5.5,0 0,10 6,0 0,11.5 5.5,0 0,-5 6,0 0,0.5 11.5,0 0,-16 5.5,0 0,-5.5 5.5,0 0,12.5 6,0 0,4.5 5.5,0 0,-1.5 6,0 0,5 5.5,0 0,-6 6,0 0,-4 5.5,0 0,6 5.5,0 0,-3 6,0 0,6.5 5.5,0 0,5 6,0 0,-14.5 5.5,0 0,-3 6,0 0,16.5 5.5,0 0,3.5 5.5,0 0,-15 6,0 0,-7.5 5.5,0 0,-3 6,0 0,-4 5.5,0 0,12.5 6,0 0,23.5 5.5,0 0,1 6,0 0,-30 5.5,0 0,-2.5 5.5,0 0,35 6,0 0,3.5 5.5,0 0,-34 6,0 0,-14.5 5.5,0 0,9.5 6,0 0,3.5 5.5,0 0,4.5 5.5,0 0,-4 6,0 0,17.5 5.5,0 0,29.5 6,0 0,-17 5.5,0 0,-36.5 6,0 0,-4.5 5.5,0"
           inkscape:connector-curvature="0" />
        <path
           id="path3211"
           style="fill:none;stroke:#ff0000;stroke-width:7.5;stroke-linecap:butt;stroke-linejoin:miter;stroke-miterlimit:3.79999995;stroke-opacity:1;stroke-dasharray:none"
           d="m 2418.5,1312 0,8.5 5.5,0 0,1 6,0 0,22 5.5,0 0,20.5 6,0 0,-22.5 5.5,0 0,-29.5 6,0 0,2 5.5,0 0,14 5.5,0 0,16.5 6,0 0,-14.5 5.5,0 0,-14 6,0 0,20 5.5,0 0,-22.5 6,0 0,-54.5 5.5,0 0,59.5 5.5,0 0,166 6,0 0,-53 5.5,0 0,-171.5 6,0 0,-123.5 5.5,0 0,-290.5 11.5,0 0,290.5 6,0 0,123.5 5.5,0 0,171.5 5.5,0 0,53 6,0 0,-166 5.5,0 0,-59.5 6,0 0,54.5 5.5,0 0,22.5 6,0 0,-20 5.5,0 0,14 5.5,0 0,14.5 6,0 0,-16.5 5.5,0 0,-14 6,0 0,-2 5.5,0 0,29.5 6,0 0,22.5 5.5,0 0,-20.5 5.5,0 0,-22 6,0 0,-1 5.5,0 0,-8.5 6,0 0,4.5 5.5,0 0,36.5 6,0 0,17 5.5,0 0,-29.5 5.5,0 0,-17.5 6,0 0,4 5.5,0 0,-4.5 6,0 0,-3.5 5.5,0 0,-9.5 6,0 0,14.5 5.5,0 0,34 6,0 0,-3.5"
           inkscape:connector-curvature="0" />
        <path
           id="path3213"
           style="fill:none;stroke:#ff0000;stroke-width:7.5;stroke-linecap:butt;stroke-linejoin:miter;stroke-miterlimit:3.79999995;stroke-opacity:1;stroke-dasharray:none"
           d="m 2716,1354.5 5.5,0 0,-35 5.5,0 0,2.5 6,0 0,30 5.5,0 0,-1 6,0 0,-23.5 5.5,0 0,-12.5 6,0 0,4 5.5,0 0,3 5.5,0 0,7.5 6,0 0,15 5.5,0 0,-3.5 6,0 0,-16.5 5.5,0 0,3 6,0 0,14.5 5.5,0 0,-5 5.5,0 0,-6.5 6,0 0,3 5.5,0 0,-6 6,0 0,4 5.5,0 0,6 6,0 0,-5 5.5,0 0,1.5 6,0 0,-4.5 5.5,0 0,-12.5 5.5,0 0,5.5 6,0 0,16 11.5,0 0,-0.5 5.5,0 0,5 6,0 0,-11.5 5.5,0 0,-10 5.5,0 0,0.5 6,0 0,1.5 5.5,0 0,11 6,0 0,5.5 5.5,0 0,-3.5 6,0 0,3 5.5,0 0,3 5.5,0 0,-14 6,0 0,-13 5.5,0 0,15 6,0 0,17 5.5,0 0,-16 6,0 0,-11.5 5.5,0 0,10 11.5,0 0,3 5.5,0 0,8.5 6,0 0,-2 5.5,0 0,-12.5 6,0 0,-9 5.5,0 0,10 6,0 0,14"
           inkscape:connector-curvature="0" />
        <path
           id="path3215"
           style="fill:none;stroke:#ff0000;stroke-width:7.5;stroke-linecap:butt;stroke-linejoin:miter;stroke-miterlimit:3.79999995;stroke-opacity:1;stroke-dasharray:none"
           d="m 3019,1342 5.5,0 0,2.5 5.5,0 0,-11.5 6,0 0,-14.5 5.5,0 0,-1.5 6,0 0,16 5.5,0 0,13.5 6,0 0,-5.5 5.5,0 0,-12 5.5,0 0,-8 6,0 0,4 5.5,0 0,9 6,0 0,5 5.5,0 0,-1 6,0 0,-9 11,0 0,9 6,0 0,1 5.5,0 0,-5 6,0 0,-9 5.5,0 0,-4 6,0 0,8 5.5,0 0,12 5.5,0 0,5.5 6,0 0,-13.5 5.5,0 0,-16 6,0 0,1.5 5.5,0 0,14.5 6,0 0,11.5 5.5,0 0,-2.5 6,0 0,-14 5.5,0 0,-10 5.5,0 0,9 6,0 0,12.5 5.5,0 0,2 6,0 0,-8.5 5.5,0 0,-3 11.5,0 0,-10 5.5,0 0,11.5 6,0 0,16 5.5,0 0,-17 6,0 0,-15 5.5,0 0,13 6,0 0,14 5.5,0 0,-3 5.5,0 0,-3 6,0 0,3.5 5.5,0 0,-5.5 6,0 0,-11 5.5,0 0,-1.5 6,0 0,-0.5 5.5,0 0,10 5.5,0 0,11.5"
           inkscape:connector-curvature="0" />
        <path
           id="path3217"
           style="fill:none;stroke:#ff0000;stroke-width:7.5;stroke-linecap:butt;stroke-linejoin:miter;stroke-miterlimit:3.79999995;stroke-opacity:1;stroke-dasharray:none"
           d="m 3321.5,1343 6,0 0,-5 5.5,0 0,0.5 11.5,0 0,-16 6,0 0,-5.5 5.5,0 0,12.5 5.5,0 0,4.5 6,0 0,-1.5 5.5,0 0,5 6,0 0,-6 5.5,0 0,-4 6,0 0,6 5.5,0 0,-3 6,0 0,6.5 5.5,0 0,5 5.5,0 0,-14.5 6,0 0,-3 5.5,0 0,16.5 6,0 0,3.5 5.5,0 0,-15 6,0 0,-7.5 5.5,0 0,-3 5.5,0 0,-4 6,0 0,12.5 5.5,0 0,23.5 6,0 0,1 5.5,0 0,-30 6,0 0,-2.5 5.5,0 0,35 5.5,0 0,3.5 6,0 0,-34 5.5,0 0,-14.5 6,0 0,9.5 5.5,0 0,3.5 6,0 0,4.5 5.5,0 0,-4 5.5,0 0,17.5 6,0 0,29.5 5.5,0 0,-17 6,0 0,-36.5 5.5,0 0,-4.5 6,0 0,8.5 5.5,0 0,1 6,0 0,22 5.5,0 0,20.5 5.5,0 0,-22.5 6,0 0,-29.5 5.5,0 0,2 6,0 0,14 5.5,0 0,16.5 6,0 0,-14.5 5.5,0 0,-14"
           inkscape:connector-curvature="0" />
        <g
           transform="scale(10,10)"
           id="g3219">
          <text
             id="text3221"
             transform="matrix(1,0,0,-1,325.521,193.515)">
            <tspan
               id="tspan3223"
               y="0"
               x="0"
               style="font-size:11.5px;font-variant:normal;font-weight:normal;writing-mode:lr-tb;fill:#000000;fill-opacity:1;fill-rule:nonzero;stroke:none;font-family:Times New Roman;-inkscape-font-specification:Times">-</tspan>
          </text>
        </g>
        <path
           id="path3225"
           style="fill:none;stroke:#000000;stroke-width:7.5;stroke-linecap:butt;stroke-linejoin:miter;stroke-miterlimit:3.79999995;stroke-opacity:1;stroke-dasharray:none"
           d="m 3335.5,1973.5 199.5,0 M 309,1157 l 6,0 0,-13 5.5,0 0,-13 5.5,0 0,-13 6,0 0,-13 5.5,0 0,-13 6,0 0,-13 5.5,0 0,-12.5 6,0 0,-12.5 5.5,0 0,-12.5 5.5,0 0,-12.5 6,0 0,-13 5.5,0 0,-12.5 6,0 0,-12 5.5,0 0,-12 6,0 0,-12.5 5.5,0 0,-12 5.5,0 0,-12 6,0 0,-11.5 5.5,0 0,-12 6,0 0,-12.5 5.5,0 0,-11.5 6,0 0,-11 5.5,0 0,-11.5 6,0 0,-12 5.5,0 0,-11 5.5,0 0,-10.5 6,0 0,-11 5.5,0 0,-11 6,0 0,-10.5 5.5,0 0,-11 6,0 0,-11 5.5,0 0,-10 5.5,0 0,-10 6,0 0,-10 5.5,0 0,-10.5 6,0 0,-9.5 5.5,0 0,-9.5 6,0 0,-9.5 5.5,0 0,-9.5 5.5,0 0,-9.5 6,0 0,-9 5.5,0 0,-9 6,0 0,-8.5 5.5,0 0,-8.5 6,0 0,-8.5 5.5,0 0,-8 5.5,0 0,-9 6,0 0,-8 5.5,0 0,-7.5 6,0 0,-8 5.5,0 0,-7"
           inkscape:connector-curvature="0" />
        <path
           id="path3227"
           style="fill:none;stroke:#000000;stroke-width:7.5;stroke-linecap:butt;stroke-linejoin:miter;stroke-miterlimit:3.79999995;stroke-opacity:1;stroke-dasharray:none"
           d="m 600.5,606 6,0 0,-7 5.5,0 0,-7 6,0 0,-7 5.5,0 0,-7 5.5,0 0,-7 6,0 0,-6 5.5,0 0,-6.5 6,0 0,-6 5.5,0 0,-5.5 6,0 0,-5 5.5,0 0,-6 5.5,0 0,-6 6,0 0,-4.5 5.5,0 0,-4.5 6,0 0,-5 5.5,0 0,-4.5 6,0 0,-4.5 5.5,0 0,-4.5 5.5,0 0,-4 6,0 0,-3 5.5,0 0,-3 6,0 0,-4 5.5,0 0,-3.5 6,0 0,-3 5.5,0 0,-2 5.5,0 0,-2 6,0 0,-2.5 5.5,0 0,-2.5 6,0 0,-2.5 5.5,0 0,-1.5 6,0 0,-1 5.5,0 0,-1 6,0 0,-1 5.5,0 0,-1 5.5,0 0,-1 6,0 0,-0.5 23,0 0,0.5 5.5,0 0,1 5.5,0 0,1 6,0 0,1 5.5,0 0,1 6,0 0,1 5.5,0 0,1.5 6,0 0,2.5 5.5,0 0,2.5 5.5,0 0,2.5 6,0 0,2 5.5,0 0,2 6,0 0,3 5.5,0 0,3.5 6,0"
           inkscape:connector-curvature="0" />
        <path
           id="path3229"
           style="fill:none;stroke:#000000;stroke-width:7.5;stroke-linecap:butt;stroke-linejoin:miter;stroke-miterlimit:3.79999995;stroke-opacity:1;stroke-dasharray:none"
           d="m 909.5,488.5 0,4 5.5,0 0,3 5.5,0 0,3 6,0 0,4 5.5,0 0,4.5 6,0 0,4.5 5.5,0 0,4.5 6,0 0,5 5.5,0 0,4.5 6,0 0,4.5 5.5,0 0,6 5.5,0 0,6 6,0 0,5 5.5,0 0,5.5 6,0 0,6 5.5,0 0,6.5 6,0 0,6 5.5,0 0,7 5.5,0 0,7 6,0 0,7 5.5,0 0,7 6,0 0,7 5.5,0 0,7 6,0 0,8 5.5,0 0,7.5 5.5,0 0,8 6,0 0,9 5.5,0 0,8 6,0 0,8.5 5.5,0 0,8.5 6,0 0,8.5 5.5,0 0,9 5.5,0 0,9 6,0 0,9.5 5.5,0 0,9.5 6,0 0,9.5 5.5,0 0,9.5 6,0 0,9.5 5.5,0 0,10.5 6,0 0,10 5.5,0 0,10 5.5,0 0,10 6,0 0,11 5.5,0 0,11 6,0 0,10.5 5.5,0 0,11 6,0 0,11 5.5,0 0,10.5 5.5,0 0,11 6,0 0,12 5.5,0 0,11.5 6,0 0,11 5.5,0"
           inkscape:connector-curvature="0" />
        <path
           id="path3231"
           style="fill:none;stroke:#000000;stroke-width:7.5;stroke-linecap:butt;stroke-linejoin:miter;stroke-miterlimit:3.79999995;stroke-opacity:1;stroke-dasharray:none"
           d="m 1206.5,895.5 0,11.5 6,0 0,12.5 5.5,0 0,12 5.5,0 0,11.5 6,0 0,12 5.5,0 0,12 6,0 0,12.5 5.5,0 0,12 6,0 0,12 5.5,0 0,12.5 5.5,0 0,13 6,0 0,12.5 5.5,0 0,12.5 6,0 0,12.5 5.5,0 0,12.5 6,0 0,13 5.5,0 0,13 6,0 0,13 5.5,0 0,13 5.5,0 0,13 6,0 0,13 5.5,0 0,13 6,0 0,13 5.5,0 0,13 6,0 0,13.5 5.5,0 0,13.5 5.5,0 0,13 6,0 0,12.5 5.5,0 0,13.5 6,0 0,13.5 5.5,0 0,13.5 6,0 0,13.5 5.5,0 0,12.5 5.5,0 0,13.5 6,0 0,13.5 5.5,0 0,13.5 6,0 0,13.5 5.5,0 0,12.5 6,0 0,13 5.5,0 0,13.5 5.5,0 0,13.5 6,0 0,13 5.5,0 0,13 6,0 0,13 5.5,0 0,13 6,0 0,13 5.5,0 0,13 6,0 0,13 5.5,0 0,13 5.5,0 0,13 6,0 0,12.5 5.5,0 0,12.5 6,0"
           inkscape:connector-curvature="0" />
        <path
           id="path3233"
           style="fill:none;stroke:#000000;stroke-width:7.5;stroke-linecap:butt;stroke-linejoin:miter;stroke-miterlimit:3.79999995;stroke-opacity:1;stroke-dasharray:none"
           d="m 1504,1563.5 0,12.5 5.5,0 0,12.5 6,0 0,13 5.5,0 0,12.5 5.5,0 0,12 6,0 0,12 5.5,0 0,12.5 6,0 0,12 5.5,0 0,12 6,0 0,11.5 5.5,0 0,12 5.5,0 0,12.5 6,0 0,11.5 5.5,0 0,11 6,0 0,11.5 5.5,0 0,12 6,0 0,11 5.5,0 0,10.5 5.5,0 0,11 6,0 0,11 5.5,0 0,10.5 6,0 0,11 5.5,0 0,11 6,0 0,10 5.5,0 0,10 5.5,0 0,10 6,0 0,10.5 5.5,0 0,9.5 6,0 0,9.5 5.5,0 0,9.5 6,0 0,9.5 5.5,0 0,9.5 6,0 0,9 5.5,0 0,9 5.5,0 0,8.5 6,0 0,8.5 5.5,0 0,8.5 6,0 0,8 5.5,0 0,9 6,0 0,8 5.5,0 0,7.5 5.5,0 0,8 6,0 0,7 5.5,0 0,7 6,0 0,7 5.5,0 0,7 6,0 0,7 5.5,0 0,7 5.5,0 0,6 6,0 0,6.5 5.5,0 0,6 6,0 0,5.5 5.5,0"
           inkscape:connector-curvature="0" />
        <path
           id="path3235"
           style="fill:none;stroke:#000000;stroke-width:7.5;stroke-linecap:butt;stroke-linejoin:miter;stroke-miterlimit:3.79999995;stroke-opacity:1;stroke-dasharray:none"
           d="m 1801,2070.5 0,5 6,0 0,6 5.5,0 0,6 6,0 0,4.5 5.5,0 0,4.5 5.5,0 0,5 6,0 0,4.5 5.5,0 0,4.5 6,0 0,4.5 5.5,0 0,4 6,0 0,3 5.5,0 0,3 5.5,0 0,4 6,0 0,3.5 5.5,0 0,3 6,0 0,2 5.5,0 0,2 6,0 0,2.5 5.5,0 0,2.5 5.5,0 0,2.5 6,0 0,1.5 5.5,0 0,1 6,0 0,1 5.5,0 0,1 6,0 0,1 5.5,0 0,1 5.5,0 0,0.5 23,0 0,-0.5 6,0 0,-1 5.5,0 0,-1 5.5,0 0,-1 6,0 0,-1 5.5,0 0,-1 6,0 0,-1.5 5.5,0 0,-2.5 6,0 0,-2.5 5.5,0 0,-2.5 6,0 0,-2 5.5,0 0,-2 5.5,0 0,-3 6,0 0,-3.5 5.5,0 0,-4 6,0 0,-3 5.5,0 0,-3 6,0 0,-4 5.5,0 0,-4.5 5.5,0 0,-4.5 6,0 0,-4.5 5.5,0 0,-5 6,0 0,-4.5 5.5,0 0,-4.5"
           inkscape:connector-curvature="0" />
        <path
           id="path3237"
           style="fill:none;stroke:#000000;stroke-width:7.5;stroke-linecap:butt;stroke-linejoin:miter;stroke-miterlimit:3.79999995;stroke-opacity:1;stroke-dasharray:none"
           d="m 2104,2087.5 6,0 0,-6 5.5,0 0,-6 5.5,0 0,-5 6,0 0,-5.5 5.5,0 0,-6 6,0 0,-6.5 5.5,0 0,-6 6,0 0,-7 5.5,0 0,-7 6,0 0,-7 5.5,0 0,-7 5.5,0 0,-7 6,0 0,-7 5.5,0 0,-8 6,0 0,-7.5 5.5,0 0,-8 6,0 0,-9 5.5,0 0,-8 5.5,0 0,-8.5 6,0 0,-8.5 5.5,0 0,-8.5 6,0 0,-9 5.5,0 0,-9 6,0 0,-9.5 5.5,0 0,-9.5 5.5,0 0,-9.5 6,0 0,-9.5 5.5,0 0,-9.5 6,0 0,-10.5 5.5,0 0,-10 6,0 0,-10 5.5,0 0,-10 5.5,0 0,-11 6,0 0,-11 5.5,0 0,-10.5 6,0 0,-11 5.5,0 0,-11 6,0 0,-10.5 5.5,0 0,-11 6,0 0,-12 5.5,0 0,-11.5 5.5,0 0,-11 6,0 0,-11.5 5.5,0 0,-12.5 6,0 0,-12 5.5,0 0,-11.5 6,0 0,-12 5.5,0 0,-12 5.5,0 0,-12.5 6,0 0,-12 5.5,0 0,-12 6,0 0,-12.5"
           inkscape:connector-curvature="0" />
        <path
           id="path3239"
           style="fill:none;stroke:#000000;stroke-width:7.5;stroke-linecap:butt;stroke-linejoin:miter;stroke-miterlimit:3.79999995;stroke-opacity:1;stroke-dasharray:none"
           d="m 2401.5,1601.5 5.5,0 0,-13 6,0 0,-12.5 5.5,0 0,-12.5 5.5,0 0,-12.5 6,0 0,-12.5 5.5,0 0,-13 6,0 0,-13 5.5,0 0,-13 6,0 0,-13 5.5,0 0,-13 5.5,0 0,-13 6,0 0,-13 5.5,0 0,-13 6,0 0,-13 5.5,0 0,-13.5 6,0 0,-13.5 5.5,0 0,-13 5.5,0 0,-12.5 6,0 0,-13.5 5.5,0 0,-13.5 6,0 0,-13.5 5.5,0 0,-13.5 6,0 0,-12.5 5.5,0 0,-13.5 6,0 0,-13.5 5.5,0 0,-13.5 5.5,0 0,-13.5 6,0 0,-12.5 5.5,0 0,-13 6,0 0,-13.5 5.5,0 0,-13.5 6,0 0,-13 5.5,0 0,-13 5.5,0 0,-13 6,0 0,-13 5.5,0 0,-13 6,0 0,-13 5.5,0 0,-13 6,0 0,-13 5.5,0 0,-13 5.5,0 0,-12.5 6,0 0,-12.5 5.5,0 0,-12.5 6,0 0,-12.5 5.5,0 0,-13 6,0 0,-12.5 5.5,0 0,-12 5.5,0 0,-12 6,0 0,-12.5 5.5,0 0,-12 6,0 0,-12 5.5,0 0,-11.5"
           inkscape:connector-curvature="0" />
        <path
           id="path3241"
           style="fill:none;stroke:#000000;stroke-width:7.5;stroke-linecap:butt;stroke-linejoin:miter;stroke-miterlimit:3.79999995;stroke-opacity:1;stroke-dasharray:none"
           d="m 2698.5,931.5 6,0 0,-12 5.5,0 0,-12.5 6,0 0,-11.5 5.5,0 0,-11 5.5,0 0,-11.5 6,0 0,-12 5.5,0 0,-11 6,0 0,-10.5 5.5,0 0,-11 6,0 0,-11 5.5,0 0,-10.5 5.5,0 0,-11 6,0 0,-11 5.5,0 0,-10 6,0 0,-10 5.5,0 0,-10 6,0 0,-10.5 5.5,0 0,-9.5 5.5,0 0,-9.5 6,0 0,-9.5 5.5,0 0,-9.5 6,0 0,-9.5 5.5,0 0,-9 6,0 0,-9 5.5,0 0,-8.5 6,0 0,-8.5 5.5,0 0,-8.5 5.5,0 0,-8 6,0 0,-9 5.5,0 0,-8 6,0 0,-7.5 5.5,0 0,-8 6,0 0,-7 5.5,0 0,-7 5.5,0 0,-7 6,0 0,-7 5.5,0 0,-7 6,0 0,-7 5.5,0 0,-6 6,0 0,-6.5 5.5,0 0,-6 5.5,0 0,-5.5 6,0 0,-5 5.5,0 0,-6 6,0 0,-6 5.5,0 0,-4.5 6,0 0,-4.5 5.5,0 0,-5 5.5,0 0,-4.5 6,0 0,-4.5 5.5,0 0,-4.5 6,0 0,-4"
           inkscape:connector-curvature="0" />
        <path
           id="path3243"
           style="fill:none;stroke:#000000;stroke-width:7.5;stroke-linecap:butt;stroke-linejoin:miter;stroke-miterlimit:3.79999995;stroke-opacity:1;stroke-dasharray:none"
           d="m 2996,498.5 5.5,0 0,-3 6,0 0,-3 5.5,0 0,-4 6,0 0,-3.5 5.5,0 0,-3 5.5,0 0,-2 6,0 0,-2 5.5,0 0,-2.5 6,0 0,-2.5 5.5,0 0,-2.5 6,0 0,-1.5 5.5,0 0,-1 5.5,0 0,-1 6,0 0,-1 5.5,0 0,-1 6,0 0,-1 5.5,0 0,-0.5 23,0 0,0.5 5.5,0 0,1 6,0 0,1 5.5,0 0,1 6,0 0,1 5.5,0 0,1 5.5,0 0,1.5 6,0 0,2.5 5.5,0 0,2.5 6,0 0,2.5 5.5,0 0,2 6,0 0,2 5.5,0 0,3 6,0 0,3.5 5.5,0 0,4 5.5,0 0,3 6,0 0,3 5.5,0 0,4 6,0 0,4.5 5.5,0 0,4.5 6,0 0,4.5 5.5,0 0,5 5.5,0 0,4.5 6,0 0,4.5 5.5,0 0,6 6,0 0,6 5.5,0 0,5 6,0 0,5.5 5.5,0 0,6 5.5,0 0,6.5 6,0 0,6 5.5,0 0,7 6,0 0,7 5.5,0"
           inkscape:connector-curvature="0" />
        <path
           id="path3245"
           style="fill:none;stroke:#000000;stroke-width:7.5;stroke-linecap:butt;stroke-linejoin:miter;stroke-miterlimit:3.79999995;stroke-opacity:1;stroke-dasharray:none"
           d="m 3304.5,585 0,7 6,0 0,7 5.5,0 0,7 5.5,0 0,7 6,0 0,8 5.5,0 0,7.5 6,0 0,8 5.5,0 0,9 6,0 0,8 5.5,0 0,8.5 5.5,0 0,8.5 6,0 0,8.5 5.5,0 0,9 6,0 0,9 5.5,0 0,9.5 6,0 0,9.5 5.5,0 0,9.5 6,0 0,9.5 5.5,0 0,9.5 5.5,0 0,10.5 6,0 0,10 5.5,0 0,10 6,0 0,10 5.5,0 0,11 6,0 0,11 5.5,0 0,10.5 5.5,0 0,11 6,0 0,11 5.5,0 0,10.5 6,0 0,11 5.5,0 0,12 6,0 0,11.5 5.5,0 0,11 5.5,0 0,11.5 6,0 0,12.5 5.5,0 0,12 6,0 0,11.5 5.5,0 0,12 6,0 0,12 5.5,0 0,12.5 5.5,0 0,12 6,0 0,12 5.5,0 0,12.5 6,0 0,13 5.5,0 0,12.5 6,0 0,12.5 5.5,0 0,12.5 6,0 0,12.5 5.5,0 0,13 5.5,0 0,13 6,0 0,13 5.5,0 0,13 6,0"
           inkscape:connector-curvature="0" />
        <path
           id="path3247"
           style="fill:none;stroke:#000000;stroke-width:7.5;stroke-linecap:butt;stroke-linejoin:miter;stroke-miterlimit:3.79999995;stroke-opacity:1;stroke-dasharray:none"
           d="m 3602,1131 0,13 5.5,0 0,13 6,0 0,13 5.5,0 0,13"
           inkscape:connector-curvature="0" />
        <g
           transform="scale(10,10)"
           id="g3249">
          <text
             id="text3251"
             transform="matrix(1,0,0,-1,325.521,181.615)">
            <tspan
               id="tspan3253"
               y="0"
               x="0"
               style="font-size:11.5px;font-variant:normal;font-weight:normal;writing-mode:lr-tb;fill:#000000;fill-opacity:1;fill-rule:nonzero;stroke:none;font-family:Times New Roman;-inkscape-font-specification:Times">-</tspan>
          </text>
        </g>
        <path
           id="path3255"
           style="fill:none;stroke:#ff00ff;stroke-width:7.5;stroke-linecap:butt;stroke-linejoin:miter;stroke-miterlimit:3.79999995;stroke-opacity:1;stroke-dasharray:none"
           d="m 3335.5,1854.5 199.5,0 m -3226,-484 6,0 0,5 5.5,0 0,5.5 5.5,0 0,5 6,0 0,5.5 5.5,0 0,5 6,0 0,5 5.5,0 0,5.5 6,0 0,5 5.5,0 0,5 5.5,0 0,5 6,0 0,5.5 5.5,0 0,5 6,0 0,5 5.5,0 0,5 6,0 0,5 5.5,0 0,4.5 5.5,0 0,5 6,0 0,5 5.5,0 0,4.5 6,0 0,5 5.5,0 0,4.5 6,0 0,5 5.5,0 0,4.5 6,0 0,4.5 5.5,0 0,4.5 5.5,0 0,4.5 6,0 0,4.5 5.5,0 0,4.5 6,0 0,4.5 5.5,0 0,4 6,0 0,4.5 5.5,0 0,4 5.5,0 0,4 6,0 0,4.5 5.5,0 0,4 6,0 0,4 5.5,0 0,3.5 6,0 0,4 5.5,0 0,4 5.5,0 0,3.5 6,0 0,4 5.5,0 0,3.5 6,0 0,3.5 5.5,0 0,3.5 6,0 0,3.5 5.5,0 0,3.5 5.5,0 0,3 6,0 0,3.5 5.5,0 0,3 6,0 0,3 5.5,0 0,3"
           inkscape:connector-curvature="0" />
        <path
           id="path3257"
           style="fill:none;stroke:#ff00ff;stroke-width:7.5;stroke-linecap:butt;stroke-linejoin:miter;stroke-miterlimit:3.79999995;stroke-opacity:1;stroke-dasharray:none"
           d="m 600.5,1593.5 6,0 0,3 5.5,0 0,3 6,0 0,2.5 5.5,0 0,3 5.5,0 0,2.5 6,0 0,2.5 5.5,0 0,2.5 6,0 0,2.5 5.5,0 0,2.5 6,0 0,2.5 5.5,0 0,2 5.5,0 0,2 6,0 0,2 5.5,0 0,2 6,0 0,2 5.5,0 0,2 6,0 0,1.5 5.5,0 0,2 5.5,0 0,1.5 6,0 0,1.5 5.5,0 0,1.5 6,0 0,1 5.5,0 0,1.5 6,0 0,1 5.5,0 0,1 5.5,0 0,1 6,0 0,1 5.5,0 0,1 6,0 0,0.5 5.5,0 0,1 6,0 0,0.5 5.5,0 0,0.5 6,0 0,0.5 5.5,0 0,0.5 17,0 0,0.5 11.5,0 0,-0.5 17,0 0,-0.5 6,0 0,-0.5 5.5,0 0,-0.5 6,0 0,-0.5 5.5,0 0,-1 6,0 0,-0.5 5.5,0 0,-1 5.5,0 0,-1 6,0 0,-1 5.5,0 0,-1 6,0 0,-1 5.5,0 0,-1.5 6,0 0,-1 5.5,0"
           inkscape:connector-curvature="0" />
        <path
           id="path3259"
           style="fill:none;stroke:#ff00ff;stroke-width:7.5;stroke-linecap:butt;stroke-linejoin:miter;stroke-miterlimit:3.79999995;stroke-opacity:1;stroke-dasharray:none"
           d="m 915,1640 0,-1.5 5.5,0 0,-1.5 6,0 0,-1.5 5.5,0 0,-2 6,0 0,-1.5 5.5,0 0,-2 6,0 0,-2 5.5,0 0,-2 6,0 0,-2 5.5,0 0,-2 5.5,0 0,-2 6,0 0,-2.5 5.5,0 0,-2.5 6,0 0,-2.5 5.5,0 0,-2.5 6,0 0,-2.5 5.5,0 0,-2.5 5.5,0 0,-3 6,0 0,-2.5 5.5,0 0,-3 6,0 0,-3 5.5,0 0,-3 6,0 0,-3 5.5,0 0,-3 5.5,0 0,-3.5 6,0 0,-3 5.5,0 0,-3.5 6,0 0,-3.5 5.5,0 0,-3.5 6,0 0,-3.5 5.5,0 0,-3.5 5.5,0 0,-4 6,0 0,-3.5 5.5,0 0,-4 6,0 0,-4 5.5,0 0,-3.5 6,0 0,-4 5.5,0 0,-4 6,0 0,-4.5 5.5,0 0,-4 5.5,0 0,-4 6,0 0,-4.5 5.5,0 0,-4 6,0 0,-4.5 5.5,0 0,-4.5 6,0 0,-4.5 5.5,0 0,-4.5 5.5,0 0,-4.5 6,0 0,-4.5 5.5,0 0,-4.5 6,0 0,-5 5.5,0 0,-4.5 6,0"
           inkscape:connector-curvature="0" />
        <path
           id="path3261"
           style="fill:none;stroke:#ff00ff;stroke-width:7.5;stroke-linecap:butt;stroke-linejoin:miter;stroke-miterlimit:3.79999995;stroke-opacity:1;stroke-dasharray:none"
           d="m 1212.5,1471.5 0,-5 5.5,0 0,-4.5 5.5,0 0,-5 6,0 0,-5 5.5,0 0,-4.5 6,0 0,-5 5.5,0 0,-5 6,0 0,-5 5.5,0 0,-5 5.5,0 0,-5.5 6,0 0,-5 5.5,0 0,-5 6,0 0,-5 5.5,0 0,-5.5 6,0 0,-5 5.5,0 0,-5 6,0 0,-5.5 5.5,0 0,-5 5.5,0 0,-5.5 6,0 0,-5 5.5,0 0,-5.5 6,0 0,-5.5 5.5,0 0,-5 6,0 0,-5.5 5.5,0 0,-5.5 5.5,0 0,-5 6,0 0,-5.5 5.5,0 0,-5.5 6,0 0,-5.5 5.5,0 0,-5 6,0 0,-5.5 5.5,0 0,-5.5 5.5,0 0,-5.5 6,0 0,-5 5.5,0 0,-5.5 6,0 0,-5.5 5.5,0 0,-5.5 6,0 0,-5 5.5,0 0,-5.5 5.5,0 0,-5.5 6,0 0,-5 5.5,0 0,-5.5 6,0 0,-5.5 5.5,0 0,-5 6,0 0,-5.5 5.5,0 0,-5 6,0 0,-5.5 5.5,0 0,-5 5.5,0 0,-5 6,0 0,-5.5 5.5,0 0,-5 6,0 0,-5 5.5,0"
           inkscape:connector-curvature="0" />
        <path
           id="path3263"
           style="fill:none;stroke:#ff00ff;stroke-width:7.5;stroke-linecap:butt;stroke-linejoin:miter;stroke-miterlimit:3.79999995;stroke-opacity:1;stroke-dasharray:none"
           d="m 1509.5,1200.5 0,-5 6,0 0,-5.5 5.5,0 0,-5 5.5,0 0,-5 6,0 0,-5 5.5,0 0,-5 6,0 0,-4.5 5.5,0 0,-5 6,0 0,-5 5.5,0 0,-4.5 5.5,0 0,-5 6,0 0,-4.5 5.5,0 0,-5 6,0 0,-4.5 5.5,0 0,-4.5 6,0 0,-4.5 5.5,0 0,-4.5 5.5,0 0,-4.5 6,0 0,-4.5 5.5,0 0,-4.5 6,0 0,-4 5.5,0 0,-4.5 6,0 0,-4 5.5,0 0,-4 5.5,0 0,-4.5 6,0 0,-4 5.5,0 0,-4 6,0 0,-3.5 5.5,0 0,-4 6,0 0,-4 5.5,0 0,-3.5 6,0 0,-4 5.5,0 0,-3.5 5.5,0 0,-3.5 6,0 0,-3.5 5.5,0 0,-3.5 6,0 0,-3.5 5.5,0 0,-3 6,0 0,-3.5 5.5,0 0,-3 5.5,0 0,-3 6,0 0,-3 5.5,0 0,-3 6,0 0,-3 5.5,0 0,-2.5 6,0 0,-3 5.5,0 0,-2.5 5.5,0 0,-2.5 6,0 0,-2.5 5.5,0 0,-2.5 6,0 0,-2.5 5.5,0 0,-2.5 6,0"
           inkscape:connector-curvature="0" />
        <path
           id="path3265"
           style="fill:none;stroke:#ff00ff;stroke-width:7.5;stroke-linecap:butt;stroke-linejoin:miter;stroke-miterlimit:3.79999995;stroke-opacity:1;stroke-dasharray:none"
           d="m 1807,997.5 0,-2 5.5,0 0,-2 6,0 0,-2 5.5,0 0,-2 5.5,0 0,-2 6,0 0,-2 5.5,0 0,-1.5 6,0 0,-2 5.5,0 0,-1.5 6,0 0,-1.5 5.5,0 0,-1.5 5.5,0 0,-1 6,0 0,-1.5 5.5,0 0,-1 6,0 0,-1 5.5,0 0,-1 6,0 0,-1 5.5,0 0,-1 5.5,0 0,-0.5 6,0 0,-1 5.5,0 0,-0.5 6,0 0,-0.5 5.5,0 0,-0.5 6,0 0,-0.5 17,0 0,-0.5 11.5,0 0,0.5 17,0 0,0.5 5.5,0 0,0.5 6,0 0,0.5 5.5,0 0,0.5 6,0 0,1 5.5,0 0,0.5 6,0 0,1 5.5,0 0,1 6,0 0,1 5.5,0 0,1 5.5,0 0,1 6,0 0,1.5 5.5,0 0,1 6,0 0,1.5 5.5,0 0,1.5 6,0 0,1.5 5.5,0 0,2 5.5,0 0,1.5 6,0 0,2 5.5,0 0,2 6,0 0,2 5.5,0 0,2 6,0 0,2 5.5,0 0,2"
           inkscape:connector-curvature="0" />
        <path
           id="path3267"
           style="fill:none;stroke:#ff00ff;stroke-width:7.5;stroke-linecap:butt;stroke-linejoin:miter;stroke-miterlimit:3.79999995;stroke-opacity:1;stroke-dasharray:none"
           d="m 2115.5,997.5 5.5,0 0,2.5 6,0 0,2.5 5.5,0 0,2.5 6,0 0,2.5 5.5,0 0,2.5 6,0 0,2.5 5.5,0 0,3 6,0 0,2.5 5.5,0 0,3 5.5,0 0,3 6,0 0,3 5.5,0 0,3 6,0 0,3 5.5,0 0,3.5 6,0 0,3 5.5,0 0,3.5 5.5,0 0,3.5 6,0 0,3.5 5.5,0 0,3.5 6,0 0,3.5 5.5,0 0,4 6,0 0,3.5 5.5,0 0,4 5.5,0 0,4 6,0 0,3.5 5.5,0 0,4 6,0 0,4 5.5,0 0,4.5 6,0 0,4 5.5,0 0,4 5.5,0 0,4.5 6,0 0,4 5.5,0 0,4.5 6,0 0,4.5 5.5,0 0,4.5 6,0 0,4.5 5.5,0 0,4.5 6,0 0,4.5 5.5,0 0,4.5 5.5,0 0,5 6,0 0,4.5 5.5,0 0,5 6,0 0,4.5 5.5,0 0,5 6,0 0,5 5.5,0 0,4.5 5.5,0 0,5 6,0 0,5 5.5,0 0,5 6,0 0,5 5.5,0 0,5.5 6,0 0,5"
           inkscape:connector-curvature="0" />
        <path
           id="path3269"
           style="fill:none;stroke:#ff00ff;stroke-width:7.5;stroke-linecap:butt;stroke-linejoin:miter;stroke-miterlimit:3.79999995;stroke-opacity:1;stroke-dasharray:none"
           d="m 2413,1200.5 5.5,0 0,5 5.5,0 0,5 6,0 0,5.5 5.5,0 0,5 6,0 0,5 5.5,0 0,5.5 6,0 0,5 5.5,0 0,5.5 5.5,0 0,5 6,0 0,5.5 5.5,0 0,5.5 6,0 0,5 5.5,0 0,5.5 6,0 0,5.5 5.5,0 0,5 5.5,0 0,5.5 6,0 0,5.5 5.5,0 0,5.5 6,0 0,5 5.5,0 0,5.5 6,0 0,5.5 5.5,0 0,5.5 6,0 0,5 5.5,0 0,5.5 5.5,0 0,5.5 6,0 0,5.5 5.5,0 0,5 6,0 0,5.5 5.5,0 0,5.5 6,0 0,5 5.5,0 0,5.5 5.5,0 0,5.5 6,0 0,5 5.5,0 0,5.5 6,0 0,5 5.5,0 0,5.5 6,0 0,5 5.5,0 0,5 5.5,0 0,5.5 6,0 0,5 5.5,0 0,5 6,0 0,5 5.5,0 0,5.5 6,0 0,5 5.5,0 0,5 5.5,0 0,5 6,0 0,5 5.5,0 0,4.5 6,0 0,5 5.5,0 0,5 6,0 0,4.5 5.5,0 0,5"
           inkscape:connector-curvature="0" />
        <path
           id="path3271"
           style="fill:none;stroke:#ff00ff;stroke-width:7.5;stroke-linecap:butt;stroke-linejoin:miter;stroke-miterlimit:3.79999995;stroke-opacity:1;stroke-dasharray:none"
           d="m 2710,1471.5 6,0 0,4.5 5.5,0 0,5 5.5,0 0,4.5 6,0 0,4.5 5.5,0 0,4.5 6,0 0,4.5 5.5,0 0,4.5 6,0 0,4.5 5.5,0 0,4.5 5.5,0 0,4 6,0 0,4.5 5.5,0 0,4 6,0 0,4 5.5,0 0,4.5 6,0 0,4 5.5,0 0,4 5.5,0 0,3.5 6,0 0,4 5.5,0 0,4 6,0 0,3.5 5.5,0 0,4 6,0 0,3.5 5.5,0 0,3.5 6,0 0,3.5 5.5,0 0,3.5 5.5,0 0,3.5 6,0 0,3 5.5,0 0,3.5 6,0 0,3 5.5,0 0,3 6,0 0,3 5.5,0 0,3 5.5,0 0,3 6,0 0,2.5 5.5,0 0,3 6,0 0,2.5 5.5,0 0,2.5 6,0 0,2.5 5.5,0 0,2.5 5.5,0 0,2.5 6,0 0,2.5 5.5,0 0,2 6,0 0,2 5.5,0 0,2 6,0 0,2 5.5,0 0,2 5.5,0 0,2 6,0 0,1.5 5.5,0 0,2 6,0 0,1.5 5.5,0 0,1.5 6,0 0,1.5"
           inkscape:connector-curvature="0" />
        <path
           id="path3273"
           style="fill:none;stroke:#ff00ff;stroke-width:7.5;stroke-linecap:butt;stroke-linejoin:miter;stroke-miterlimit:3.79999995;stroke-opacity:1;stroke-dasharray:none"
           d="m 3007.5,1640 5.5,0 0,1 6,0 0,1.5 5.5,0 0,1 5.5,0 0,1 6,0 0,1 5.5,0 0,1 6,0 0,1 5.5,0 0,0.5 6,0 0,1 5.5,0 0,0.5 5.5,0 0,0.5 6,0 0,0.5 5.5,0 0,0.5 17.5,0 0,0.5 11,0 0,-0.5 17.5,0 0,-0.5 5.5,0 0,-0.5 6,0 0,-0.5 5.5,0 0,-0.5 5.5,0 0,-1 6,0 0,-0.5 5.5,0 0,-1 6,0 0,-1 5.5,0 0,-1 6,0 0,-1 5.5,0 0,-1 6,0 0,-1.5 5.5,0 0,-1 5.5,0 0,-1.5 6,0 0,-1.5 5.5,0 0,-1.5 6,0 0,-2 5.5,0 0,-1.5 6,0 0,-2 5.5,0 0,-2 5.5,0 0,-2 6,0 0,-2 5.5,0 0,-2 6,0 0,-2 5.5,0 0,-2.5 6,0 0,-2.5 5.5,0 0,-2.5 5.5,0 0,-2.5 6,0 0,-2.5 5.5,0 0,-2.5 6,0 0,-3 5.5,0 0,-2.5 6,0 0,-3 5.5,0 0,-3 5.5,0"
           inkscape:connector-curvature="0" />
        <path
           id="path3275"
           style="fill:none;stroke:#ff00ff;stroke-width:7.5;stroke-linecap:butt;stroke-linejoin:miter;stroke-miterlimit:3.79999995;stroke-opacity:1;stroke-dasharray:none"
           d="m 3321.5,1593.5 0,-3 6,0 0,-3 5.5,0 0,-3 6,0 0,-3.5 5.5,0 0,-3 6,0 0,-3.5 5.5,0 0,-3.5 5.5,0 0,-3.5 6,0 0,-3.5 5.5,0 0,-3.5 6,0 0,-4 5.5,0 0,-3.5 6,0 0,-4 5.5,0 0,-4 6,0 0,-3.5 5.5,0 0,-4 5.5,0 0,-4 6,0 0,-4.5 5.5,0 0,-4 6,0 0,-4 5.5,0 0,-4.5 6,0 0,-4 5.5,0 0,-4.5 5.5,0 0,-4.5 6,0 0,-4.5 5.5,0 0,-4.5 6,0 0,-4.5 5.5,0 0,-4.5 6,0 0,-4.5 5.5,0 0,-5 5.5,0 0,-4.5 6,0 0,-5 5.5,0 0,-4.5 6,0 0,-5 5.5,0 0,-5 6,0 0,-4.5 5.5,0 0,-5 5.5,0 0,-5 6,0 0,-5 5.5,0 0,-5 6,0 0,-5.5 5.5,0 0,-5 6,0 0,-5 5.5,0 0,-5 6,0 0,-5.5 5.5,0 0,-5 5.5,0 0,-5 6,0 0,-5.5 5.5,0 0,-5 6,0 0,-5.5 5.5,0 0,-5 6,0 0,-5.5 5.5,0"
           inkscape:connector-curvature="0" />
        <path
           id="path3277"
           style="fill:none;stroke:#ff00ff;stroke-width:7.5;stroke-linecap:butt;stroke-linejoin:miter;stroke-miterlimit:3.79999995;stroke-opacity:1;stroke-dasharray:none"
           d="m 3619,1365 0,-5.5"
           inkscape:connector-curvature="0" />
        <g
           transform="scale(10,10)"
           id="g3279">
          <text
             id="text3281"
             transform="matrix(1,0,0,-1,277.302,169.715)">
            <tspan
               id="tspan3283"
               sodipodi:role="line"
               y="0"
               x="0 7.0265002 10.856 16.606001 21.712 24.587 32.889999 37.995998 41.193001 46.943001"
               style="font-size:11.5px;font-variant:normal;font-weight:normal;writing-mode:lr-tb;fill:#000000;fill-opacity:1;fill-rule:nonzero;stroke:none;font-family:Times New Roman;-inkscape-font-specification:Times">True Value</tspan>
          </text>
        </g>
        <path
           id="path3285"
           style="fill:none;stroke:#808080;stroke-width:12.5;stroke-linecap:butt;stroke-linejoin:miter;stroke-miterlimit:3.79999995;stroke-opacity:1;stroke-dasharray:5, 7.5;stroke-dashoffset:0"
           d="m 3335.5,1735.5 199.5,0 M 189,1332 l 3430,0"
           inkscape:connector-curvature="0" />
        <path
           id="path3287"
           style="fill:none;stroke:#000000;stroke-width:5;stroke-linecap:butt;stroke-linejoin:miter;stroke-miterlimit:3.79999995;stroke-opacity:1;stroke-dasharray:none"
           d="m 189,434 3430,0 0,1749.5 -3430,0 0,-1749.5 z"
           inkscape:connector-curvature="0" />
      </g>
    </g>
    <rect
       style="fill:#ffffff;stroke-width:0.31799999;stroke-miterlimit:4;stroke-dasharray:none;stroke-dashoffset:0"
       id="rect3433"
       width="11.699604"
       height="21.617517"
       x="509.91928"
       y="400.18402" />
    <g
       ns0:preamble=""
       ns0:text="$M_k$"
       word-spacing="normal"
       letter-spacing="normal"
       font-size-adjust="none"
       font-stretch="normal"
       font-weight="normal"
       font-variant="normal"
       font-style="normal"
       stroke-miterlimit="10.433"
       xml:space="preserve"
       transform="matrix(1.3417406,0,0,-1.4315474,202.20089,1419.7301)"
       id="content"
       style="font-style:normal;font-variant:normal;font-weight:normal;font-stretch:normal;letter-spacing:normal;word-spacing:normal;text-anchor:start;fill:none;stroke:#000000;stroke-linecap:butt;stroke-linejoin:miter;stroke-miterlimit:10.43299961;stroke-opacity:1;stroke-dasharray:none;stroke-dashoffset:0"><path
         id="path3612"
         d="m 232.65,713.15 0,0.03 0.01,0.03 0.01,0.03 0.01,0.03 0,0.02 0.01,0.03 0.01,0.02 0.01,0.03 0.01,0.02 0.01,0.02 0.01,0.02 0.02,0.02 0.01,0.01 0.02,0.02 0.02,0.01 0.02,0.02 0.02,0.01 0.02,0.01 0.03,0.01 0.03,0.01 0.03,0.01 0.01,0 0.02,0.01 0.02,0 0.02,0 0.01,0.01 0.02,0 0.03,0 0.02,0.01 0.02,0 0.02,0 0.03,0 0.02,0 0.03,0.01 0.02,0 0.03,0 0.03,0 0.03,0 0.03,0 0.03,0 0.03,0 0.04,0 0.03,0 c 0.23,0 0.32,0 0.32,0.2 0,0.11 -0.1,0.11 -0.27,0.11 h -1.31 c -0.26,0 -0.27,0 -0.39,-0.19 l -3.63,-5.66 -0.78,5.62 c -0.03,0.23 -0.05,0.23 -0.31,0.23 h -1.36 c -0.19,0 -0.3,0 -0.3,-0.19 0,-0.12 0.09,-0.12 0.29,-0.12 0.13,0 0.31,-0.01 0.43,-0.02 0.16,-0.02 0.22,-0.05 0.22,-0.16 0,-0.04 -0.01,-0.07 -0.04,-0.19 l -1.27,-5.05 c -0.1,-0.4 -0.26,-0.72 -1.07,-0.75 -0.05,0 -0.18,-0.01 -0.18,-0.19 0,-0.08 0.06,-0.12 0.14,-0.12 0.32,0 0.67,0.04 0.99,0.04 0.34,0 0.7,-0.04 1.03,-0.04 0.05,0 0.18,0 0.18,0.2 0,0.11 -0.11,0.11 -0.18,0.11 -0.57,0.01 -0.68,0.21 -0.68,0.44 0,0.07 0.01,0.12 0.04,0.23 l 1.36,5.41 h 0.01 l 0.85,-6.16 c 0.02,-0.12 0.03,-0.23 0.15,-0.23 0.11,0 0.17,0.11 0.22,0.18 l 4.02,6.29 h 0.01 l -1.42,-5.69 c -0.1,-0.39 -0.12,-0.47 -0.91,-0.47 -0.17,0 -0.28,0 -0.28,-0.19 0,-0.12 0.12,-0.12 0.15,-0.12 0.28,0 0.96,0.04 1.23,0.04 0.41,0 0.84,-0.04 1.25,-0.04 0.06,0 0.19,0 0.19,0.2 0,0.11 -0.09,0.11 -0.28,0.11 -0.37,0 -0.65,0 -0.65,0.18 0,0.04 0,0.06 0.05,0.24 z"
         inkscape:connector-curvature="0"
         style="fill:#000000;stroke-width:0" /><path
         id="path3614"
         d="m 235.28,710.25 0,0 0,0 0,0 0,0 0,0 0,0 0,0.01 0,0 0,0 0,0 0,0.01 0,0 0.01,0 0,0.01 0,0 0,0.01 0,0 0,0.01 0,0.01 0,0 0.01,0.01 0,0 0,0 0,0.01 0,0 0,0.01 0,0 0,0 0,0.01 0,0 0,0 0,0 0,0 0,0 0,0.01 0,0 0,0 0,0 0,0 0,0 0,0 c 0,0.03 -0.02,0.1 -0.11,0.1 -0.14,0 -0.71,-0.06 -0.89,-0.07 -0.05,-0.01 -0.15,-0.02 -0.15,-0.16 0,-0.1 0.1,-0.1 0.18,-0.1 0.33,0 0.33,-0.05 0.33,-0.1 0,-0.05 -0.01,-0.1 -0.02,-0.16 l -0.99,-3.93 c -0.03,-0.13 -0.03,-0.14 -0.03,-0.16 0,-0.1 0.08,-0.22 0.24,-0.22 0.18,0 0.27,0.14 0.32,0.29 0.01,0.03 0.31,1.25 0.34,1.35 0.49,-0.05 0.89,-0.21 0.89,-0.57 0,-0.03 0,-0.07 -0.01,-0.14 -0.03,-0.1 -0.03,-0.14 -0.03,-0.21 0,-0.5 0.4,-0.72 0.74,-0.72 0.67,0 0.88,1.06 0.88,1.06 0,0.1 -0.09,0.1 -0.11,0.1 -0.1,0 -0.11,-0.04 -0.14,-0.17 -0.08,-0.3 -0.27,-0.79 -0.61,-0.79 -0.19,0 -0.25,0.17 -0.25,0.36 0,0.12 0,0.13 0.05,0.31 0,0.02 0.03,0.14 0.03,0.22 0,0.62 -0.84,0.71 -1.13,0.73 0.2,0.13 0.46,0.36 0.58,0.46 0.35,0.34 0.7,0.66 1.09,0.66 0.09,0 0.18,-0.02 0.23,-0.09 -0.3,-0.05 -0.36,-0.28 -0.36,-0.39 0,-0.15 0.12,-0.25 0.28,-0.25 0.19,0 0.4,0.15 0.4,0.44 0,0.23 -0.17,0.49 -0.54,0.49 -0.4,0 -0.76,-0.29 -1.11,-0.61 -0.3,-0.28 -0.53,-0.5 -0.81,-0.62 z"
         inkscape:connector-curvature="0"
         style="fill:#000000;stroke-width:0" /></g>    <g
       style="font-style:normal;font-variant:normal;font-weight:normal;font-stretch:normal;letter-spacing:normal;word-spacing:normal;text-anchor:start;fill:none;stroke:#000000;stroke-linecap:butt;stroke-linejoin:miter;stroke-miterlimit:10.43299961;stroke-opacity:1;stroke-dasharray:none;stroke-dashoffset:0"
       id="g3922"
       transform="matrix(1.3797246,0,0,-1.3567382,195.13862,1379.968)"
       xml:space="preserve"
       stroke-miterlimit="10.433"
       font-style="normal"
       font-variant="normal"
       font-weight="normal"
       font-stretch="normal"
       font-size-adjust="none"
       letter-spacing="normal"
       word-spacing="normal"
       ns0:text="$D_k$"
       ns0:preamble=""><path
         style="fill:#000000;stroke-width:0"
         inkscape:connector-curvature="0"
         d="m 225.01,707.9 -0.01,-0.04 0,-0.03 -0.01,-0.03 -0.01,-0.03 -0.01,-0.03 -0.01,-0.03 -0.01,-0.02 -0.01,-0.03 -0.01,-0.02 -0.01,-0.02 -0.01,-0.02 -0.02,-0.02 -0.01,-0.02 -0.02,-0.01 -0.02,-0.02 -0.02,-0.01 -0.02,-0.01 -0.03,-0.01 -0.03,-0.01 -0.03,-0.01 -0.03,-0.01 -0.02,0 -0.01,-0.01 -0.02,0 -0.02,0 -0.02,-0.01 -0.02,0 -0.02,0 -0.03,0 -0.02,-0.01 -0.02,0 -0.03,0 -0.03,0 -0.02,0 -0.03,0 -0.03,0 -0.03,0 -0.03,-0.01 -0.03,0 -0.04,0 -0.03,0 -0.03,0 -0.04,0 c -0.17,0 -0.28,0 -0.28,-0.19 0,-0.12 0.09,-0.12 0.28,-0.12 h 3.29 l -0.18,0.31 h -1.12 c -0.14,0 -0.16,0 -0.22,0.01 -0.1,0.01 -0.13,0.02 -0.13,0.1 0,0.03 0,0.05 0.05,0.23 l 1.36,5.45 c 0.09,0.35 0.11,0.38 0.54,0.38 h 1.06 c 0.98,0 1.81,-0.52 1.81,-1.84 0,-0.48 -0.2,-2.11 -1.05,-3.21 -0.29,-0.36 -1.07,-1.12 -2.3,-1.12 l 0.18,-0.31 c 2.07,0 4.03,2.1 4.03,4.28 0,1.4 -0.84,2.51 -2.34,2.51 h -3.34 c -0.19,0 -0.3,0 -0.3,-0.19 0,-0.12 0.09,-0.12 0.29,-0.12 0.13,0 0.31,-0.01 0.43,-0.02 0.16,-0.02 0.22,-0.05 0.22,-0.16 0,-0.04 -0.01,-0.07 -0.04,-0.19 z"
         id="path3924" /><path
         style="fill:#000000;stroke-width:0"
         inkscape:connector-curvature="0"
         d="m 233.86,710.25 0,0 0,0 0,0 0,0 0,0 0,0 0,0.01 0,0 0,0 0.01,0 0,0.01 0,0 0,0 0,0.01 0,0 0,0.01 0,0 0,0.01 0.01,0.01 0,0 0,0.01 0,0 0,0 0,0.01 0,0 0,0.01 0,0 0.01,0 0,0.01 0,0 0,0 0,0 0,0 0,0 0,0.01 0,0 0,0 0,0 0,0 0,0 0,0 c 0,0.03 -0.03,0.1 -0.11,0.1 -0.14,0 -0.72,-0.06 -0.9,-0.07 -0.05,-0.01 -0.15,-0.02 -0.15,-0.16 0,-0.1 0.1,-0.1 0.18,-0.1 0.34,0 0.34,-0.05 0.34,-0.1 0,-0.05 -0.02,-0.1 -0.03,-0.16 l -0.98,-3.93 c -0.04,-0.13 -0.04,-0.14 -0.04,-0.16 0,-0.1 0.09,-0.22 0.24,-0.22 0.19,0 0.28,0.14 0.32,0.29 0.01,0.03 0.31,1.25 0.34,1.35 0.5,-0.05 0.89,-0.21 0.89,-0.57 0,-0.03 0,-0.07 -0.01,-0.14 -0.03,-0.1 -0.03,-0.14 -0.03,-0.21 0,-0.5 0.4,-0.72 0.74,-0.72 0.67,0 0.88,1.06 0.88,1.06 0,0.1 -0.09,0.1 -0.11,0.1 -0.1,0 -0.1,-0.04 -0.14,-0.17 -0.08,-0.3 -0.27,-0.79 -0.61,-0.79 -0.19,0 -0.24,0.17 -0.24,0.36 0,0.12 0,0.13 0.04,0.31 0,0.02 0.03,0.14 0.03,0.22 0,0.62 -0.83,0.71 -1.13,0.73 0.21,0.13 0.46,0.36 0.58,0.46 0.36,0.34 0.71,0.66 1.1,0.66 0.08,0 0.17,-0.02 0.23,-0.09 -0.3,-0.05 -0.37,-0.28 -0.37,-0.39 0,-0.15 0.12,-0.25 0.28,-0.25 0.19,0 0.4,0.15 0.4,0.44 0,0.23 -0.17,0.49 -0.54,0.49 -0.39,0 -0.76,-0.29 -1.11,-0.61 -0.29,-0.28 -0.52,-0.5 -0.81,-0.62 z"
         id="path3926" /></g>    <g
       ns0:preamble=""
       ns0:text="$M_k,D_k$"
       word-spacing="normal"
       letter-spacing="normal"
       font-size-adjust="none"
       font-stretch="normal"
       font-weight="normal"
       font-variant="normal"
       font-style="normal"
       stroke-miterlimit="10.433"
       xml:space="preserve"
       transform="matrix(0,-1.5357114,-1.790464,0,1350.7987,852.97239)"
       id="g4264"
       style="font-style:normal;font-variant:normal;font-weight:normal;font-stretch:normal;letter-spacing:normal;word-spacing:normal;text-anchor:start;fill:none;stroke:#000000;stroke-linecap:butt;stroke-linejoin:miter;stroke-miterlimit:10.43299961;stroke-opacity:1;stroke-dasharray:none;stroke-dashoffset:0"><path
         id="path4266"
         d="m 232.65,713.15 0,0.03 0.01,0.03 0.01,0.03 0.01,0.03 0,0.02 0.01,0.03 0.01,0.02 0.01,0.03 0.01,0.02 0.01,0.02 0.01,0.02 0.02,0.02 0.01,0.01 0.02,0.02 0.02,0.01 0.02,0.02 0.02,0.01 0.02,0.01 0.03,0.01 0.03,0.01 0.03,0.01 0.01,0 0.02,0.01 0.02,0 0.02,0 0.01,0.01 0.02,0 0.03,0 0.02,0.01 0.02,0 0.02,0 0.03,0 0.02,0 0.03,0.01 0.02,0 0.03,0 0.03,0 0.03,0 0.03,0 0.03,0 0.03,0 0.04,0 0.03,0 c 0.23,0 0.32,0 0.32,0.2 0,0.11 -0.1,0.11 -0.27,0.11 h -1.31 c -0.26,0 -0.27,0 -0.39,-0.19 l -3.63,-5.66 -0.78,5.62 c -0.03,0.23 -0.05,0.23 -0.31,0.23 h -1.36 c -0.19,0 -0.3,0 -0.3,-0.19 0,-0.12 0.09,-0.12 0.29,-0.12 0.13,0 0.31,-0.01 0.43,-0.02 0.16,-0.02 0.22,-0.05 0.22,-0.16 0,-0.04 -0.01,-0.07 -0.04,-0.19 l -1.27,-5.05 c -0.1,-0.4 -0.26,-0.72 -1.07,-0.75 -0.05,0 -0.18,-0.01 -0.18,-0.19 0,-0.08 0.06,-0.12 0.14,-0.12 0.32,0 0.67,0.04 0.99,0.04 0.34,0 0.7,-0.04 1.03,-0.04 0.05,0 0.18,0 0.18,0.2 0,0.11 -0.11,0.11 -0.18,0.11 -0.57,0.01 -0.68,0.21 -0.68,0.44 0,0.07 0.01,0.12 0.04,0.23 l 1.36,5.41 h 0.01 l 0.85,-6.16 c 0.02,-0.12 0.03,-0.23 0.15,-0.23 0.11,0 0.17,0.11 0.22,0.18 l 4.02,6.29 h 0.01 l -1.42,-5.69 c -0.1,-0.39 -0.12,-0.47 -0.91,-0.47 -0.17,0 -0.28,0 -0.28,-0.19 0,-0.12 0.12,-0.12 0.15,-0.12 0.28,0 0.96,0.04 1.23,0.04 0.41,0 0.84,-0.04 1.25,-0.04 0.06,0 0.19,0 0.19,0.2 0,0.11 -0.09,0.11 -0.28,0.11 -0.37,0 -0.65,0 -0.65,0.18 0,0.04 0,0.06 0.05,0.24 z"
         inkscape:connector-curvature="0"
         style="fill:#000000;stroke-width:0" /><path
         id="path4268"
         d="m 235.28,710.25 0,0 0,0 0,0 0,0 0,0 0,0 0,0.01 0,0 0,0 0,0 0,0.01 0,0 0.01,0 0,0.01 0,0 0,0.01 0,0 0,0.01 0,0.01 0,0 0.01,0.01 0,0 0,0 0,0.01 0,0 0,0.01 0,0 0,0 0,0.01 0,0 0,0 0,0 0,0 0,0 0,0.01 0,0 0,0 0,0 0,0 0,0 0,0 c 0,0.03 -0.02,0.1 -0.11,0.1 -0.14,0 -0.71,-0.06 -0.89,-0.07 -0.05,-0.01 -0.15,-0.02 -0.15,-0.16 0,-0.1 0.1,-0.1 0.18,-0.1 0.33,0 0.33,-0.05 0.33,-0.1 0,-0.05 -0.01,-0.1 -0.02,-0.16 l -0.99,-3.93 c -0.03,-0.13 -0.03,-0.14 -0.03,-0.16 0,-0.1 0.08,-0.22 0.24,-0.22 0.18,0 0.27,0.14 0.32,0.29 0.01,0.03 0.31,1.25 0.34,1.35 0.49,-0.05 0.89,-0.21 0.89,-0.57 0,-0.03 0,-0.07 -0.01,-0.14 -0.03,-0.1 -0.03,-0.14 -0.03,-0.21 0,-0.5 0.4,-0.72 0.74,-0.72 0.67,0 0.88,1.06 0.88,1.06 0,0.1 -0.09,0.1 -0.11,0.1 -0.1,0 -0.11,-0.04 -0.14,-0.17 -0.08,-0.3 -0.27,-0.79 -0.61,-0.79 -0.19,0 -0.25,0.17 -0.25,0.36 0,0.12 0,0.13 0.05,0.31 0,0.02 0.03,0.14 0.03,0.22 0,0.62 -0.84,0.71 -1.13,0.73 0.2,0.13 0.46,0.36 0.58,0.46 0.35,0.34 0.7,0.66 1.09,0.66 0.09,0 0.18,-0.02 0.23,-0.09 -0.3,-0.05 -0.36,-0.28 -0.36,-0.39 0,-0.15 0.12,-0.25 0.28,-0.25 0.19,0 0.4,0.15 0.4,0.44 0,0.23 -0.17,0.49 -0.54,0.49 -0.4,0 -0.76,-0.29 -1.11,-0.61 -0.3,-0.28 -0.53,-0.5 -0.81,-0.62 z"
         inkscape:connector-curvature="0"
         style="fill:#000000;stroke-width:0" /><path
         id="path4270"
         d="m 240.02,707.14 0,0.06 0,0.05 -0.01,0.06 0,0.06 -0.01,0.05 -0.01,0.05 -0.01,0.06 -0.01,0.04 -0.01,0.05 -0.01,0.05 -0.01,0.04 -0.02,0.04 -0.02,0.04 -0.01,0.04 -0.02,0.04 -0.02,0.03 -0.03,0.04 -0.02,0.03 -0.02,0.02 -0.03,0.03 -0.02,0.03 -0.03,0.02 -0.03,0.02 -0.02,0.02 -0.03,0.01 -0.04,0.02 -0.03,0.01 -0.03,0.01 -0.03,0.01 -0.04,0 -0.03,0.01 -0.04,0 c -0.33,0 -0.53,-0.25 -0.53,-0.53 0,-0.27 0.2,-0.53 0.53,-0.53 0.12,0 0.25,0.04 0.35,0.13 0.03,0.02 0.04,0.03 0.05,0.03 0.01,0 0.02,-0.01 0.02,-0.14 0,-0.74 -0.35,-1.34 -0.68,-1.66 -0.11,-0.11 -0.11,-0.13 -0.11,-0.16 0,-0.07 0.05,-0.11 0.1,-0.11 0.11,0 0.91,0.76 0.91,1.93 z"
         inkscape:connector-curvature="0"
         style="fill:#000000;stroke-width:0" /><path
         id="path4272"
         d="m 244.01,707.9 -0.01,-0.04 -0.01,-0.03 0,-0.03 -0.01,-0.03 -0.01,-0.03 -0.01,-0.03 -0.01,-0.02 -0.01,-0.03 -0.01,-0.02 -0.01,-0.02 -0.02,-0.02 -0.01,-0.02 -0.02,-0.02 -0.01,-0.01 -0.02,-0.02 -0.02,-0.01 -0.03,-0.01 -0.02,-0.01 -0.03,-0.01 -0.03,-0.01 -0.03,-0.01 -0.02,0 -0.01,-0.01 -0.02,0 -0.02,0 -0.02,-0.01 -0.02,0 -0.03,0 -0.02,0 -0.02,-0.01 -0.03,0 -0.02,0 -0.03,0 -0.02,0 -0.03,0 -0.03,0 -0.03,0 -0.03,-0.01 -0.03,0 -0.04,0 -0.03,0 -0.04,0 -0.03,0 c -0.17,0 -0.28,0 -0.28,-0.19 0,-0.12 0.09,-0.12 0.28,-0.12 h 3.29 l -0.18,0.31 h -1.12 c -0.14,0 -0.16,0 -0.22,0.01 -0.1,0.01 -0.13,0.02 -0.13,0.1 0,0.03 0,0.05 0.05,0.23 l 1.36,5.45 c 0.09,0.35 0.11,0.38 0.54,0.38 h 1.06 c 0.98,0 1.8,-0.52 1.8,-1.84 0,-0.48 -0.19,-2.11 -1.04,-3.21 -0.29,-0.36 -1.07,-1.12 -2.3,-1.12 l 0.18,-0.31 c 2.07,0 4.03,2.1 4.03,4.28 0,1.4 -0.85,2.51 -2.34,2.51 h -3.34 c -0.19,0 -0.3,0 -0.3,-0.19 0,-0.12 0.09,-0.12 0.29,-0.12 0.13,0 0.31,-0.01 0.43,-0.02 0.16,-0.02 0.21,-0.05 0.21,-0.16 0,-0.04 0,-0.07 -0.03,-0.19 z"
         inkscape:connector-curvature="0"
         style="fill:#000000;stroke-width:0" /><path
         id="path4274"
         d="m 252.85,710.25 0.01,0 0,0 0,0 0,0 0,0 0,0 0,0.01 0,0 0,0 0,0 0,0.01 0,0 0,0 0,0.01 0.01,0 0,0.01 0,0 0,0.01 0,0.01 0,0 0,0.01 0,0 0.01,0 0,0.01 0,0 0,0.01 0,0 0,0 0,0.01 0,0 0,0 0,0 0,0 0,0 0,0.01 0,0 0,0 0,0 0,0 0,0 0,0 c 0,0.03 -0.03,0.1 -0.11,0.1 -0.14,0 -0.72,-0.06 -0.89,-0.07 -0.06,-0.01 -0.15,-0.02 -0.15,-0.16 0,-0.1 0.09,-0.1 0.18,-0.1 0.33,0 0.33,-0.05 0.33,-0.1 0,-0.05 -0.01,-0.1 -0.03,-0.16 l -0.98,-3.93 c -0.03,-0.13 -0.03,-0.14 -0.03,-0.16 0,-0.1 0.08,-0.22 0.23,-0.22 0.19,0 0.28,0.14 0.33,0.29 0.01,0.03 0.31,1.25 0.34,1.35 0.49,-0.05 0.89,-0.21 0.89,-0.57 0,-0.03 0,-0.07 -0.02,-0.14 -0.02,-0.1 -0.02,-0.14 -0.02,-0.21 0,-0.5 0.4,-0.72 0.73,-0.72 0.68,0 0.89,1.06 0.89,1.06 0,0.1 -0.09,0.1 -0.11,0.1 -0.1,0 -0.11,-0.04 -0.14,-0.17 -0.09,-0.3 -0.27,-0.79 -0.61,-0.79 -0.19,0 -0.25,0.17 -0.25,0.36 0,0.12 0,0.13 0.04,0.31 0.01,0.02 0.04,0.14 0.04,0.22 0,0.62 -0.84,0.71 -1.13,0.73 0.2,0.13 0.46,0.36 0.58,0.46 0.35,0.34 0.7,0.66 1.09,0.66 0.08,0 0.18,-0.02 0.23,-0.09 -0.3,-0.05 -0.36,-0.28 -0.36,-0.39 0,-0.15 0.12,-0.25 0.28,-0.25 0.18,0 0.39,0.15 0.39,0.44 0,0.23 -0.16,0.49 -0.53,0.49 -0.4,0 -0.76,-0.29 -1.12,-0.61 -0.29,-0.28 -0.52,-0.5 -0.81,-0.62 z"
         inkscape:connector-curvature="0"
         style="fill:#000000;stroke-width:0" /></g>  </g>
</svg>
