<?xml version="1.0" encoding="UTF-8" standalone="no"?>
<!-- Created with Inkscape (http://www.inkscape.org/) -->

<svg
   xmlns:ns0="http://www.iki.fi/pav/software/textext/"
   xmlns:dc="http://purl.org/dc/elements/1.1/"
   xmlns:cc="http://creativecommons.org/ns#"
   xmlns:rdf="http://www.w3.org/1999/02/22-rdf-syntax-ns#"
   xmlns:svg="http://www.w3.org/2000/svg"
   xmlns="http://www.w3.org/2000/svg"
   xmlns:sodipodi="http://sodipodi.sourceforge.net/DTD/sodipodi-0.dtd"
   xmlns:inkscape="http://www.inkscape.org/namespaces/inkscape"
   id="svg2"
   version="1.1"
   inkscape:version="0.48.4 r9939"
   width="540"
   height="282.5"
   xml:space="preserve"
   sodipodi:docname="check50mod1.eps"><metadata
     id="metadata8"><rdf:RDF><cc:Work
         rdf:about=""><dc:format>image/svg+xml</dc:format><dc:type
           rdf:resource="http://purl.org/dc/dcmitype/StillImage" /><dc:title></dc:title></cc:Work></rdf:RDF></metadata><defs
     id="defs6" /><sodipodi:namedview
     pagecolor="#ffffff"
     bordercolor="#666666"
     borderopacity="1"
     objecttolerance="10"
     gridtolerance="10"
     guidetolerance="10"
     inkscape:pageopacity="0"
     inkscape:pageshadow="2"
     inkscape:window-width="1001"
     inkscape:window-height="821"
     id="namedview4"
     showgrid="false"
     inkscape:zoom="1.3"
     inkscape:cx="285.04355"
     inkscape:cy="45.521732"
     inkscape:window-x="73"
     inkscape:window-y="24"
     inkscape:window-maximized="0"
     inkscape:current-layer="g10" /><g
     id="g10"
     inkscape:groupmode="layer"
     inkscape:label="ink_ext_XXXXXX"
     transform="matrix(1.25,0,0,-1.25,0,282.5)"><g
       id="g12"
       transform="matrix(0.0907761,0,0,0.08694272,14.505182,10.651545)"><path
         d="m 756,434 31.5,0"
         style="fill:none;stroke:#000000;stroke-width:5;stroke-linecap:butt;stroke-linejoin:miter;stroke-miterlimit:3.79999995;stroke-opacity:1;stroke-dasharray:none"
         id="path14"
         inkscape:connector-curvature="0" /><g
         id="g16"
         transform="scale(10,10)"><text
           transform="matrix(1,0,0,-1,28.2793,36.6852)"
           id="text18"><tspan
             style="font-size:15.5px;font-variant:normal;font-weight:normal;writing-mode:lr-tb;fill:#000000;fill-opacity:1;fill-rule:nonzero;stroke:none;font-family:Times New Roman;-inkscape-font-specification:Times New"
             x="0 5.1615"
             y="0"
             sodipodi:role="line"
             id="tspan20">-4</tspan></text>
<text
           transform="matrix(1,0,0,-1,41.1906,36.6852)"
           id="text22"><tspan
             style="font-size:15.5px;font-variant:normal;font-weight:normal;writing-mode:lr-tb;fill:#000000;fill-opacity:1;fill-rule:nonzero;stroke:none;font-family:Symbol;-inkscape-font-specification:Symbol"
             x="0"
             y="0"
             id="tspan24">×</tspan></text>
<text
           transform="matrix(1,0,0,-1,49.69998,36.6852)"
           id="text26"><tspan
             style="font-size:15.5px;font-variant:normal;font-weight:normal;writing-mode:lr-tb;fill:#000000;fill-opacity:1;fill-rule:nonzero;stroke:none;font-family:Times New Roman;-inkscape-font-specification:Times New"
             x="0 7.75"
             y="0"
             sodipodi:role="line"
             id="tspan28">10</tspan></text>
<text
           transform="matrix(1,0,0,-1,65.19998,44.4352)"
           id="text30"><tspan
             style="font-size:12.39999962px;font-variant:normal;font-weight:normal;writing-mode:lr-tb;fill:#000000;fill-opacity:1;fill-rule:nonzero;stroke:none;font-family:Times New Roman;-inkscape-font-specification:Times New"
             x="0"
             y="0"
             id="tspan32">6</tspan></text>
</g><path
         d="m 756,871.5 31.5,0"
         style="fill:none;stroke:#000000;stroke-width:5;stroke-linecap:butt;stroke-linejoin:miter;stroke-miterlimit:3.79999995;stroke-opacity:1;stroke-dasharray:none"
         id="path34"
         inkscape:connector-curvature="0" /><g
         id="g36"
         transform="scale(10,10)"><text
           transform="matrix(1,0,0,-1,28.2793,80.4352)"
           id="text38"><tspan
             style="font-size:15.5px;font-variant:normal;font-weight:normal;writing-mode:lr-tb;fill:#000000;fill-opacity:1;fill-rule:nonzero;stroke:none;font-family:Times New Roman;-inkscape-font-specification:Times New"
             x="0 5.1615"
             y="0"
             sodipodi:role="line"
             id="tspan40">-2</tspan></text>
<text
           transform="matrix(1,0,0,-1,41.1906,80.4352)"
           id="text42"><tspan
             style="font-size:15.5px;font-variant:normal;font-weight:normal;writing-mode:lr-tb;fill:#000000;fill-opacity:1;fill-rule:nonzero;stroke:none;font-family:Symbol;-inkscape-font-specification:Symbol"
             x="0"
             y="0"
             id="tspan44">×</tspan></text>
<text
           transform="matrix(1,0,0,-1,49.69998,80.4352)"
           id="text46"><tspan
             style="font-size:15.5px;font-variant:normal;font-weight:normal;writing-mode:lr-tb;fill:#000000;fill-opacity:1;fill-rule:nonzero;stroke:none;font-family:Times New Roman;-inkscape-font-specification:Times New"
             x="0 7.75"
             y="0"
             sodipodi:role="line"
             id="tspan48">10</tspan></text>
<text
           transform="matrix(1,0,0,-1,65.19998,88.1852)"
           id="text50"><tspan
             style="font-size:12.39999962px;font-variant:normal;font-weight:normal;writing-mode:lr-tb;fill:#000000;fill-opacity:1;fill-rule:nonzero;stroke:none;font-family:Times New Roman;-inkscape-font-specification:Times New"
             x="0"
             y="0"
             id="tspan52">6</tspan></text>
</g><path
         d="m 756,1309 31.5,0"
         style="fill:none;stroke:#000000;stroke-width:5;stroke-linecap:butt;stroke-linejoin:miter;stroke-miterlimit:3.79999995;stroke-opacity:1;stroke-dasharray:none"
         id="path54"
         inkscape:connector-curvature="0" /><g
         id="g56"
         transform="scale(10,10)"><text
           transform="matrix(1,0,0,-1,33.4406,124.185)"
           id="text58"><tspan
             style="font-size:15.5px;font-variant:normal;font-weight:normal;writing-mode:lr-tb;fill:#000000;fill-opacity:1;fill-rule:nonzero;stroke:none;font-family:Times New Roman;-inkscape-font-specification:Times New"
             x="0"
             y="0"
             id="tspan60">0</tspan></text>
<text
           transform="matrix(1,0,0,-1,41.1906,124.185)"
           id="text62"><tspan
             style="font-size:15.5px;font-variant:normal;font-weight:normal;writing-mode:lr-tb;fill:#000000;fill-opacity:1;fill-rule:nonzero;stroke:none;font-family:Symbol;-inkscape-font-specification:Symbol"
             x="0"
             y="0"
             id="tspan64">×</tspan></text>
<text
           transform="matrix(1,0,0,-1,49.69998,124.185)"
           id="text66"><tspan
             style="font-size:15.5px;font-variant:normal;font-weight:normal;writing-mode:lr-tb;fill:#000000;fill-opacity:1;fill-rule:nonzero;stroke:none;font-family:Times New Roman;-inkscape-font-specification:Times New"
             x="0 7.75"
             y="0"
             sodipodi:role="line"
             id="tspan68">10</tspan></text>
<text
           transform="matrix(1,0,0,-1,65.19998,131.935)"
           id="text70"><tspan
             style="font-size:12.39999962px;font-variant:normal;font-weight:normal;writing-mode:lr-tb;fill:#000000;fill-opacity:1;fill-rule:nonzero;stroke:none;font-family:Times New Roman;-inkscape-font-specification:Times New"
             x="0"
             y="0"
             id="tspan72">0</tspan></text>
</g><path
         d="m 756,1746 31.5,0"
         style="fill:none;stroke:#000000;stroke-width:5;stroke-linecap:butt;stroke-linejoin:miter;stroke-miterlimit:3.79999995;stroke-opacity:1;stroke-dasharray:none"
         id="path74"
         inkscape:connector-curvature="0" /><g
         id="g76"
         transform="scale(10,10)"><text
           transform="matrix(1,0,0,-1,33.4406,167.885)"
           id="text78"><tspan
             style="font-size:15.5px;font-variant:normal;font-weight:normal;writing-mode:lr-tb;fill:#000000;fill-opacity:1;fill-rule:nonzero;stroke:none;font-family:Times New Roman;-inkscape-font-specification:Times New"
             x="0"
             y="0"
             id="tspan80">2</tspan></text>
<text
           transform="matrix(1,0,0,-1,41.1906,167.885)"
           id="text82"><tspan
             style="font-size:15.5px;font-variant:normal;font-weight:normal;writing-mode:lr-tb;fill:#000000;fill-opacity:1;fill-rule:nonzero;stroke:none;font-family:Symbol;-inkscape-font-specification:Symbol"
             x="0"
             y="0"
             id="tspan84">×</tspan></text>
<text
           transform="matrix(1,0,0,-1,49.69998,167.885)"
           id="text86"><tspan
             style="font-size:15.5px;font-variant:normal;font-weight:normal;writing-mode:lr-tb;fill:#000000;fill-opacity:1;fill-rule:nonzero;stroke:none;font-family:Times New Roman;-inkscape-font-specification:Times New"
             x="0 7.75"
             y="0"
             sodipodi:role="line"
             id="tspan88">10</tspan></text>
<text
           transform="matrix(1,0,0,-1,65.19998,175.635)"
           id="text90"><tspan
             style="font-size:12.39999962px;font-variant:normal;font-weight:normal;writing-mode:lr-tb;fill:#000000;fill-opacity:1;fill-rule:nonzero;stroke:none;font-family:Times New Roman;-inkscape-font-specification:Times New"
             x="0"
             y="0"
             id="tspan92">6</tspan></text>
</g><path
         d="m 756,2183.5 31.5,0"
         style="fill:none;stroke:#000000;stroke-width:5;stroke-linecap:butt;stroke-linejoin:miter;stroke-miterlimit:3.79999995;stroke-opacity:1;stroke-dasharray:none"
         id="path94"
         inkscape:connector-curvature="0" /><g
         id="g96"
         transform="scale(10,10)"><text
           transform="matrix(1,0,0,-1,33.4406,211.635)"
           id="text98"><tspan
             style="font-size:15.5px;font-variant:normal;font-weight:normal;writing-mode:lr-tb;fill:#000000;fill-opacity:1;fill-rule:nonzero;stroke:none;font-family:Times New Roman;-inkscape-font-specification:Times New"
             x="0"
             y="0"
             id="tspan100">4</tspan></text>
<text
           transform="matrix(1,0,0,-1,41.1906,211.635)"
           id="text102"><tspan
             style="font-size:15.5px;font-variant:normal;font-weight:normal;writing-mode:lr-tb;fill:#000000;fill-opacity:1;fill-rule:nonzero;stroke:none;font-family:Symbol;-inkscape-font-specification:Symbol"
             x="0"
             y="0"
             id="tspan104">×</tspan></text>
<text
           transform="matrix(1,0,0,-1,49.69998,211.635)"
           id="text106"><tspan
             style="font-size:15.5px;font-variant:normal;font-weight:normal;writing-mode:lr-tb;fill:#000000;fill-opacity:1;fill-rule:nonzero;stroke:none;font-family:Times New Roman;-inkscape-font-specification:Times New"
             x="0 7.75"
             y="0"
             sodipodi:role="line"
             id="tspan108">10</tspan></text>
<text
           transform="matrix(1,0,0,-1,65.19998,219.385)"
           id="text110"><tspan
             style="font-size:12.39999962px;font-variant:normal;font-weight:normal;writing-mode:lr-tb;fill:#000000;fill-opacity:1;fill-rule:nonzero;stroke:none;font-family:Times New Roman;-inkscape-font-specification:Times New"
             x="0"
             y="0"
             id="tspan112">6</tspan></text>
</g><path
         d="m 756,434 0,31.5 m 0,1718 0,-31.5"
         style="fill:none;stroke:#000000;stroke-width:5;stroke-linecap:butt;stroke-linejoin:miter;stroke-miterlimit:3.79999995;stroke-opacity:1;stroke-dasharray:none"
         id="path114"
         inkscape:connector-curvature="0" /><g
         id="g116"
         transform="scale(10,10)"><text
           transform="matrix(1,0,0,-1,65.9125,31.2352)"
           id="text118"><tspan
             style="font-size:15.5px;font-variant:normal;font-weight:normal;writing-mode:lr-tb;fill:#000000;fill-opacity:1;fill-rule:nonzero;stroke:none;font-family:Times New Roman;-inkscape-font-specification:Times New"
             x="0 7.75 11.625"
             y="0"
             sodipodi:role="line"
             id="tspan120">0.0</tspan></text>
</g><path
         d="m 1247,434 0,31.5 m 0,1718 0,-31.5"
         style="fill:none;stroke:#000000;stroke-width:5;stroke-linecap:butt;stroke-linejoin:miter;stroke-miterlimit:3.79999995;stroke-opacity:1;stroke-dasharray:none"
         id="path122"
         inkscape:connector-curvature="0" /><g
         id="g124"
         transform="scale(10,10)"><text
           transform="matrix(1,0,0,-1,115.013,31.2352)"
           id="text126"><tspan
             style="font-size:15.5px;font-variant:normal;font-weight:normal;writing-mode:lr-tb;fill:#000000;fill-opacity:1;fill-rule:nonzero;stroke:none;font-family:Times New Roman;-inkscape-font-specification:Times New"
             x="0 7.75 11.625"
             y="0"
             sodipodi:role="line"
             id="tspan128">0.5</tspan></text>
</g><path
         d="m 1738.5,434 0,31.5 m 0,1718 0,-31.5"
         style="fill:none;stroke:#000000;stroke-width:5;stroke-linecap:butt;stroke-linejoin:miter;stroke-miterlimit:3.79999995;stroke-opacity:1;stroke-dasharray:none"
         id="path130"
         inkscape:connector-curvature="0" /><g
         id="g132"
         transform="scale(10,10)"><text
           transform="matrix(1,0,0,-1,164.163,31.2352)"
           id="text134"><tspan
             style="font-size:15.5px;font-variant:normal;font-weight:normal;writing-mode:lr-tb;fill:#000000;fill-opacity:1;fill-rule:nonzero;stroke:none;font-family:Times New Roman;-inkscape-font-specification:Times New"
             x="0 7.75 11.625"
             y="0"
             sodipodi:role="line"
             id="tspan136">1.0</tspan></text>
</g><path
         d="m 2229.5,434 0,31.5 m 0,1718 0,-31.5"
         style="fill:none;stroke:#000000;stroke-width:5;stroke-linecap:butt;stroke-linejoin:miter;stroke-miterlimit:3.79999995;stroke-opacity:1;stroke-dasharray:none"
         id="path138"
         inkscape:connector-curvature="0" /><g
         id="g140"
         transform="scale(10,10)"><text
           transform="matrix(1,0,0,-1,213.263,31.2352)"
           id="text142"><tspan
             style="font-size:15.5px;font-variant:normal;font-weight:normal;writing-mode:lr-tb;fill:#000000;fill-opacity:1;fill-rule:nonzero;stroke:none;font-family:Times New Roman;-inkscape-font-specification:Times New"
             x="0 7.75 11.625"
             y="0"
             sodipodi:role="line"
             id="tspan144">1.5</tspan></text>
</g><path
         d="m 2720.5,434 0,31.5 m 0,1718 0,-31.5"
         style="fill:none;stroke:#000000;stroke-width:5;stroke-linecap:butt;stroke-linejoin:miter;stroke-miterlimit:3.79999995;stroke-opacity:1;stroke-dasharray:none"
         id="path146"
         inkscape:connector-curvature="0" /><g
         id="g148"
         transform="scale(10,10)"><text
           transform="matrix(1,0,0,-1,262.363,31.2352)"
           id="text150"><tspan
             style="font-size:15.5px;font-variant:normal;font-weight:normal;writing-mode:lr-tb;fill:#000000;fill-opacity:1;fill-rule:nonzero;stroke:none;font-family:Times New Roman;-inkscape-font-specification:Times New"
             x="0 7.75 11.625"
             y="0"
             sodipodi:role="line"
             id="tspan152">2.0</tspan></text>
</g><path
         d="m 3212,434 0,31.5 m 0,1718 0,-31.5"
         style="fill:none;stroke:#000000;stroke-width:5;stroke-linecap:butt;stroke-linejoin:miter;stroke-miterlimit:3.79999995;stroke-opacity:1;stroke-dasharray:none"
         id="path154"
         inkscape:connector-curvature="0" /><g
         id="g156"
         transform="scale(10,10)"><text
           transform="matrix(1,0,0,-1,311.513,31.2352)"
           id="text158"><tspan
             style="font-size:15.5px;font-variant:normal;font-weight:normal;writing-mode:lr-tb;fill:#000000;fill-opacity:1;fill-rule:nonzero;stroke:none;font-family:Times New Roman;-inkscape-font-specification:Times New"
             x="0 7.75 11.625"
             y="0"
             sodipodi:role="line"
             id="tspan160">2.5</tspan></text>
</g><path
         d="m 3703,434 0,31.5 m 0,1718 0,-31.5"
         style="fill:none;stroke:#000000;stroke-width:5;stroke-linecap:butt;stroke-linejoin:miter;stroke-miterlimit:3.79999995;stroke-opacity:1;stroke-dasharray:none"
         id="path162"
         inkscape:connector-curvature="0" /><g
         id="g164"
         transform="scale(10,10)"><text
           transform="matrix(1,0,0,-1,360.613,31.2352)"
           id="text166"><tspan
             style="font-size:15.5px;font-variant:normal;font-weight:normal;writing-mode:lr-tb;fill:#000000;fill-opacity:1;fill-rule:nonzero;stroke:none;font-family:Times New Roman;-inkscape-font-specification:Times New"
             x="0 7.75 11.625"
             y="0"
             sodipodi:role="line"
             id="tspan168">3.0</tspan></text>
</g><path
         d="m 3703,673 -31.5,0"
         style="fill:none;stroke:#000000;stroke-width:5;stroke-linecap:butt;stroke-linejoin:miter;stroke-miterlimit:3.79999995;stroke-opacity:1;stroke-dasharray:none"
         id="path170"
         inkscape:connector-curvature="0" /><g
         id="g172"
         transform="scale(10,10)"><text
           transform="matrix(1,0,0,-1,378.375,62.1352)"
           id="text174"><tspan
             style="font-size:15.5px;font-variant:normal;font-weight:normal;writing-mode:lr-tb;fill:#000000;fill-opacity:1;fill-rule:nonzero;stroke:none;font-family:Times New Roman;-inkscape-font-specification:Times New"
             x="0"
             y="0"
             id="tspan176">2</tspan></text>
</g><path
         d="m 3703,925 -31.5,0"
         style="fill:none;stroke:#000000;stroke-width:5;stroke-linecap:butt;stroke-linejoin:miter;stroke-miterlimit:3.79999995;stroke-opacity:1;stroke-dasharray:none"
         id="path178"
         inkscape:connector-curvature="0" /><g
         id="g180"
         transform="scale(10,10)"><text
           transform="matrix(1,0,0,-1,378.375,87.3352)"
           id="text182"><tspan
             style="font-size:15.5px;font-variant:normal;font-weight:normal;writing-mode:lr-tb;fill:#000000;fill-opacity:1;fill-rule:nonzero;stroke:none;font-family:Times New Roman;-inkscape-font-specification:Times New"
             x="0"
             y="0"
             id="tspan184">4</tspan></text>
</g><path
         d="m 3703,1176.5 -31.5,0"
         style="fill:none;stroke:#000000;stroke-width:5;stroke-linecap:butt;stroke-linejoin:miter;stroke-miterlimit:3.79999995;stroke-opacity:1;stroke-dasharray:none"
         id="path186"
         inkscape:connector-curvature="0" /><g
         id="g188"
         transform="scale(10,10)"><text
           transform="matrix(1,0,0,-1,378.375,112.485)"
           id="text190"><tspan
             style="font-size:15.5px;font-variant:normal;font-weight:normal;writing-mode:lr-tb;fill:#000000;fill-opacity:1;fill-rule:nonzero;stroke:none;font-family:Times New Roman;-inkscape-font-specification:Times New"
             x="0"
             y="0"
             id="tspan192">6</tspan></text>
</g><path
         d="m 3703,1428.5 -31.5,0"
         style="fill:none;stroke:#000000;stroke-width:5;stroke-linecap:butt;stroke-linejoin:miter;stroke-miterlimit:3.79999995;stroke-opacity:1;stroke-dasharray:none"
         id="path194"
         inkscape:connector-curvature="0" /><g
         id="g196"
         transform="scale(10,10)"><text
           transform="matrix(1,0,0,-1,378.375,137.685)"
           id="text198"><tspan
             style="font-size:15.5px;font-variant:normal;font-weight:normal;writing-mode:lr-tb;fill:#000000;fill-opacity:1;fill-rule:nonzero;stroke:none;font-family:Times New Roman;-inkscape-font-specification:Times New"
             x="0"
             y="0"
             id="tspan200">8</tspan></text>
</g><path
         d="m 3703,1680 -31.5,0"
         style="fill:none;stroke:#000000;stroke-width:5;stroke-linecap:butt;stroke-linejoin:miter;stroke-miterlimit:3.79999995;stroke-opacity:1;stroke-dasharray:none"
         id="path202"
         inkscape:connector-curvature="0" /><g
         id="g204"
         transform="scale(10,10)"><text
           transform="matrix(1,0,0,-1,378.375,162.835)"
           id="text206"><tspan
             style="font-size:15.5px;font-variant:normal;font-weight:normal;writing-mode:lr-tb;fill:#000000;fill-opacity:1;fill-rule:nonzero;stroke:none;font-family:Times New Roman;-inkscape-font-specification:Times New"
             x="0 7.75"
             y="0"
             sodipodi:role="line"
             id="tspan208">10</tspan></text>
</g><path
         d="m 3703,1932 -31.5,0"
         style="fill:none;stroke:#000000;stroke-width:5;stroke-linecap:butt;stroke-linejoin:miter;stroke-miterlimit:3.79999995;stroke-opacity:1;stroke-dasharray:none"
         id="path210"
         inkscape:connector-curvature="0" /><g
         id="g212"
         transform="scale(10,10)"><text
           transform="matrix(1,0,0,-1,378.375,188.035)"
           id="text214"><tspan
             style="font-size:15.5px;font-variant:normal;font-weight:normal;writing-mode:lr-tb;fill:#000000;fill-opacity:1;fill-rule:nonzero;stroke:none;font-family:Times New Roman;-inkscape-font-specification:Times New"
             x="0 7.75"
             y="0"
             sodipodi:role="line"
             id="tspan216">12</tspan></text>
</g><path
         d="m 3703,2183.5 -31.5,0"
         style="fill:none;stroke:#000000;stroke-width:5;stroke-linecap:butt;stroke-linejoin:miter;stroke-miterlimit:3.79999995;stroke-opacity:1;stroke-dasharray:none"
         id="path218"
         inkscape:connector-curvature="0" /><g
         id="g220"
         transform="scale(10,10)"><text
           transform="matrix(1,0,0,-1,378.375,213.185)"
           id="text222"><tspan
             style="font-size:15.5px;font-variant:normal;font-weight:normal;writing-mode:lr-tb;fill:#000000;fill-opacity:1;fill-rule:nonzero;stroke:none;font-family:Times New Roman;-inkscape-font-specification:Times New"
             x="0 7.75"
             y="0"
             sodipodi:role="line"
             id="tspan224">14</tspan></text>
</g><path
         d="m 756,434 2947,0 0,1749.5 -2947,0 0,-1749.5 z"
         style="fill:none;stroke:#000000;stroke-width:5;stroke-linecap:butt;stroke-linejoin:miter;stroke-miterlimit:3.79999995;stroke-opacity:1;stroke-dasharray:none"
         id="path226"
         inkscape:connector-curvature="0" /><g
         id="g228"
         transform="scale(10,10)"><text
           transform="matrix(0,1,1,0,420.915,59.8227)"
           id="text230"><tspan
             style="font-size:15.5px;font-variant:normal;font-weight:normal;writing-mode:lr-tb;fill:#000000;fill-opacity:1;fill-rule:nonzero;stroke:none;font-family:Times New Roman;-inkscape-font-specification:Times"
             x="0 9.4705 15.5 19.809 24.118 36.176998 43.058998 47.368 51.676998 59.426998 67.177002 71.052002 82.242996 89.125 93.433998 101.184 108.066 111.941 117.1025 122.264 129.146 136.896"
             y="0"
             sodipodi:role="line"
             id="tspan232">Estimation Value [rad]</tspan></text>
<text
           transform="matrix(1,0,0,-1,196.477,-0.264844)"
           id="text234"><tspan
             style="font-size:15.5px;font-variant:normal;font-weight:normal;writing-mode:lr-tb;fill:#000000;fill-opacity:1;fill-rule:nonzero;stroke:none;font-family:Times New Roman;-inkscape-font-specification:Times"
             x="0 9.4705 13.7795 25.838499 32.720501 36.595501 41.757 47.786499"
             y="0"
             sodipodi:role="line"
             id="tspan236">Time [s]</tspan></text>
</g><path
         d="m 2705.5,1606 955.5,0 0,546 -955.5,0 0,-546 z"
         style="fill:none;stroke:#ffffff;stroke-width:5;stroke-linecap:butt;stroke-linejoin:miter;stroke-miterlimit:3.79999995;stroke-opacity:1;stroke-dasharray:none"
         id="path238"
         inkscape:connector-curvature="0" /><path
         d="m 1168.5,1238 19.5,0 0,12.5 20,0 0,27.5 19.5,0 0,6.5 39.5,0 0,-7 19.5,0 0,-5.5 19.5,0 0,7.5 20,0 0,7.5 19.5,0 0,-4.5 19.5,0 0,-10 19.5,0 0,-11 20,0 0,-7 19.5,0 0,9.5 19.5,0 0,7.5 20,0 0,-15.5 19.5,0 0,-27 19.5,0 0,-45 19.5,0 0,70.5 98.5,0 0,23.5 19.5,0 0,-13 19.5,0 0,-3 20,0 0,10 19.5,0 0,10.5 19.5,0 0,9 20,0 0,-0.5 19.5,0 0,-7 19.5,0 0,-4 20,0 0,-5 19.5,0 0,-5 19.5,0 0,-3.5 19.5,0 0,0.5 20,0 0,8.5 39,0 0,-22.5 20,0 0,-30.5 19.5,0 0,-23 19.5,0 0,67.5 98.5,0 0,-11 19.5,0 0,5 19.5,0 0,10.5 20,0 0,4 19.5,0 0,1 19.5,0 0,4 19.5,0 0,5 20,0 0,1.5 19.5,0 0,-3 19.5,0 0,-8 20,0 0,-9 19.5,0 0,2"
         style="fill:none;stroke:#ff0000;stroke-width:7.5;stroke-linecap:butt;stroke-linejoin:miter;stroke-miterlimit:3.79999995;stroke-opacity:1;stroke-dasharray:none"
         id="path240"
         inkscape:connector-curvature="0" /><path
         d="m 2288.5,1269 19.5,0 0,5 19.5,0 0,-11.5 20,0 0,-12 19.5,0 0,-1.5 19.5,0 0,-16.5 20,0 0,-29.5 19.5,0 0,71 98,0 0,-7.5 20,0 0,-4.5 19.5,0 0,2 19.5,0 0,13 20,0 0,11 19.5,0 0,-3 19.5,0 0,-5 19.5,0 0,5.5 20,0 0,4.5 19.5,0 0,-4.5 19.5,0 0,-9.5 20,0 0,-9 19.5,0 0,-3.5 19.5,0 0,6.5 20,0 0,26.5 19.5,0 0,22 19.5,0 0,-66.5 19.5,0 0,-175.5 20,0 0,187 98,0 0,-24.5 19.5,0 0,26.5 20,0 0,16 19.5,0 0,-1 19.5,0 0,-7 20,0 0,3 19.5,0 0,6 19.5,0 0,4.5 19.5,0 0,-2 20,0 0,-7 19.5,0 0,-2.5 19.5,0 0,-3 20,0 0,-8 19.5,0 0,-9 19.5,0 0,3 20,0 0,3 19.5,0 0,-18 19.5,0 0,-12.5 19.5,0 0,-17.5 20,0 0,42 78.5,0"
         style="fill:none;stroke:#ff0000;stroke-width:7.5;stroke-linecap:butt;stroke-linejoin:miter;stroke-miterlimit:3.79999995;stroke-opacity:1;stroke-dasharray:none"
         id="path242"
         inkscape:connector-curvature="0" /><path
         d="m 3428,1255.5 19.5,0 0,4.5 19.5,0 0,25.5 20,0 0,2 19.5,0 0,-10.5 19.5,0 0,-3 20,0 0,7 19.5,0 0,7.5 19.5,0 0,-1.5 20,0 0,-3.5 19.5,0 0,-2.5 19.5,0 0,-8 19.5,0 0,-10.5 20,0 0,-0.5 19.5,0 0,6.5"
         style="fill:none;stroke:#ff0000;stroke-width:7.5;stroke-linecap:butt;stroke-linejoin:miter;stroke-miterlimit:3.79999995;stroke-opacity:1;stroke-dasharray:none"
         id="path244"
         inkscape:connector-curvature="0" /><path
         d="m 1168.5,1631.5 19.5,0 0,55.5 20,0 0,66.5 19.5,0 0,40 19.5,0 0,25 20,0 0,6.5 19.5,0 0,-1.5 19.5,0 0,4.5 20,0 0,-5 19.5,0 0,-29 19.5,0 0,-43.5 19.5,0 0,-50 20,0 0,-52 19.5,0 0,-44.5 19.5,0 0,-53.5 20,0 0,-69.5 19.5,0 0,-71 19.5,0 0,-65.5 19.5,0 0,-64.5 20,0 0,-61.5 19.5,0 0,-57 19.5,0 0,-65.5 20,0 0,-71.5 19.5,0 0,-59 19.5,0 0,-37.5 19.5,0 0,-38 20,0 0,-44 19.5,0 0,-38 19.5,0 0,-27.5 20,0 0,-7 19.5,0 0,11.5 19.5,0 0,18 20,0 0,27.5 19.5,0 0,36 19.5,0 0,41.5 19.5,0 0,44.5 20,0 0,46 19.5,0 0,58.5 19.5,0 0,72.5 20,0 0,71.5 19.5,0 0,62.5 19.5,0 0,59 19.5,0 0,58.5 20,0 0,66.5 19.5,0 0,75.5 19.5,0 0,60 20,0 0,44 19.5,0 0,52.5 19.5,0 0,52 20,0 0,39.5 19.5,0 0,29 19.5,0 0,22.5 19.5,0 0,15"
         style="fill:none;stroke:#000000;stroke-width:7.5;stroke-linecap:butt;stroke-linejoin:miter;stroke-miterlimit:3.79999995;stroke-opacity:1;stroke-dasharray:none"
         id="path246"
         inkscape:connector-curvature="0" /><path
         d="m 2190,1837.5 20,0 0,0.5 19.5,0 0,-15 19.5,0 0,-30 20,0 0,-38.5 19.5,0 0,-35 19.5,0 0,-40 19.5,0 0,-59.5 20,0 0,-63.5 19.5,0 0,-59 19.5,0 0,-66.5 20,0 0,-65.5 19.5,0 0,-60 19.5,0 0,-60 20,0 0,-62.5 19.5,0 0,-69 19.5,0 0,-65.5 19.5,0 0,-54.5 20,0 0,-46.5 19.5,0 0,-44.5 19.5,0 0,-50 20,0 0,-41.5 19.5,0 0,-17 19.5,0 0,-4 19.5,0 0,-6.5 20,0 0,3.5 19.5,0 0,24.5 19.5,0 0,38.5 20,0 0,45.5 19.5,0 0,46 19.5,0 0,44 20,0 0,39 19.5,0 0,54 19.5,0 0,95 19.5,0 0,91 20,0 0,57.5 19.5,0 0,58 19.5,0 0,62 20,0 0,57 19.5,0 0,45.5 19.5,0 0,54 19.5,0 0,69.5 20,0 0,60 19.5,0 0,37 19.5,0 0,22 20,0 0,24 19.5,0 0,18.5 19.5,0 0,7.5 19.5,0 0,-11 20,0 0,-26 19.5,0 0,-30 19.5,0 0,-37.5 20,0 0,-50"
         style="fill:none;stroke:#000000;stroke-width:7.5;stroke-linecap:butt;stroke-linejoin:miter;stroke-miterlimit:3.79999995;stroke-opacity:1;stroke-dasharray:none"
         id="path248"
         inkscape:connector-curvature="0" /><path
         d="m 3212,1683 19.5,0 0,-55.5 19.5,0 0,-51 20,0 0,-57 19.5,0 0,-68.5 19.5,0 0,-64.5 19.5,0 0,-62 20,0 0,-67.5 19.5,0 0,-64.5 19.5,0 0,-62.5 20,0 0,-56.5 19.5,0 0,-47 19.5,0 0,-62.5 19.5,0 0,-69 20,0 0,-42 19.5,0 0,-19.5 19.5,0 0,-18.5 20,0 0,-21.5 19.5,0 0,-12 19.5,0 0,8.5 20,0 0,20.5 19.5,0 0,28 19.5,0 0,42.5 19.5,0 0,51 20,0 0,47.5 19.5,0 0,48.5"
         style="fill:none;stroke:#000000;stroke-width:7.5;stroke-linecap:butt;stroke-linejoin:miter;stroke-miterlimit:3.79999995;stroke-opacity:1;stroke-dasharray:none"
         id="path250"
         inkscape:connector-curvature="0" /><path
         d="m 1168.5,1301 19.5,0 0,-1 20,0 0,-1 19.5,0 0,-0.5 19.5,0 0,-0.5 20,0 0,-0.5 59,0 0,0.5 19.5,0 0,0.5 19.5,0 0,0.5 19.5,0 0,1 20,0 0,1 19.5,0 0,1 19.5,0 0,1.5 20,0 0,1.5 19.5,0 0,1.5 19.5,0 0,1.5 19.5,0 0,1.5 20,0 0,1.5 19.5,0 0,1 19.5,0 0,1.5 20,0 0,1.5 19.5,0 0,1 19.5,0 0,1 19.5,0 0,1 20,0 0,1 19.5,0 0,0.5 19.5,0 0,0.5 59,0 0,-0.5 20,0 0,-0.5 19.5,0 0,-0.5 19.5,0 0,-1 19.5,0 0,-1 20,0 0,-1 19.5,0 0,-1.5 19.5,0 0,-1 20,0 0,-1.5 19.5,0 0,-1.5 19.5,0 0,-1.5 19.5,0 0,-1.5 20,0 0,-1.5 19.5,0 0,-1.5 19.5,0 0,-1.5 20,0 0,-1 19.5,0 0,-1 19.5,0 0,-1 20,0 0,-1 19.5,0 0,-0.5 19.5,0 0,-0.5 59,0 0,0.5 39.5,0"
         style="fill:none;stroke:#ff00ff;stroke-width:7.5;stroke-linecap:butt;stroke-linejoin:miter;stroke-miterlimit:3.79999995;stroke-opacity:1;stroke-dasharray:none"
         id="path252"
         inkscape:connector-curvature="0" /><path
         d="m 2269,1298 0,1 19.5,0 0,0.5 19.5,0 0,1 19.5,0 0,1.5 20,0 0,1 19.5,0 0,1.5 19.5,0 0,1.5 20,0 0,1.5 19.5,0 0,1.5 19.5,0 0,1.5 20,0 0,1 19.5,0 0,1.5 19.5,0 0,1.5 19.5,0 0,1 20,0 0,1.5 19.5,0 0,1 19.5,0 0,0.5 20,0 0,0.5 19.5,0 0,0.5 19.5,0 0,0.5 39.5,0 0,-0.5 39,0 0,-1 20,0 0,-0.5 19.5,0 0,-1 19.5,0 0,-1 20,0 0,-1.5 19.5,0 0,-1 19.5,0 0,-1.5 19.5,0 0,-1.5 20,0 0,-1.5 19.5,0 0,-1.5 19.5,0 0,-1.5 20,0 0,-1.5 19.5,0 0,-1.5 19.5,0 0,-1 19.5,0 0,-1.5 20,0 0,-0.5 19.5,0 0,-1 19.5,0 0,-0.5 20,0 0,-0.5 19.5,0 0,-0.5 39,0 0,0.5 39.5,0 0,0.5 19.5,0 0,1 20,0 0,1 19.5,0 0,1 19.5,0 0,1 20,0 0,1.5 19.5,0 0,1.5 19.5,0 0,1.5 19.5,0"
         style="fill:none;stroke:#ff00ff;stroke-width:7.5;stroke-linecap:butt;stroke-linejoin:miter;stroke-miterlimit:3.79999995;stroke-opacity:1;stroke-dasharray:none"
         id="path254"
         inkscape:connector-curvature="0" /><path
         d="m 3329.5,1307 0,1.5 20,0 0,1.5 19.5,0 0,1.5 19.5,0 0,1.5 20,0 0,1 19.5,0 0,1.5 19.5,0 0,1 19.5,0 0,1 20,0 0,1 19.5,0 0,0.5 19.5,0 0,0.5 20,0 0,0.5 39,0 0,-0.5 39.5,0 0,-0.5 19.5,0 0,-1 19.5,0 0,-1 20,0 0,-1 19.5,0 0,-1"
         style="fill:none;stroke:#ff00ff;stroke-width:7.5;stroke-linecap:butt;stroke-linejoin:miter;stroke-miterlimit:3.79999995;stroke-opacity:1;stroke-dasharray:none"
         id="path256"
         inkscape:connector-curvature="0" /><path
         d="m 756,1271 2947,0"
         style="fill:none;stroke:#808080;stroke-width:12.5;stroke-linecap:butt;stroke-linejoin:miter;stroke-miterlimit:3.79999995;stroke-opacity:1;stroke-dasharray:5, 7.5;stroke-dashoffset:0"
         id="path258"
         inkscape:connector-curvature="0" /><path
         d="m 2705.5,1606 955.5,0 0,546 -955.5,0 0,-546 z"
         style="fill:#ffffff;fill-opacity:1;fill-rule:nonzero;stroke:none"
         id="path260"
         inkscape:connector-curvature="0" /><path
         d="m 2705.5,1606 955.5,0 0,546 -955.5,0 0,-546 z"
         style="fill:none;stroke:#ffffff;stroke-width:5;stroke-linecap:butt;stroke-linejoin:miter;stroke-miterlimit:3.79999995;stroke-opacity:1;stroke-dasharray:none"
         id="path262"
         inkscape:connector-curvature="0" /><g
         id="g264"
         transform="scale(10,10)"><text
           transform="matrix(1,0,0,-1,257.574,201.915)"
           id="text266"><tspan
             style="font-size:11.5px;font-variant:normal;font-weight:normal;writing-mode:lr-tb;fill:#000000;fill-opacity:1;fill-rule:nonzero;stroke:none;font-family:Times New Roman;-inkscape-font-specification:Times"
             x="0 7.0265002 11.5 14.697 17.893999 26.841 31.947001 35.144001 38.341 44.091 49.841 52.716 61.019001 66.125 69.321999 75.071999"
             y="0"
             sodipodi:role="line"
             id="tspan268">Estimation Value</tspan></text>
</g><path
         d="m 3419.5,2057.5 199.5,0"
         style="fill:none;stroke:#ff0000;stroke-width:7.5;stroke-linecap:butt;stroke-linejoin:miter;stroke-miterlimit:3.79999995;stroke-opacity:1;stroke-dasharray:none"
         id="path270"
         inkscape:connector-curvature="0" /><g
         id="g272"
         transform="scale(10,10)"><text
           transform="matrix(1,0,0,-1,333.921,190.015)"
           id="text274"><tspan
             style="font-size:11.5px;font-variant:normal;font-weight:normal;writing-mode:lr-tb;fill:#000000;fill-opacity:1;fill-rule:nonzero;stroke:none;font-family:Times New Roman;-inkscape-font-specification:Times"
             x="0"
             y="0"
             id="tspan276">-</tspan></text>
</g><path
         d="m 3419.5,1938.5 199.5,0"
         style="fill:none;stroke:#000000;stroke-width:7.5;stroke-linecap:butt;stroke-linejoin:miter;stroke-miterlimit:3.79999995;stroke-opacity:1;stroke-dasharray:none"
         id="path278"
         inkscape:connector-curvature="0" /><g
         id="g280"
         transform="scale(10,10)"><text
           transform="matrix(1,0,0,-1,333.921,178.115)"
           id="text282"><tspan
             style="font-size:11.5px;font-variant:normal;font-weight:normal;writing-mode:lr-tb;fill:#000000;fill-opacity:1;fill-rule:nonzero;stroke:none;font-family:Times New Roman;-inkscape-font-specification:Times"
             x="0"
             y="0"
             id="tspan284">-</tspan></text>
</g><path
         d="m 3419.5,1819.5 199.5,0"
         style="fill:none;stroke:#ff00ff;stroke-width:7.5;stroke-linecap:butt;stroke-linejoin:miter;stroke-miterlimit:3.79999995;stroke-opacity:1;stroke-dasharray:none"
         id="path286"
         inkscape:connector-curvature="0" /><g
         id="g288"
         transform="scale(10,10)"><text
           transform="matrix(1,0,0,-1,285.702,166.215)"
           id="text290"><tspan
             style="font-size:11.5px;font-variant:normal;font-weight:normal;writing-mode:lr-tb;fill:#000000;fill-opacity:1;fill-rule:nonzero;stroke:none;font-family:Times New Roman;-inkscape-font-specification:Times"
             x="0 7.0265002 10.856 16.606001 21.712 24.587 32.889999 37.995998 41.193001 46.943001"
             y="0"
             sodipodi:role="line"
             id="tspan292">True Value</tspan></text>
</g><path
         d="m 3419.5,1700.5 199.5,0"
         style="fill:none;stroke:#808080;stroke-width:12.5;stroke-linecap:butt;stroke-linejoin:miter;stroke-miterlimit:3.79999995;stroke-opacity:1;stroke-dasharray:5, 7.5;stroke-dashoffset:0"
         id="path294"
         inkscape:connector-curvature="0" /><path
         d="m 756,434 2947,0 0,1749.5 -2947,0 0,-1749.5 z"
         style="fill:none;stroke:#000000;stroke-width:5;stroke-linecap:butt;stroke-linejoin:miter;stroke-miterlimit:3.79999995;stroke-opacity:1;stroke-dasharray:none"
         id="path296"
         inkscape:connector-curvature="0" /></g><rect
       style="fill:#ffffff;stroke-width:0.31799999;stroke-miterlimit:4;stroke-dasharray:none;stroke-dashoffset:0"
       id="rect3429"
       width="25.216871"
       height="22.132004"
       x="40.561047"
       y="-131.72166"
       transform="scale(1,-1)" /><rect
       style="fill:#ffffff;stroke-width:0.31799999;stroke-miterlimit:4;stroke-dasharray:none;stroke-dashoffset:0"
       id="rect3431"
       width="5.8686533"
       height="11.680779"
       x="73.663918"
       y="-135.58597"
       transform="scale(1,-1)" /><g
       ns0:preamble=""
       ns0:text="$M_k,D_k$"
       word-spacing="normal"
       letter-spacing="normal"
       font-size-adjust="none"
       font-stretch="normal"
       font-weight="normal"
       font-variant="normal"
       font-style="normal"
       stroke-miterlimit="10.433"
       xml:space="preserve"
       transform="matrix(0,1.1539245,-1.3679552,0,1000.7308,-151.72098)"
       id="g4264"
       style="font-style:normal;font-variant:normal;font-weight:normal;font-stretch:normal;letter-spacing:normal;word-spacing:normal;text-anchor:start;fill:none;stroke:#000000;stroke-linecap:butt;stroke-linejoin:miter;stroke-miterlimit:10.43299961;stroke-opacity:1;stroke-dasharray:none;stroke-dashoffset:0"><path
         id="path4266"
         d="m 232.65,713.15 0,0.03 0.01,0.03 0.01,0.03 0.01,0.03 0,0.02 0.01,0.03 0.01,0.02 0.01,0.03 0.01,0.02 0.01,0.02 0.01,0.02 0.02,0.02 0.01,0.01 0.02,0.02 0.02,0.01 0.02,0.02 0.02,0.01 0.02,0.01 0.03,0.01 0.03,0.01 0.03,0.01 0.01,0 0.02,0.01 0.02,0 0.02,0 0.01,0.01 0.02,0 0.03,0 0.02,0.01 0.02,0 0.02,0 0.03,0 0.02,0 0.03,0.01 0.02,0 0.03,0 0.03,0 0.03,0 0.03,0 0.03,0 0.03,0 0.04,0 0.03,0 c 0.23,0 0.32,0 0.32,0.2 0,0.11 -0.1,0.11 -0.27,0.11 h -1.31 c -0.26,0 -0.27,0 -0.39,-0.19 l -3.63,-5.66 -0.78,5.62 c -0.03,0.23 -0.05,0.23 -0.31,0.23 h -1.36 c -0.19,0 -0.3,0 -0.3,-0.19 0,-0.12 0.09,-0.12 0.29,-0.12 0.13,0 0.31,-0.01 0.43,-0.02 0.16,-0.02 0.22,-0.05 0.22,-0.16 0,-0.04 -0.01,-0.07 -0.04,-0.19 l -1.27,-5.05 c -0.1,-0.4 -0.26,-0.72 -1.07,-0.75 -0.05,0 -0.18,-0.01 -0.18,-0.19 0,-0.08 0.06,-0.12 0.14,-0.12 0.32,0 0.67,0.04 0.99,0.04 0.34,0 0.7,-0.04 1.03,-0.04 0.05,0 0.18,0 0.18,0.2 0,0.11 -0.11,0.11 -0.18,0.11 -0.57,0.01 -0.68,0.21 -0.68,0.44 0,0.07 0.01,0.12 0.04,0.23 l 1.36,5.41 h 0.01 l 0.85,-6.16 c 0.02,-0.12 0.03,-0.23 0.15,-0.23 0.11,0 0.17,0.11 0.22,0.18 l 4.02,6.29 h 0.01 l -1.42,-5.69 c -0.1,-0.39 -0.12,-0.47 -0.91,-0.47 -0.17,0 -0.28,0 -0.28,-0.19 0,-0.12 0.12,-0.12 0.15,-0.12 0.28,0 0.96,0.04 1.23,0.04 0.41,0 0.84,-0.04 1.25,-0.04 0.06,0 0.19,0 0.19,0.2 0,0.11 -0.09,0.11 -0.28,0.11 -0.37,0 -0.65,0 -0.65,0.18 0,0.04 0,0.06 0.05,0.24 z"
         inkscape:connector-curvature="0"
         style="fill:#000000;stroke-width:0" /><path
         id="path4268"
         d="m 235.28,710.25 0,0 0,0 0,0 0,0 0,0 0,0 0,0.01 0,0 0,0 0,0 0,0.01 0,0 0.01,0 0,0.01 0,0 0,0.01 0,0 0,0.01 0,0.01 0,0 0.01,0.01 0,0 0,0 0,0.01 0,0 0,0.01 0,0 0,0 0,0.01 0,0 0,0 0,0 0,0 0,0 0,0.01 0,0 0,0 0,0 0,0 0,0 0,0 c 0,0.03 -0.02,0.1 -0.11,0.1 -0.14,0 -0.71,-0.06 -0.89,-0.07 -0.05,-0.01 -0.15,-0.02 -0.15,-0.16 0,-0.1 0.1,-0.1 0.18,-0.1 0.33,0 0.33,-0.05 0.33,-0.1 0,-0.05 -0.01,-0.1 -0.02,-0.16 l -0.99,-3.93 c -0.03,-0.13 -0.03,-0.14 -0.03,-0.16 0,-0.1 0.08,-0.22 0.24,-0.22 0.18,0 0.27,0.14 0.32,0.29 0.01,0.03 0.31,1.25 0.34,1.35 0.49,-0.05 0.89,-0.21 0.89,-0.57 0,-0.03 0,-0.07 -0.01,-0.14 -0.03,-0.1 -0.03,-0.14 -0.03,-0.21 0,-0.5 0.4,-0.72 0.74,-0.72 0.67,0 0.88,1.06 0.88,1.06 0,0.1 -0.09,0.1 -0.11,0.1 -0.1,0 -0.11,-0.04 -0.14,-0.17 -0.08,-0.3 -0.27,-0.79 -0.61,-0.79 -0.19,0 -0.25,0.17 -0.25,0.36 0,0.12 0,0.13 0.05,0.31 0,0.02 0.03,0.14 0.03,0.22 0,0.62 -0.84,0.71 -1.13,0.73 0.2,0.13 0.46,0.36 0.58,0.46 0.35,0.34 0.7,0.66 1.09,0.66 0.09,0 0.18,-0.02 0.23,-0.09 -0.3,-0.05 -0.36,-0.28 -0.36,-0.39 0,-0.15 0.12,-0.25 0.28,-0.25 0.19,0 0.4,0.15 0.4,0.44 0,0.23 -0.17,0.49 -0.54,0.49 -0.4,0 -0.76,-0.29 -1.11,-0.61 -0.3,-0.28 -0.53,-0.5 -0.81,-0.62 z"
         inkscape:connector-curvature="0"
         style="fill:#000000;stroke-width:0" /><path
         id="path4270"
         d="m 240.02,707.14 0,0.06 0,0.05 -0.01,0.06 0,0.06 -0.01,0.05 -0.01,0.05 -0.01,0.06 -0.01,0.04 -0.01,0.05 -0.01,0.05 -0.01,0.04 -0.02,0.04 -0.02,0.04 -0.01,0.04 -0.02,0.04 -0.02,0.03 -0.03,0.04 -0.02,0.03 -0.02,0.02 -0.03,0.03 -0.02,0.03 -0.03,0.02 -0.03,0.02 -0.02,0.02 -0.03,0.01 -0.04,0.02 -0.03,0.01 -0.03,0.01 -0.03,0.01 -0.04,0 -0.03,0.01 -0.04,0 c -0.33,0 -0.53,-0.25 -0.53,-0.53 0,-0.27 0.2,-0.53 0.53,-0.53 0.12,0 0.25,0.04 0.35,0.13 0.03,0.02 0.04,0.03 0.05,0.03 0.01,0 0.02,-0.01 0.02,-0.14 0,-0.74 -0.35,-1.34 -0.68,-1.66 -0.11,-0.11 -0.11,-0.13 -0.11,-0.16 0,-0.07 0.05,-0.11 0.1,-0.11 0.11,0 0.91,0.76 0.91,1.93 z"
         inkscape:connector-curvature="0"
         style="fill:#000000;stroke-width:0" /><path
         id="path4272"
         d="m 244.01,707.9 -0.01,-0.04 -0.01,-0.03 0,-0.03 -0.01,-0.03 -0.01,-0.03 -0.01,-0.03 -0.01,-0.02 -0.01,-0.03 -0.01,-0.02 -0.01,-0.02 -0.02,-0.02 -0.01,-0.02 -0.02,-0.02 -0.01,-0.01 -0.02,-0.02 -0.02,-0.01 -0.03,-0.01 -0.02,-0.01 -0.03,-0.01 -0.03,-0.01 -0.03,-0.01 -0.02,0 -0.01,-0.01 -0.02,0 -0.02,0 -0.02,-0.01 -0.02,0 -0.03,0 -0.02,0 -0.02,-0.01 -0.03,0 -0.02,0 -0.03,0 -0.02,0 -0.03,0 -0.03,0 -0.03,0 -0.03,-0.01 -0.03,0 -0.04,0 -0.03,0 -0.04,0 -0.03,0 c -0.17,0 -0.28,0 -0.28,-0.19 0,-0.12 0.09,-0.12 0.28,-0.12 h 3.29 l -0.18,0.31 h -1.12 c -0.14,0 -0.16,0 -0.22,0.01 -0.1,0.01 -0.13,0.02 -0.13,0.1 0,0.03 0,0.05 0.05,0.23 l 1.36,5.45 c 0.09,0.35 0.11,0.38 0.54,0.38 h 1.06 c 0.98,0 1.8,-0.52 1.8,-1.84 0,-0.48 -0.19,-2.11 -1.04,-3.21 -0.29,-0.36 -1.07,-1.12 -2.3,-1.12 l 0.18,-0.31 c 2.07,0 4.03,2.1 4.03,4.28 0,1.4 -0.85,2.51 -2.34,2.51 h -3.34 c -0.19,0 -0.3,0 -0.3,-0.19 0,-0.12 0.09,-0.12 0.29,-0.12 0.13,0 0.31,-0.01 0.43,-0.02 0.16,-0.02 0.21,-0.05 0.21,-0.16 0,-0.04 0,-0.07 -0.03,-0.19 z"
         inkscape:connector-curvature="0"
         style="fill:#000000;stroke-width:0" /><path
         id="path4274"
         d="m 252.85,710.25 0.01,0 0,0 0,0 0,0 0,0 0,0 0,0.01 0,0 0,0 0,0 0,0.01 0,0 0,0 0,0.01 0.01,0 0,0.01 0,0 0,0.01 0,0.01 0,0 0,0.01 0,0 0.01,0 0,0.01 0,0 0,0.01 0,0 0,0 0,0.01 0,0 0,0 0,0 0,0 0,0 0,0.01 0,0 0,0 0,0 0,0 0,0 0,0 c 0,0.03 -0.03,0.1 -0.11,0.1 -0.14,0 -0.72,-0.06 -0.89,-0.07 -0.06,-0.01 -0.15,-0.02 -0.15,-0.16 0,-0.1 0.09,-0.1 0.18,-0.1 0.33,0 0.33,-0.05 0.33,-0.1 0,-0.05 -0.01,-0.1 -0.03,-0.16 l -0.98,-3.93 c -0.03,-0.13 -0.03,-0.14 -0.03,-0.16 0,-0.1 0.08,-0.22 0.23,-0.22 0.19,0 0.28,0.14 0.33,0.29 0.01,0.03 0.31,1.25 0.34,1.35 0.49,-0.05 0.89,-0.21 0.89,-0.57 0,-0.03 0,-0.07 -0.02,-0.14 -0.02,-0.1 -0.02,-0.14 -0.02,-0.21 0,-0.5 0.4,-0.72 0.73,-0.72 0.68,0 0.89,1.06 0.89,1.06 0,0.1 -0.09,0.1 -0.11,0.1 -0.1,0 -0.11,-0.04 -0.14,-0.17 -0.09,-0.3 -0.27,-0.79 -0.61,-0.79 -0.19,0 -0.25,0.17 -0.25,0.36 0,0.12 0,0.13 0.04,0.31 0.01,0.02 0.04,0.14 0.04,0.22 0,0.62 -0.84,0.71 -1.13,0.73 0.2,0.13 0.46,0.36 0.58,0.46 0.35,0.34 0.7,0.66 1.09,0.66 0.08,0 0.18,-0.02 0.23,-0.09 -0.3,-0.05 -0.36,-0.28 -0.36,-0.39 0,-0.15 0.12,-0.25 0.28,-0.25 0.18,0 0.39,0.15 0.39,0.44 0,0.23 -0.16,0.49 -0.53,0.49 -0.4,0 -0.76,-0.29 -1.12,-0.61 -0.29,-0.28 -0.52,-0.5 -0.81,-0.62 z"
         inkscape:connector-curvature="0"
         style="fill:#000000;stroke-width:0" /></g><rect
       style="fill:#ffffff;stroke-width:0.31799999;stroke-miterlimit:4;stroke-dasharray:none;stroke-dashoffset:0"
       id="rect3433"
       width="8.1698494"
       height="15.64969"
       x="312.97351"
       y="-181.90489"
       transform="scale(1,-1)" /><g
       ns0:preamble=""
       ns0:text="$M_k$"
       word-spacing="normal"
       letter-spacing="normal"
       font-size-adjust="none"
       font-stretch="normal"
       font-weight="normal"
       font-variant="normal"
       font-style="normal"
       stroke-miterlimit="10.433"
       xml:space="preserve"
       transform="matrix(0.93693926,0,0,1.0363481,98.093329,-556.18071)"
       id="content"
       style="font-style:normal;font-variant:normal;font-weight:normal;font-stretch:normal;letter-spacing:normal;word-spacing:normal;text-anchor:start;fill:none;stroke:#000000;stroke-linecap:butt;stroke-linejoin:miter;stroke-miterlimit:10.43299961;stroke-opacity:1;stroke-dasharray:none;stroke-dashoffset:0"><path
         id="path3612"
         d="m 232.65,713.15 0,0.03 0.01,0.03 0.01,0.03 0.01,0.03 0,0.02 0.01,0.03 0.01,0.02 0.01,0.03 0.01,0.02 0.01,0.02 0.01,0.02 0.02,0.02 0.01,0.01 0.02,0.02 0.02,0.01 0.02,0.02 0.02,0.01 0.02,0.01 0.03,0.01 0.03,0.01 0.03,0.01 0.01,0 0.02,0.01 0.02,0 0.02,0 0.01,0.01 0.02,0 0.03,0 0.02,0.01 0.02,0 0.02,0 0.03,0 0.02,0 0.03,0.01 0.02,0 0.03,0 0.03,0 0.03,0 0.03,0 0.03,0 0.03,0 0.04,0 0.03,0 c 0.23,0 0.32,0 0.32,0.2 0,0.11 -0.1,0.11 -0.27,0.11 h -1.31 c -0.26,0 -0.27,0 -0.39,-0.19 l -3.63,-5.66 -0.78,5.62 c -0.03,0.23 -0.05,0.23 -0.31,0.23 h -1.36 c -0.19,0 -0.3,0 -0.3,-0.19 0,-0.12 0.09,-0.12 0.29,-0.12 0.13,0 0.31,-0.01 0.43,-0.02 0.16,-0.02 0.22,-0.05 0.22,-0.16 0,-0.04 -0.01,-0.07 -0.04,-0.19 l -1.27,-5.05 c -0.1,-0.4 -0.26,-0.72 -1.07,-0.75 -0.05,0 -0.18,-0.01 -0.18,-0.19 0,-0.08 0.06,-0.12 0.14,-0.12 0.32,0 0.67,0.04 0.99,0.04 0.34,0 0.7,-0.04 1.03,-0.04 0.05,0 0.18,0 0.18,0.2 0,0.11 -0.11,0.11 -0.18,0.11 -0.57,0.01 -0.68,0.21 -0.68,0.44 0,0.07 0.01,0.12 0.04,0.23 l 1.36,5.41 h 0.01 l 0.85,-6.16 c 0.02,-0.12 0.03,-0.23 0.15,-0.23 0.11,0 0.17,0.11 0.22,0.18 l 4.02,6.29 h 0.01 l -1.42,-5.69 c -0.1,-0.39 -0.12,-0.47 -0.91,-0.47 -0.17,0 -0.28,0 -0.28,-0.19 0,-0.12 0.12,-0.12 0.15,-0.12 0.28,0 0.96,0.04 1.23,0.04 0.41,0 0.84,-0.04 1.25,-0.04 0.06,0 0.19,0 0.19,0.2 0,0.11 -0.09,0.11 -0.28,0.11 -0.37,0 -0.65,0 -0.65,0.18 0,0.04 0,0.06 0.05,0.24 z"
         inkscape:connector-curvature="0"
         style="fill:#000000;stroke-width:0" /><path
         id="path3614"
         d="m 235.28,710.25 0,0 0,0 0,0 0,0 0,0 0,0 0,0.01 0,0 0,0 0,0 0,0.01 0,0 0.01,0 0,0.01 0,0 0,0.01 0,0 0,0.01 0,0.01 0,0 0.01,0.01 0,0 0,0 0,0.01 0,0 0,0.01 0,0 0,0 0,0.01 0,0 0,0 0,0 0,0 0,0 0,0.01 0,0 0,0 0,0 0,0 0,0 0,0 c 0,0.03 -0.02,0.1 -0.11,0.1 -0.14,0 -0.71,-0.06 -0.89,-0.07 -0.05,-0.01 -0.15,-0.02 -0.15,-0.16 0,-0.1 0.1,-0.1 0.18,-0.1 0.33,0 0.33,-0.05 0.33,-0.1 0,-0.05 -0.01,-0.1 -0.02,-0.16 l -0.99,-3.93 c -0.03,-0.13 -0.03,-0.14 -0.03,-0.16 0,-0.1 0.08,-0.22 0.24,-0.22 0.18,0 0.27,0.14 0.32,0.29 0.01,0.03 0.31,1.25 0.34,1.35 0.49,-0.05 0.89,-0.21 0.89,-0.57 0,-0.03 0,-0.07 -0.01,-0.14 -0.03,-0.1 -0.03,-0.14 -0.03,-0.21 0,-0.5 0.4,-0.72 0.74,-0.72 0.67,0 0.88,1.06 0.88,1.06 0,0.1 -0.09,0.1 -0.11,0.1 -0.1,0 -0.11,-0.04 -0.14,-0.17 -0.08,-0.3 -0.27,-0.79 -0.61,-0.79 -0.19,0 -0.25,0.17 -0.25,0.36 0,0.12 0,0.13 0.05,0.31 0,0.02 0.03,0.14 0.03,0.22 0,0.62 -0.84,0.71 -1.13,0.73 0.2,0.13 0.46,0.36 0.58,0.46 0.35,0.34 0.7,0.66 1.09,0.66 0.09,0 0.18,-0.02 0.23,-0.09 -0.3,-0.05 -0.36,-0.28 -0.36,-0.39 0,-0.15 0.12,-0.25 0.28,-0.25 0.19,0 0.4,0.15 0.4,0.44 0,0.23 -0.17,0.49 -0.54,0.49 -0.4,0 -0.76,-0.29 -1.11,-0.61 -0.3,-0.28 -0.53,-0.5 -0.81,-0.62 z"
         inkscape:connector-curvature="0"
         style="fill:#000000;stroke-width:0" /></g><g
       style="font-style:normal;font-variant:normal;font-weight:normal;font-stretch:normal;letter-spacing:normal;word-spacing:normal;text-anchor:start;fill:none;stroke:#000000;stroke-linecap:butt;stroke-linejoin:miter;stroke-miterlimit:10.43299961;stroke-opacity:1;stroke-dasharray:none;stroke-dashoffset:0"
       id="g3922"
       transform="matrix(0.96346357,0,0,0.98219103,93.161736,-527.3955)"
       xml:space="preserve"
       stroke-miterlimit="10.433"
       font-style="normal"
       font-variant="normal"
       font-weight="normal"
       font-stretch="normal"
       font-size-adjust="none"
       letter-spacing="normal"
       word-spacing="normal"
       ns0:text="$D_k$"
       ns0:preamble=""><path
         style="fill:#000000;stroke-width:0"
         inkscape:connector-curvature="0"
         d="m 225.01,707.9 -0.01,-0.04 0,-0.03 -0.01,-0.03 -0.01,-0.03 -0.01,-0.03 -0.01,-0.03 -0.01,-0.02 -0.01,-0.03 -0.01,-0.02 -0.01,-0.02 -0.01,-0.02 -0.02,-0.02 -0.01,-0.02 -0.02,-0.01 -0.02,-0.02 -0.02,-0.01 -0.02,-0.01 -0.03,-0.01 -0.03,-0.01 -0.03,-0.01 -0.03,-0.01 -0.02,0 -0.01,-0.01 -0.02,0 -0.02,0 -0.02,-0.01 -0.02,0 -0.02,0 -0.03,0 -0.02,-0.01 -0.02,0 -0.03,0 -0.03,0 -0.02,0 -0.03,0 -0.03,0 -0.03,0 -0.03,-0.01 -0.03,0 -0.04,0 -0.03,0 -0.03,0 -0.04,0 c -0.17,0 -0.28,0 -0.28,-0.19 0,-0.12 0.09,-0.12 0.28,-0.12 h 3.29 l -0.18,0.31 h -1.12 c -0.14,0 -0.16,0 -0.22,0.01 -0.1,0.01 -0.13,0.02 -0.13,0.1 0,0.03 0,0.05 0.05,0.23 l 1.36,5.45 c 0.09,0.35 0.11,0.38 0.54,0.38 h 1.06 c 0.98,0 1.81,-0.52 1.81,-1.84 0,-0.48 -0.2,-2.11 -1.05,-3.21 -0.29,-0.36 -1.07,-1.12 -2.3,-1.12 l 0.18,-0.31 c 2.07,0 4.03,2.1 4.03,4.28 0,1.4 -0.84,2.51 -2.34,2.51 h -3.34 c -0.19,0 -0.3,0 -0.3,-0.19 0,-0.12 0.09,-0.12 0.29,-0.12 0.13,0 0.31,-0.01 0.43,-0.02 0.16,-0.02 0.22,-0.05 0.22,-0.16 0,-0.04 -0.01,-0.07 -0.04,-0.19 z"
         id="path3924" /><path
         style="fill:#000000;stroke-width:0"
         inkscape:connector-curvature="0"
         d="m 233.86,710.25 0,0 0,0 0,0 0,0 0,0 0,0 0,0.01 0,0 0,0 0.01,0 0,0.01 0,0 0,0 0,0.01 0,0 0,0.01 0,0 0,0.01 0.01,0.01 0,0 0,0.01 0,0 0,0 0,0.01 0,0 0,0.01 0,0 0.01,0 0,0.01 0,0 0,0 0,0 0,0 0,0 0,0.01 0,0 0,0 0,0 0,0 0,0 0,0 c 0,0.03 -0.03,0.1 -0.11,0.1 -0.14,0 -0.72,-0.06 -0.9,-0.07 -0.05,-0.01 -0.15,-0.02 -0.15,-0.16 0,-0.1 0.1,-0.1 0.18,-0.1 0.34,0 0.34,-0.05 0.34,-0.1 0,-0.05 -0.02,-0.1 -0.03,-0.16 l -0.98,-3.93 c -0.04,-0.13 -0.04,-0.14 -0.04,-0.16 0,-0.1 0.09,-0.22 0.24,-0.22 0.19,0 0.28,0.14 0.32,0.29 0.01,0.03 0.31,1.25 0.34,1.35 0.5,-0.05 0.89,-0.21 0.89,-0.57 0,-0.03 0,-0.07 -0.01,-0.14 -0.03,-0.1 -0.03,-0.14 -0.03,-0.21 0,-0.5 0.4,-0.72 0.74,-0.72 0.67,0 0.88,1.06 0.88,1.06 0,0.1 -0.09,0.1 -0.11,0.1 -0.1,0 -0.1,-0.04 -0.14,-0.17 -0.08,-0.3 -0.27,-0.79 -0.61,-0.79 -0.19,0 -0.24,0.17 -0.24,0.36 0,0.12 0,0.13 0.04,0.31 0,0.02 0.03,0.14 0.03,0.22 0,0.62 -0.83,0.71 -1.13,0.73 0.21,0.13 0.46,0.36 0.58,0.46 0.36,0.34 0.71,0.66 1.1,0.66 0.08,0 0.17,-0.02 0.23,-0.09 -0.3,-0.05 -0.37,-0.28 -0.37,-0.39 0,-0.15 0.12,-0.25 0.28,-0.25 0.19,0 0.4,0.15 0.4,0.44 0,0.23 -0.17,0.49 -0.54,0.49 -0.39,0 -0.76,-0.29 -1.11,-0.61 -0.29,-0.28 -0.52,-0.5 -0.81,-0.62 z"
         id="path3926" /></g><rect
       style="fill:#ffffff;stroke-width:0.31799999;stroke-miterlimit:4;stroke-dasharray:none;stroke-dashoffset:0"
       id="rect3427"
       width="9.7199574"
       height="12.998161"
       x="74.623611"
       y="-47.227451"
       transform="scale(1,-1)" /></g></svg>