<?xml version="1.0" encoding="UTF-8" standalone="no"?>
<!-- Created with Inkscape (http://www.inkscape.org/) -->

<svg
   xmlns:ns0="http://www.iki.fi/pav/software/textext/"
   xmlns:dc="http://purl.org/dc/elements/1.1/"
   xmlns:cc="http://creativecommons.org/ns#"
   xmlns:rdf="http://www.w3.org/1999/02/22-rdf-syntax-ns#"
   xmlns:svg="http://www.w3.org/2000/svg"
   xmlns="http://www.w3.org/2000/svg"
   xmlns:sodipodi="http://sodipodi.sourceforge.net/DTD/sodipodi-0.dtd"
   xmlns:inkscape="http://www.inkscape.org/namespaces/inkscape"
   width="210mm"
   height="297mm"
   id="svg2"
   version="1.1"
   inkscape:version="0.48.4 r9939"
   sodipodi:docname="checkzoom.eps">
  <defs
     id="defs4" />
  <sodipodi:namedview
     id="base"
     pagecolor="#ffffff"
     bordercolor="#666666"
     borderopacity="1.0"
     inkscape:pageopacity="0.0"
     inkscape:pageshadow="2"
     inkscape:zoom="0.98994949"
     inkscape:cx="419.38764"
     inkscape:cy="442.90341"
     inkscape:document-units="px"
     inkscape:current-layer="layer1"
     showgrid="false"
     inkscape:window-width="1847"
     inkscape:window-height="1056"
     inkscape:window-x="73"
     inkscape:window-y="24"
     inkscape:window-maximized="1" />
  <metadata
     id="metadata7">
    <rdf:RDF>
      <cc:Work
         rdf:about="">
        <dc:format>image/svg+xml</dc:format>
        <dc:type
           rdf:resource="http://purl.org/dc/dcmitype/StillImage" />
        <dc:title></dc:title>
      </cc:Work>
    </rdf:RDF>
  </metadata>
  <g
     inkscape:label="レイヤー 1"
     inkscape:groupmode="layer"
     id="layer1">
    <g
       transform="matrix(1.25,0,0,-1.25,109.94976,650.05871)"
       inkscape:label="ink_ext_XXXXXX"
       id="g2993">
      <g
         transform="scale(0.1,0.1)"
         id="g2995">
        <path
           id="path2997"
           style="fill:none;stroke:#000000;stroke-width:5;stroke-linecap:butt;stroke-linejoin:miter;stroke-miterlimit:3.79999995;stroke-opacity:1;stroke-dasharray:none"
           d="m 231,1309 31.5,0"
           inkscape:connector-curvature="0" />
        <g
           transform="scale(10,10)"
           id="g2999">
          <text
             id="text3001"
             transform="matrix(1,0,0,-1,-0.475,125.735)">
            <tspan
               id="tspan3003"
               sodipodi:role="line"
               y="0"
               x="0 7.75 11.625"
               style="font-size:15.5px;font-variant:normal;font-weight:normal;writing-mode:lr-tb;fill:#000000;fill-opacity:1;fill-rule:nonzero;stroke:none;font-family:Times New Roman;-inkscape-font-specification:Times New">0.0</tspan>
          </text>
        </g>
        <path
           id="path3005"
           style="fill:none;stroke:#000000;stroke-width:5;stroke-linecap:butt;stroke-linejoin:miter;stroke-miterlimit:3.79999995;stroke-opacity:1;stroke-dasharray:none"
           d="m 231,434 0,31.5 m 0,1718 0,-31.5"
           inkscape:connector-curvature="0" />
        <g
           transform="scale(10,10)"
           id="g3007">
          <text
             id="text3009"
             transform="matrix(1,0,0,-1,9.5375,31.2352)">
            <tspan
               id="tspan3011"
               sodipodi:role="line"
               y="0"
               x="0 7.75 11.625 19.375"
               style="font-size:15.5px;font-variant:normal;font-weight:normal;writing-mode:lr-tb;fill:#000000;fill-opacity:1;fill-rule:nonzero;stroke:none;font-family:Times New Roman;-inkscape-font-specification:Times New">1.90</tspan>
          </text>
        </g>
        <path
           id="path3013"
           style="fill:none;stroke:#000000;stroke-width:5;stroke-linecap:butt;stroke-linejoin:miter;stroke-miterlimit:3.79999995;stroke-opacity:1;stroke-dasharray:none"
           d="m 654.5,434 0,31.5 m 0,1718 0,-31.5"
           inkscape:connector-curvature="0" />
        <g
           transform="scale(10,10)"
           id="g3015">
          <text
             id="text3017"
             transform="matrix(1,0,0,-1,51.8875,31.2352)">
            <tspan
               id="tspan3019"
               sodipodi:role="line"
               y="0"
               x="0 7.75 11.625 19.375"
               style="font-size:15.5px;font-variant:normal;font-weight:normal;writing-mode:lr-tb;fill:#000000;fill-opacity:1;fill-rule:nonzero;stroke:none;font-family:Times New Roman;-inkscape-font-specification:Times New">1.95</tspan>
          </text>
        </g>
        <path
           id="path3021"
           style="fill:none;stroke:#000000;stroke-width:5;stroke-linecap:butt;stroke-linejoin:miter;stroke-miterlimit:3.79999995;stroke-opacity:1;stroke-dasharray:none"
           d="m 1078,434 0,31.5 m 0,1718 0,-31.5"
           inkscape:connector-curvature="0" />
        <g
           transform="scale(10,10)"
           id="g3023">
          <text
             id="text3025"
             transform="matrix(1,0,0,-1,94.2375,31.2352)">
            <tspan
               id="tspan3027"
               sodipodi:role="line"
               y="0"
               x="0 7.75 11.625 19.375"
               style="font-size:15.5px;font-variant:normal;font-weight:normal;writing-mode:lr-tb;fill:#000000;fill-opacity:1;fill-rule:nonzero;stroke:none;font-family:Times New Roman;-inkscape-font-specification:Times New">2.00</tspan>
          </text>
        </g>
        <path
           id="path3029"
           style="fill:none;stroke:#000000;stroke-width:5;stroke-linecap:butt;stroke-linejoin:miter;stroke-miterlimit:3.79999995;stroke-opacity:1;stroke-dasharray:none"
           d="m 1501.5,434 0,31.5 m 0,1718 0,-31.5"
           inkscape:connector-curvature="0" />
        <g
           transform="scale(10,10)"
           id="g3031">
          <text
             id="text3033"
             transform="matrix(1,0,0,-1,136.588,31.2352)">
            <tspan
               id="tspan3035"
               sodipodi:role="line"
               y="0"
               x="0 7.75 11.625 19.375"
               style="font-size:15.5px;font-variant:normal;font-weight:normal;writing-mode:lr-tb;fill:#000000;fill-opacity:1;fill-rule:nonzero;stroke:none;font-family:Times New Roman;-inkscape-font-specification:Times New">2.05</tspan>
          </text>
        </g>
        <path
           id="path3037"
           style="fill:none;stroke:#000000;stroke-width:5;stroke-linecap:butt;stroke-linejoin:miter;stroke-miterlimit:3.79999995;stroke-opacity:1;stroke-dasharray:none"
           d="m 1925,434 0,31.5 m 0,1718 0,-31.5"
           inkscape:connector-curvature="0" />
        <g
           transform="scale(10,10)"
           id="g3039">
          <text
             id="text3041"
             transform="matrix(1,0,0,-1,178.938,31.2352)">
            <tspan
               id="tspan3043"
               sodipodi:role="line"
               y="0"
               x="0 7.75 11.625 19.375"
               style="font-size:15.5px;font-variant:normal;font-weight:normal;writing-mode:lr-tb;fill:#000000;fill-opacity:1;fill-rule:nonzero;stroke:none;font-family:Times New Roman;-inkscape-font-specification:Times New">2.10</tspan>
          </text>
        </g>
        <path
           id="path3045"
           style="fill:none;stroke:#000000;stroke-width:5;stroke-linecap:butt;stroke-linejoin:miter;stroke-miterlimit:3.79999995;stroke-opacity:1;stroke-dasharray:none"
           d="m 2348.5,434 0,31.5 m 0,1718 0,-31.5"
           inkscape:connector-curvature="0" />
        <g
           transform="scale(10,10)"
           id="g3047">
          <text
             id="text3049"
             transform="matrix(1,0,0,-1,221.288,31.2352)">
            <tspan
               id="tspan3051"
               sodipodi:role="line"
               y="0"
               x="0 7.75 11.625 19.375"
               style="font-size:15.5px;font-variant:normal;font-weight:normal;writing-mode:lr-tb;fill:#000000;fill-opacity:1;fill-rule:nonzero;stroke:none;font-family:Times New Roman;-inkscape-font-specification:Times New">2.15</tspan>
          </text>
        </g>
        <path
           id="path3053"
           style="fill:none;stroke:#000000;stroke-width:5;stroke-linecap:butt;stroke-linejoin:miter;stroke-miterlimit:3.79999995;stroke-opacity:1;stroke-dasharray:none"
           d="m 2772,434 0,31.5 m 0,1718 0,-31.5"
           inkscape:connector-curvature="0" />
        <g
           transform="scale(10,10)"
           id="g3055">
          <text
             id="text3057"
             transform="matrix(1,0,0,-1,263.637,31.2352)">
            <tspan
               id="tspan3059"
               sodipodi:role="line"
               y="0"
               x="0 7.75 11.625 19.375"
               style="font-size:15.5px;font-variant:normal;font-weight:normal;writing-mode:lr-tb;fill:#000000;fill-opacity:1;fill-rule:nonzero;stroke:none;font-family:Times New Roman;-inkscape-font-specification:Times New">2.20</tspan>
          </text>
        </g>
        <path
           id="path3061"
           style="fill:none;stroke:#000000;stroke-width:5;stroke-linecap:butt;stroke-linejoin:miter;stroke-miterlimit:3.79999995;stroke-opacity:1;stroke-dasharray:none"
           d="m 3195.5,434 0,31.5 m 0,1718 0,-31.5"
           inkscape:connector-curvature="0" />
        <g
           transform="scale(10,10)"
           id="g3063">
          <text
             id="text3065"
             transform="matrix(1,0,0,-1,305.988,31.2352)">
            <tspan
               id="tspan3067"
               sodipodi:role="line"
               y="0"
               x="0 7.75 11.625 19.375"
               style="font-size:15.5px;font-variant:normal;font-weight:normal;writing-mode:lr-tb;fill:#000000;fill-opacity:1;fill-rule:nonzero;stroke:none;font-family:Times New Roman;-inkscape-font-specification:Times New">2.25</tspan>
          </text>
        </g>
        <path
           id="path3069"
           style="fill:none;stroke:#000000;stroke-width:5;stroke-linecap:butt;stroke-linejoin:miter;stroke-miterlimit:3.79999995;stroke-opacity:1;stroke-dasharray:none"
           d="m 3619,434 0,31.5 m 0,1718 0,-31.5"
           inkscape:connector-curvature="0" />
        <g
           transform="scale(10,10)"
           id="g3071">
          <text
             id="text3073"
             transform="matrix(1,0,0,-1,348.338,31.2352)">
            <tspan
               id="tspan3075"
               sodipodi:role="line"
               y="0"
               x="0 7.75 11.625 19.375"
               style="font-size:15.5px;font-variant:normal;font-weight:normal;writing-mode:lr-tb;fill:#000000;fill-opacity:1;fill-rule:nonzero;stroke:none;font-family:Times New Roman;-inkscape-font-specification:Times New">2.30</tspan>
          </text>
        </g>
        <path
           id="path3077"
           style="fill:none;stroke:#000000;stroke-width:5;stroke-linecap:butt;stroke-linejoin:miter;stroke-miterlimit:3.79999995;stroke-opacity:1;stroke-dasharray:none"
           d="m 3619,675.5 -31.5,0"
           inkscape:connector-curvature="0" />
        <g
           transform="scale(10,10)"
           id="g3079">
          <text
             id="text3081"
             transform="matrix(1,0,0,-1,366.1,62.3852)">
            <tspan
               id="tspan3083"
               sodipodi:role="line"
               y="0"
               x="0 7.75 11.625 19.375 27.125"
               style="font-size:15.5px;font-variant:normal;font-weight:normal;writing-mode:lr-tb;fill:#000000;fill-opacity:1;fill-rule:nonzero;stroke:none;font-family:Times New Roman;-inkscape-font-specification:Times New">1.555</tspan>
          </text>
        </g>
        <path
           id="path3085"
           style="fill:none;stroke:#000000;stroke-width:5;stroke-linecap:butt;stroke-linejoin:miter;stroke-miterlimit:3.79999995;stroke-opacity:1;stroke-dasharray:none"
           d="m 3619,977 -31.5,0"
           inkscape:connector-curvature="0" />
        <g
           transform="scale(10,10)"
           id="g3087">
          <text
             id="text3089"
             transform="matrix(1,0,0,-1,366.1,92.5352)">
            <tspan
               id="tspan3091"
               sodipodi:role="line"
               y="0"
               x="0 7.75 11.625 19.375 27.125"
               style="font-size:15.5px;font-variant:normal;font-weight:normal;writing-mode:lr-tb;fill:#000000;fill-opacity:1;fill-rule:nonzero;stroke:none;font-family:Times New Roman;-inkscape-font-specification:Times New">1.560</tspan>
          </text>
        </g>
        <path
           id="path3093"
           style="fill:none;stroke:#000000;stroke-width:5;stroke-linecap:butt;stroke-linejoin:miter;stroke-miterlimit:3.79999995;stroke-opacity:1;stroke-dasharray:none"
           d="m 3619,1278.5 -31.5,0"
           inkscape:connector-curvature="0" />
        <g
           transform="scale(10,10)"
           id="g3095">
          <text
             id="text3097"
             transform="matrix(1,0,0,-1,366.1,122.685)">
            <tspan
               id="tspan3099"
               sodipodi:role="line"
               y="0"
               x="0 7.75 11.625 19.375 27.125"
               style="font-size:15.5px;font-variant:normal;font-weight:normal;writing-mode:lr-tb;fill:#000000;fill-opacity:1;fill-rule:nonzero;stroke:none;font-family:Times New Roman;-inkscape-font-specification:Times New">1.565</tspan>
          </text>
        </g>
        <path
           id="path3101"
           style="fill:none;stroke:#000000;stroke-width:5;stroke-linecap:butt;stroke-linejoin:miter;stroke-miterlimit:3.79999995;stroke-opacity:1;stroke-dasharray:none"
           d="m 3619,1580 -31.5,0"
           inkscape:connector-curvature="0" />
        <g
           transform="scale(10,10)"
           id="g3103">
          <text
             id="text3105"
             transform="matrix(1,0,0,-1,366.1,152.835)">
            <tspan
               id="tspan3107"
               sodipodi:role="line"
               y="0"
               x="0 7.75 11.625 19.375 27.125"
               style="font-size:15.5px;font-variant:normal;font-weight:normal;writing-mode:lr-tb;fill:#000000;fill-opacity:1;fill-rule:nonzero;stroke:none;font-family:Times New Roman;-inkscape-font-specification:Times New">1.570</tspan>
          </text>
        </g>
        <path
           id="path3109"
           style="fill:none;stroke:#000000;stroke-width:5;stroke-linecap:butt;stroke-linejoin:miter;stroke-miterlimit:3.79999995;stroke-opacity:1;stroke-dasharray:none"
           d="m 3619,1882 -31.5,0"
           inkscape:connector-curvature="0" />
        <g
           transform="scale(10,10)"
           id="g3111">
          <text
             id="text3113"
             transform="matrix(1,0,0,-1,366.1,183.035)">
            <tspan
               id="tspan3115"
               sodipodi:role="line"
               y="0"
               x="0 7.75 11.625 19.375 27.125"
               style="font-size:15.5px;font-variant:normal;font-weight:normal;writing-mode:lr-tb;fill:#000000;fill-opacity:1;fill-rule:nonzero;stroke:none;font-family:Times New Roman;-inkscape-font-specification:Times New">1.575</tspan>
          </text>
        </g>
        <path
           id="path3117"
           style="fill:none;stroke:#000000;stroke-width:5;stroke-linecap:butt;stroke-linejoin:miter;stroke-miterlimit:3.79999995;stroke-opacity:1;stroke-dasharray:none"
           d="m 3619,2183.5 -31.5,0"
           inkscape:connector-curvature="0" />
        <g
           transform="scale(10,10)"
           id="g3119">
          <text
             id="text3121"
             transform="matrix(1,0,0,-1,366.1,213.185)">
            <tspan
               id="tspan3123"
               sodipodi:role="line"
               y="0"
               x="0 7.75 11.625 19.375 27.125"
               style="font-size:15.5px;font-variant:normal;font-weight:normal;writing-mode:lr-tb;fill:#000000;fill-opacity:1;fill-rule:nonzero;stroke:none;font-family:Times New Roman;-inkscape-font-specification:Times New">1.580</tspan>
          </text>
        </g>
        <path
           id="path3125"
           style="fill:none;stroke:#000000;stroke-width:5;stroke-linecap:butt;stroke-linejoin:miter;stroke-miterlimit:3.79999995;stroke-opacity:1;stroke-dasharray:none"
           d="m 231,434 3388,0 0,1749.5 -3388,0 0,-1749.5 z"
           inkscape:connector-curvature="0" />
        <g
           transform="scale(10,10)"
           id="g3127">
          <text
             id="text3129"
             transform="matrix(0,1,1,0,420.915,59.8227)">
            <tspan
               id="tspan3131"
               sodipodi:role="line"
               y="0"
               x="0 9.4705 15.5 19.809 24.118 36.176998 43.058998 47.368 51.676998 59.426998 67.177002 71.052002 82.242996 89.125 93.433998 101.184 108.066 111.941 117.1025 122.264 129.146 136.896"
               style="font-size:15.5px;font-variant:normal;font-weight:normal;writing-mode:lr-tb;fill:#000000;fill-opacity:1;fill-rule:nonzero;stroke:none;font-family:Times New Roman;-inkscape-font-specification:Times">Estimation Value [rad]</tspan>
          </text>
          <text
             id="text3133"
             transform="matrix(1,0,0,-1,166.027,-0.264844)">
            <tspan
               id="tspan3135"
               sodipodi:role="line"
               y="0"
               x="0 9.4705 13.7795 25.838499 32.720501 36.595501 41.757 47.786499"
               style="font-size:15.5px;font-variant:normal;font-weight:normal;writing-mode:lr-tb;fill:#000000;fill-opacity:1;fill-rule:nonzero;stroke:none;font-family:Times New Roman;-inkscape-font-specification:Times">Time [s]</tspan>
          </text>
          <text
             id="text3137"
             transform="matrix(1,0,0,-1,249.1743,72.464856)">
            <tspan
               id="tspan3139"
               sodipodi:role="line"
               y="0"
               x="0 7.0265002 11.5 14.697 17.893999 26.841 31.947001 35.144001 38.341 44.091 49.841 52.716 61.019001 66.125 69.321999 75.071999"
               style="font-size:11.5px;font-variant:normal;font-weight:normal;writing-mode:lr-tb;fill:#000000;fill-opacity:1;fill-rule:nonzero;stroke:none;font-family:Times New Roman;-inkscape-font-specification:Times">Estimation Value</tspan>
          </text>
        </g>
        <path
           id="path3141"
           style="fill:none;stroke:#ff0000;stroke-width:7.5;stroke-linecap:butt;stroke-linejoin:miter;stroke-miterlimit:3.79999995;stroke-opacity:1;stroke-dasharray:none"
           d="m 3335.5,763 199.5,0 m -3304,823.5 0,17.5 84.5,0 0,2 85,0 0,46 84.5,0 0,42.5 85,0 0,-46.5 84.5,0 0,-61.5 84.5,0 0,4.5 85,0 0,29 84.5,0 0,34 85,0 0,-30 84.5,0 0,-29 84.5,0 0,41 85,0 0,-46 84.5,0 0,-112.5 85,0 0,122.5 84.5,0 0,344 84.5,0 0,-109.5 85,0 0,-355.5 84.5,0 0,-255.5 85,0 0,-601 169,0 0,601 85,0 0,255.5 84.5,0 0,355.5 85,0 0,109.5 84.5,0 0,-344 84.5,0 0,-122.5 85,0 0,112.5 84.5,0 0,46 85,0 0,-41 84.5,0 0,29 84.5,0 0,30 85,0 0,-34 84.5,0 0,-29 85,0 0,-4.5 84.5,0 0,61.5 84.5,0 0,46.5 85,0 0,-42.5 84.5,0 0,-46 85,0 0,-2 84.5,0 0,-17.5"
           inkscape:connector-curvature="0" />
        <g
           transform="scale(10,10)"
           id="g3143">
          <text
             id="text3145"
             transform="matrix(1,0,0,-1,325.521,60.5648)">
            <tspan
               id="tspan3147"
               y="0"
               x="0"
               style="font-size:11.5px;font-variant:normal;font-weight:normal;writing-mode:lr-tb;fill:#000000;fill-opacity:1;fill-rule:nonzero;stroke:none;font-family:Times New Roman;-inkscape-font-specification:Times">-</tspan>
          </text>
        </g>
        <path
           id="path3149"
           style="fill:none;stroke:#000000;stroke-width:7.5;stroke-linecap:butt;stroke-linejoin:miter;stroke-miterlimit:3.79999995;stroke-opacity:1;stroke-dasharray:none"
           d="m 3335.5,644 199.5,0 M 570,434 l 0,16.5 84.5,0 0,55.5 84.5,0 0,54.5 85,0 0,54 84.5,0 0,54.5 85,0 0,55.5 84.5,0 0,55.5 84.5,0 0,55 85,0 0,56 84.5,0 0,56 85,0 0,55 84.5,0 0,53.5 84.5,0 0,57 85,0 0,57 84.5,0 0,56 85,0 0,56 84.5,0 0,54.5 84.5,0 0,56 85,0 0,56 84.5,0 0,57 85,0 0,57 84.5,0 0,53.5 84.5,0 0,55 85,0 0,56 84.5,0 0,56 85,0 0,55 84.5,0 0,55.5 84.5,0 0,55.5 85,0 0,54.5 84.5,0 0,54 85,0 0,54.5 84.5,0 0,55.5 84.5,0 0,16.5"
           inkscape:connector-curvature="0" />
        <g
           transform="scale(10,10)"
           id="g3151">
          <text
             id="text3153"
             transform="matrix(1,0,0,-1,325.521,48.6648)">
            <tspan
               id="tspan3155"
               y="0"
               x="0"
               style="font-size:11.5px;font-variant:normal;font-weight:normal;writing-mode:lr-tb;fill:#000000;fill-opacity:1;fill-rule:nonzero;stroke:none;font-family:Times New Roman;-inkscape-font-specification:Times">-</tspan>
          </text>
        </g>
        <path
           id="path3157"
           style="fill:none;stroke:#ff00ff;stroke-width:7.5;stroke-linecap:butt;stroke-linejoin:miter;stroke-miterlimit:3.79999995;stroke-opacity:1;stroke-dasharray:none"
           d="m 3335.5,525 199.5,0 m -3304,1240 0,-21.5 84.5,0 0,-21.5 85,0 0,-22 84.5,0 0,-21.5 85,0 0,-22 84.5,0 0,-22 84.5,0 0,-22 85,0 0,-22.5 84.5,0 0,-22 85,0 0,-22.5 84.5,0 0,-22.5 84.5,0 0,-22.5 85,0 0,-22 84.5,0 0,-22.5 85,0 0,-23 84.5,0 0,-22.5 84.5,0 0,-22.5 85,0 0,-22.5 84.5,0 0,-23 85,0 0,-22.5 84.5,0 0,-22.5 84.5,0 0,-22.5 85,0 0,-23 84.5,0 0,-22.5 85,0 0,-22.5 84.5,0 0,-22.5 84.5,0 0,-23 85,0 0,-22.5 84.5,0 0,-22 85,0 0,-22.5 84.5,0 0,-22.5 84.5,0 0,-22.5 85,0 0,-22 84.5,0 0,-22.5 85,0 0,-22 84.5,0 0,-22 84.5,0 0,-22 85,0 0,-21.5 84.5,0 0,-22 85,0 0,-21.5 84.5,0 0,-21.5"
           inkscape:connector-curvature="0" />
        <path
           id="path3159"
           style="fill:none;stroke:#000000;stroke-width:5;stroke-linecap:butt;stroke-linejoin:miter;stroke-miterlimit:3.79999995;stroke-opacity:1;stroke-dasharray:none"
           d="m 231,434 3388,0 0,1749.5 -3388,0 0,-1749.5 z"
           inkscape:connector-curvature="0" />
      </g>
    </g>
    <g
       ns0:preamble=""
       ns0:text="$M_k,D_k$"
       word-spacing="normal"
       letter-spacing="normal"
       font-size-adjust="none"
       font-stretch="normal"
       font-weight="normal"
       font-variant="normal"
       font-style="normal"
       stroke-miterlimit="10.433"
       xml:space="preserve"
       transform="matrix(0,-1.6590299,-1.883694,0,1421.4468,884.07985)"
       id="g4264"
       style="font-style:normal;font-variant:normal;font-weight:normal;font-stretch:normal;letter-spacing:normal;word-spacing:normal;text-anchor:start;fill:none;stroke:#000000;stroke-linecap:butt;stroke-linejoin:miter;stroke-miterlimit:10.43299961;stroke-opacity:1;stroke-dasharray:none;stroke-dashoffset:0"><path
         id="path4266"
         d="m 232.65,713.15 0,0.03 0.01,0.03 0.01,0.03 0.01,0.03 0,0.02 0.01,0.03 0.01,0.02 0.01,0.03 0.01,0.02 0.01,0.02 0.01,0.02 0.02,0.02 0.01,0.01 0.02,0.02 0.02,0.01 0.02,0.02 0.02,0.01 0.02,0.01 0.03,0.01 0.03,0.01 0.03,0.01 0.01,0 0.02,0.01 0.02,0 0.02,0 0.01,0.01 0.02,0 0.03,0 0.02,0.01 0.02,0 0.02,0 0.03,0 0.02,0 0.03,0.01 0.02,0 0.03,0 0.03,0 0.03,0 0.03,0 0.03,0 0.03,0 0.04,0 0.03,0 c 0.23,0 0.32,0 0.32,0.2 0,0.11 -0.1,0.11 -0.27,0.11 h -1.31 c -0.26,0 -0.27,0 -0.39,-0.19 l -3.63,-5.66 -0.78,5.62 c -0.03,0.23 -0.05,0.23 -0.31,0.23 h -1.36 c -0.19,0 -0.3,0 -0.3,-0.19 0,-0.12 0.09,-0.12 0.29,-0.12 0.13,0 0.31,-0.01 0.43,-0.02 0.16,-0.02 0.22,-0.05 0.22,-0.16 0,-0.04 -0.01,-0.07 -0.04,-0.19 l -1.27,-5.05 c -0.1,-0.4 -0.26,-0.72 -1.07,-0.75 -0.05,0 -0.18,-0.01 -0.18,-0.19 0,-0.08 0.06,-0.12 0.14,-0.12 0.32,0 0.67,0.04 0.99,0.04 0.34,0 0.7,-0.04 1.03,-0.04 0.05,0 0.18,0 0.18,0.2 0,0.11 -0.11,0.11 -0.18,0.11 -0.57,0.01 -0.68,0.21 -0.68,0.44 0,0.07 0.01,0.12 0.04,0.23 l 1.36,5.41 h 0.01 l 0.85,-6.16 c 0.02,-0.12 0.03,-0.23 0.15,-0.23 0.11,0 0.17,0.11 0.22,0.18 l 4.02,6.29 h 0.01 l -1.42,-5.69 c -0.1,-0.39 -0.12,-0.47 -0.91,-0.47 -0.17,0 -0.28,0 -0.28,-0.19 0,-0.12 0.12,-0.12 0.15,-0.12 0.28,0 0.96,0.04 1.23,0.04 0.41,0 0.84,-0.04 1.25,-0.04 0.06,0 0.19,0 0.19,0.2 0,0.11 -0.09,0.11 -0.28,0.11 -0.37,0 -0.65,0 -0.65,0.18 0,0.04 0,0.06 0.05,0.24 z"
         inkscape:connector-curvature="0"
         style="fill:#000000;stroke-width:0" /><path
         id="path4268"
         d="m 235.28,710.25 0,0 0,0 0,0 0,0 0,0 0,0 0,0.01 0,0 0,0 0,0 0,0.01 0,0 0.01,0 0,0.01 0,0 0,0.01 0,0 0,0.01 0,0.01 0,0 0.01,0.01 0,0 0,0 0,0.01 0,0 0,0.01 0,0 0,0 0,0.01 0,0 0,0 0,0 0,0 0,0 0,0.01 0,0 0,0 0,0 0,0 0,0 0,0 c 0,0.03 -0.02,0.1 -0.11,0.1 -0.14,0 -0.71,-0.06 -0.89,-0.07 -0.05,-0.01 -0.15,-0.02 -0.15,-0.16 0,-0.1 0.1,-0.1 0.18,-0.1 0.33,0 0.33,-0.05 0.33,-0.1 0,-0.05 -0.01,-0.1 -0.02,-0.16 l -0.99,-3.93 c -0.03,-0.13 -0.03,-0.14 -0.03,-0.16 0,-0.1 0.08,-0.22 0.24,-0.22 0.18,0 0.27,0.14 0.32,0.29 0.01,0.03 0.31,1.25 0.34,1.35 0.49,-0.05 0.89,-0.21 0.89,-0.57 0,-0.03 0,-0.07 -0.01,-0.14 -0.03,-0.1 -0.03,-0.14 -0.03,-0.21 0,-0.5 0.4,-0.72 0.74,-0.72 0.67,0 0.88,1.06 0.88,1.06 0,0.1 -0.09,0.1 -0.11,0.1 -0.1,0 -0.11,-0.04 -0.14,-0.17 -0.08,-0.3 -0.27,-0.79 -0.61,-0.79 -0.19,0 -0.25,0.17 -0.25,0.36 0,0.12 0,0.13 0.05,0.31 0,0.02 0.03,0.14 0.03,0.22 0,0.62 -0.84,0.71 -1.13,0.73 0.2,0.13 0.46,0.36 0.58,0.46 0.35,0.34 0.7,0.66 1.09,0.66 0.09,0 0.18,-0.02 0.23,-0.09 -0.3,-0.05 -0.36,-0.28 -0.36,-0.39 0,-0.15 0.12,-0.25 0.28,-0.25 0.19,0 0.4,0.15 0.4,0.44 0,0.23 -0.17,0.49 -0.54,0.49 -0.4,0 -0.76,-0.29 -1.11,-0.61 -0.3,-0.28 -0.53,-0.5 -0.81,-0.62 z"
         inkscape:connector-curvature="0"
         style="fill:#000000;stroke-width:0" /><path
         id="path4270"
         d="m 240.02,707.14 0,0.06 0,0.05 -0.01,0.06 0,0.06 -0.01,0.05 -0.01,0.05 -0.01,0.06 -0.01,0.04 -0.01,0.05 -0.01,0.05 -0.01,0.04 -0.02,0.04 -0.02,0.04 -0.01,0.04 -0.02,0.04 -0.02,0.03 -0.03,0.04 -0.02,0.03 -0.02,0.02 -0.03,0.03 -0.02,0.03 -0.03,0.02 -0.03,0.02 -0.02,0.02 -0.03,0.01 -0.04,0.02 -0.03,0.01 -0.03,0.01 -0.03,0.01 -0.04,0 -0.03,0.01 -0.04,0 c -0.33,0 -0.53,-0.25 -0.53,-0.53 0,-0.27 0.2,-0.53 0.53,-0.53 0.12,0 0.25,0.04 0.35,0.13 0.03,0.02 0.04,0.03 0.05,0.03 0.01,0 0.02,-0.01 0.02,-0.14 0,-0.74 -0.35,-1.34 -0.68,-1.66 -0.11,-0.11 -0.11,-0.13 -0.11,-0.16 0,-0.07 0.05,-0.11 0.1,-0.11 0.11,0 0.91,0.76 0.91,1.93 z"
         inkscape:connector-curvature="0"
         style="fill:#000000;stroke-width:0" /><path
         id="path4272"
         d="m 244.01,707.9 -0.01,-0.04 -0.01,-0.03 0,-0.03 -0.01,-0.03 -0.01,-0.03 -0.01,-0.03 -0.01,-0.02 -0.01,-0.03 -0.01,-0.02 -0.01,-0.02 -0.02,-0.02 -0.01,-0.02 -0.02,-0.02 -0.01,-0.01 -0.02,-0.02 -0.02,-0.01 -0.03,-0.01 -0.02,-0.01 -0.03,-0.01 -0.03,-0.01 -0.03,-0.01 -0.02,0 -0.01,-0.01 -0.02,0 -0.02,0 -0.02,-0.01 -0.02,0 -0.03,0 -0.02,0 -0.02,-0.01 -0.03,0 -0.02,0 -0.03,0 -0.02,0 -0.03,0 -0.03,0 -0.03,0 -0.03,-0.01 -0.03,0 -0.04,0 -0.03,0 -0.04,0 -0.03,0 c -0.17,0 -0.28,0 -0.28,-0.19 0,-0.12 0.09,-0.12 0.28,-0.12 h 3.29 l -0.18,0.31 h -1.12 c -0.14,0 -0.16,0 -0.22,0.01 -0.1,0.01 -0.13,0.02 -0.13,0.1 0,0.03 0,0.05 0.05,0.23 l 1.36,5.45 c 0.09,0.35 0.11,0.38 0.54,0.38 h 1.06 c 0.98,0 1.8,-0.52 1.8,-1.84 0,-0.48 -0.19,-2.11 -1.04,-3.21 -0.29,-0.36 -1.07,-1.12 -2.3,-1.12 l 0.18,-0.31 c 2.07,0 4.03,2.1 4.03,4.28 0,1.4 -0.85,2.51 -2.34,2.51 h -3.34 c -0.19,0 -0.3,0 -0.3,-0.19 0,-0.12 0.09,-0.12 0.29,-0.12 0.13,0 0.31,-0.01 0.43,-0.02 0.16,-0.02 0.21,-0.05 0.21,-0.16 0,-0.04 0,-0.07 -0.03,-0.19 z"
         inkscape:connector-curvature="0"
         style="fill:#000000;stroke-width:0" /><path
         id="path4274"
         d="m 252.85,710.25 0.01,0 0,0 0,0 0,0 0,0 0,0 0,0.01 0,0 0,0 0,0 0,0.01 0,0 0,0 0,0.01 0.01,0 0,0.01 0,0 0,0.01 0,0.01 0,0 0,0.01 0,0 0.01,0 0,0.01 0,0 0,0.01 0,0 0,0 0,0.01 0,0 0,0 0,0 0,0 0,0 0,0.01 0,0 0,0 0,0 0,0 0,0 0,0 c 0,0.03 -0.03,0.1 -0.11,0.1 -0.14,0 -0.72,-0.06 -0.89,-0.07 -0.06,-0.01 -0.15,-0.02 -0.15,-0.16 0,-0.1 0.09,-0.1 0.18,-0.1 0.33,0 0.33,-0.05 0.33,-0.1 0,-0.05 -0.01,-0.1 -0.03,-0.16 l -0.98,-3.93 c -0.03,-0.13 -0.03,-0.14 -0.03,-0.16 0,-0.1 0.08,-0.22 0.23,-0.22 0.19,0 0.28,0.14 0.33,0.29 0.01,0.03 0.31,1.25 0.34,1.35 0.49,-0.05 0.89,-0.21 0.89,-0.57 0,-0.03 0,-0.07 -0.02,-0.14 -0.02,-0.1 -0.02,-0.14 -0.02,-0.21 0,-0.5 0.4,-0.72 0.73,-0.72 0.68,0 0.89,1.06 0.89,1.06 0,0.1 -0.09,0.1 -0.11,0.1 -0.1,0 -0.11,-0.04 -0.14,-0.17 -0.09,-0.3 -0.27,-0.79 -0.61,-0.79 -0.19,0 -0.25,0.17 -0.25,0.36 0,0.12 0,0.13 0.04,0.31 0.01,0.02 0.04,0.14 0.04,0.22 0,0.62 -0.84,0.71 -1.13,0.73 0.2,0.13 0.46,0.36 0.58,0.46 0.35,0.34 0.7,0.66 1.09,0.66 0.08,0 0.18,-0.02 0.23,-0.09 -0.3,-0.05 -0.36,-0.28 -0.36,-0.39 0,-0.15 0.12,-0.25 0.28,-0.25 0.18,0 0.39,0.15 0.39,0.44 0,0.23 -0.16,0.49 -0.53,0.49 -0.4,0 -0.76,-0.29 -1.12,-0.61 -0.29,-0.28 -0.52,-0.5 -0.81,-0.62 z"
         inkscape:connector-curvature="0"
         style="fill:#000000;stroke-width:0" /></g>    <rect
       style="fill:#ffffff;stroke-width:0.31799999;stroke-miterlimit:4;stroke-dasharray:none;stroke-dashoffset:0"
       id="rect3456"
       width="463.71756"
       height="27.857143"
       x="120.68446"
       y="597.38934" />
    <g
       style="font-style:normal;font-variant:normal;font-weight:normal;font-stretch:normal;letter-spacing:normal;word-spacing:normal;text-anchor:start;fill:none;stroke:#000000;stroke-linecap:butt;stroke-linejoin:miter;stroke-miterlimit:10.43299961;stroke-opacity:1;stroke-dasharray:none;stroke-dashoffset:0"
       id="g5566"
       transform="matrix(1.9265473,0,0,-1.930156,-90.76413,1981.9571)"
       xml:space="preserve"
       stroke-miterlimit="10.433"
       font-style="normal"
       font-variant="normal"
       font-weight="normal"
       font-stretch="normal"
       font-size-adjust="none"
       letter-spacing="normal"
       word-spacing="normal"
       ns0:text="$t_{pm}$"
       ns0:preamble=""><path
         style="fill:#000000;stroke-width:0"
         inkscape:connector-curvature="0"
         d="m 225.48,711.1 h 0.94 c 0.2,0 0.29,0 0.29,0.2 0,0.11 -0.09,0.11 -0.27,0.11 h -0.88 c 0.36,1.41 0.41,1.61 0.41,1.67 0,0.16 -0.12,0.26 -0.29,0.26 -0.03,0 -0.31,-0.01 -0.4,-0.35 l -0.38,-1.58 h -0.94 c -0.2,0 -0.3,0 -0.3,-0.19 0,-0.12 0.08,-0.12 0.28,-0.12 h 0.88 c -0.72,-2.82 -0.76,-2.99 -0.76,-3.17 0,-0.54 0.38,-0.91 0.91,-0.91 1.02,0 1.59,1.45 1.59,1.53 0,0.1 -0.08,0.1 -0.12,0.1 -0.09,0 -0.1,-0.04 -0.15,-0.14 -0.43,-1.04 -0.96,-1.28 -1.3,-1.28 -0.2,0 -0.3,0.13 -0.3,0.46 0,0.24 0.02,0.31 0.05,0.48 z"
         id="path5568" /><path
         style="fill:#000000;stroke-width:0"
         inkscape:connector-curvature="0"
         d="m 227.55,704.78 0,-0.01 -0.01,-0.02 0,-0.02 0,-0.01 -0.01,-0.02 0,-0.01 -0.01,-0.02 0,-0.01 -0.01,-0.01 0,-0.01 -0.01,-0.01 0,-0.01 -0.01,-0.01 -0.01,-0.01 0,-0.01 -0.01,-0.01 -0.01,0 -0.01,-0.01 -0.01,0 -0.01,-0.01 -0.01,0 -0.02,-0.01 -0.01,0 -0.01,-0.01 -0.02,0 -0.01,0 -0.01,0 -0.01,0 -0.01,0 -0.01,0 -0.01,-0.01 -0.01,0 -0.01,0 -0.01,0 -0.01,0 -0.01,0 -0.01,0 -0.02,0 -0.01,0 c -0.09,0 -0.19,0 -0.19,-0.14 0,-0.08 0.07,-0.11 0.1,-0.11 0.18,0 0.41,0.03 0.6,0.03 0.24,0 0.5,-0.03 0.73,-0.03 0.06,0 0.14,0.02 0.14,0.15 0,0.1 -0.1,0.1 -0.18,0.1 -0.15,0 -0.34,0 -0.34,0.09 0,0.03 0.05,0.21 0.07,0.32 0.09,0.36 0.18,0.74 0.26,1.03 0.09,-0.14 0.3,-0.41 0.72,-0.41 v 0.2 c -0.5,0 -0.62,0.53 -0.62,0.6 0,0.03 0.01,0.08 0.02,0.11 l 0.35,1.39 c 0.4,0.54 0.75,0.64 0.97,0.64 0.28,0 0.51,-0.2 0.51,-0.67 0,-0.29 -0.15,-1 -0.36,-1.4 -0.17,-0.34 -0.51,-0.67 -0.87,-0.67 v -0.2 c 0.85,0 1.79,0.94 1.79,1.98 0,0.81 -0.56,1.16 -1.04,1.16 -0.44,0 -0.81,-0.29 -0.99,-0.49 -0.12,0.4 -0.51,0.49 -0.72,0.49 -0.27,0 -0.44,-0.18 -0.55,-0.37 -0.14,-0.24 -0.25,-0.66 -0.25,-0.7 0,-0.09 0.1,-0.09 0.12,-0.09 0.09,0 0.1,0.02 0.15,0.21 0.1,0.41 0.24,0.75 0.51,0.75 0.18,0 0.23,-0.15 0.23,-0.34 0,-0.07 -0.02,-0.17 -0.02,-0.21 z"
         id="path5570" /><path
         style="fill:#000000;stroke-width:0"
         inkscape:connector-curvature="0"
         d="m 234.16,706.19 0,-0.01 -0.01,-0.01 0,-0.02 0,-0.01 -0.01,-0.02 0,-0.01 -0.01,-0.03 -0.01,-0.04 -0.01,-0.03 0,-0.03 -0.01,-0.01 0,-0.02 -0.01,-0.01 0,-0.02 0,-0.01 -0.01,-0.02 0,-0.01 0,-0.01 -0.01,-0.02 0,-0.01 0,-0.01 0,-0.01 0,-0.01 -0.01,0 0,-0.01 0,-0.01 0,0 0,-0.01 c 0,-0.15 0.13,-0.22 0.24,-0.22 0.12,0 0.24,0.09 0.27,0.15 0.03,0.07 0.09,0.29 0.13,0.44 0.03,0.13 0.11,0.45 0.15,0.62 0.04,0.15 0.08,0.31 0.12,0.47 0.07,0.3 0.07,0.31 0.21,0.53 0.23,0.34 0.57,0.73 1.12,0.73 0.39,0 0.41,-0.32 0.41,-0.48 0,-0.42 -0.3,-1.19 -0.41,-1.49 -0.08,-0.19 -0.11,-0.25 -0.11,-0.37 0,-0.37 0.31,-0.6 0.66,-0.6 0.7,0 1.01,0.96 1.01,1.06 0,0.1 -0.09,0.1 -0.11,0.1 -0.1,0 -0.11,-0.05 -0.14,-0.12 -0.16,-0.56 -0.46,-0.84 -0.73,-0.84 -0.15,0 -0.18,0.09 -0.18,0.24 0,0.16 0.04,0.25 0.16,0.56 0.09,0.22 0.37,0.96 0.37,1.35 0,0.11 0,0.4 -0.26,0.6 -0.12,0.09 -0.32,0.19 -0.65,0.19 -0.62,0 -1,-0.41 -1.23,-0.71 -0.05,0.6 -0.55,0.71 -0.9,0.71 -0.58,0 -0.97,-0.36 -1.18,-0.63 -0.05,0.47 -0.46,0.63 -0.75,0.63 -0.29,0 -0.46,-0.22 -0.55,-0.38 -0.15,-0.25 -0.25,-0.65 -0.25,-0.69 0,-0.09 0.1,-0.09 0.12,-0.09 0.1,0 0.11,0.02 0.16,0.21 0.1,0.41 0.23,0.75 0.5,0.75 0.19,0 0.23,-0.15 0.23,-0.34 0,-0.13 -0.06,-0.39 -0.11,-0.57 -0.05,-0.19 -0.12,-0.48 -0.15,-0.63 l -0.22,-0.89 c -0.03,-0.09 -0.07,-0.27 -0.07,-0.29 0,-0.15 0.12,-0.22 0.23,-0.22 0.13,0 0.24,0.09 0.28,0.15 0.03,0.07 0.09,0.29 0.12,0.44 0.04,0.13 0.11,0.45 0.15,0.62 0.05,0.15 0.09,0.31 0.12,0.47 0.08,0.28 0.09,0.34 0.3,0.62 0.19,0.28 0.52,0.64 1.04,0.64 0.4,0 0.41,-0.35 0.41,-0.48 0,-0.18 -0.02,-0.27 -0.12,-0.66 z"
         id="path5572" /></g>    <g
       transform="matrix(1.25,0,0,-1.25,105.09397,668.1812)"
       id="g3183">
      <text
         id="text3185-6"
         transform="matrix(1,0,0,-1,304.727,62.4598)">
        <tspan
           id="tspan3187-9"
           sodipodi:role="line"
           y="0"
           x="0 5.0570002 11.557 21.671"
           style="font-size:13px;font-variant:normal;font-weight:normal;writing-mode:lr-tb;fill:#000000;fill-opacity:1;fill-rule:nonzero;stroke:none;font-family:Times New Roman;-inkscape-font-specification:TimesNewRomanPSMT">sum2</tspan>
      </text>
    </g>
    <path
       id="path3201-1"
       style="fill:#ffffff;fill-opacity:1;fill-rule:nonzero;stroke:none"
       d="m 484.44897,591.46394 41.25,0 0,-26.42625 -41.25,0 0,26.42625 z"
       inkscape:connector-curvature="0" />
    <g
       ns0:preamble=""
       ns0:text="$M_k$"
       word-spacing="normal"
       letter-spacing="normal"
       font-size-adjust="none"
       font-stretch="normal"
       font-weight="normal"
       font-variant="normal"
       font-style="normal"
       stroke-miterlimit="10.433"
       xml:space="preserve"
       transform="matrix(1.2901789,0,0,-1.489987,215.65087,1627.9963)"
       id="content"
       style="font-style:normal;font-variant:normal;font-weight:normal;font-stretch:normal;letter-spacing:normal;word-spacing:normal;text-anchor:start;fill:none;stroke:#000000;stroke-linecap:butt;stroke-linejoin:miter;stroke-miterlimit:10.43299961;stroke-opacity:1;stroke-dasharray:none;stroke-dashoffset:0"><path
         id="path3612"
         d="m 232.65,713.15 0,0.03 0.01,0.03 0.01,0.03 0.01,0.03 0,0.02 0.01,0.03 0.01,0.02 0.01,0.03 0.01,0.02 0.01,0.02 0.01,0.02 0.02,0.02 0.01,0.01 0.02,0.02 0.02,0.01 0.02,0.02 0.02,0.01 0.02,0.01 0.03,0.01 0.03,0.01 0.03,0.01 0.01,0 0.02,0.01 0.02,0 0.02,0 0.01,0.01 0.02,0 0.03,0 0.02,0.01 0.02,0 0.02,0 0.03,0 0.02,0 0.03,0.01 0.02,0 0.03,0 0.03,0 0.03,0 0.03,0 0.03,0 0.03,0 0.04,0 0.03,0 c 0.23,0 0.32,0 0.32,0.2 0,0.11 -0.1,0.11 -0.27,0.11 h -1.31 c -0.26,0 -0.27,0 -0.39,-0.19 l -3.63,-5.66 -0.78,5.62 c -0.03,0.23 -0.05,0.23 -0.31,0.23 h -1.36 c -0.19,0 -0.3,0 -0.3,-0.19 0,-0.12 0.09,-0.12 0.29,-0.12 0.13,0 0.31,-0.01 0.43,-0.02 0.16,-0.02 0.22,-0.05 0.22,-0.16 0,-0.04 -0.01,-0.07 -0.04,-0.19 l -1.27,-5.05 c -0.1,-0.4 -0.26,-0.72 -1.07,-0.75 -0.05,0 -0.18,-0.01 -0.18,-0.19 0,-0.08 0.06,-0.12 0.14,-0.12 0.32,0 0.67,0.04 0.99,0.04 0.34,0 0.7,-0.04 1.03,-0.04 0.05,0 0.18,0 0.18,0.2 0,0.11 -0.11,0.11 -0.18,0.11 -0.57,0.01 -0.68,0.21 -0.68,0.44 0,0.07 0.01,0.12 0.04,0.23 l 1.36,5.41 h 0.01 l 0.85,-6.16 c 0.02,-0.12 0.03,-0.23 0.15,-0.23 0.11,0 0.17,0.11 0.22,0.18 l 4.02,6.29 h 0.01 l -1.42,-5.69 c -0.1,-0.39 -0.12,-0.47 -0.91,-0.47 -0.17,0 -0.28,0 -0.28,-0.19 0,-0.12 0.12,-0.12 0.15,-0.12 0.28,0 0.96,0.04 1.23,0.04 0.41,0 0.84,-0.04 1.25,-0.04 0.06,0 0.19,0 0.19,0.2 0,0.11 -0.09,0.11 -0.28,0.11 -0.37,0 -0.65,0 -0.65,0.18 0,0.04 0,0.06 0.05,0.24 z"
         inkscape:connector-curvature="0"
         style="fill:#000000;stroke-width:0" /><path
         id="path3614"
         d="m 235.28,710.25 0,0 0,0 0,0 0,0 0,0 0,0 0,0.01 0,0 0,0 0,0 0,0.01 0,0 0.01,0 0,0.01 0,0 0,0.01 0,0 0,0.01 0,0.01 0,0 0.01,0.01 0,0 0,0 0,0.01 0,0 0,0.01 0,0 0,0 0,0.01 0,0 0,0 0,0 0,0 0,0 0,0.01 0,0 0,0 0,0 0,0 0,0 0,0 c 0,0.03 -0.02,0.1 -0.11,0.1 -0.14,0 -0.71,-0.06 -0.89,-0.07 -0.05,-0.01 -0.15,-0.02 -0.15,-0.16 0,-0.1 0.1,-0.1 0.18,-0.1 0.33,0 0.33,-0.05 0.33,-0.1 0,-0.05 -0.01,-0.1 -0.02,-0.16 l -0.99,-3.93 c -0.03,-0.13 -0.03,-0.14 -0.03,-0.16 0,-0.1 0.08,-0.22 0.24,-0.22 0.18,0 0.27,0.14 0.32,0.29 0.01,0.03 0.31,1.25 0.34,1.35 0.49,-0.05 0.89,-0.21 0.89,-0.57 0,-0.03 0,-0.07 -0.01,-0.14 -0.03,-0.1 -0.03,-0.14 -0.03,-0.21 0,-0.5 0.4,-0.72 0.74,-0.72 0.67,0 0.88,1.06 0.88,1.06 0,0.1 -0.09,0.1 -0.11,0.1 -0.1,0 -0.11,-0.04 -0.14,-0.17 -0.08,-0.3 -0.27,-0.79 -0.61,-0.79 -0.19,0 -0.25,0.17 -0.25,0.36 0,0.12 0,0.13 0.05,0.31 0,0.02 0.03,0.14 0.03,0.22 0,0.62 -0.84,0.71 -1.13,0.73 0.2,0.13 0.46,0.36 0.58,0.46 0.35,0.34 0.7,0.66 1.09,0.66 0.09,0 0.18,-0.02 0.23,-0.09 -0.3,-0.05 -0.36,-0.28 -0.36,-0.39 0,-0.15 0.12,-0.25 0.28,-0.25 0.19,0 0.4,0.15 0.4,0.44 0,0.23 -0.17,0.49 -0.54,0.49 -0.4,0 -0.76,-0.29 -1.11,-0.61 -0.3,-0.28 -0.53,-0.5 -0.81,-0.62 z"
         inkscape:connector-curvature="0"
         style="fill:#000000;stroke-width:0" /></g>    <g
       style="font-style:normal;font-variant:normal;font-weight:normal;font-stretch:normal;letter-spacing:normal;word-spacing:normal;text-anchor:start;fill:none;stroke:#000000;stroke-linecap:butt;stroke-linejoin:miter;stroke-miterlimit:10.43299961;stroke-opacity:1;stroke-dasharray:none;stroke-dashoffset:0"
       id="g3922"
       transform="matrix(1.3267032,0,0,-1.4121237,207.96714,1585.7181)"
       xml:space="preserve"
       stroke-miterlimit="10.433"
       font-style="normal"
       font-variant="normal"
       font-weight="normal"
       font-stretch="normal"
       font-size-adjust="none"
       letter-spacing="normal"
       word-spacing="normal"
       ns0:text="$D_k$"
       ns0:preamble=""><path
         style="fill:#000000;stroke-width:0"
         inkscape:connector-curvature="0"
         d="m 225.01,707.9 -0.01,-0.04 0,-0.03 -0.01,-0.03 -0.01,-0.03 -0.01,-0.03 -0.01,-0.03 -0.01,-0.02 -0.01,-0.03 -0.01,-0.02 -0.01,-0.02 -0.01,-0.02 -0.02,-0.02 -0.01,-0.02 -0.02,-0.01 -0.02,-0.02 -0.02,-0.01 -0.02,-0.01 -0.03,-0.01 -0.03,-0.01 -0.03,-0.01 -0.03,-0.01 -0.02,0 -0.01,-0.01 -0.02,0 -0.02,0 -0.02,-0.01 -0.02,0 -0.02,0 -0.03,0 -0.02,-0.01 -0.02,0 -0.03,0 -0.03,0 -0.02,0 -0.03,0 -0.03,0 -0.03,0 -0.03,-0.01 -0.03,0 -0.04,0 -0.03,0 -0.03,0 -0.04,0 c -0.17,0 -0.28,0 -0.28,-0.19 0,-0.12 0.09,-0.12 0.28,-0.12 h 3.29 l -0.18,0.31 h -1.12 c -0.14,0 -0.16,0 -0.22,0.01 -0.1,0.01 -0.13,0.02 -0.13,0.1 0,0.03 0,0.05 0.05,0.23 l 1.36,5.45 c 0.09,0.35 0.11,0.38 0.54,0.38 h 1.06 c 0.98,0 1.81,-0.52 1.81,-1.84 0,-0.48 -0.2,-2.11 -1.05,-3.21 -0.29,-0.36 -1.07,-1.12 -2.3,-1.12 l 0.18,-0.31 c 2.07,0 4.03,2.1 4.03,4.28 0,1.4 -0.84,2.51 -2.34,2.51 h -3.34 c -0.19,0 -0.3,0 -0.3,-0.19 0,-0.12 0.09,-0.12 0.29,-0.12 0.13,0 0.31,-0.01 0.43,-0.02 0.16,-0.02 0.22,-0.05 0.22,-0.16 0,-0.04 -0.01,-0.07 -0.04,-0.19 z"
         id="path3924" /><path
         style="fill:#000000;stroke-width:0"
         inkscape:connector-curvature="0"
         d="m 233.86,710.25 0,0 0,0 0,0 0,0 0,0 0,0 0,0.01 0,0 0,0 0.01,0 0,0.01 0,0 0,0 0,0.01 0,0 0,0.01 0,0 0,0.01 0.01,0.01 0,0 0,0.01 0,0 0,0 0,0.01 0,0 0,0.01 0,0 0.01,0 0,0.01 0,0 0,0 0,0 0,0 0,0 0,0.01 0,0 0,0 0,0 0,0 0,0 0,0 c 0,0.03 -0.03,0.1 -0.11,0.1 -0.14,0 -0.72,-0.06 -0.9,-0.07 -0.05,-0.01 -0.15,-0.02 -0.15,-0.16 0,-0.1 0.1,-0.1 0.18,-0.1 0.34,0 0.34,-0.05 0.34,-0.1 0,-0.05 -0.02,-0.1 -0.03,-0.16 l -0.98,-3.93 c -0.04,-0.13 -0.04,-0.14 -0.04,-0.16 0,-0.1 0.09,-0.22 0.24,-0.22 0.19,0 0.28,0.14 0.32,0.29 0.01,0.03 0.31,1.25 0.34,1.35 0.5,-0.05 0.89,-0.21 0.89,-0.57 0,-0.03 0,-0.07 -0.01,-0.14 -0.03,-0.1 -0.03,-0.14 -0.03,-0.21 0,-0.5 0.4,-0.72 0.74,-0.72 0.67,0 0.88,1.06 0.88,1.06 0,0.1 -0.09,0.1 -0.11,0.1 -0.1,0 -0.1,-0.04 -0.14,-0.17 -0.08,-0.3 -0.27,-0.79 -0.61,-0.79 -0.19,0 -0.24,0.17 -0.24,0.36 0,0.12 0,0.13 0.04,0.31 0,0.02 0.03,0.14 0.03,0.22 0,0.62 -0.83,0.71 -1.13,0.73 0.21,0.13 0.46,0.36 0.58,0.46 0.36,0.34 0.71,0.66 1.1,0.66 0.08,0 0.17,-0.02 0.23,-0.09 -0.3,-0.05 -0.37,-0.28 -0.37,-0.39 0,-0.15 0.12,-0.25 0.28,-0.25 0.19,0 0.4,0.15 0.4,0.44 0,0.23 -0.17,0.49 -0.54,0.49 -0.39,0 -0.76,-0.29 -1.11,-0.61 -0.29,-0.28 -0.52,-0.5 -0.81,-0.62 z"
         id="path3926" /></g>  </g>
</svg>
