<?xml version="1.0" encoding="UTF-8" standalone="no"?>
<!-- Created with Inkscape (http://www.inkscape.org/) -->

<svg
   xmlns:ns0="http://www.iki.fi/pav/software/textext/"
   xmlns:dc="http://purl.org/dc/elements/1.1/"
   xmlns:cc="http://creativecommons.org/ns#"
   xmlns:rdf="http://www.w3.org/1999/02/22-rdf-syntax-ns#"
   xmlns:svg="http://www.w3.org/2000/svg"
   xmlns="http://www.w3.org/2000/svg"
   xmlns:sodipodi="http://sodipodi.sourceforge.net/DTD/sodipodi-0.dtd"
   xmlns:inkscape="http://www.inkscape.org/namespaces/inkscape"
   width="210mm"
   height="297mm"
   id="svg2"
   version="1.1"
   inkscape:version="0.48.4 r9939"
   sodipodi:docname="ddphiexp.eps">
  <defs
     id="defs4" />
  <sodipodi:namedview
     id="base"
     pagecolor="#ffffff"
     bordercolor="#666666"
     borderopacity="1.0"
     inkscape:pageopacity="0.0"
     inkscape:pageshadow="2"
     inkscape:zoom="0.98994949"
     inkscape:cx="43.728755"
     inkscape:cy="495.7955"
     inkscape:document-units="px"
     inkscape:current-layer="g2993"
     showgrid="false"
     inkscape:window-width="1847"
     inkscape:window-height="1056"
     inkscape:window-x="73"
     inkscape:window-y="24"
     inkscape:window-maximized="1" />
  <metadata
     id="metadata7">
    <rdf:RDF>
      <cc:Work
         rdf:about="">
        <dc:format>image/svg+xml</dc:format>
        <dc:type
           rdf:resource="http://purl.org/dc/dcmitype/StillImage" />
        <dc:title></dc:title>
      </cc:Work>
    </rdf:RDF>
  </metadata>
  <g
     inkscape:label="レイヤー 1"
     inkscape:groupmode="layer"
     id="layer1">
    <g
       transform="matrix(1.25,0,0,-1.25,114.97314,652.51843)"
       inkscape:label="ink_ext_XXXXXX"
       id="g2993">
      <g
         transform="scale(0.1,0.1)"
         id="g2995">
        <path
           id="path2997"
           style="fill:none;stroke:#000000;stroke-width:5;stroke-linecap:butt;stroke-linejoin:miter;stroke-miterlimit:3.79999995;stroke-opacity:1;stroke-dasharray:none"
           d="m 1050,684 31.5,0 m 2607.5,0 -31.5,0"
           inkscape:connector-curvature="0" />
        <g
           transform="scale(10,10)"
           id="g2999">
          <text
             id="text3001"
             transform="matrix(1,0,0,-1,46.0543,61.6852)">
            <tspan
               id="tspan3003"
               sodipodi:role="line"
               y="0"
               x="0 5.1615 12.9115 16.786501"
               style="font-size:15.5px;font-variant:normal;font-weight:normal;writing-mode:lr-tb;fill:#000000;fill-opacity:1;fill-rule:nonzero;stroke:none;font-family:Times New Roman;-inkscape-font-specification:Times New">-2.0</tspan>
          </text>
          <text
             id="text3005"
             transform="matrix(1,0,0,-1,70.5906,61.6852)">
            <tspan
               id="tspan3007"
               y="0"
               x="0"
               style="font-size:15.5px;font-variant:normal;font-weight:normal;writing-mode:lr-tb;fill:#000000;fill-opacity:1;fill-rule:nonzero;stroke:none;font-family:Symbol;-inkscape-font-specification:Symbol">×</tspan>
          </text>
          <text
             id="text3009"
             transform="matrix(1,0,0,-1,79.09998,61.6852)">
            <tspan
               id="tspan3011"
               sodipodi:role="line"
               y="0"
               x="0 7.75"
               style="font-size:15.5px;font-variant:normal;font-weight:normal;writing-mode:lr-tb;fill:#000000;fill-opacity:1;fill-rule:nonzero;stroke:none;font-family:Times New Roman;-inkscape-font-specification:Times New">10</tspan>
          </text>
          <text
             id="text3013"
             transform="matrix(1,0,0,-1,94.59998,69.4352)">
            <tspan
               id="tspan3015"
               y="0"
               x="0"
               style="font-size:12.39999962px;font-variant:normal;font-weight:normal;writing-mode:lr-tb;fill:#000000;fill-opacity:1;fill-rule:nonzero;stroke:none;font-family:Times New Roman;-inkscape-font-specification:Times New">5</tspan>
          </text>
        </g>
        <path
           id="path3017"
           style="fill:none;stroke:#000000;stroke-width:5;stroke-linecap:butt;stroke-linejoin:miter;stroke-miterlimit:3.79999995;stroke-opacity:1;stroke-dasharray:none"
           d="m 1050,1184 31.5,0 m 2607.5,0 -31.5,0"
           inkscape:connector-curvature="0" />
        <g
           transform="scale(10,10)"
           id="g3019">
          <text
             id="text3021"
             transform="matrix(1,0,0,-1,46.0543,111.685)">
            <tspan
               id="tspan3023"
               sodipodi:role="line"
               y="0"
               x="0 5.1615 12.9115 16.786501"
               style="font-size:15.5px;font-variant:normal;font-weight:normal;writing-mode:lr-tb;fill:#000000;fill-opacity:1;fill-rule:nonzero;stroke:none;font-family:Times New Roman;-inkscape-font-specification:Times New">-1.0</tspan>
          </text>
          <text
             id="text3025"
             transform="matrix(1,0,0,-1,70.5906,111.685)">
            <tspan
               id="tspan3027"
               y="0"
               x="0"
               style="font-size:15.5px;font-variant:normal;font-weight:normal;writing-mode:lr-tb;fill:#000000;fill-opacity:1;fill-rule:nonzero;stroke:none;font-family:Symbol;-inkscape-font-specification:Symbol">×</tspan>
          </text>
          <text
             id="text3029"
             transform="matrix(1,0,0,-1,79.09998,111.685)">
            <tspan
               id="tspan3031"
               sodipodi:role="line"
               y="0"
               x="0 7.75"
               style="font-size:15.5px;font-variant:normal;font-weight:normal;writing-mode:lr-tb;fill:#000000;fill-opacity:1;fill-rule:nonzero;stroke:none;font-family:Times New Roman;-inkscape-font-specification:Times New">10</tspan>
          </text>
          <text
             id="text3033"
             transform="matrix(1,0,0,-1,94.59998,119.435)">
            <tspan
               id="tspan3035"
               y="0"
               x="0"
               style="font-size:12.39999962px;font-variant:normal;font-weight:normal;writing-mode:lr-tb;fill:#000000;fill-opacity:1;fill-rule:nonzero;stroke:none;font-family:Times New Roman;-inkscape-font-specification:Times New">5</tspan>
          </text>
        </g>
        <path
           id="path3037"
           style="fill:none;stroke:#000000;stroke-width:5;stroke-linecap:butt;stroke-linejoin:miter;stroke-miterlimit:3.79999995;stroke-opacity:1;stroke-dasharray:none"
           d="m 1050,1683.5 31.5,0 m 2607.5,0 -31.5,0"
           inkscape:connector-curvature="0" />
        <g
           transform="scale(10,10)"
           id="g3039">
          <text
             id="text3041"
             transform="matrix(1,0,0,-1,51.2156,161.635)">
            <tspan
               id="tspan3043"
               sodipodi:role="line"
               y="0"
               x="0 7.75 11.625"
               style="font-size:15.5px;font-variant:normal;font-weight:normal;writing-mode:lr-tb;fill:#000000;fill-opacity:1;fill-rule:nonzero;stroke:none;font-family:Times New Roman;-inkscape-font-specification:Times New">0.0</tspan>
          </text>
          <text
             id="text3045"
             transform="matrix(1,0,0,-1,70.5906,161.635)">
            <tspan
               id="tspan3047"
               y="0"
               x="0"
               style="font-size:15.5px;font-variant:normal;font-weight:normal;writing-mode:lr-tb;fill:#000000;fill-opacity:1;fill-rule:nonzero;stroke:none;font-family:Symbol;-inkscape-font-specification:Symbol">×</tspan>
          </text>
          <text
             id="text3049"
             transform="matrix(1,0,0,-1,79.09998,161.635)">
            <tspan
               id="tspan3051"
               sodipodi:role="line"
               y="0"
               x="0 7.75"
               style="font-size:15.5px;font-variant:normal;font-weight:normal;writing-mode:lr-tb;fill:#000000;fill-opacity:1;fill-rule:nonzero;stroke:none;font-family:Times New Roman;-inkscape-font-specification:Times New">10</tspan>
          </text>
          <text
             id="text3053"
             transform="matrix(1,0,0,-1,94.59998,169.385)">
            <tspan
               id="tspan3055"
               y="0"
               x="0"
               style="font-size:12.39999962px;font-variant:normal;font-weight:normal;writing-mode:lr-tb;fill:#000000;fill-opacity:1;fill-rule:nonzero;stroke:none;font-family:Times New Roman;-inkscape-font-specification:Times New">0</tspan>
          </text>
        </g>
        <path
           id="path3057"
           style="fill:none;stroke:#000000;stroke-width:5;stroke-linecap:butt;stroke-linejoin:miter;stroke-miterlimit:3.79999995;stroke-opacity:1;stroke-dasharray:none"
           d="m 1050,2183.5 31.5,0 m 2607.5,0 -31.5,0"
           inkscape:connector-curvature="0" />
        <g
           transform="scale(10,10)"
           id="g3059">
          <text
             id="text3061"
             transform="matrix(1,0,0,-1,51.2156,211.635)">
            <tspan
               id="tspan3063"
               sodipodi:role="line"
               y="0"
               x="0 7.75 11.625"
               style="font-size:15.5px;font-variant:normal;font-weight:normal;writing-mode:lr-tb;fill:#000000;fill-opacity:1;fill-rule:nonzero;stroke:none;font-family:Times New Roman;-inkscape-font-specification:Times New">1.0</tspan>
          </text>
          <text
             id="text3065"
             transform="matrix(1,0,0,-1,70.5906,211.635)">
            <tspan
               id="tspan3067"
               y="0"
               x="0"
               style="font-size:15.5px;font-variant:normal;font-weight:normal;writing-mode:lr-tb;fill:#000000;fill-opacity:1;fill-rule:nonzero;stroke:none;font-family:Symbol;-inkscape-font-specification:Symbol">×</tspan>
          </text>
          <text
             id="text3069"
             transform="matrix(1,0,0,-1,79.09998,211.635)">
            <tspan
               id="tspan3071"
               sodipodi:role="line"
               y="0"
               x="0 7.75"
               style="font-size:15.5px;font-variant:normal;font-weight:normal;writing-mode:lr-tb;fill:#000000;fill-opacity:1;fill-rule:nonzero;stroke:none;font-family:Times New Roman;-inkscape-font-specification:Times New">10</tspan>
          </text>
          <text
             id="text3073"
             transform="matrix(1,0,0,-1,94.59998,219.385)">
            <tspan
               id="tspan3075"
               y="0"
               x="0"
               style="font-size:12.39999962px;font-variant:normal;font-weight:normal;writing-mode:lr-tb;fill:#000000;fill-opacity:1;fill-rule:nonzero;stroke:none;font-family:Times New Roman;-inkscape-font-specification:Times New">5</tspan>
          </text>
        </g>
        <path
           id="path3077"
           style="fill:none;stroke:#000000;stroke-width:5;stroke-linecap:butt;stroke-linejoin:miter;stroke-miterlimit:3.79999995;stroke-opacity:1;stroke-dasharray:none"
           d="m 1050,434 0,31.5 m 0,1718 0,-31.5"
           inkscape:connector-curvature="0" />
        <g
           transform="scale(10,10)"
           id="g3079">
          <text
             id="text3081"
             transform="matrix(1,0,0,-1,91.4375,31.2352)">
            <tspan
               id="tspan3083"
               sodipodi:role="line"
               y="0"
               x="0 7.75 11.625 19.375"
               style="font-size:15.5px;font-variant:normal;font-weight:normal;writing-mode:lr-tb;fill:#000000;fill-opacity:1;fill-rule:nonzero;stroke:none;font-family:Times New Roman;-inkscape-font-specification:Times New">0.00</tspan>
          </text>
        </g>
        <path
           id="path3085"
           style="fill:none;stroke:#000000;stroke-width:5;stroke-linecap:butt;stroke-linejoin:miter;stroke-miterlimit:3.79999995;stroke-opacity:1;stroke-dasharray:none"
           d="m 1678.5,434 0,31.5 m 0,1718 0,-31.5"
           inkscape:connector-curvature="0" />
        <g
           transform="scale(10,10)"
           id="g3087">
          <text
             id="text3089"
             transform="matrix(1,0,0,-1,154.288,31.2352)">
            <tspan
               id="tspan3091"
               sodipodi:role="line"
               y="0"
               x="0 7.75 11.625 19.375"
               style="font-size:15.5px;font-variant:normal;font-weight:normal;writing-mode:lr-tb;fill:#000000;fill-opacity:1;fill-rule:nonzero;stroke:none;font-family:Times New Roman;-inkscape-font-specification:Times New">0.05</tspan>
          </text>
        </g>
        <path
           id="path3093"
           style="fill:none;stroke:#000000;stroke-width:5;stroke-linecap:butt;stroke-linejoin:miter;stroke-miterlimit:3.79999995;stroke-opacity:1;stroke-dasharray:none"
           d="m 2306.5,434 0,31.5 m 0,1718 0,-31.5"
           inkscape:connector-curvature="0" />
        <g
           transform="scale(10,10)"
           id="g3095">
          <text
             id="text3097"
             transform="matrix(1,0,0,-1,217.088,31.2352)">
            <tspan
               id="tspan3099"
               sodipodi:role="line"
               y="0"
               x="0 7.75 11.625 19.375"
               style="font-size:15.5px;font-variant:normal;font-weight:normal;writing-mode:lr-tb;fill:#000000;fill-opacity:1;fill-rule:nonzero;stroke:none;font-family:Times New Roman;-inkscape-font-specification:Times New">0.10</tspan>
          </text>
        </g>
        <path
           id="path3101"
           style="fill:none;stroke:#000000;stroke-width:5;stroke-linecap:butt;stroke-linejoin:miter;stroke-miterlimit:3.79999995;stroke-opacity:1;stroke-dasharray:none"
           d="m 2935,434 0,31.5 m 0,1718 0,-31.5"
           inkscape:connector-curvature="0" />
        <g
           transform="scale(10,10)"
           id="g3103">
          <text
             id="text3105"
             transform="matrix(1,0,0,-1,279.938,31.2352)">
            <tspan
               id="tspan3107"
               sodipodi:role="line"
               y="0"
               x="0 7.75 11.625 19.375"
               style="font-size:15.5px;font-variant:normal;font-weight:normal;writing-mode:lr-tb;fill:#000000;fill-opacity:1;fill-rule:nonzero;stroke:none;font-family:Times New Roman;-inkscape-font-specification:Times New">0.15</tspan>
          </text>
        </g>
        <path
           id="path3109"
           style="fill:none;stroke:#000000;stroke-width:5;stroke-linecap:butt;stroke-linejoin:miter;stroke-miterlimit:3.79999995;stroke-opacity:1;stroke-dasharray:none"
           d="m 3563.5,434 0,31.5 m 0,1718 0,-31.5"
           inkscape:connector-curvature="0" />
        <g
           transform="scale(10,10)"
           id="g3111">
          <text
             id="text3113"
             transform="matrix(1,0,0,-1,342.788,31.2352)">
            <tspan
               id="tspan3115"
               sodipodi:role="line"
               y="0"
               x="0 7.75 11.625 19.375"
               style="font-size:15.5px;font-variant:normal;font-weight:normal;writing-mode:lr-tb;fill:#000000;fill-opacity:1;fill-rule:nonzero;stroke:none;font-family:Times New Roman;-inkscape-font-specification:Times New">0.20</tspan>
          </text>
        </g>
        <path
           id="path3117"
           style="fill:none;stroke:#000000;stroke-width:5;stroke-linecap:butt;stroke-linejoin:miter;stroke-miterlimit:3.79999995;stroke-opacity:1;stroke-dasharray:none"
           d="m 1050,434 2639,0 0,1749.5 -2639,0 0,-1749.5 z"
           inkscape:connector-curvature="0" />
        <g
           transform="scale(10,10)"
           id="g3119">
          <text
             id="text3121"
             transform="matrix(1,0,0,-1,210.477,-0.264844)">
            <tspan
               id="tspan3123"
               sodipodi:role="line"
               y="0"
               x="0 9.4705 13.7795 25.838499 32.720501 36.595501 41.757 47.786499"
               style="font-size:15.5px;font-variant:normal;font-weight:normal;writing-mode:lr-tb;fill:#000000;fill-opacity:1;fill-rule:nonzero;stroke:none;font-family:Times New Roman;-inkscape-font-specification:Times">Time [s]</tspan>
          </text>
        </g>
        <path
           id="path3125"
           style="fill:none;stroke:#000000;stroke-width:2.5;stroke-linecap:butt;stroke-linejoin:miter;stroke-miterlimit:3.79999995;stroke-opacity:1;stroke-dasharray:none"
           d="m 1050,1683.5 274.5,0"
           inkscape:connector-curvature="0" />
        <path
           id="path3127"
           style="fill:none;stroke:#000000;stroke-width:2.5;stroke-linecap:butt;stroke-linejoin:miter;stroke-miterlimit:3.79999995;stroke-opacity:1;stroke-dasharray:none"
           d="m 1324.5,1683.5 275,0"
           inkscape:connector-curvature="0" />
        <path
           id="path3129"
           style="fill:none;stroke:#000000;stroke-width:2.5;stroke-linecap:butt;stroke-linejoin:miter;stroke-miterlimit:3.79999995;stroke-opacity:1;stroke-dasharray:none"
           d="m 1599.5,1683.5 235,0 2.5,0.5 37,0"
           inkscape:connector-curvature="0" />
        <path
           id="path3131"
           style="fill:none;stroke:#000000;stroke-width:2.5;stroke-linecap:butt;stroke-linejoin:miter;stroke-miterlimit:3.79999995;stroke-opacity:1;stroke-dasharray:none"
           d="m 1874,1684 8,0 3,0.5 15.5,0 3,0.5 7.5,0 3,0.5 5,0 2.5,0.5 5.5,0 2.5,0.5 3,0 2.5,0.5 2.5,0 2.5,0.5 3,0 2.5,0.5 2.5,0.5 3,0.5 2.5,0 2.5,0.5 2.5,0.5 3,0.5 2.5,0.5 2.5,0.5 3,0.5 2.5,1 2.5,0.5 2.5,0.5 3,1 2.5,0.5 2.5,1 3,1 2.5,0.5 2.5,1 2.5,1 3,1 2.5,1.5 2.5,1 3,1.5 2.5,1 2.5,1.5 2.5,1.5 3,1.5 2.5,1.5 2.5,1.5 3,1.5 2.5,2 2.5,2 2.5,1.5 3,2 2.5,2 2.5,2.5 3,2 2.5,2 2.5,2.5 2.5,2.5 3,2.5 2.5,2.5 2.5,2.5 2.5,2.5 3,2.5 2.5,3 2.5,3 3,2.5 2.5,3 2.5,3 2.5,3 3,3 2.5,3 2.5,3 3,3 2.5,3 2.5,3 2.5,3 3,2.5 2.5,3 2.5,3 3,2.5 2.5,3 2.5,2.5 2.5,2.5 3,2.5 2.5,2 2.5,2 3,2 2.5,1.5 2.5,1.5 2.5,1.5 3,1 2.5,1 2.5,0.5 3,0.5 2.5,0"
           inkscape:connector-curvature="0" />
        <path
           id="path3133"
           style="fill:none;stroke:#000000;stroke-width:2.5;stroke-linecap:butt;stroke-linejoin:miter;stroke-miterlimit:3.79999995;stroke-opacity:1;stroke-dasharray:none"
           d="m 2149,1822 2.5,-0.5 2.5,-1 3,-1 2.5,-1.5 2.5,-1.5 3,-2.5 2.5,-2.5 2.5,-3 2.5,-4 3,-4 2.5,-4.5 2.5,-5 3,-6 2.5,-6 2.5,-7 2.5,-7 3,-8 2.5,-8.5 2.5,-9.5 3,-9.5 2.5,-10.5 2.5,-11 2.5,-11.5 3,-12.5 2.5,-13 2.5,-13.5 2.5,-14 3,-15 2.5,-15.5 2.5,-16 3,-16.5 2.5,-17.5 2.5,-17.5 2.5,-18.5 3,-19 2.5,-19.5 2.5,-20 3,-20.5 2.5,-21 2.5,-21.5 2.5,-21.5 3,-22 2.5,-22.5 2.5,-23 3,-23 2.5,-23 2.5,-23.5 2.5,-23.5 3,-23.5 2.5,-24 2.5,-23.5 3,-23.5 2.5,-23.5 2.5,-23.5 2.5,-23.5 3,-23 2.5,-22.5 2.5,-22.5 3,-22 2.5,-22 2.5,-21 2.5,-20.5 3,-20 2.5,-19.5 2.5,-19 3,-18 2.5,-17.5 2.5,-16.5 2.5,-15.5 3,-15 2.5,-14 2.5,-13 3,-12 2.5,-11 2.5,-10.5 2.5,-9 3,-7.5 2.5,-7 2.5,-5.5 3,-5 2.5,-3.5 2.5,-2 2.5,-1 3,0 2.5,1 2.5,2 2.5,3.5 3,5 2.5,5.5 2.5,7 3,7.5 2.5,9 2.5,10.5 2.5,11 3,12 2.5,13 2.5,14 3,15 2.5,15.5 2.5,16.5 2.5,17.5 3,18 2.5,19 2.5,19.5"
           inkscape:connector-curvature="0" />
        <path
           id="path3135"
           style="fill:none;stroke:#000000;stroke-width:2.5;stroke-linecap:butt;stroke-linejoin:miter;stroke-miterlimit:3.79999995;stroke-opacity:1;stroke-dasharray:none"
           d="m 2423.5,885 3,20 2.5,20.5 2.5,21 2.5,22 3,22 2.5,22.5 2.5,22.5 3,23 2.5,23.5 2.5,23.5 2.5,23.5 3,23.5 2.5,23.5 2.5,24 3,23.5 2.5,23.5 2.5,23.5 2.5,23 3,23 2.5,23 2.5,22.5 3,22 2.5,21.5 2.5,21.5 2.5,21 3,20.5 2.5,20 2.5,19.5 3,19 2.5,18.5 2.5,17.5 2.5,17.5 3,16.5 2.5,16 2.5,15.5 3,15 2.5,14 2.5,13.5 2.5,13 3,12.5 2.5,11.5 2.5,11 2.5,10.5 3,9.5 2.5,9.5 2.5,8.5 3,8 2.5,7 2.5,7 2.5,6 3,6 2.5,5 2.5,4.5 3,4 2.5,4 2.5,3 2.5,2.5 3,2.5 2.5,1.5 2.5,1.5 3,1 2.5,1 2.5,0.5 2.5,0 3,-0.5 2.5,-0.5 2.5,-1 3,-1 2.5,-1.5 2.5,-1.5 2.5,-1.5 3,-2 2.5,-2 2.5,-2 3,-2.5 2.5,-2.5 2.5,-2.5 2.5,-3 3,-2.5 2.5,-3 2.5,-3 3,-2.5 2.5,-3 2.5,-3 2.5,-3 3,-3 2.5,-3 2.5,-3 3,-3 2.5,-3 2.5,-3 2.5,-3 3,-2.5 2.5,-3 2.5,-3 2.5,-2.5 3,-2.5 2.5,-2.5 2.5,-2.5 3,-2.5 2.5,-2.5 2.5,-2.5 2.5,-2 3,-2"
           inkscape:connector-curvature="0" />
        <path
           id="path3137"
           style="fill:none;stroke:#000000;stroke-width:2.5;stroke-linecap:butt;stroke-linejoin:miter;stroke-miterlimit:3.79999995;stroke-opacity:1;stroke-dasharray:none"
           d="m 2698.5,1727 2.5,-2.5 2.5,-2 3,-2 2.5,-1.5 2.5,-2 2.5,-2 3,-1.5 2.5,-1.5 2.5,-1.5 3,-1.5 2.5,-1.5 2.5,-1.5 2.5,-1 3,-1.5 2.5,-1 2.5,-1.5 3,-1 2.5,-1 2.5,-1 2.5,-0.5 3,-1 2.5,-1 2.5,-0.5 3,-1 2.5,-0.5 2.5,-0.5 2.5,-1 3,-0.5 2.5,-0.5 2.5,-0.5 3,-0.5 2.5,-0.5 2.5,-0.5 2.5,0 3,-0.5 2.5,-0.5 2.5,-0.5 3,0 2.5,-0.5 2.5,0 2.5,-0.5 3,0 2.5,-0.5 5.5,0 2.5,-0.5 5,0 3,-0.5 7.5,0 3,-0.5 15.5,0 3,-0.5 45,0 2.5,-0.5 68.5,0"
           inkscape:connector-curvature="0" />
        <path
           id="path3139"
           style="fill:none;stroke:#000000;stroke-width:2.5;stroke-linecap:butt;stroke-linejoin:miter;stroke-miterlimit:3.79999995;stroke-opacity:1;stroke-dasharray:none"
           d="m 2973,1683.5 275,0"
           inkscape:connector-curvature="0" />
        <path
           id="path3141"
           style="fill:none;stroke:#000000;stroke-width:2.5;stroke-linecap:butt;stroke-linejoin:miter;stroke-miterlimit:3.79999995;stroke-opacity:1;stroke-dasharray:none"
           d="m 3248,1683.5 274.5,0"
           inkscape:connector-curvature="0" />
        <path
           id="path3143"
           style="fill:none;stroke:#000000;stroke-width:2.5;stroke-linecap:butt;stroke-linejoin:miter;stroke-miterlimit:3.79999995;stroke-opacity:1;stroke-dasharray:none"
           d="m 3522.5,1683.5 166.5,0"
           inkscape:connector-curvature="0" />
        <path
           id="path3145"
           style="fill:none;stroke:#000000;stroke-width:5;stroke-linecap:butt;stroke-linejoin:miter;stroke-miterlimit:3.79999995;stroke-opacity:1;stroke-dasharray:none"
           d="m 1050,434 2639,0 0,1749.5 -2639,0 0,-1749.5 z"
           inkscape:connector-curvature="0" />
      </g>
      <g
         style="font-style:normal;font-variant:normal;font-weight:normal;font-stretch:normal;letter-spacing:normal;word-spacing:normal;text-anchor:start;fill:none;stroke:#000000;stroke-linecap:butt;stroke-linejoin:miter;stroke-miterlimit:10.43299961;stroke-opacity:1;stroke-dasharray:none;stroke-dashoffset:0"
         id="content"
         transform="matrix(0,1.8531101,-1.6479034,0,1194.0159,-300.55597)"
         xml:space="preserve"
         stroke-miterlimit="10.433"
         font-style="normal"
         font-variant="normal"
         font-weight="normal"
         font-stretch="normal"
         font-size-adjust="none"
         letter-spacing="normal"
         word-spacing="normal"
         ns0:text="$\\ddot{\\phi}(t)$"
         ns0:preamble=""><path
           style="fill:#000000;stroke-width:0"
           inkscape:connector-curvature="0"
           d="m 226.76,715.9 0,0.03 0,0.02 -0.01,0.02 0,0.02 0,0.03 -0.01,0.02 -0.01,0.02 -0.01,0.02 -0.01,0.02 -0.01,0.02 -0.01,0.02 -0.01,0.02 -0.01,0.02 -0.02,0.02 -0.01,0.02 -0.02,0.02 -0.01,0.02 -0.02,0.01 -0.02,0.02 -0.02,0.02 -0.02,0.01 -0.02,0.01 -0.02,0.01 -0.02,0.02 -0.03,0.01 -0.02,0 -0.03,0.01 -0.02,0.01 -0.03,0 -0.02,0.01 -0.03,0 -0.03,0 c -0.28,0 -0.5,-0.22 -0.5,-0.5 0,-0.28 0.22,-0.49 0.5,-0.49 0.3,0 0.5,0.25 0.5,0.49 z"
           id="path3380" /><path
           style="fill:#000000;stroke-width:0"
           inkscape:connector-curvature="0"
           d="m 228.68,715.9 0,0.03 0,0.02 -0.01,0.03 0,0.02 -0.01,0.03 0,0.02 -0.01,0.03 -0.01,0.02 -0.01,0.02 -0.01,0.02 -0.01,0.02 -0.01,0.02 -0.02,0.02 -0.01,0.02 -0.02,0.02 -0.01,0.02 -0.02,0.01 -0.02,0.02 -0.02,0.01 -0.02,0.02 -0.02,0.01 -0.02,0.01 -0.02,0.01 -0.02,0.01 -0.03,0.01 -0.02,0.01 -0.02,0 -0.03,0.01 -0.02,0 -0.03,0.01 -0.02,0 -0.03,0 c -0.3,0 -0.5,-0.26 -0.5,-0.5 0,-0.24 0.2,-0.49 0.5,-0.49 0.28,0 0.5,0.21 0.5,0.49 z"
           id="path3382" /><path
           style="fill:#000000;stroke-width:0"
           inkscape:connector-curvature="0"
           d="m 227.78,713.78 0,0 0,0 0,0 0,0.01 0,0 0,0 0,0 0,0 0,0.01 0,0 0,0 0,0.01 0.01,0 0,0.01 0,0.01 0,0 0,0.01 0,0 0,0.01 0.01,0.02 0,0 0,0.01 0,0 0,0.01 0,0 0.01,0.01 0,0 0,0.01 0,0 0,0 0,0 0,0 0,0 0,0.01 0,0 0,0 0,0 0,0 0,0 c 0,0.01 0,0.1 -0.12,0.1 -0.1,0 -0.11,-0.03 -0.15,-0.2 l -0.58,-2.29 c -1.58,-0.05 -3.04,-1.37 -3.04,-2.73 0,-0.94 0.7,-1.72 1.91,-1.79 l 0.05,0.21 c -0.6,0.03 -1.31,0.38 -1.31,1.37 0,1.2 0.85,2.59 2.33,2.72 l -1.02,-4.09 -0.05,-0.21 c -0.08,-0.31 -0.15,-0.63 -0.23,-0.94 -0.12,-0.47 -0.22,-0.84 -0.22,-0.87 0,-0.1 0.07,-0.11 0.12,-0.11 0.05,0 0.07,0.01 0.1,0.04 0.02,0.02 0.08,0.26 0.11,0.4 l 0.38,1.48 0.05,0.21 1.02,4.09 c 0.76,-0.04 1.33,-0.5 1.33,-1.37 0,-1.18 -0.86,-2.6 -2.35,-2.72 l -0.05,-0.21 c 1.6,0.04 3.04,1.39 3.04,2.72 0,0.78 -0.52,1.7 -1.91,1.8 z"
           id="path3384" /><path
           style="fill:#000000;stroke-width:0"
           inkscape:connector-curvature="0"
           d="m 232.66,704.74 0,0.01 0,0 0,0 0,0.01 0,0 0,0 0,0.01 0,0 -0.01,0 0,0.01 0,0 0,0.01 -0.01,0 0,0.01 0,0 -0.01,0.01 0,0.01 -0.01,0 0,0.01 -0.01,0 0,0.01 0,0 -0.01,0 0,0.01 -0.01,0 0,0.01 0,0 -0.01,0.01 0,0 -0.01,0.01 0,0 -0.01,0.01 -0.01,0.01 0,0 -0.01,0.01 0,0.01 -0.01,0 -0.01,0.01 -0.01,0.01 0,0 -0.01,0.01 -0.01,0.01 c -1.24,1.25 -1.56,3.13 -1.56,4.65 0,1.73 0.38,3.46 1.6,4.7 0.13,0.12 0.13,0.14 0.13,0.17 0,0.07 -0.04,0.1 -0.1,0.1 -0.1,0 -0.99,-0.68 -1.58,-1.94 -0.51,-1.09 -0.63,-2.2 -0.63,-3.03 0,-0.78 0.11,-1.98 0.66,-3.1 0.6,-1.22 1.45,-1.87 1.55,-1.87 0.06,0 0.1,0.03 0.1,0.1 z"
           id="path3386" /><path
           style="fill:#000000;stroke-width:0"
           inkscape:connector-curvature="0"
           d="m 235.29,711.1 h 0.94 c 0.2,0 0.3,0 0.3,0.2 0,0.11 -0.1,0.11 -0.28,0.11 h -0.88 c 0.36,1.41 0.41,1.61 0.41,1.67 0,0.16 -0.12,0.26 -0.29,0.26 -0.03,0 -0.31,-0.01 -0.4,-0.35 l -0.38,-1.58 h -0.94 c -0.2,0 -0.3,0 -0.3,-0.19 0,-0.12 0.08,-0.12 0.28,-0.12 h 0.88 c -0.72,-2.82 -0.76,-2.99 -0.76,-3.17 0,-0.54 0.38,-0.91 0.92,-0.91 1.01,0 1.58,1.45 1.58,1.53 0,0.1 -0.08,0.1 -0.12,0.1 -0.09,0 -0.1,-0.04 -0.15,-0.14 -0.43,-1.04 -0.96,-1.28 -1.3,-1.28 -0.2,0 -0.3,0.13 -0.3,0.46 0,0.24 0.02,0.31 0.06,0.48 z"
           id="path3388" /><path
           style="fill:#000000;stroke-width:0"
           inkscape:connector-curvature="0"
           d="m 239.71,709.61 0,0.07 0,0.08 0,0.08 0,0.08 -0.01,0.17 -0.01,0.17 -0.02,0.18 -0.02,0.19 -0.03,0.2 -0.03,0.2 -0.04,0.2 -0.04,0.21 -0.06,0.21 -0.06,0.21 -0.07,0.21 -0.08,0.21 -0.04,0.11 -0.04,0.11 -0.05,0.1 -0.05,0.11 c -0.6,1.22 -1.45,1.87 -1.55,1.87 -0.06,0 -0.1,-0.04 -0.1,-0.1 0,-0.03 0,-0.05 0.19,-0.23 0.97,-0.99 1.54,-2.57 1.54,-4.64 0,-1.7 -0.37,-3.45 -1.6,-4.7 -0.13,-0.12 -0.13,-0.14 -0.13,-0.17 0,-0.06 0.04,-0.1 0.1,-0.1 0.1,0 0.99,0.68 1.58,1.94 0.51,1.09 0.62,2.19 0.62,3.03 z"
           id="path3390" /></g>      <rect
         style="fill:#ffffff;stroke-width:0.31799999;stroke-miterlimit:4;stroke-dasharray:none;stroke-dashoffset:0"
         id="rect3243"
         width="14.015866"
         height="14.647212"
         x="253.67456"
         y="599.56128"
         transform="matrix(0.8,0,0,-0.8,-91.978512,522.01474)" />
      <rect
         style="fill:#ffffff;stroke-width:0.31799999;stroke-miterlimit:4;stroke-dasharray:none;stroke-dashoffset:0"
         id="rect3245"
         width="17.425131"
         height="24.875006"
         x="226.40044"
         y="595.77325"
         transform="matrix(0.8,0,0,-0.8,-91.978512,522.01474)" />
    </g>
  </g>
</svg>
