<?xml version="1.0" encoding="UTF-8" standalone="no"?>
<!-- Created with Inkscape (http://www.inkscape.org/) -->

<svg
   xmlns:ns0="http://www.iki.fi/pav/software/textext/"
   xmlns:dc="http://purl.org/dc/elements/1.1/"
   xmlns:cc="http://creativecommons.org/ns#"
   xmlns:rdf="http://www.w3.org/1999/02/22-rdf-syntax-ns#"
   xmlns:svg="http://www.w3.org/2000/svg"
   xmlns="http://www.w3.org/2000/svg"
   xmlns:sodipodi="http://sodipodi.sourceforge.net/DTD/sodipodi-0.dtd"
   xmlns:inkscape="http://www.inkscape.org/namespaces/inkscape"
   width="210mm"
   height="297mm"
   id="svg2"
   version="1.1"
   inkscape:version="0.48.4 r9939"
   sodipodi:docname="ddphi0.01.eps">
  <sodipodi:namedview
     id="base"
     pagecolor="#ffffff"
     bordercolor="#666666"
     borderopacity="1.0"
     inkscape:pageopacity="0.0"
     inkscape:pageshadow="2"
     inkscape:zoom="1.4"
     inkscape:cx="144.79849"
     inkscape:cy="650.81389"
     inkscape:document-units="px"
     inkscape:current-layer="layer1"
     showgrid="false"
     inkscape:window-width="1847"
     inkscape:window-height="1056"
     inkscape:window-x="73"
     inkscape:window-y="24"
     inkscape:window-maximized="1" />
  <defs
     id="defs4" />
  <metadata
     id="metadata7">
    <rdf:RDF>
      <cc:Work
         rdf:about="">
        <dc:format>image/svg+xml</dc:format>
        <dc:type
           rdf:resource="http://purl.org/dc/dcmitype/StillImage" />
        <dc:title></dc:title>
      </cc:Work>
    </rdf:RDF>
  </metadata>
  <g
     id="layer1"
     inkscape:groupmode="layer"
     inkscape:label="レイヤー 1">
    <g
       id="g2993"
       inkscape:label="ink_ext_XXXXXX"
       transform="matrix(1.25,0,0,-1.25,113.07664,653.55874)">
      <g
         id="g2995"
         transform="scale(0.1,0.1)">
        <path
           inkscape:connector-curvature="0"
           d="m 1050,545 31.5,0 m 2607.5,0 -31.5,0"
           style="fill:none;stroke:#000000;stroke-width:5;stroke-linecap:butt;stroke-linejoin:miter;stroke-miterlimit:3.79999995;stroke-opacity:1;stroke-dasharray:none"
           id="path2997" />
        <g
           id="g2999"
           transform="scale(10,10)">
          <text
             transform="matrix(1,0,0,-1,49.1387,49.3352)"
             id="text3001">
            <tspan
               style="font-size:15.5px;font-variant:normal;font-weight:normal;writing-mode:lr-tb;fill:#000000;fill-opacity:1;fill-rule:nonzero;stroke:none;font-family:Times New Roman;-inkscape-font-specification:Times New"
               x="0 5.1615 12.9115 20.661501 28.411501 36.161499 43.911499"
               y="0"
               sodipodi:role="line"
               id="tspan3003">-250000</tspan>
          </text>
        </g>
        <path
           inkscape:connector-curvature="0"
           d="m 1050,809 31.5,0 m 2607.5,0 -31.5,0"
           style="fill:none;stroke:#000000;stroke-width:5;stroke-linecap:butt;stroke-linejoin:miter;stroke-miterlimit:3.79999995;stroke-opacity:1;stroke-dasharray:none"
           id="path3005" />
        <g
           id="g3007"
           transform="scale(10,10)">
          <text
             transform="matrix(1,0,0,-1,49.1387,75.7352)"
             id="text3009">
            <tspan
               style="font-size:15.5px;font-variant:normal;font-weight:normal;writing-mode:lr-tb;fill:#000000;fill-opacity:1;fill-rule:nonzero;stroke:none;font-family:Times New Roman;-inkscape-font-specification:Times New"
               x="0 5.1615 12.9115 20.661501 28.411501 36.161499 43.911499"
               y="0"
               sodipodi:role="line"
               id="tspan3011">-200000</tspan>
          </text>
        </g>
        <path
           inkscape:connector-curvature="0"
           d="m 1050,1073 31.5,0 m 2607.5,0 -31.5,0"
           style="fill:none;stroke:#000000;stroke-width:5;stroke-linecap:butt;stroke-linejoin:miter;stroke-miterlimit:3.79999995;stroke-opacity:1;stroke-dasharray:none"
           id="path3013" />
        <g
           id="g3015"
           transform="scale(10,10)">
          <text
             transform="matrix(1,0,0,-1,49.1387,102.135)"
             id="text3017">
            <tspan
               style="font-size:15.5px;font-variant:normal;font-weight:normal;writing-mode:lr-tb;fill:#000000;fill-opacity:1;fill-rule:nonzero;stroke:none;font-family:Times New Roman;-inkscape-font-specification:Times New"
               x="0 5.1615 12.9115 20.661501 28.411501 36.161499 43.911499"
               y="0"
               sodipodi:role="line"
               id="tspan3019">-150000</tspan>
          </text>
        </g>
        <path
           inkscape:connector-curvature="0"
           d="m 1050,1337 31.5,0 m 2607.5,0 -31.5,0"
           style="fill:none;stroke:#000000;stroke-width:5;stroke-linecap:butt;stroke-linejoin:miter;stroke-miterlimit:3.79999995;stroke-opacity:1;stroke-dasharray:none"
           id="path3021" />
        <g
           id="g3023"
           transform="scale(10,10)">
          <text
             transform="matrix(1,0,0,-1,49.1387,128.535)"
             id="text3025">
            <tspan
               style="font-size:15.5px;font-variant:normal;font-weight:normal;writing-mode:lr-tb;fill:#000000;fill-opacity:1;fill-rule:nonzero;stroke:none;font-family:Times New Roman;-inkscape-font-specification:Times New"
               x="0 5.1615 12.9115 20.661501 28.411501 36.161499 43.911499"
               y="0"
               sodipodi:role="line"
               id="tspan3027">-100000</tspan>
          </text>
        </g>
        <path
           inkscape:connector-curvature="0"
           d="m 1050,1600.5 31.5,0 m 2607.5,0 -31.5,0"
           style="fill:none;stroke:#000000;stroke-width:5;stroke-linecap:butt;stroke-linejoin:miter;stroke-miterlimit:3.79999995;stroke-opacity:1;stroke-dasharray:none"
           id="path3029" />
        <g
           id="g3031"
           transform="scale(10,10)">
          <text
             transform="matrix(1,0,0,-1,56.8887,154.885)"
             id="text3033">
            <tspan
               style="font-size:15.5px;font-variant:normal;font-weight:normal;writing-mode:lr-tb;fill:#000000;fill-opacity:1;fill-rule:nonzero;stroke:none;font-family:Times New Roman;-inkscape-font-specification:Times New"
               x="0 5.1615 12.9115 20.661501 28.411501 36.161499"
               y="0"
               sodipodi:role="line"
               id="tspan3035">-50000</tspan>
          </text>
        </g>
        <path
           inkscape:connector-curvature="0"
           d="m 1050,1864.5 31.5,0 m 2607.5,0 -31.5,0"
           style="fill:none;stroke:#000000;stroke-width:5;stroke-linecap:butt;stroke-linejoin:miter;stroke-miterlimit:3.79999995;stroke-opacity:1;stroke-dasharray:none"
           id="path3037" />
        <g
           id="g3039"
           transform="scale(10,10)">
          <text
             transform="matrix(1,0,0,-1,93.05,181.285)"
             id="text3041">
            <tspan
               style="font-size:15.5px;font-variant:normal;font-weight:normal;writing-mode:lr-tb;fill:#000000;fill-opacity:1;fill-rule:nonzero;stroke:none;font-family:Times New Roman;-inkscape-font-specification:Times New"
               x="0"
               y="0"
               id="tspan3043">0</tspan>
          </text>
        </g>
        <path
           inkscape:connector-curvature="0"
           d="m 1050,2128.5 31.5,0 m 2607.5,0 -31.5,0"
           style="fill:none;stroke:#000000;stroke-width:5;stroke-linecap:butt;stroke-linejoin:miter;stroke-miterlimit:3.79999995;stroke-opacity:1;stroke-dasharray:none"
           id="path3045" />
        <g
           id="g3047"
           transform="scale(10,10)">
          <text
             transform="matrix(1,0,0,-1,62.05,207.685)"
             id="text3049">
            <tspan
               style="font-size:15.5px;font-variant:normal;font-weight:normal;writing-mode:lr-tb;fill:#000000;fill-opacity:1;fill-rule:nonzero;stroke:none;font-family:Times New Roman;-inkscape-font-specification:Times New"
               x="0 7.75 15.5 23.25 31"
               y="0"
               sodipodi:role="line"
               id="tspan3051">50000</tspan>
          </text>
        </g>
        <path
           inkscape:connector-curvature="0"
           d="m 1669.5,545 0,31.5 m 0,1552 0,-31.5"
           style="fill:none;stroke:#000000;stroke-width:5;stroke-linecap:butt;stroke-linejoin:miter;stroke-miterlimit:3.79999995;stroke-opacity:1;stroke-dasharray:none"
           id="path3053" />
        <g
           id="g3055"
           transform="scale(10,10)">
          <text
             transform="matrix(1,0,0,-1,153.388,42.3352)"
             id="text3057">
            <tspan
               style="font-size:15.5px;font-variant:normal;font-weight:normal;writing-mode:lr-tb;fill:#000000;fill-opacity:1;fill-rule:nonzero;stroke:none;font-family:Times New Roman;-inkscape-font-specification:Times New"
               x="0 7.75 11.625 19.375"
               y="0"
               sodipodi:role="line"
               id="tspan3059">0.05</tspan>
          </text>
        </g>
        <path
           inkscape:connector-curvature="0"
           d="m 2300.5,545 0,31.5 m 0,1552 0,-31.5"
           style="fill:none;stroke:#000000;stroke-width:5;stroke-linecap:butt;stroke-linejoin:miter;stroke-miterlimit:3.79999995;stroke-opacity:1;stroke-dasharray:none"
           id="path3061" />
        <g
           id="g3063"
           transform="scale(10,10)">
          <text
             transform="matrix(1,0,0,-1,216.488,42.3352)"
             id="text3065">
            <tspan
               style="font-size:15.5px;font-variant:normal;font-weight:normal;writing-mode:lr-tb;fill:#000000;fill-opacity:1;fill-rule:nonzero;stroke:none;font-family:Times New Roman;-inkscape-font-specification:Times New"
               x="0 7.75 11.625 19.375"
               y="0"
               sodipodi:role="line"
               id="tspan3067">0.10</tspan>
          </text>
        </g>
        <path
           inkscape:connector-curvature="0"
           d="m 2932,545 0,31.5 m 0,1552 0,-31.5"
           style="fill:none;stroke:#000000;stroke-width:5;stroke-linecap:butt;stroke-linejoin:miter;stroke-miterlimit:3.79999995;stroke-opacity:1;stroke-dasharray:none"
           id="path3069" />
        <g
           id="g3071"
           transform="scale(10,10)">
          <text
             transform="matrix(1,0,0,-1,279.637,42.3352)"
             id="text3073">
            <tspan
               style="font-size:15.5px;font-variant:normal;font-weight:normal;writing-mode:lr-tb;fill:#000000;fill-opacity:1;fill-rule:nonzero;stroke:none;font-family:Times New Roman;-inkscape-font-specification:Times New"
               x="0 7.75 11.625 19.375"
               y="0"
               sodipodi:role="line"
               id="tspan3075">0.15</tspan>
          </text>
        </g>
        <path
           inkscape:connector-curvature="0"
           d="m 3563,545 0,31.5 m 0,1552 0,-31.5"
           style="fill:none;stroke:#000000;stroke-width:5;stroke-linecap:butt;stroke-linejoin:miter;stroke-miterlimit:3.79999995;stroke-opacity:1;stroke-dasharray:none"
           id="path3077" />
        <g
           id="g3079"
           transform="scale(10,10)">
          <text
             transform="matrix(1,0,0,-1,342.738,42.3352)"
             id="text3081">
            <tspan
               style="font-size:15.5px;font-variant:normal;font-weight:normal;writing-mode:lr-tb;fill:#000000;fill-opacity:1;fill-rule:nonzero;stroke:none;font-family:Times New Roman;-inkscape-font-specification:Times New"
               x="0 7.75 11.625 19.375"
               y="0"
               sodipodi:role="line"
               id="tspan3083">0.20</tspan>
          </text>
        </g>
        <path
           inkscape:connector-curvature="0"
           d="m 1050,545 2639,0 0,1583.5 -2639,0 0,-1583.5 z"
           style="fill:none;stroke:#000000;stroke-width:5;stroke-linecap:butt;stroke-linejoin:miter;stroke-miterlimit:3.79999995;stroke-opacity:1;stroke-dasharray:none"
           id="path3085" />
        <g
           id="g3087"
           transform="scale(10,10)">
          <text
             transform="matrix(1,0,0,-1,210.477,10.8352)"
             id="text3089">
            <tspan
               style="font-size:15.5px;font-variant:normal;font-weight:normal;writing-mode:lr-tb;fill:#000000;fill-opacity:1;fill-rule:nonzero;stroke:none;font-family:Times New Roman;-inkscape-font-specification:Times"
               x="0 9.4705 13.7795 25.838499 32.720501 36.595501 41.757 47.786499"
               y="0"
               sodipodi:role="line"
               id="tspan3091">Time [s]</tspan>
          </text>
        </g>
        <path
           inkscape:connector-curvature="0"
           d="m 1050,1864.5 773,0 26.5,0.5 27,0 26.5,1 26.5,2 27,4.5 26.5,7.5 26.5,13 27,19.5 26.5,27 26.5,31.5 27,28 26.5,11.5 26.5,-24 26.5,-77 27,-143 26.5,-205 26.5,-244.5 27,-242.5 26.5,-189.5 26.5,-93.5 27,26 26.5,138.5 26.5,218.5 27,249 26.5,232 26.5,180 27,114.5 26.5,52.5 26.5,6 26.5,-20.5 27,-31 26.5,-30 26.5,-24 27,-16.5 26.5,-10.5 26.5,-6 27,-3 26.5,-1.5 26.5,-0.5 27,-0.5 799.5,0"
           style="fill:none;stroke:#000000;stroke-width:2.5;stroke-linecap:butt;stroke-linejoin:miter;stroke-miterlimit:3.79999995;stroke-opacity:1;stroke-dasharray:none"
           id="path3093" />
        <path
           inkscape:connector-curvature="0"
           d="m 1050,545 2639,0 0,1583.5 -2639,0 0,-1583.5 z"
           style="fill:none;stroke:#000000;stroke-width:5;stroke-linecap:butt;stroke-linejoin:miter;stroke-miterlimit:3.79999995;stroke-opacity:1;stroke-dasharray:none"
           id="path3095" />
      </g>
    </g>
    <g
       ns0:preamble=""
       ns0:text="$\\ddot{\\phi}(t)$"
       word-spacing="normal"
       letter-spacing="normal"
       font-size-adjust="none"
       font-stretch="normal"
       font-weight="normal"
       font-variant="normal"
       font-style="normal"
       stroke-miterlimit="10.433"
       xml:space="preserve"
       transform="matrix(0,-2.2702789,-2.3833905,0,1841.1984,1013.5562)"
       id="content"
       style="font-style:normal;font-variant:normal;font-weight:normal;font-stretch:normal;letter-spacing:normal;word-spacing:normal;text-anchor:start;fill:none;stroke:#000000;stroke-linecap:butt;stroke-linejoin:miter;stroke-miterlimit:10.43299961;stroke-opacity:1;stroke-dasharray:none;stroke-dashoffset:0"><path
         id="path3207"
         d="m 226.76,715.9 0,0.03 0,0.02 -0.01,0.02 0,0.02 0,0.03 -0.01,0.02 -0.01,0.02 -0.01,0.02 -0.01,0.02 -0.01,0.02 -0.01,0.02 -0.01,0.02 -0.01,0.02 -0.02,0.02 -0.01,0.02 -0.02,0.02 -0.01,0.02 -0.02,0.01 -0.02,0.02 -0.02,0.02 -0.02,0.01 -0.02,0.01 -0.02,0.01 -0.02,0.02 -0.03,0.01 -0.02,0 -0.03,0.01 -0.02,0.01 -0.03,0 -0.02,0.01 -0.03,0 -0.03,0 c -0.28,0 -0.5,-0.22 -0.5,-0.5 0,-0.28 0.22,-0.49 0.5,-0.49 0.3,0 0.5,0.25 0.5,0.49 z"
         inkscape:connector-curvature="0"
         style="fill:#000000;stroke-width:0" /><path
         id="path3209"
         d="m 228.68,715.9 0,0.03 0,0.02 -0.01,0.03 0,0.02 -0.01,0.03 0,0.02 -0.01,0.03 -0.01,0.02 -0.01,0.02 -0.01,0.02 -0.01,0.02 -0.01,0.02 -0.02,0.02 -0.01,0.02 -0.02,0.02 -0.01,0.02 -0.02,0.01 -0.02,0.02 -0.02,0.01 -0.02,0.02 -0.02,0.01 -0.02,0.01 -0.02,0.01 -0.02,0.01 -0.03,0.01 -0.02,0.01 -0.02,0 -0.03,0.01 -0.02,0 -0.03,0.01 -0.02,0 -0.03,0 c -0.3,0 -0.5,-0.26 -0.5,-0.5 0,-0.24 0.2,-0.49 0.5,-0.49 0.28,0 0.5,0.21 0.5,0.49 z"
         inkscape:connector-curvature="0"
         style="fill:#000000;stroke-width:0" /><path
         id="path3211"
         d="m 227.78,713.78 0,0 0,0 0,0 0,0.01 0,0 0,0 0,0 0,0 0,0.01 0,0 0,0 0,0.01 0.01,0 0,0.01 0,0.01 0,0 0,0.01 0,0 0,0.01 0.01,0.02 0,0 0,0.01 0,0 0,0.01 0,0 0.01,0.01 0,0 0,0.01 0,0 0,0 0,0 0,0 0,0 0,0.01 0,0 0,0 0,0 0,0 0,0 c 0,0.01 0,0.1 -0.12,0.1 -0.1,0 -0.11,-0.03 -0.15,-0.2 l -0.58,-2.29 c -1.58,-0.05 -3.04,-1.37 -3.04,-2.73 0,-0.94 0.7,-1.72 1.91,-1.79 l 0.05,0.21 c -0.6,0.03 -1.31,0.38 -1.31,1.37 0,1.2 0.85,2.59 2.33,2.72 l -1.02,-4.09 -0.05,-0.21 c -0.08,-0.31 -0.15,-0.63 -0.23,-0.94 -0.12,-0.47 -0.22,-0.84 -0.22,-0.87 0,-0.1 0.07,-0.11 0.12,-0.11 0.05,0 0.07,0.01 0.1,0.04 0.02,0.02 0.08,0.26 0.11,0.4 l 0.38,1.48 0.05,0.21 1.02,4.09 c 0.76,-0.04 1.33,-0.5 1.33,-1.37 0,-1.18 -0.86,-2.6 -2.35,-2.72 l -0.05,-0.21 c 1.6,0.04 3.04,1.39 3.04,2.72 0,0.78 -0.52,1.7 -1.91,1.8 z"
         inkscape:connector-curvature="0"
         style="fill:#000000;stroke-width:0" /><path
         id="path3213"
         d="m 232.66,704.74 0,0.01 0,0 0,0 0,0.01 0,0 0,0 0,0.01 0,0 -0.01,0 0,0.01 0,0 0,0.01 -0.01,0 0,0.01 0,0 -0.01,0.01 0,0.01 -0.01,0 0,0.01 -0.01,0 0,0.01 0,0 -0.01,0 0,0.01 -0.01,0 0,0.01 0,0 -0.01,0.01 0,0 -0.01,0.01 0,0 -0.01,0.01 -0.01,0.01 0,0 -0.01,0.01 0,0.01 -0.01,0 -0.01,0.01 -0.01,0.01 0,0 -0.01,0.01 -0.01,0.01 c -1.24,1.25 -1.56,3.13 -1.56,4.65 0,1.73 0.38,3.46 1.6,4.7 0.13,0.12 0.13,0.14 0.13,0.17 0,0.07 -0.04,0.1 -0.1,0.1 -0.1,0 -0.99,-0.68 -1.58,-1.94 -0.51,-1.09 -0.63,-2.2 -0.63,-3.03 0,-0.78 0.11,-1.98 0.66,-3.1 0.6,-1.22 1.45,-1.87 1.55,-1.87 0.06,0 0.1,0.03 0.1,0.1 z"
         inkscape:connector-curvature="0"
         style="fill:#000000;stroke-width:0" /><path
         id="path3215"
         d="m 235.29,711.1 h 0.94 c 0.2,0 0.3,0 0.3,0.2 0,0.11 -0.1,0.11 -0.28,0.11 h -0.88 c 0.36,1.41 0.41,1.61 0.41,1.67 0,0.16 -0.12,0.26 -0.29,0.26 -0.03,0 -0.31,-0.01 -0.4,-0.35 l -0.38,-1.58 h -0.94 c -0.2,0 -0.3,0 -0.3,-0.19 0,-0.12 0.08,-0.12 0.28,-0.12 h 0.88 c -0.72,-2.82 -0.76,-2.99 -0.76,-3.17 0,-0.54 0.38,-0.91 0.92,-0.91 1.01,0 1.58,1.45 1.58,1.53 0,0.1 -0.08,0.1 -0.12,0.1 -0.09,0 -0.1,-0.04 -0.15,-0.14 -0.43,-1.04 -0.96,-1.28 -1.3,-1.28 -0.2,0 -0.3,0.13 -0.3,0.46 0,0.24 0.02,0.31 0.06,0.48 z"
         inkscape:connector-curvature="0"
         style="fill:#000000;stroke-width:0" /><path
         id="path3217"
         d="m 239.71,709.61 0,0.07 0,0.08 0,0.08 0,0.08 -0.01,0.17 -0.01,0.17 -0.02,0.18 -0.02,0.19 -0.03,0.2 -0.03,0.2 -0.04,0.2 -0.04,0.21 -0.06,0.21 -0.06,0.21 -0.07,0.21 -0.08,0.21 -0.04,0.11 -0.04,0.11 -0.05,0.1 -0.05,0.11 c -0.6,1.22 -1.45,1.87 -1.55,1.87 -0.06,0 -0.1,-0.04 -0.1,-0.1 0,-0.03 0,-0.05 0.19,-0.23 0.97,-0.99 1.54,-2.57 1.54,-4.64 0,-1.7 -0.37,-3.45 -1.6,-4.7 -0.13,-0.12 -0.13,-0.14 -0.13,-0.17 0,-0.06 0.04,-0.1 0.1,-0.1 0.1,0 0.99,0.68 1.58,1.94 0.51,1.09 0.62,2.19 0.62,3.03 z"
         inkscape:connector-curvature="0"
         style="fill:#000000;stroke-width:0" /></g>  </g>
</svg>
