<?xml version="1.0" encoding="UTF-8" standalone="no"?>
<!-- Created with Inkscape (http://www.inkscape.org/) -->

<svg
   xmlns:ns0="http://www.iki.fi/pav/software/textext/"
   xmlns:dc="http://purl.org/dc/elements/1.1/"
   xmlns:cc="http://creativecommons.org/ns#"
   xmlns:rdf="http://www.w3.org/1999/02/22-rdf-syntax-ns#"
   xmlns:svg="http://www.w3.org/2000/svg"
   xmlns="http://www.w3.org/2000/svg"
   xmlns:sodipodi="http://sodipodi.sourceforge.net/DTD/sodipodi-0.dtd"
   xmlns:inkscape="http://www.inkscape.org/namespaces/inkscape"
   width="210mm"
   height="297mm"
   id="svg2"
   version="1.1"
   inkscape:version="0.48.4 r9939"
   sodipodi:docname="gausu.wmf">
  <sodipodi:namedview
     id="base"
     pagecolor="#ffffff"
     bordercolor="#666666"
     borderopacity="1.0"
     inkscape:pageopacity="0.0"
     inkscape:pageshadow="2"
     inkscape:zoom="0.70710678"
     inkscape:cx="630.84689"
     inkscape:cy="507.90864"
     inkscape:document-units="px"
     inkscape:current-layer="layer1"
     showgrid="false"
     showguides="true"
     inkscape:guide-bbox="true"
     inkscape:window-width="1847"
     inkscape:window-height="1056"
     inkscape:window-x="73"
     inkscape:window-y="24"
     inkscape:window-maximized="1" />
  <defs
     id="defs4">
    <inkscape:path-effect
       effect="spiro"
       id="path-effect3289"
       is_visible="true" />
  </defs>
  <metadata
     id="metadata7">
    <rdf:RDF>
      <cc:Work
         rdf:about="">
        <dc:format>image/svg+xml</dc:format>
        <dc:type
           rdf:resource="http://purl.org/dc/dcmitype/StillImage" />
        <dc:title></dc:title>
      </cc:Work>
    </rdf:RDF>
  </metadata>
  <g
     inkscape:label="レイヤー 1"
     inkscape:groupmode="layer"
     id="layer1">
    <g
       transform="matrix(1.25,0,0,-1.25,15.0625,638.33093)"
       inkscape:label="ink_ext_XXXXXX"
       id="g2993">
      <g
         transform="scale(0.1,0.1)"
         id="g2995">
        <path
           id="path2997"
           style="fill:none;stroke:#000000;stroke-width:5;stroke-linecap:butt;stroke-linejoin:miter;stroke-miterlimit:3.79999995;stroke-opacity:1;stroke-dasharray:none"
           d="m 630,84 4499,0 0,1847.5 -4499,0 L 630,84 z"
           inkscape:connector-curvature="0" />
        <path
           id="path2999"
           style="fill:none;stroke:#000000;stroke-width:2.5;stroke-linecap:butt;stroke-linejoin:miter;stroke-miterlimit:3.79999995;stroke-opacity:1;stroke-dasharray:none"
           d="m 630,84 52,0"
           inkscape:connector-curvature="0" />
        <path
           id="path3001"
           style="fill:none;stroke:#000000;stroke-width:2.5;stroke-linecap:butt;stroke-linejoin:miter;stroke-miterlimit:3.79999995;stroke-opacity:1;stroke-dasharray:none"
           d="m 682,84 52,0"
           inkscape:connector-curvature="0" />
        <path
           id="path3003"
           style="fill:none;stroke:#000000;stroke-width:2.5;stroke-linecap:butt;stroke-linejoin:miter;stroke-miterlimit:3.79999995;stroke-opacity:1;stroke-dasharray:none"
           d="m 734,84 52,0"
           inkscape:connector-curvature="0" />
        <path
           id="path3005"
           style="fill:none;stroke:#000000;stroke-width:2.5;stroke-linecap:butt;stroke-linejoin:miter;stroke-miterlimit:3.79999995;stroke-opacity:1;stroke-dasharray:none"
           d="m 786,84 52,0"
           inkscape:connector-curvature="0" />
        <path
           id="path3007"
           style="fill:none;stroke:#000000;stroke-width:2.5;stroke-linecap:butt;stroke-linejoin:miter;stroke-miterlimit:3.79999995;stroke-opacity:1;stroke-dasharray:none"
           d="m 838,84 52,0"
           inkscape:connector-curvature="0" />
        <path
           id="path3009"
           style="fill:none;stroke:#000000;stroke-width:2.5;stroke-linecap:butt;stroke-linejoin:miter;stroke-miterlimit:3.79999995;stroke-opacity:1;stroke-dasharray:none"
           d="m 890,84 52,0"
           inkscape:connector-curvature="0" />
        <path
           id="path3011"
           style="fill:none;stroke:#000000;stroke-width:2.5;stroke-linecap:butt;stroke-linejoin:miter;stroke-miterlimit:3.79999995;stroke-opacity:1;stroke-dasharray:none"
           d="m 942,84 52,0"
           inkscape:connector-curvature="0" />
        <path
           id="path3013"
           style="fill:none;stroke:#000000;stroke-width:2.5;stroke-linecap:butt;stroke-linejoin:miter;stroke-miterlimit:3.79999995;stroke-opacity:1;stroke-dasharray:none"
           d="m 994,84 52,0"
           inkscape:connector-curvature="0" />
        <path
           id="path3015"
           style="fill:none;stroke:#000000;stroke-width:2.5;stroke-linecap:butt;stroke-linejoin:miter;stroke-miterlimit:3.79999995;stroke-opacity:1;stroke-dasharray:none"
           d="m 1046,84 52,0"
           inkscape:connector-curvature="0" />
        <path
           id="path3017"
           style="fill:none;stroke:#000000;stroke-width:2.5;stroke-linecap:butt;stroke-linejoin:miter;stroke-miterlimit:3.79999995;stroke-opacity:1;stroke-dasharray:none"
           d="m 1098,84 52,0"
           inkscape:connector-curvature="0" />
        <path
           id="path3019"
           style="fill:none;stroke:#000000;stroke-width:2.5;stroke-linecap:butt;stroke-linejoin:miter;stroke-miterlimit:3.79999995;stroke-opacity:1;stroke-dasharray:none"
           d="m 1150,84 52,0"
           inkscape:connector-curvature="0" />
        <path
           id="path3021"
           style="fill:none;stroke:#000000;stroke-width:2.5;stroke-linecap:butt;stroke-linejoin:miter;stroke-miterlimit:3.79999995;stroke-opacity:1;stroke-dasharray:none"
           d="m 1202,84 52,0"
           inkscape:connector-curvature="0" />
        <path
           id="path3023"
           style="fill:none;stroke:#000000;stroke-width:2.5;stroke-linecap:butt;stroke-linejoin:miter;stroke-miterlimit:3.79999995;stroke-opacity:1;stroke-dasharray:none"
           d="m 1254,84 52,0"
           inkscape:connector-curvature="0" />
        <path
           id="path3025"
           style="fill:none;stroke:#000000;stroke-width:2.5;stroke-linecap:butt;stroke-linejoin:miter;stroke-miterlimit:3.79999995;stroke-opacity:1;stroke-dasharray:none"
           d="m 1306,84 52,0"
           inkscape:connector-curvature="0" />
        <path
           id="path3027"
           style="fill:none;stroke:#000000;stroke-width:2.5;stroke-linecap:butt;stroke-linejoin:miter;stroke-miterlimit:3.79999995;stroke-opacity:1;stroke-dasharray:none"
           d="m 1358,84 52,0"
           inkscape:connector-curvature="0" />
        <path
           id="path3029"
           style="fill:none;stroke:#000000;stroke-width:2.5;stroke-linecap:butt;stroke-linejoin:miter;stroke-miterlimit:3.79999995;stroke-opacity:1;stroke-dasharray:none"
           d="m 1410,84 52,0"
           inkscape:connector-curvature="0" />
        <path
           id="path3031"
           style="fill:none;stroke:#000000;stroke-width:2.5;stroke-linecap:butt;stroke-linejoin:miter;stroke-miterlimit:3.79999995;stroke-opacity:1;stroke-dasharray:none"
           d="m 1462,84 52,0"
           inkscape:connector-curvature="0" />
        <path
           id="path3033"
           style="fill:none;stroke:#000000;stroke-width:2.5;stroke-linecap:butt;stroke-linejoin:miter;stroke-miterlimit:3.79999995;stroke-opacity:1;stroke-dasharray:none"
           d="m 1514,84 52,0"
           inkscape:connector-curvature="0" />
        <path
           id="path3035"
           style="fill:none;stroke:#000000;stroke-width:2.5;stroke-linecap:butt;stroke-linejoin:miter;stroke-miterlimit:3.79999995;stroke-opacity:1;stroke-dasharray:none"
           d="m 1566,84 52,0"
           inkscape:connector-curvature="0" />
        <path
           id="path3037"
           style="fill:none;stroke:#000000;stroke-width:2.5;stroke-linecap:butt;stroke-linejoin:miter;stroke-miterlimit:3.79999995;stroke-opacity:1;stroke-dasharray:none"
           d="m 1618,84 52,0"
           inkscape:connector-curvature="0" />
        <path
           id="path3039"
           style="fill:none;stroke:#000000;stroke-width:2.5;stroke-linecap:butt;stroke-linejoin:miter;stroke-miterlimit:3.79999995;stroke-opacity:1;stroke-dasharray:none"
           d="m 1670,84 52,0"
           inkscape:connector-curvature="0" />
        <path
           id="path3041"
           style="fill:none;stroke:#000000;stroke-width:2.5;stroke-linecap:butt;stroke-linejoin:miter;stroke-miterlimit:3.79999995;stroke-opacity:1;stroke-dasharray:none"
           d="m 1722,84 33,0 0.5,0.5 18.5,0"
           inkscape:connector-curvature="0" />
        <path
           id="path3043"
           style="fill:none;stroke:#000000;stroke-width:2.5;stroke-linecap:butt;stroke-linejoin:miter;stroke-miterlimit:3.79999995;stroke-opacity:1;stroke-dasharray:none"
           d="m 1774,84.5 52,0"
           inkscape:connector-curvature="0" />
        <path
           id="path3045"
           style="fill:none;stroke:#000000;stroke-width:2.5;stroke-linecap:butt;stroke-linejoin:miter;stroke-miterlimit:3.79999995;stroke-opacity:1;stroke-dasharray:none"
           d="m 1826,84.5 1.5,0 0.5,0.5 34.5,0 0.5,0.5 15,0"
           inkscape:connector-curvature="0" />
        <path
           id="path3047"
           style="fill:none;stroke:#000000;stroke-width:2.5;stroke-linecap:butt;stroke-linejoin:miter;stroke-miterlimit:3.79999995;stroke-opacity:1;stroke-dasharray:none"
           d="m 1878,85.5 8.5,0 0.5,0.5 18,0 0.5,0.5 14.5,0 0.5,0.5 9.5,0"
           inkscape:connector-curvature="0" />
        <path
           id="path3049"
           style="fill:none;stroke:#000000;stroke-width:2.5;stroke-linecap:butt;stroke-linejoin:miter;stroke-miterlimit:3.79999995;stroke-opacity:1;stroke-dasharray:none"
           d="m 1930,87 2.5,0 0.5,0.5 10.5,0 0.5,0.5 9,0 0.5,0.5 8,0 0.5,0.5 7.5,0 0.5,0.5 6.5,0 0.5,0.5 5,0"
           inkscape:connector-curvature="0" />
        <path
           id="path3051"
           style="fill:none;stroke:#000000;stroke-width:2.5;stroke-linecap:butt;stroke-linejoin:miter;stroke-miterlimit:3.79999995;stroke-opacity:1;stroke-dasharray:none"
           d="m 1982,90 1.5,0 0.5,0.5 5.5,0 0,0.5 5.5,0 0.5,0.5 5,0 0.5,0.5 5,0 0.5,0.5 4.5,0 0.5,0.5 4,0 0.5,0.5 3.5,0 0.5,0.5 4,0 0.5,0.5 3.5,0 0.5,0.5 3,0 0.5,0.5 1.5,0"
           inkscape:connector-curvature="0" />
        <path
           id="path3053"
           style="fill:none;stroke:#000000;stroke-width:2.5;stroke-linecap:butt;stroke-linejoin:miter;stroke-miterlimit:3.79999995;stroke-opacity:1;stroke-dasharray:none"
           d="m 2033.5,95.5 1.5,0 0.5,0.5 3.5,0 0,0.5 3.5,0 0.5,0.5 2.5,0 0.5,0.5 2.5,0 0.5,0.5 3,0 0.5,0.5 2.5,0 0.5,0.5 2,0 0.5,0.5 3,0 0.5,0.5 2,0 0.5,0.5 2,0 0.5,0.5 2,0 0.5,0.5 2,0 0.5,0.5 2,0 0.5,0.5 2,0 0.5,0.5 2,0 0.5,0.5 1.5,0 0.5,0.5 2,0 0.5,0.5 1.5,0"
           inkscape:connector-curvature="0" />
        <path
           id="path3055"
           style="fill:none;stroke:#000000;stroke-width:2.5;stroke-linecap:butt;stroke-linejoin:miter;stroke-miterlimit:3.79999995;stroke-opacity:1;stroke-dasharray:none"
           d="m 2085,104.5 0.5,0.5 2,0 0.5,0.5 1.5,0 0.5,0.5 1.5,0 0.5,0.5 1.5,0 0.5,0.5 1.5,0 0.5,0.5 1.5,0 0,0.5 2,0 0.5,0.5 1.5,0 0.5,0.5 1,0 0.5,0.5 1.5,0 0.5,0.5 1,0 0.5,0.5 1.5,0 0.5,0.5 1.5,0 0.5,0.5 0.5,0 0.5,0.5 1.5,0 0.5,0.5 1.5,0 0,0.5 1,0 0.5,0.5 1.5,0 0.5,0.5 1,0 0,0.5 1.5,0 0.5,0.5 1,0 0.5,0.5 1,0 0.5,0.5 1,0 0.5,0.5 1,0 0.5,0.5 1,0 0,0.5 1.5,0 0.5,0.5 1,0 0.5,0.5 1,0 0,0.5 1,0"
           inkscape:connector-curvature="0" />
        <path
           id="path3057"
           style="fill:none;stroke:#000000;stroke-width:2.5;stroke-linecap:butt;stroke-linejoin:miter;stroke-miterlimit:3.79999995;stroke-opacity:1;stroke-dasharray:none"
           d="m 2134.5,119 0.5,0.5 1,0 0.5,0.5 1,0 0.5,0.5 0.5,0 0.5,0.5 1,0 0.5,0.5 1,0 0.5,0.5 0.5,0 0,0.5 1,0 0.5,0.5 1,0 0.5,0.5 1,0 0.5,0.5 0.5,0.5 1,0 0.5,0.5 1,0 0.5,0.5 0.5,0 0.5,0.5 0.5,0 0.5,0.5 1,0 0.5,0.5 0.5,0 0.5,0.5 1,0 0,0.5 0.5,0 0.5,0.5 1,0 0.5,0.5 0.5,0 0.5,0.5 1,0 0,0.5 0.5,0 0.5,0.5 0.5,0 0.5,0.5 1,0 0.5,0.5 0.5,0 0.5,0.5 0.5,0.5 1,0 0.5,0.5 0.5,0 0.5,0.5 0.5,0 0.5,0.5 0.5,0 0.5,0.5 0.5,0 0.5,0.5 0.5,0 0.5,0.5 0.5,0 0.5,0.5 0.5,0 0.5,0.5 0.5,0.5 1,0 0.5,0.5 0.5,0 0.5,0.5 0.5,0 0.5,0.5 0.5,0 0,0.5 0.5,0 0.5,0.5 0.5,0 0.5,0.5 0.5,0 0.5,0.5 0.5,0 0.5,0.5 0.5,0 0,0.5 0.5,0 0.5,0.5"
           inkscape:connector-curvature="0" />
        <path
           id="path3059"
           style="fill:none;stroke:#000000;stroke-width:2.5;stroke-linecap:butt;stroke-linejoin:miter;stroke-miterlimit:3.79999995;stroke-opacity:1;stroke-dasharray:none"
           d="m 2184,142 0.5,0 0.5,0.5 0.5,0 0.5,0.5 0.5,0 0.5,0.5 0.5,0 0,0.5 0.5,0 0.5,0.5 0.5,0 0.5,0.5 0.5,0 0.5,0.5 0.5,0 0.5,0.5 0.5,0.5 0.5,0.5 0.5,0 0.5,0.5 0.5,0 0.5,0.5 0.5,0 0.5,0.5 0.5,0 0.5,0.5 0,0.5 0.5,0 0.5,0.5 0.5,0 0.5,0.5 0.5,0 0.5,0.5 0.5,0.5 0.5,0 0.5,0.5 0.5,0.5 0.5,0 0.5,0.5 0.5,0.5 0.5,0 0.5,0.5 0.5,0 0.5,0.5 0.5,0.5 0.5,0.5 0.5,0 0.5,0.5 0.5,0.5 0.5,0 0.5,0.5 0.5,0 0.5,0.5 0.5,0.5 0.5,0.5 0.5,0.5 0.5,0 0.5,0.5 0.5,0 0.5,0.5 0.5,0.5 0.5,0 0.5,0.5 0,0.5 0.5,0 0.5,0.5 0.5,0.5 0.5,0 0.5,0.5 0.5,0.5 0.5,0 0.5,0.5 0.5,0.5 0.5,0.5 0.5,0.5 0.5,0 0.5,0.5 0.5,0.5 0.5,0 0.5,0.5 0.5,0.5 0.5,0 0,0.5 0.5,0.5 0.5,0 0.5,0.5 0.5,0.5 0.5,0.5 0.5,0 0.5,0.5 0.5,0.5 0.5,0 0,0.5 0.5,0.5 0.5,0 0.5,0.5 0.5,0.5 0.5,0.5 0.5,0 0.5,0.5 0.5,0.5 0.5,0.5 0.5,0.5 0.5,0.5"
           inkscape:connector-curvature="0" />
        <path
           id="path3061"
           style="fill:none;stroke:#000000;stroke-width:2.5;stroke-linecap:butt;stroke-linejoin:miter;stroke-miterlimit:3.79999995;stroke-opacity:1;stroke-dasharray:none"
           d="m 2233.5,176 0.5,0.5 0.5,0 0.5,0.5 0.5,0.5 0.5,0.5 0.5,0 0.5,0.5 0,0.5 0.5,0.5 0.5,0 0.5,0.5 0.5,0.5 0.5,0.5 0.5,0 0.5,0.5 0.5,0.5 0.5,0.5 0,0.5 0.5,0 0.5,0.5 0.5,0.5 0.5,0.5 0.5,0.5 0.5,0 0.5,0.5 0.5,0.5 0.5,0.5 0,0.5 0.5,0 0.5,0.5 0.5,0.5 0.5,0.5 0.5,0.5 0.5,0.5 0.5,0 0.5,0.5 0.5,0.5 0,0.5 0.5,0.5 0.5,0.5 0.5,0.5 0.5,0 0.5,0.5 0.5,0.5 0.5,0.5 0.5,0.5 0.5,0.5 0,0.5 0.5,0 0.5,0.5 0.5,0.5 0.5,0.5 0.5,0.5 0.5,0.5 0.5,0.5 0.5,0.5 0.5,0.5 0.5,0.5 0.5,0.5 0.5,0.5 0.5,0.5 0.5,0.5 0.5,0.5 0.5,0.5 0.5,0.5 0,0.5 0.5,0.5 0.5,0 0.5,0.5 0.5,0.5 0.5,0.5 0.5,0.5 0.5,0.5 0.5,0.5 0.5,0.5 0,0.5 0.5,0.5 0.5,0.5 0.5,0.5 0.5,0.5 0.5,0.5 0.5,0.5 0.5,0.5 0.5,0.5 0.5,0.5 0,0.5 0.5,0.5 0.5,0.5 0.5,0.5 0.5,0.5 0.5,0.5 0.5,0.5 0.5,0.5 0.5,0.5 0.5,0.5 0,0.5 0.5,0.5 0.5,0.5 0.5,0.5 0.5,0.5 0.5,0.5 0.5,0.5 0.5,0.5 0.5,0.5"
           inkscape:connector-curvature="0" />
        <path
           id="path3063"
           style="fill:none;stroke:#000000;stroke-width:2.5;stroke-linecap:butt;stroke-linejoin:miter;stroke-miterlimit:3.79999995;stroke-opacity:1;stroke-dasharray:none"
           d="m 2281,222.5 0.5,0.5 0,0.5 0.5,0.5 0.5,0.5 0.5,0.5 0.5,0.5 0.5,0.5 0.5,0.5 0.5,0.5 0.5,1 0.5,0.5 0,0.5 0.5,0.5 0.5,0.5 0.5,0.5 0.5,0.5 0.5,0.5 0.5,0.5 0.5,0.5 0.5,0.5 0.5,0.5 0,1 0.5,0.5 0.5,0.5 0.5,0.5 0.5,0.5 0.5,0.5 0.5,0.5 0.5,0.5 0.5,1 0.5,0.5 0,0.5 0.5,0.5 0.5,0.5 0.5,0.5 0.5,0.5 0.5,1 0.5,0.5 0.5,0.5 0.5,0.5 0.5,0.5 0,0.5 0.5,1 0.5,0.5 0.5,0.5 0.5,0.5 0.5,0.5 0.5,1 0.5,0.5 0.5,0.5 0.5,0.5 0,0.5 0.5,1 0.5,0.5 0.5,0.5 0.5,0.5 0.5,0.5 0.5,1 0.5,0.5 0.5,0.5 0.5,0.5 0,1 0.5,0.5 0.5,0.5 0.5,0.5 0.5,1 0.5,0.5 0.5,0.5 0.5,0.5 0.5,1 0.5,0.5 0,0.5 0.5,1 0.5,0.5 0.5,0.5 0.5,0.5 0.5,1 0.5,0.5 0.5,0.5 0.5,1 0.5,0.5 0,0.5 0.5,1 0.5,0.5 0.5,0.5 0.5,1 0.5,0.5 0.5,0.5 0.5,1 0.5,0.5 0.5,0.5 0,1 0.5,0.5 0.5,0.5 0.5,1 0.5,0.5 0.5,0.5 0.5,1 0.5,0.5 0.5,1 0.5,0.5 0,0.5 0.5,1 0.5,0.5"
           inkscape:connector-curvature="0" />
        <path
           id="path3065"
           style="fill:none;stroke:#000000;stroke-width:2.5;stroke-linecap:butt;stroke-linejoin:miter;stroke-miterlimit:3.79999995;stroke-opacity:1;stroke-dasharray:none"
           d="m 2327.5,285.5 0.5,0.5 0.5,1 0.5,0.5 0.5,1 0.5,0.5 0.5,1 0.5,0.5 0,0.5 0.5,1 0.5,0.5 0.5,1 0.5,0.5 0.5,1 0.5,0.5 0.5,0.5 0.5,1 0.5,0.5 0,1 0.5,0.5 0.5,1 0.5,0.5 0.5,1 0.5,0.5 0.5,1 0.5,0.5 0.5,1 0.5,0.5 0,1 0.5,0.5 0.5,1 0.5,0.5 0.5,1 0.5,0.5 0.5,1 0.5,0.5 0.5,1 0.5,0.5 0,1 0.5,0.5 0.5,1 0.5,0.5 0.5,1 0.5,1 0.5,0.5 0.5,1 0.5,0.5 0.5,1 0,0.5 0.5,1 0.5,1 0.5,0.5 0.5,1 0.5,0.5 0.5,1 0.5,1 0.5,0.5 0.5,1 0,0.5 0.5,1 0.5,1 0.5,0.5 0.5,1 0.5,1 0.5,0.5 0.5,1 0.5,0.5 0.5,1 0,1 0.5,0.5 0.5,1 0.5,1 0.5,0.5 0.5,1 0.5,1 0.5,0.5 0.5,1 0.5,1 0,1 0.5,0.5 0.5,1 0.5,1 0.5,0.5 0.5,1 0.5,1 0.5,1 0.5,0.5 0.5,1 0,1 0.5,0.5 0.5,1 0.5,1 0.5,1 0.5,0.5 0.5,1 0.5,1 0.5,1 0.5,1 0,0.5 0.5,1 0.5,1 0.5,1 0.5,0.5 0.5,1 0.5,1"
           inkscape:connector-curvature="0" />
        <path
           id="path3067"
           style="fill:none;stroke:#000000;stroke-width:2.5;stroke-linecap:butt;stroke-linejoin:miter;stroke-miterlimit:3.79999995;stroke-opacity:1;stroke-dasharray:none"
           d="m 2374.5,368.5 0.5,1 0.5,1 0.5,0.5 0,1 0.5,1 0.5,1 0.5,1 0.5,1 0.5,0.5 0.5,1 0.5,1 0.5,1 0.5,1 0,1 0.5,1 0.5,0.5 0.5,1 0.5,1 0.5,1 0.5,1 0.5,1 0.5,1 0.5,1 0,1 0.5,0.5 0.5,1 0.5,1 0.5,1 0.5,1 0.5,1 0.5,1 0.5,1 0.5,1 0,1 0.5,1 0.5,1 0.5,1 0.5,1 0.5,1 0.5,1 0.5,0.5 0.5,1 0.5,1 0,1 0.5,1 0.5,1 0.5,1 0.5,1 0.5,1 0.5,1 0.5,1 0.5,1 0.5,1 0,1 0.5,1.5 0.5,1 0.5,1 0.5,1 0.5,1 0.5,1 0.5,1 0.5,1 0.5,1 0,1 0.5,1 0.5,1 0.5,1 0.5,1 0.5,1 0.5,1 0.5,1.5 0.5,1 0.5,1 0,1 0.5,1 0.5,1 0.5,1 0.5,1 0.5,1.5 0.5,1 0.5,1 0.5,1 0.5,1 0,1 0.5,1 0.5,1.5 0.5,1 0.5,1 0.5,1 0.5,1 0.5,1 0.5,1.5 0.5,1 0,1 0.5,1 0.5,1 0.5,1.5 0.5,1 0.5,1 0.5,1 0.5,1.5 0.5,1 0.5,1 0,1"
           inkscape:connector-curvature="0" />
        <path
           id="path3069"
           style="fill:none;stroke:#000000;stroke-width:2.5;stroke-linecap:butt;stroke-linejoin:miter;stroke-miterlimit:3.79999995;stroke-opacity:1;stroke-dasharray:none"
           d="m 2421,473.5 0.5,1 0.5,1.5 0.5,1 0.5,1 0.5,1 0.5,1.5 0.5,1 0.5,1 0.5,1.5 0,1 0.5,1 0.5,1 0.5,1.5 0.5,1 0.5,1 0.5,1.5 0.5,1 0.5,1 0.5,1.5 0,1 0.5,1 0.5,1.5 0.5,1 0.5,1 0.5,1.5 0.5,1 0.5,1 0.5,1.5 0.5,1 0,1 0.5,1.5 0.5,1 0.5,1 0.5,1.5 0.5,1 0.5,1.5 0.5,1 0.5,1 0.5,1.5 0,1 0.5,1.5 0.5,1 0.5,1 0.5,1.5 0.5,1 0.5,1.5 0.5,1 0.5,1.5 0.5,1 0,1.5 0.5,1 0.5,1 0.5,1.5 0.5,1 0.5,1.5 0.5,1 0.5,1.5 0.5,1 0.5,1.5 0,1 0.5,1.5 0.5,1 0.5,1.5 0.5,1 0.5,1.5 0.5,1 0.5,1.5 0.5,1 0.5,1.5 0,1 0.5,1.5 0.5,1 0.5,1.5 0.5,1.5 0.5,1 0.5,1.5 0.5,1 0.5,1.5 0.5,1 0,1.5 0.5,1 0.5,1.5 0.5,1.5 0.5,1 0.5,1.5 0.5,1 0.5,1.5 0.5,1.5 0.5,1 0,1.5 0.5,1 0.5,1.5 0.5,1.5 0.5,1 0.5,1.5 0.5,1.5 0.5,1 0.5,1.5 0.5,1.5 0,1 0.5,1.5 0.5,1.5 0.5,1 0.5,1.5"
           inkscape:connector-curvature="0" />
        <path
           id="path3071"
           style="fill:none;stroke:#000000;stroke-width:2.5;stroke-linecap:butt;stroke-linejoin:miter;stroke-miterlimit:3.79999995;stroke-opacity:1;stroke-dasharray:none"
           d="m 2468,601.5 0.5,1.5 0.5,1 0.5,1.5 0.5,1.5 0.5,1 0,1.5 0.5,1.5 0.5,1 0.5,1.5 0.5,1.5 0.5,1.5 0.5,1 0.5,1.5 0.5,1.5 0.5,1 0,1.5 0.5,1.5 0.5,1.5 0.5,1 0.5,1.5 0.5,1.5 0.5,1.5 0.5,1 0.5,1.5 0.5,1.5 0,1.5 0.5,1 0.5,1.5 0.5,1.5 0.5,1.5 0.5,1.5 0.5,1 0.5,1.5 0.5,1.5 0.5,1.5 0,1.5 0.5,1 0.5,1.5 0.5,1.5 0.5,1.5 0.5,1.5 0.5,1.5 0.5,1 0.5,1.5 0.5,1.5 0,1.5 0.5,1.5 0.5,1.5 0.5,1 0.5,1.5 0.5,1.5 0.5,1.5 0.5,1.5 0.5,1.5 0.5,1.5 0,1.5 0.5,1 0.5,1.5 0.5,1.5 0.5,1.5 0.5,1.5 0.5,1.5 0.5,1.5 0.5,1.5 0.5,1.5 0,1.5 0.5,1.5 0.5,1 0.5,1.5 0.5,1.5 0.5,1.5 0.5,1.5 0.5,1.5 0.5,1.5 0.5,1.5 0,1.5 0.5,1.5 0.5,1.5 0.5,1.5 0.5,1.5 0.5,1.5 0.5,1.5 0.5,1.5 0.5,1.5 0.5,1.5 0,1.5 0.5,1.5 0.5,1.5 0.5,1.5 0.5,1.5 0.5,1.5 0.5,1.5 0.5,1.5 0.5,1.5 0.5,1.5 0,1.5 0.5,1.5 0.5,1.5 0.5,1.5 0.5,1.5 0.5,1.5 0.5,1.5 0.5,1.5 0.5,1.5"
           inkscape:connector-curvature="0" />
        <path
           id="path3073"
           style="fill:none;stroke:#000000;stroke-width:2.5;stroke-linecap:butt;stroke-linejoin:miter;stroke-miterlimit:3.79999995;stroke-opacity:1;stroke-dasharray:none"
           d="m 2515,750.5 0.5,1.5 0,1.5 0.5,1.5 0.5,1.5 0.5,1.5 0.5,1.5 0.5,2 0.5,1.5 0.5,1.5 0.5,1.5 0.5,1.5 0,1.5 0.5,1.5 0.5,1.5 0.5,1.5 0.5,1.5 0.5,1.5 0.5,2 0.5,1.5 0.5,1.5 0.5,1.5 0,1.5 0.5,1.5 0.5,1.5 0.5,1.5 0.5,1.5 0.5,2 0.5,1.5 0.5,1.5 0.5,1.5 0.5,1.5 0,1.5 0.5,1.5 0.5,2 0.5,1.5 0.5,1.5 0.5,1.5 0.5,1.5 0.5,1.5 0.5,2 0.5,1.5 0,1.5 0.5,1.5 0.5,1.5 0.5,1.5 0.5,2 0.5,1.5 0.5,1.5 0.5,1.5 0.5,1.5 0.5,2 0,1.5 0.5,1.5 0.5,1.5 0.5,1.5 0.5,2 0.5,1.5 0.5,1.5 0.5,1.5 0.5,2 0.5,1.5 0,1.5 0.5,1.5 0.5,1.5 0.5,2 0.5,1.5 0.5,1.5 0.5,1.5 0.5,2 0.5,1.5 0.5,1.5 0,1.5 0.5,2 0.5,1.5 0.5,1.5 0.5,1.5 0.5,2 0.5,1.5 0.5,1.5 0.5,1.5 0.5,2 0,1.5 0.5,1.5 0.5,2 0.5,1.5 0.5,1.5 0.5,1.5 0.5,2 0.5,1.5 0.5,1.5 0.5,2 0,1.5 0.5,1.5 0.5,1.5 0.5,2 0.5,1.5 0.5,1.5 0.5,2 0.5,1.5 0.5,1.5 0.5,2 0,1.5 0.5,1.5 0.5,2"
           inkscape:connector-curvature="0" />
        <path
           id="path3075"
           style="fill:none;stroke:#000000;stroke-width:2.5;stroke-linecap:butt;stroke-linejoin:miter;stroke-miterlimit:3.79999995;stroke-opacity:1;stroke-dasharray:none"
           d="m 2561.5,917 0.5,1.5 0.5,1.5 0.5,2 0.5,1.5 0.5,1.5 0.5,2 0.5,1.5 0,1.5 0.5,2 0.5,1.5 0.5,1.5 0.5,2 0.5,1.5 0.5,1.5 0.5,2 0.5,1.5 0.5,1.5 0,2 0.5,1.5 0.5,1.5 0.5,2 0.5,1.5 0.5,1.5 0.5,2 0.5,1.5 0.5,2 0.5,1.5 0,1.5 0.5,2 0.5,1.5 0.5,1.5 0.5,2 0.5,1.5 0.5,2 0.5,1.5 0.5,1.5 0.5,2 0,1.5 0.5,1.5 0.5,2 0.5,1.5 0.5,2 0.5,1.5 0.5,1.5 0.5,2 0.5,1.5 0.5,2 0,1.5 0.5,1.5 0.5,2 0.5,1.5 0.5,2 0.5,1.5 0.5,1.5 0.5,2 0.5,1.5 0.5,2 0,1.5 0.5,1.5 0.5,2 0.5,1.5 0.5,2 0.5,1.5 0.5,1.5 0.5,2 0.5,1.5 0.5,2 0,1.5 0.5,2 0.5,1.5 0.5,1.5 0.5,2 0.5,1.5 0.5,2 0.5,1.5 0.5,1.5 0.5,2 0,1.5 0.5,2 0.5,1.5 0.5,2 0.5,1.5 0.5,1.5 0.5,2 0.5,1.5 0.5,2 0.5,1.5 0,2 0.5,1.5 0.5,1.5 0.5,2 0.5,1.5 0.5,2 0.5,1.5 0.5,2 0.5,1.5 0.5,1.5 0,2 0.5,1.5 0.5,2 0.5,1.5 0.5,2 0.5,1.5 0.5,1.5"
           inkscape:connector-curvature="0" />
        <path
           id="path3077"
           style="fill:none;stroke:#000000;stroke-width:2.5;stroke-linecap:butt;stroke-linejoin:miter;stroke-miterlimit:3.79999995;stroke-opacity:1;stroke-dasharray:none"
           d="m 2608.5,1093 0.5,2 0.5,1.5 0.5,2 0,1.5 0.5,2 0.5,1.5 0.5,2 0.5,1.5 0.5,1.5 0.5,2 0.5,1.5 0.5,2 0.5,1.5 0,2 0.5,1.5 0.5,1.5 0.5,2 0.5,1.5 0.5,2 0.5,1.5 0.5,2 0.5,1.5 0.5,1.5 0,2 0.5,1.5 0.5,2 0.5,1.5 0.5,2 0.5,1.5 0.5,1.5 0.5,2 0.5,1.5 0.5,2 0,1.5 0.5,2 0.5,1.5 0.5,1.5 0.5,2 0.5,1.5 0.5,2 0.5,1.5 0.5,2 0.5,1.5 0,1.5 0.5,2 0.5,1.5 0.5,2 0.5,1.5 0.5,1.5 0.5,2 0.5,1.5 0.5,2 0.5,1.5 0,2 0.5,1.5 0.5,1.5 0.5,2 0.5,1.5 0.5,2 0.5,1.5 0.5,1.5 0.5,2 0.5,1.5 0,2 0.5,1.5 0.5,1.5 0.5,2 0.5,1.5 0.5,2 0.5,1.5 0.5,1.5 0.5,2 0.5,1.5 0,2 0.5,1.5 0.5,1.5 0.5,2 0.5,1.5 0.5,2 0.5,1.5 0.5,1.5 0.5,2 0.5,1.5 0,1.5 0.5,2 0.5,1.5 0.5,2 0.5,1.5 0.5,1.5 0.5,2 0.5,1.5 0.5,1.5 0.5,2 0,1.5 0.5,1.5 0.5,2 0.5,1.5 0.5,1.5 0.5,2 0.5,1.5 0.5,2 0.5,1.5 0.5,1.5 0,2"
           inkscape:connector-curvature="0" />
        <path
           id="path3079"
           style="fill:none;stroke:#000000;stroke-width:2.5;stroke-linecap:butt;stroke-linejoin:miter;stroke-miterlimit:3.79999995;stroke-opacity:1;stroke-dasharray:none"
           d="m 2655,1270.5 0.5,1.5 0.5,1.5 0.5,2 0.5,1.5 0.5,1.5 0.5,2 0.5,1.5 0.5,1.5 0.5,2 0,1.5 0.5,1.5 0.5,1.5 0.5,2 0.5,1.5 0.5,1.5 0.5,2 0.5,1.5 0.5,1.5 0.5,2 0,1.5 0.5,1.5 0.5,1.5 0.5,2 0.5,1.5 0.5,1.5 0.5,2 0.5,1.5 0.5,1.5 0.5,1.5 0,2 0.5,1.5 0.5,1.5 0.5,2 0.5,1.5 0.5,1.5 0.5,1.5 0.5,2 0.5,1.5 0,1.5 0.5,1.5 0.5,2 0.5,1.5 0.5,1.5 0.5,1.5 0.5,1.5 0.5,2 0.5,1.5 0.5,1.5 0.5,1.5 0,2 0.5,1.5 0.5,1.5 0.5,1.5 0.5,1.5 0.5,2 0.5,1.5 0.5,1.5 0.5,1.5 0,1.5 0.5,1.5 0.5,2 0.5,1.5 0.5,1.5 0.5,1.5 0.5,1.5 0.5,2 0.5,1.5 0.5,1.5 0,1.5 0.5,1.5 0.5,1.5 0.5,1.5 0.5,2 0.5,1.5 0.5,1.5 0.5,1.5 0.5,1.5 0.5,1.5 0,1.5 0.5,1.5 0.5,1.5 0.5,2 0.5,1.5 0.5,1.5 0.5,1.5 0.5,1.5 0.5,1.5 0.5,1.5 0,1.5 0.5,1.5 0.5,1.5 0.5,1.5 0.5,1.5 0.5,2 0.5,1.5 0.5,1.5 0.5,1.5 0.5,1.5 0,1.5 0.5,1.5 0.5,1.5 0.5,1.5 0.5,1.5 0.5,1.5"
           inkscape:connector-curvature="0" />
        <path
           id="path3081"
           style="fill:none;stroke:#000000;stroke-width:2.5;stroke-linecap:butt;stroke-linejoin:miter;stroke-miterlimit:3.79999995;stroke-opacity:1;stroke-dasharray:none"
           d="m 2702,1436.5 0.5,1.5 0.5,1.5 0.5,1.5 0.5,1.5 0,1.5 0.5,1.5 0.5,1.5 0.5,1.5 0.5,1.5 0.5,1.5 0.5,1.5 0.5,1.5 0.5,1.5 0.5,1.5 0,1.5 0.5,1.5 0.5,1 0.5,1.5 0.5,1.5 0.5,1.5 0.5,1.5 0.5,1.5 0.5,1.5 0.5,1.5 0,1.5 0.5,1.5 0.5,1.5 0.5,1 0.5,1.5 0.5,1.5 0.5,1.5 0.5,1.5 0.5,1.5 0.5,1.5 0,1.5 0.5,1 0.5,1.5 0.5,1.5 0.5,1.5 0.5,1.5 0.5,1.5 0.5,1 0.5,1.5 0.5,1.5 0,1.5 0.5,1.5 0.5,1 0.5,1.5 0.5,1.5 0.5,1.5 0.5,1 0.5,1.5 0.5,1.5 0.5,1.5 0,1 0.5,1.5 0.5,1.5 0.5,1.5 0.5,1 0.5,1.5 0.5,1.5 0.5,1.5 0.5,1 0.5,1.5 0,1.5 0.5,1 0.5,1.5 0.5,1.5 0.5,1 0.5,1.5 0.5,1.5 0.5,1 0.5,1.5 0.5,1.5 0,1 0.5,1.5 0.5,1 0.5,1.5 0.5,1.5 0.5,1 0.5,1.5 0.5,1.5 0.5,1 0.5,1.5 0,1 0.5,1.5 0.5,1 0.5,1.5 0.5,1 0.5,1.5 0.5,1.5 0.5,1 0.5,1.5 0.5,1 0,1.5 0.5,1 0.5,1.5 0.5,1 0.5,1.5 0.5,1 0.5,1.5 0.5,1 0.5,1.5 0.5,1"
           inkscape:connector-curvature="0" />
        <path
           id="path3083"
           style="fill:none;stroke:#000000;stroke-width:2.5;stroke-linecap:butt;stroke-linejoin:miter;stroke-miterlimit:3.79999995;stroke-opacity:1;stroke-dasharray:none"
           d="m 2749,1579.5 0,1 0.5,1.5 0.5,1 0.5,1.5 0.5,1 0.5,1.5 0.5,1 0.5,1 0.5,1.5 0.5,1 0,1.5 0.5,1 0.5,1 0.5,1.5 0.5,1 0.5,1 0.5,1.5 0.5,1 0.5,1 0.5,1.5 0,1 0.5,1 0.5,1.5 0.5,1 0.5,1 0.5,1.5 0.5,1 0.5,1 0.5,1 0.5,1.5 0,1 0.5,1 0.5,1 0.5,1.5 0.5,1 0.5,1 0.5,1 0.5,1 0.5,1.5 0.5,1 0,1 0.5,1 0.5,1 0.5,1 0.5,1.5 0.5,1 0.5,1 0.5,1 0.5,1 0.5,1 0,1 0.5,1 0.5,1 0.5,1.5 0.5,1 0.5,1 0.5,1 0.5,1 0.5,1 0.5,1 0,1 0.5,1 0.5,1 0.5,1 0.5,1 0.5,1 0.5,1 0.5,1 0.5,1 0.5,1 0,1 0.5,1 0.5,1 0.5,1 0.5,1 0.5,0.5 0.5,1 0.5,1 0.5,1 0.5,1 0,1 0.5,1 0.5,1 0.5,1 0.5,0.5 0.5,1 0.5,1 0.5,1 0.5,1 0.5,0.5 0,1 0.5,1 0.5,1 0.5,1 0.5,0.5 0.5,1 0.5,1 0.5,1 0.5,0.5 0.5,1 0,1 0.5,1 0.5,0.5 0.5,1"
           inkscape:connector-curvature="0" />
        <path
           id="path3085"
           style="fill:none;stroke:#000000;stroke-width:2.5;stroke-linecap:butt;stroke-linejoin:miter;stroke-miterlimit:3.79999995;stroke-opacity:1;stroke-dasharray:none"
           d="m 2795.5,1688 0.5,1 0.5,0.5 0.5,1 0.5,1 0.5,0.5 0.5,1 0,1 0.5,0.5 0.5,1 0.5,0.5 0.5,1 0.5,1 0.5,0.5 0.5,1 0.5,0.5 0.5,1 0,0.5 0.5,1 0.5,1 0.5,0.5 0.5,1 0.5,0.5 0.5,1 0.5,0.5 0.5,1 0.5,0.5 0,1 0.5,0.5 0.5,0.5 0.5,1 0.5,0.5 0.5,1 0.5,0.5 0.5,1 0.5,0.5 0.5,0.5 0,1 0.5,0.5 0.5,0.5 0.5,1 0.5,0.5 0.5,1 0.5,0.5 0.5,0.5 0.5,0.5 0.5,1 0,0.5 0.5,0.5 0.5,1 0.5,0.5 0.5,0.5 0.5,0.5 0.5,1 0.5,0.5 0.5,0.5 0.5,0.5 0,1 0.5,0.5 0.5,0.5 0.5,0.5 0.5,0.5 0.5,0.5 0.5,1 0.5,0.5 0.5,0.5 0.5,0.5 0,0.5 0.5,0.5 0.5,0.5 0.5,0.5 0.5,1 0.5,0.5 0.5,0.5 0.5,0.5 0.5,0.5 0.5,0.5 0,0.5 0.5,0.5 0.5,0.5 0.5,0.5 0.5,0.5 0.5,0.5 0.5,0.5 0.5,0.5 0.5,0.5 0.5,0.5 0,0.5 0.5,0.5 0.5,0 0.5,0.5 0.5,0.5 0.5,0.5 0.5,0.5 0.5,0.5 0.5,0.5 0.5,0.5 0.5,0.5 0.5,0.5 0.5,0.5 0.5,0.5 0.5,0.5 0.5,0 0.5,0.5 0.5,0.5"
           inkscape:connector-curvature="0" />
        <path
           id="path3087"
           style="fill:none;stroke:#000000;stroke-width:2.5;stroke-linecap:butt;stroke-linejoin:miter;stroke-miterlimit:3.79999995;stroke-opacity:1;stroke-dasharray:none"
           d="m 2843,1753 0.5,0.5 0.5,0.5 0.5,0.5 0.5,0.5 0.5,0 0.5,0.5 0.5,0.5 0.5,0 0.5,0.5 0.5,0.5 0.5,0.5 0.5,0.5 0.5,0 0.5,0.5 0.5,0.5 0.5,0 0.5,0.5 0.5,0 0.5,0.5 0,0.5 0.5,0 0.5,0.5 0.5,0 0.5,0.5 0.5,0 0.5,0.5 0.5,0 0.5,0.5 0.5,0 0,0.5 0.5,0 0.5,0.5 0.5,0 0.5,0.5 1,0 0.5,0.5 0.5,0 0.5,0.5 0.5,0 0.5,0.5 1,0 0.5,0.5 1,0 0.5,0.5 1,0 0.5,0.5 1,0 0.5,0.5 2,0 0,0.5 3,0 0.5,0.5 11,0 0.5,-0.5 3,0 0,-0.5 2,0 0.5,-0.5 1,0 0.5,-0.5 0.5,0"
           inkscape:connector-curvature="0" />
        <path
           id="path3089"
           style="fill:none;stroke:#000000;stroke-width:2.5;stroke-linecap:butt;stroke-linejoin:miter;stroke-miterlimit:3.79999995;stroke-opacity:1;stroke-dasharray:none"
           d="m 2893,1766.5 0.5,0 0.5,-0.5 1,0 0.5,-0.5 1,0 0.5,-0.5 0.5,0 0.5,-0.5 0.5,0 0.5,-0.5 1,0 0.5,-0.5 0.5,0 0.5,-0.5 0.5,0 0,-0.5 0.5,0 0.5,-0.5 0.5,0 0.5,-0.5 0.5,0 0.5,-0.5 0.5,0 0.5,-0.5 0.5,0 0,-0.5 0.5,-0.5 0.5,0 0.5,-0.5 0.5,0 0.5,-0.5 0.5,-0.5 0.5,0 0.5,-0.5 0.5,-0.5 0.5,-0.5 0.5,-0.5 0.5,0 0.5,-0.5 0.5,-0.5 0.5,0 0.5,-0.5 0.5,-0.5 0.5,-0.5 0.5,-0.5 0.5,-0.5 0.5,-0.5 0.5,0 0.5,-0.5 0.5,-0.5 0.5,-0.5 0.5,-0.5 0.5,-0.5 0.5,-0.5 0.5,-0.5 0.5,-0.5 0.5,-0.5 0.5,-0.5 0.5,-0.5 0.5,-0.5 0.5,0 0.5,-0.5 0,-0.5 0.5,-0.5 0.5,-0.5 0.5,-0.5 0.5,-0.5 0.5,-0.5 0.5,-0.5 0.5,-0.5 0.5,-0.5 0.5,-0.5 0,-0.5 0.5,-0.5 0.5,-0.5 0.5,-0.5 0.5,-0.5 0.5,-0.5 0.5,-1 0.5,-0.5 0.5,-0.5 0.5,-0.5 0,-0.5 0.5,-0.5 0.5,-0.5 0.5,-0.5 0.5,-1 0.5,-0.5 0.5,-0.5 0.5,-0.5 0.5,-0.5 0.5,-0.5 0,-1 0.5,-0.5 0.5,-0.5 0.5,-0.5 0.5,-1 0.5,-0.5 0.5,-0.5 0.5,-0.5 0.5,-1"
           inkscape:connector-curvature="0" />
        <path
           id="path3091"
           style="fill:none;stroke:#000000;stroke-width:2.5;stroke-linecap:butt;stroke-linejoin:miter;stroke-miterlimit:3.79999995;stroke-opacity:1;stroke-dasharray:none"
           d="m 2942,1723.5 0.5,-0.5 0,-0.5 0.5,-1 0.5,-0.5 0.5,-0.5 0.5,-0.5 0.5,-1 0.5,-0.5 0.5,-1 0.5,-0.5 0.5,-0.5 0,-1 0.5,-0.5 0.5,-0.5 0.5,-1 0.5,-0.5 0.5,-1 0.5,-0.5 0.5,-1 0.5,-0.5 0.5,-0.5 0,-1 0.5,-0.5 0.5,-1 0.5,-0.5 0.5,-1 0.5,-0.5 0.5,-1 0.5,-0.5 0.5,-1 0.5,-1 0,-0.5 0.5,-1 0.5,-0.5 0.5,-1 0.5,-0.5 0.5,-1 0.5,-1 0.5,-0.5 0.5,-1 0.5,-0.5 0,-1 0.5,-1 0.5,-0.5 0.5,-1 0.5,-1 0.5,-0.5 0.5,-1 0.5,-1 0.5,-0.5 0.5,-1 0,-1 0.5,-1 0.5,-0.5 0.5,-1 0.5,-1 0.5,-1 0.5,-0.5 0.5,-1 0.5,-1 0.5,-1 0,-1 0.5,-0.5 0.5,-1 0.5,-1 0.5,-1 0.5,-1 0.5,-0.5 0.5,-1 0.5,-1 0.5,-1 0,-1 0.5,-1 0.5,-1 0.5,-1 0.5,-1 0.5,-0.5 0.5,-1 0.5,-1 0.5,-1 0.5,-1 0,-1 0.5,-1 0.5,-1 0.5,-1 0.5,-1 0.5,-1 0.5,-1 0.5,-1 0.5,-1 0.5,-1 0,-1 0.5,-1 0.5,-1 0.5,-1 0.5,-1 0.5,-1 0.5,-1 0.5,-1.5 0.5,-1 0.5,-1 0,-1 0.5,-1 0.5,-1"
           inkscape:connector-curvature="0" />
        <path
           id="path3093"
           style="fill:none;stroke:#000000;stroke-width:2.5;stroke-linecap:butt;stroke-linejoin:miter;stroke-miterlimit:3.79999995;stroke-opacity:1;stroke-dasharray:none"
           d="m 2988.5,1634.5 0.5,-1 0.5,-1 0.5,-1 0.5,-1.5 0.5,-1 0.5,-1 0.5,-1 0,-1 0.5,-1 0.5,-1.5 0.5,-1 0.5,-1 0.5,-1 0.5,-1 0.5,-1.5 0.5,-1 0.5,-1 0,-1 0.5,-1.5 0.5,-1 0.5,-1 0.5,-1 0.5,-1.5 0.5,-1 0.5,-1 0.5,-1.5 0.5,-1 0,-1 0.5,-1.5 0.5,-1 0.5,-1 0.5,-1.5 0.5,-1 0.5,-1 0.5,-1.5 0.5,-1 0.5,-1 0,-1.5 0.5,-1 0.5,-1.5 0.5,-1 0.5,-1 0.5,-1.5 0.5,-1 0.5,-1.5 0.5,-1 0.5,-1.5 0,-1 0.5,-1 0.5,-1.5 0.5,-1 0.5,-1.5 0.5,-1 0.5,-1.5 0.5,-1 0.5,-1.5 0.5,-1 0,-1.5 0.5,-1 0.5,-1.5 0.5,-1 0.5,-1.5 0.5,-1.5 0.5,-1 0.5,-1.5 0.5,-1 0.5,-1.5 0,-1 0.5,-1.5 0.5,-1 0.5,-1.5 0.5,-1.5 0.5,-1 0.5,-1.5 0.5,-1.5 0.5,-1 0.5,-1.5 0,-1 0.5,-1.5 0.5,-1.5 0.5,-1 0.5,-1.5 0.5,-1.5 0.5,-1 0.5,-1.5 0.5,-1.5 0.5,-1 0,-1.5 0.5,-1.5 0.5,-1 0.5,-1.5 0.5,-1.5 0.5,-1.5 0.5,-1 0.5,-1.5 0.5,-1.5 0.5,-1.5 0,-1 0.5,-1.5 0.5,-1.5 0.5,-1.5 0.5,-1 0.5,-1.5 0.5,-1.5"
           inkscape:connector-curvature="0" />
        <path
           id="path3095"
           style="fill:none;stroke:#000000;stroke-width:2.5;stroke-linecap:butt;stroke-linejoin:miter;stroke-miterlimit:3.79999995;stroke-opacity:1;stroke-dasharray:none"
           d="m 3035.5,1506 0.5,-1.5 0.5,-1 0.5,-1.5 0,-1.5 0.5,-1.5 0.5,-1.5 0.5,-1 0.5,-1.5 0.5,-1.5 0.5,-1.5 0.5,-1.5 0.5,-1.5 0,-1 0.5,-1.5 0.5,-1.5 0.5,-1.5 0.5,-1.5 0.5,-1.5 0.5,-1.5 0.5,-1.5 0.5,-1 0.5,-1.5 0,-1.5 0.5,-1.5 0.5,-1.5 0.5,-1.5 0.5,-1.5 0.5,-1.5 0.5,-1.5 0.5,-1.5 0.5,-1.5 0.5,-1 0,-1.5 0.5,-1.5 0.5,-1.5 0.5,-1.5 0.5,-1.5 0.5,-1.5 0.5,-1.5 0.5,-1.5 0.5,-1.5 0.5,-1.5 0,-1.5 0.5,-1.5 0.5,-1.5 0.5,-1.5 0.5,-1.5 0.5,-1.5 0.5,-1.5 0.5,-1.5 0.5,-1.5 0.5,-1.5 0,-1.5 0.5,-1.5 0.5,-1.5 0.5,-1.5 0.5,-1.5 0.5,-1.5 0.5,-2 0.5,-1.5 0.5,-1.5 0.5,-1.5 0,-1.5 0.5,-1.5 0.5,-1.5 0.5,-1.5 0.5,-1.5 0.5,-1.5 0.5,-1.5 0.5,-1.5 0.5,-2 0.5,-1.5 0,-1.5 0.5,-1.5 0.5,-1.5 0.5,-1.5 0.5,-1.5 0.5,-1.5 0.5,-1.5 0.5,-2 0.5,-1.5 0.5,-1.5 0,-1.5 0.5,-1.5 0.5,-1.5 0.5,-1.5 0.5,-2 0.5,-1.5 0.5,-1.5 0.5,-1.5 0.5,-1.5 0.5,-2 0,-1.5 0.5,-1.5 0.5,-1.5 0.5,-1.5 0.5,-1.5 0.5,-2 0.5,-1.5 0.5,-1.5 0.5,-1.5 0.5,-1.5 0,-2 0.5,-1.5"
           inkscape:connector-curvature="0" />
        <path
           id="path3097"
           style="fill:none;stroke:#000000;stroke-width:2.5;stroke-linecap:butt;stroke-linejoin:miter;stroke-miterlimit:3.79999995;stroke-opacity:1;stroke-dasharray:none"
           d="m 3082,1349 0.5,-1.5 0.5,-1.5 0.5,-2 0.5,-1.5 0.5,-1.5 0.5,-1.5 0.5,-1.5 0.5,-2 0,-1.5 0.5,-1.5 0.5,-1.5 0.5,-2 0.5,-1.5 0.5,-1.5 0.5,-1.5 0.5,-2 0.5,-1.5 0.5,-1.5 0,-2 0.5,-1.5 0.5,-1.5 0.5,-1.5 0.5,-2 0.5,-1.5 0.5,-1.5 0.5,-2 0.5,-1.5 0.5,-1.5 0.5,-1.5 0,-2 0.5,-1.5 0.5,-1.5 0.5,-2 0.5,-1.5 0.5,-1.5 0.5,-2 0.5,-1.5 0.5,-1.5 0.5,-1.5 0,-2 0.5,-1.5 0.5,-1.5 0.5,-2 0.5,-1.5 0.5,-1.5 0.5,-2 0.5,-1.5 0.5,-1.5 0.5,-2 0,-1.5 0.5,-1.5 0.5,-2 0.5,-1.5 0.5,-2 0.5,-1.5 0.5,-1.5 0.5,-2 0.5,-1.5 0.5,-1.5 0,-2 0.5,-1.5 0.5,-1.5 0.5,-2 0.5,-1.5 0.5,-1.5 0.5,-2 0.5,-1.5 0.5,-2 0.5,-1.5 0,-1.5 0.5,-2 0.5,-1.5 0.5,-1.5 0.5,-2 0.5,-1.5 0.5,-2 0.5,-1.5 0.5,-1.5 0.5,-2 0,-1.5 0.5,-2 0.5,-1.5 0.5,-1.5 0.5,-2 0.5,-1.5 0.5,-2 0.5,-1.5 0.5,-1.5 0.5,-2 0,-1.5 0.5,-2 0.5,-1.5 0.5,-1.5 0.5,-2 0.5,-1.5 0.5,-2 0.5,-1.5 0.5,-1.5 0.5,-2 0,-1.5 0.5,-2 0.5,-1.5 0.5,-2 0.5,-1.5"
           inkscape:connector-curvature="0" />
        <path
           id="path3099"
           style="fill:none;stroke:#000000;stroke-width:2.5;stroke-linecap:butt;stroke-linejoin:miter;stroke-miterlimit:3.79999995;stroke-opacity:1;stroke-dasharray:none"
           d="m 3129,1175.5 0.5,-1.5 0.5,-2 0.5,-1.5 0.5,-2 0.5,-1.5 0,-1.5 0.5,-2 0.5,-1.5 0.5,-2 0.5,-1.5 0.5,-2 0.5,-1.5 0.5,-1.5 0.5,-2 0.5,-1.5 0,-2 0.5,-1.5 0.5,-2 0.5,-1.5 0.5,-1.5 0.5,-2 0.5,-1.5 0.5,-2 0.5,-1.5 0,-2 0.5,-1.5 0.5,-1.5 0.5,-2 0.5,-1.5 0.5,-2 0.5,-1.5 0.5,-2 0.5,-1.5 0.5,-1.5 0,-2 0.5,-1.5 0.5,-2 0.5,-1.5 0.5,-2 0.5,-1.5 0.5,-1.5 0.5,-2 0.5,-1.5 0.5,-2 0,-1.5 0.5,-2 0.5,-1.5 0.5,-2 0.5,-1.5 0.5,-1.5 0.5,-2 0.5,-1.5 0.5,-2 0.5,-1.5 0,-2 0.5,-1.5 0.5,-1.5 0.5,-2 0.5,-1.5 0.5,-2 0.5,-1.5 0.5,-2 0.5,-1.5 0.5,-1.5 0,-2 0.5,-1.5 0.5,-2 0.5,-1.5 0.5,-2 0.5,-1.5 0.5,-1.5 0.5,-2 0.5,-1.5 0.5,-2 0,-1.5 0.5,-2 0.5,-1.5 0.5,-1.5 0.5,-2 0.5,-1.5 0.5,-2 0.5,-1.5 0.5,-1.5 0.5,-2 0,-1.5 0.5,-2 0.5,-1.5 0.5,-2 0.5,-1.5 0.5,-1.5 0.5,-2 0.5,-1.5 0.5,-2 0.5,-1.5 0,-1.5 0.5,-2 0.5,-1.5 0.5,-2 0.5,-1.5 0.5,-1.5 0.5,-2 0.5,-1.5 0.5,-2 0.5,-1.5"
           inkscape:connector-curvature="0" />
        <path
           id="path3101"
           style="fill:none;stroke:#000000;stroke-width:2.5;stroke-linecap:butt;stroke-linejoin:miter;stroke-miterlimit:3.79999995;stroke-opacity:1;stroke-dasharray:none"
           d="m 3176,997.5 0,-1.5 0.5,-2 0.5,-1.5 0.5,-2 0.5,-1.5 0.5,-1.5 0.5,-2 0.5,-1.5 0.5,-2 0.5,-1.5 0,-1.5 0.5,-2 0.5,-1.5 0.5,-1.5 0.5,-2 0.5,-1.5 0.5,-2 0.5,-1.5 0.5,-1.5 0.5,-2 0,-1.5 0.5,-1.5 0.5,-2 0.5,-1.5 0.5,-2 0.5,-1.5 0.5,-1.5 0.5,-2 0.5,-1.5 0.5,-1.5 0,-2 0.5,-1.5 0.5,-1.5 0.5,-2 0.5,-1.5 0.5,-1.5 0.5,-2 0.5,-1.5 0.5,-1.5 0.5,-2 0,-1.5 0.5,-1.5 0.5,-2 0.5,-1.5 0.5,-1.5 0.5,-2 0.5,-1.5 0.5,-1.5 0.5,-2 0.5,-1.5 0,-1.5 0.5,-2 0.5,-1.5 0.5,-1.5 0.5,-2 0.5,-1.5 0.5,-1.5 0.5,-2 0.5,-1.5 0.5,-1.5 0,-1.5 0.5,-2 0.5,-1.5 0.5,-1.5 0.5,-2 0.5,-1.5 0.5,-1.5 0.5,-1.5 0.5,-2 0.5,-1.5 0,-1.5 0.5,-2 0.5,-1.5 0.5,-1.5 0.5,-1.5 0.5,-2 0.5,-1.5 0.5,-1.5 0.5,-1.5 0.5,-2 0,-1.5 0.5,-1.5 0.5,-1.5 0.5,-2 0.5,-1.5 0.5,-1.5 0.5,-1.5 0.5,-2 0.5,-1.5 0.5,-1.5 0,-1.5 0.5,-1.5 0.5,-2 0.5,-1.5 0.5,-1.5 0.5,-1.5 0.5,-2 0.5,-1.5 0.5,-1.5 0.5,-1.5 0,-1.5 0.5,-2 0.5,-1.5 0.5,-1.5"
           inkscape:connector-curvature="0" />
        <path
           id="path3103"
           style="fill:none;stroke:#000000;stroke-width:2.5;stroke-linecap:butt;stroke-linejoin:miter;stroke-miterlimit:3.79999995;stroke-opacity:1;stroke-dasharray:none"
           d="m 3222.5,825.5 0.5,-1.5 0.5,-1.5 0.5,-2 0.5,-1.5 0.5,-1.5 0.5,-1.5 0,-1.5 0.5,-1.5 0.5,-2 0.5,-1.5 0.5,-1.5 0.5,-1.5 0.5,-1.5 0.5,-1.5 0.5,-2 0.5,-1.5 0,-1.5 0.5,-1.5 0.5,-1.5 0.5,-1.5 0.5,-1.5 0.5,-2 0.5,-1.5 0.5,-1.5 0.5,-1.5 0.5,-1.5 0,-1.5 0.5,-1.5 0.5,-1.5 0.5,-1.5 0.5,-2 0.5,-1.5 0.5,-1.5 0.5,-1.5 0.5,-1.5 0.5,-1.5 0,-1.5 0.5,-1.5 0.5,-1.5 0.5,-1.5 0.5,-1.5 0.5,-2 0.5,-1.5 0.5,-1.5 0.5,-1.5 0.5,-1.5 0,-1.5 0.5,-1.5 0.5,-1.5 0.5,-1.5 0.5,-1.5 0.5,-1.5 0.5,-1.5 0.5,-1.5 0.5,-1.5 0.5,-1.5 0,-1.5 0.5,-1.5 0.5,-1.5 0.5,-1.5 0.5,-1.5 0.5,-1.5 0.5,-1.5 0.5,-1.5 0.5,-1.5 0.5,-1.5 0,-1.5 0.5,-1.5 0.5,-1.5 0.5,-1.5 0.5,-1.5 0.5,-1.5 0.5,-1.5 0.5,-1.5 0.5,-1.5 0.5,-1.5 0,-1.5 0.5,-1.5 0.5,-1.5 0.5,-1.5 0.5,-1.5 0.5,-1.5 0.5,-1.5 0.5,-1.5 0.5,-1 0.5,-1.5 0,-1.5 0.5,-1.5 0.5,-1.5 0.5,-1.5 0.5,-1.5 0.5,-1.5 0.5,-1.5 0.5,-1.5 0.5,-1.5 0.5,-1 0,-1.5 0.5,-1.5 0.5,-1.5 0.5,-1.5 0.5,-1.5 0.5,-1.5 0.5,-1.5 0.5,-1"
           inkscape:connector-curvature="0" />
        <path
           id="path3105"
           style="fill:none;stroke:#000000;stroke-width:2.5;stroke-linecap:butt;stroke-linejoin:miter;stroke-miterlimit:3.79999995;stroke-opacity:1;stroke-dasharray:none"
           d="m 3269.5,668 0.5,-1.5 0.5,-1.5 0,-1.5 0.5,-1.5 0.5,-1.5 0.5,-1 0.5,-1.5 0.5,-1.5 0.5,-1.5 0.5,-1.5 0.5,-1.5 0.5,-1 0,-1.5 0.5,-1.5 0.5,-1.5 0.5,-1.5 0.5,-1 0.5,-1.5 0.5,-1.5 0.5,-1.5 0.5,-1.5 0.5,-1 0,-1.5 0.5,-1.5 0.5,-1.5 0.5,-1 0.5,-1.5 0.5,-1.5 0.5,-1.5 0.5,-1 0.5,-1.5 0.5,-1.5 0,-1.5 0.5,-1 0.5,-1.5 0.5,-1.5 0.5,-1 0.5,-1.5 0.5,-1.5 0.5,-1.5 0.5,-1 0.5,-1.5 0,-1.5 0.5,-1 0.5,-1.5 0.5,-1.5 0.5,-1 0.5,-1.5 0.5,-1.5 0.5,-1 0.5,-1.5 0.5,-1.5 0,-1 0.5,-1.5 0.5,-1.5 0.5,-1 0.5,-1.5 0.5,-1.5 0.5,-1 0.5,-1.5 0.5,-1.5 0.5,-1 0,-1.5 0.5,-1 0.5,-1.5 0.5,-1.5 0.5,-1 0.5,-1.5 0.5,-1 0.5,-1.5 0.5,-1.5 0.5,-1 0,-1.5 0.5,-1 0.5,-1.5 0.5,-1 0.5,-1.5 0.5,-1 0.5,-1.5 0.5,-1.5 0.5,-1 0.5,-1.5 0,-1 0.5,-1.5 0.5,-1 0.5,-1.5 0.5,-1 0.5,-1.5 0.5,-1 0.5,-1.5 0.5,-1 0.5,-1.5 0,-1 0.5,-1.5 0.5,-1 0.5,-1.5 0.5,-1 0.5,-1.5 0.5,-1 0.5,-1.5 0.5,-1 0.5,-1 0,-1.5 0.5,-1"
           inkscape:connector-curvature="0" />
        <path
           id="path3107"
           style="fill:none;stroke:#000000;stroke-width:2.5;stroke-linecap:butt;stroke-linejoin:miter;stroke-miterlimit:3.79999995;stroke-opacity:1;stroke-dasharray:none"
           d="m 3316,530 0.5,-1.5 0.5,-1 0.5,-1.5 0.5,-1 0.5,-1.5 0.5,-1 0.5,-1 0.5,-1.5 0,-1 0.5,-1.5 0.5,-1 0.5,-1 0.5,-1.5 0.5,-1 0.5,-1.5 0.5,-1 0.5,-1 0.5,-1.5 0,-1 0.5,-1 0.5,-1.5 0.5,-1 0.5,-1 0.5,-1.5 0.5,-1 0.5,-1 0.5,-1.5 0.5,-1 0,-1 0.5,-1.5 0.5,-1 0.5,-1 0.5,-1.5 0.5,-1 0.5,-1 0.5,-1.5 0.5,-1 0.5,-1 0,-1 0.5,-1.5 0.5,-1 0.5,-1 0.5,-1.5 0.5,-1 0.5,-1 0.5,-1 0.5,-1.5 0.5,-1 0,-1 0.5,-1 0.5,-1 0.5,-1.5 0.5,-1 0.5,-1 0.5,-1 0.5,-1.5 0.5,-1 0.5,-1 0,-1 0.5,-1 0.5,-1.5 0.5,-1 0.5,-1 0.5,-1 0.5,-1 0.5,-1 0.5,-1.5 0.5,-1 0,-1 0.5,-1 0.5,-1 0.5,-1 0.5,-1 0.5,-1.5 0.5,-1 0.5,-1 0.5,-1 0.5,-1 0,-1 0.5,-1 0.5,-1 0.5,-1.5 0.5,-1 0.5,-1 0.5,-1 0.5,-1 0.5,-1 0.5,-1 0,-1 0.5,-1 0.5,-1 0.5,-1 0.5,-1 0.5,-1 0.5,-1 0.5,-1 0.5,-1 0.5,-1.5 0,-1 0.5,-1 0.5,-1 0.5,-1 0.5,-1 0.5,-1"
           inkscape:connector-curvature="0" />
        <path
           id="path3109"
           style="fill:none;stroke:#000000;stroke-width:2.5;stroke-linecap:butt;stroke-linejoin:miter;stroke-miterlimit:3.79999995;stroke-opacity:1;stroke-dasharray:none"
           d="m 3363,414 0.5,-1 0.5,-1 0.5,-1 0.5,-1 0,-1 0.5,-1 0.5,-1 0.5,-0.5 0.5,-1 0.5,-1 0.5,-1 0.5,-1 0.5,-1 0.5,-1 0,-1 0.5,-1 0.5,-1 0.5,-1 0.5,-1 0.5,-1 0.5,-1 0.5,-1 0.5,-1 0.5,-0.5 0,-1 0.5,-1 0.5,-1 0.5,-1 0.5,-1 0.5,-1 0.5,-1 0.5,-1 0.5,-0.5 0.5,-1 0,-1 0.5,-1 0.5,-1 0.5,-1 0.5,-1 0.5,-0.5 0.5,-1 0.5,-1 0.5,-1 0.5,-1 0,-1 0.5,-0.5 0.5,-1 0.5,-1 0.5,-1 0.5,-1 0.5,-0.5 0.5,-1 0.5,-1 0.5,-1 0,-0.5 0.5,-1 0.5,-1 0.5,-1 0.5,-1 0.5,-0.5 0.5,-1 0.5,-1 0.5,-1 0.5,-0.5 0,-1 0.5,-1 0.5,-0.5 0.5,-1 0.5,-1 0.5,-1 0.5,-0.5 0.5,-1 0.5,-1 0.5,-0.5 0,-1 0.5,-1 0.5,-1 0.5,-0.5 0.5,-1 0.5,-1 0.5,-0.5 0.5,-1 0.5,-1 0.5,-0.5 0,-1 0.5,-1 0.5,-0.5 0.5,-1 0.5,-0.5 0.5,-1 0.5,-1 0.5,-0.5 0.5,-1 0.5,-1 0,-0.5 0.5,-1 0.5,-0.5 0.5,-1 0.5,-1 0.5,-0.5 0.5,-1 0.5,-0.5 0.5,-1 0.5,-1"
           inkscape:connector-curvature="0" />
        <path
           id="path3111"
           style="fill:none;stroke:#000000;stroke-width:2.5;stroke-linecap:butt;stroke-linejoin:miter;stroke-miterlimit:3.79999995;stroke-opacity:1;stroke-dasharray:none"
           d="m 3410,321 0,-0.5 0.5,-1 0.5,-0.5 0.5,-1 0.5,-0.5 0.5,-1 0.5,-1 0.5,-0.5 0.5,-1 0.5,-0.5 0,-1 0.5,-0.5 0.5,-1 0.5,-0.5 0.5,-1 0.5,-0.5 0.5,-1 0.5,-0.5 0.5,-1 0.5,-0.5 0,-1 0.5,-0.5 0.5,-1 0.5,-0.5 0.5,-1 0.5,-0.5 0.5,-1 0.5,-0.5 0.5,-1 0.5,-0.5 0,-1 0.5,-0.5 0.5,-1 0.5,-0.5 0.5,-0.5 0.5,-1 0.5,-0.5 0.5,-1 0.5,-0.5 0.5,-1 0,-0.5 0.5,-0.5 0.5,-1 0.5,-0.5 0.5,-1 0.5,-0.5 0.5,-1 0.5,-0.5 0.5,-0.5 0.5,-1 0,-0.5 0.5,-0.5 0.5,-1 0.5,-0.5 0.5,-1 0.5,-0.5 0.5,-0.5 0.5,-1 0.5,-0.5 0.5,-0.5 0,-1 0.5,-0.5 0.5,-0.5 0.5,-1 0.5,-0.5 0.5,-0.5 0.5,-1 0.5,-0.5 0.5,-0.5 0.5,-1 0,-0.5 0.5,-0.5 0.5,-1 0.5,-0.5 0.5,-0.5 0.5,-1 0.5,-0.5 0.5,-0.5 0.5,-0.5 0.5,-1 0,-0.5 0.5,-0.5 0.5,-1 0.5,-0.5 0.5,-0.5 0.5,-0.5 0.5,-1 0.5,-0.5 0.5,-0.5 0.5,-0.5 0,-1 0.5,-0.5 0.5,-0.5 0.5,-0.5 0.5,-1 0.5,-0.5 0.5,-0.5 0.5,-0.5 0.5,-0.5 0.5,-1 0,-0.5 0.5,-0.5 0.5,-0.5 0.5,-0.5"
           inkscape:connector-curvature="0" />
        <path
           id="path3113"
           style="fill:none;stroke:#000000;stroke-width:2.5;stroke-linecap:butt;stroke-linejoin:miter;stroke-miterlimit:3.79999995;stroke-opacity:1;stroke-dasharray:none"
           d="m 3456.5,249.5 0.5,-1 0.5,-0.5 0.5,-0.5 0.5,-0.5 0.5,-0.5 0,-1 0.5,-0.5 0.5,-0.5 0.5,-0.5 0.5,-0.5 0.5,-0.5 0.5,-1 0.5,-0.5 0.5,-0.5 0.5,-0.5 0,-0.5 0.5,-0.5 0.5,-0.5 0.5,-1 0.5,-0.5 0.5,-0.5 0.5,-0.5 0.5,-0.5 0.5,-0.5 0.5,-0.5 0,-0.5 0.5,-1 0.5,-0.5 0.5,-0.5 0.5,-0.5 0.5,-0.5 0.5,-0.5 0.5,-0.5 0.5,-0.5 0.5,-0.5 0,-0.5 0.5,-0.5 0.5,-0.5 0.5,-1 0.5,-0.5 0.5,-0.5 0.5,-0.5 0.5,-0.5 0.5,-0.5 0.5,-0.5 0,-0.5 0.5,-0.5 0.5,-0.5 0.5,-0.5 0.5,-0.5 0.5,-0.5 0.5,-0.5 0.5,-0.5 0.5,-0.5 0.5,-0.5 0,-0.5 0.5,-0.5 0.5,-0.5 0.5,-0.5 0.5,-0.5 0.5,-0.5 0.5,-0.5 0.5,-0.5 0.5,-0.5 0.5,-0.5 0,-0.5 0.5,-0.5 0.5,-0.5 0.5,-0.5 0.5,-0.5 0.5,-0.5 0.5,-0.5 0.5,-0.5 0.5,-0.5 0.5,-0.5 0,-0.5 0.5,-0.5 0.5,-0.5 0.5,-0.5 0.5,-0.5 0.5,-0.5 0.5,-0.5 0.5,-0.5 0.5,-0.5 0.5,0 0,-0.5 0.5,-0.5 0.5,-0.5 0.5,-0.5 0.5,-0.5 0.5,-0.5 0.5,-0.5 0.5,-0.5 0.5,-0.5 0.5,-0.5 0.5,-0.5 0.5,-0.5 0.5,-0.5 0.5,-0.5 0.5,-0.5 0.5,-0.5 0.5,-0.5 0.5,-0.5 0.5,0"
           inkscape:connector-curvature="0" />
        <path
           id="path3115"
           style="fill:none;stroke:#000000;stroke-width:2.5;stroke-linecap:butt;stroke-linejoin:miter;stroke-miterlimit:3.79999995;stroke-opacity:1;stroke-dasharray:none"
           d="m 3504,195.5 0,-0.5 0.5,-0.5 0.5,-0.5 0.5,-0.5 0.5,-0.5 0.5,-0.5 0.5,0 0.5,-0.5 0.5,-0.5 0.5,-0.5 0,-0.5 0.5,-0.5 0.5,-0.5 0.5,0 0.5,-0.5 0.5,-0.5 0.5,-0.5 0.5,-0.5 0.5,-0.5 0.5,0 0,-0.5 0.5,-0.5 0.5,-0.5 0.5,-0.5 0.5,0 0.5,-0.5 0.5,-0.5 0.5,-0.5 0.5,-0.5 0.5,0 0,-0.5 0.5,-0.5 0.5,-0.5 0.5,-0.5 0.5,0 0.5,-0.5 0.5,-0.5 0.5,-0.5 0.5,0 0.5,-0.5 0.5,-0.5 0,-0.5 0.5,0 0.5,-0.5 0.5,-0.5 0.5,-0.5 0.5,0 0.5,-0.5 0.5,-0.5 0.5,-0.5 0.5,0 0,-0.5 0.5,-0.5 0.5,-0.5 0.5,0 0.5,-0.5 0.5,-0.5 0.5,-0.5 0.5,0 0.5,-0.5 0.5,-0.5 0.5,-0.5 0.5,-0.5 0.5,0 0.5,-0.5 0.5,-0.5 0.5,-0.5 0.5,0 0.5,-0.5 0.5,-0.5 0.5,-0.5 0.5,-0.5 0.5,0 0.5,-0.5 0.5,-0.5 0.5,0 0.5,-0.5 0.5,-0.5 0.5,0 0,-0.5 0.5,-0.5 0.5,0 0.5,-0.5 0.5,-0.5 0.5,0 0.5,-0.5 0.5,-0.5 0.5,0 0.5,-0.5 0,-0.5 0.5,0 0.5,-0.5 0.5,-0.5 0.5,0 0.5,-0.5 0.5,0 0.5,-0.5 0.5,-0.5 0.5,0 0,-0.5 0.5,-0.5 0.5,0 0.5,-0.5 0.5,0"
           inkscape:connector-curvature="0" />
        <path
           id="path3117"
           style="fill:none;stroke:#000000;stroke-width:2.5;stroke-linecap:butt;stroke-linejoin:miter;stroke-miterlimit:3.79999995;stroke-opacity:1;stroke-dasharray:none"
           d="m 3551.5,156.5 0.5,-0.5 0.5,-0.5 0.5,0 0.5,-0.5 0.5,0 0,-0.5 0.5,-0.5 0.5,0 0.5,-0.5 0.5,0 0.5,-0.5 0.5,-0.5 0.5,0 0.5,-0.5 0.5,-0.5 0.5,0 0.5,-0.5 0.5,-0.5 0.5,0 0.5,-0.5 0.5,0 0.5,-0.5 0.5,0 0,-0.5 0.5,-0.5 0.5,0 0.5,-0.5 0.5,0 0.5,-0.5 0.5,0 0.5,-0.5 0.5,0 0.5,-0.5 0.5,-0.5 0.5,-0.5 0.5,0 0.5,-0.5 0.5,0 0.5,-0.5 0.5,0 0.5,-0.5 0.5,0 0,-0.5 0.5,0 0.5,-0.5 0.5,0 0.5,-0.5 0.5,0 0.5,-0.5 0.5,0 0.5,-0.5 0.5,0 0,-0.5 0.5,0 0.5,-0.5 0.5,0 0.5,-0.5 0.5,0 0.5,-0.5 0.5,0 0.5,-0.5 0.5,0 0,-0.5 0.5,0 0.5,-0.5 0.5,0 0.5,-0.5 0.5,0 0.5,-0.5 1,0 0.5,-0.5 0.5,-0.5 0.5,0 0.5,-0.5 0.5,0 0.5,-0.5 0.5,0 0.5,-0.5 0.5,0 0.5,-0.5 0.5,0 0.5,-0.5 0.5,0 0.5,-0.5 0.5,0 0.5,-0.5 1,0 0.5,-0.5 0.5,-0.5 0.5,0 0.5,-0.5 1,0 0.5,-0.5 0.5,0 0.5,-0.5 0.5,0 0,-0.5 1,0 0.5,-0.5 0.5,0"
           inkscape:connector-curvature="0" />
        <path
           id="path3119"
           style="fill:none;stroke:#000000;stroke-width:2.5;stroke-linecap:butt;stroke-linejoin:miter;stroke-miterlimit:3.79999995;stroke-opacity:1;stroke-dasharray:none"
           d="m 3600.5,129 0.5,-0.5 1,0 0.5,-0.5 0.5,0 0,-0.5 1,0 0.5,-0.5 0.5,0 0.5,-0.5 1,0 0.5,-0.5 0.5,0 0.5,-0.5 0.5,0 0.5,-0.5 1,0 0.5,-0.5 1,0 0.5,-0.5 0.5,-0.5 1,0 0.5,-0.5 1,0 0.5,-0.5 1,0 0,-0.5 0.5,0 0.5,-0.5 1,0 0.5,-0.5 1,0 0.5,-0.5 0.5,0 0.5,-0.5 1,0 0.5,-0.5 1,0 0.5,-0.5 1,0 0,-0.5 1,0 0.5,-0.5 1,0 0.5,-0.5 1.5,0 0,-0.5 1,0 0.5,-0.5 1,0 0.5,-0.5 1,0 0.5,-0.5 1,0 0.5,-0.5 1,0 0.5,-0.5 1.5,0 0,-0.5 1,0 0.5,-0.5 1.5,0 0.5,-0.5 1,0 0,-0.5 1.5,0 0.5,-0.5 1.5,0 0.5,-0.5 0.5,0 0.5,-0.5 1,0"
           inkscape:connector-curvature="0" />
        <path
           id="path3121"
           style="fill:none;stroke:#000000;stroke-width:2.5;stroke-linecap:butt;stroke-linejoin:miter;stroke-miterlimit:3.79999995;stroke-opacity:1;stroke-dasharray:none"
           d="m 3649.5,111 0.5,0 0.5,-0.5 1.5,0 0.5,-0.5 1,0 0.5,-0.5 1.5,0 0.5,-0.5 1,0 0.5,-0.5 1.5,0 0.5,-0.5 2,0 0,-0.5 1.5,0 0.5,-0.5 1.5,0 0.5,-0.5 1.5,0 0.5,-0.5 1.5,0 0.5,-0.5 1.5,0 0.5,-0.5 2,0 0.5,-0.5 1.5,0 0.5,-0.5 2,0 0.5,-0.5 1.5,0 0.5,-0.5 2,0 0.5,-0.5 2,0 0.5,-0.5 2,0 0.5,-0.5 2,0 0.5,-0.5 2,0 0.5,-0.5 2,0 0.5,-0.5 2,0 0.5,-0.5 3,0"
           inkscape:connector-curvature="0" />
        <path
           id="path3123"
           style="fill:none;stroke:#000000;stroke-width:2.5;stroke-linecap:butt;stroke-linejoin:miter;stroke-miterlimit:3.79999995;stroke-opacity:1;stroke-dasharray:none"
           d="m 3701,99.5 0.5,-0.5 2,0 0.5,-0.5 2.5,0 0.5,-0.5 3,0 0.5,-0.5 2.5,0 0.5,-0.5 2.5,0 0.5,-0.5 3.5,0 0,-0.5 3.5,0 0.5,-0.5 3,0 0.5,-0.5 3,0 0.5,-0.5 3.5,0 0.5,-0.5 4,0 0.5,-0.5 3.5,0 0.5,-0.5 4,0 0.5,-0.5 4.5,0"
           inkscape:connector-curvature="0" />
        <path
           id="path3125"
           style="fill:none;stroke:#000000;stroke-width:2.5;stroke-linecap:butt;stroke-linejoin:miter;stroke-miterlimit:3.79999995;stroke-opacity:1;stroke-dasharray:none"
           d="m 3752.5,92.5 0.5,-0.5 5,0 0.5,-0.5 5,0 0.5,-0.5 5.5,0 0,-0.5 5.5,0 0.5,-0.5 6.5,0 0.5,-0.5 6.5,0 0.5,-0.5 7.5,0 0.5,-0.5 6.5,0"
           inkscape:connector-curvature="0" />
        <path
           id="path3127"
           style="fill:none;stroke:#000000;stroke-width:2.5;stroke-linecap:butt;stroke-linejoin:miter;stroke-miterlimit:3.79999995;stroke-opacity:1;stroke-dasharray:none"
           d="m 3804,88.5 1.5,0 0.5,-0.5 9,0 0.5,-0.5 10.5,0 0.5,-0.5 12,0 0.5,-0.5 14.5,0 0.5,-0.5 2,0"
           inkscape:connector-curvature="0" />
        <path
           id="path3129"
           style="fill:none;stroke:#000000;stroke-width:2.5;stroke-linecap:butt;stroke-linejoin:miter;stroke-miterlimit:3.79999995;stroke-opacity:1;stroke-dasharray:none"
           d="m 3856,86 16,0 0.5,-0.5 23.5,0 0.5,-0.5 11.5,0"
           inkscape:connector-curvature="0" />
        <path
           id="path3131"
           style="fill:none;stroke:#000000;stroke-width:2.5;stroke-linecap:butt;stroke-linejoin:miter;stroke-miterlimit:3.79999995;stroke-opacity:1;stroke-dasharray:none"
           d="m 3908,85 23,0 0.5,-0.5 28.5,0"
           inkscape:connector-curvature="0" />
        <path
           id="path3133"
           style="fill:none;stroke:#000000;stroke-width:2.5;stroke-linecap:butt;stroke-linejoin:miter;stroke-miterlimit:3.79999995;stroke-opacity:1;stroke-dasharray:none"
           d="m 3960,84.5 43.5,0 0.5,-0.5 8,0"
           inkscape:connector-curvature="0" />
        <path
           id="path3135"
           style="fill:none;stroke:#000000;stroke-width:2.5;stroke-linecap:butt;stroke-linejoin:miter;stroke-miterlimit:3.79999995;stroke-opacity:1;stroke-dasharray:none"
           d="m 4012,84 52,0"
           inkscape:connector-curvature="0" />
        <path
           id="path3137"
           style="fill:none;stroke:#000000;stroke-width:2.5;stroke-linecap:butt;stroke-linejoin:miter;stroke-miterlimit:3.79999995;stroke-opacity:1;stroke-dasharray:none"
           d="m 4064,84 52,0"
           inkscape:connector-curvature="0" />
        <path
           id="path3139"
           style="fill:none;stroke:#000000;stroke-width:2.5;stroke-linecap:butt;stroke-linejoin:miter;stroke-miterlimit:3.79999995;stroke-opacity:1;stroke-dasharray:none"
           d="m 4116,84 52,0"
           inkscape:connector-curvature="0" />
        <path
           id="path3141"
           style="fill:none;stroke:#000000;stroke-width:2.5;stroke-linecap:butt;stroke-linejoin:miter;stroke-miterlimit:3.79999995;stroke-opacity:1;stroke-dasharray:none"
           d="m 4168,84 52,0"
           inkscape:connector-curvature="0" />
        <path
           id="path3143"
           style="fill:none;stroke:#000000;stroke-width:2.5;stroke-linecap:butt;stroke-linejoin:miter;stroke-miterlimit:3.79999995;stroke-opacity:1;stroke-dasharray:none"
           d="m 4220,84 52,0"
           inkscape:connector-curvature="0" />
        <path
           id="path3145"
           style="fill:none;stroke:#000000;stroke-width:2.5;stroke-linecap:butt;stroke-linejoin:miter;stroke-miterlimit:3.79999995;stroke-opacity:1;stroke-dasharray:none"
           d="m 4272,84 52,0"
           inkscape:connector-curvature="0" />
        <path
           id="path3147"
           style="fill:none;stroke:#000000;stroke-width:2.5;stroke-linecap:butt;stroke-linejoin:miter;stroke-miterlimit:3.79999995;stroke-opacity:1;stroke-dasharray:none"
           d="m 4324,84 52,0"
           inkscape:connector-curvature="0" />
        <path
           id="path3149"
           style="fill:none;stroke:#000000;stroke-width:2.5;stroke-linecap:butt;stroke-linejoin:miter;stroke-miterlimit:3.79999995;stroke-opacity:1;stroke-dasharray:none"
           d="m 4376,84 52,0"
           inkscape:connector-curvature="0" />
        <path
           id="path3151"
           style="fill:none;stroke:#000000;stroke-width:2.5;stroke-linecap:butt;stroke-linejoin:miter;stroke-miterlimit:3.79999995;stroke-opacity:1;stroke-dasharray:none"
           d="m 4428,84 52,0"
           inkscape:connector-curvature="0" />
        <path
           id="path3153"
           style="fill:none;stroke:#000000;stroke-width:2.5;stroke-linecap:butt;stroke-linejoin:miter;stroke-miterlimit:3.79999995;stroke-opacity:1;stroke-dasharray:none"
           d="m 4480,84 52,0"
           inkscape:connector-curvature="0" />
        <path
           id="path3155"
           style="fill:none;stroke:#000000;stroke-width:2.5;stroke-linecap:butt;stroke-linejoin:miter;stroke-miterlimit:3.79999995;stroke-opacity:1;stroke-dasharray:none"
           d="m 4532,84 52,0"
           inkscape:connector-curvature="0" />
        <path
           id="path3157"
           style="fill:none;stroke:#000000;stroke-width:2.5;stroke-linecap:butt;stroke-linejoin:miter;stroke-miterlimit:3.79999995;stroke-opacity:1;stroke-dasharray:none"
           d="m 4584,84 52,0"
           inkscape:connector-curvature="0" />
        <path
           id="path3159"
           style="fill:none;stroke:#000000;stroke-width:2.5;stroke-linecap:butt;stroke-linejoin:miter;stroke-miterlimit:3.79999995;stroke-opacity:1;stroke-dasharray:none"
           d="m 4636,84 52,0"
           inkscape:connector-curvature="0" />
        <path
           id="path3161"
           style="fill:none;stroke:#000000;stroke-width:2.5;stroke-linecap:butt;stroke-linejoin:miter;stroke-miterlimit:3.79999995;stroke-opacity:1;stroke-dasharray:none"
           d="m 4688,84 52,0"
           inkscape:connector-curvature="0" />
        <path
           id="path3163"
           style="fill:none;stroke:#000000;stroke-width:2.5;stroke-linecap:butt;stroke-linejoin:miter;stroke-miterlimit:3.79999995;stroke-opacity:1;stroke-dasharray:none"
           d="m 4740,84 52,0"
           inkscape:connector-curvature="0" />
        <path
           id="path3165"
           style="fill:none;stroke:#000000;stroke-width:2.5;stroke-linecap:butt;stroke-linejoin:miter;stroke-miterlimit:3.79999995;stroke-opacity:1;stroke-dasharray:none"
           d="m 4792,84 52,0"
           inkscape:connector-curvature="0" />
        <path
           id="path3167"
           style="fill:none;stroke:#000000;stroke-width:2.5;stroke-linecap:butt;stroke-linejoin:miter;stroke-miterlimit:3.79999995;stroke-opacity:1;stroke-dasharray:none"
           d="m 4844,84 52,0"
           inkscape:connector-curvature="0" />
        <path
           id="path3169"
           style="fill:none;stroke:#000000;stroke-width:2.5;stroke-linecap:butt;stroke-linejoin:miter;stroke-miterlimit:3.79999995;stroke-opacity:1;stroke-dasharray:none"
           d="m 4896,84 52,0"
           inkscape:connector-curvature="0" />
        <path
           id="path3171"
           style="fill:none;stroke:#000000;stroke-width:2.5;stroke-linecap:butt;stroke-linejoin:miter;stroke-miterlimit:3.79999995;stroke-opacity:1;stroke-dasharray:none"
           d="m 4948,84 52,0"
           inkscape:connector-curvature="0" />
        <path
           id="path3173"
           style="fill:none;stroke:#000000;stroke-width:2.5;stroke-linecap:butt;stroke-linejoin:miter;stroke-miterlimit:3.79999995;stroke-opacity:1;stroke-dasharray:none"
           d="m 5000,84 52,0"
           inkscape:connector-curvature="0" />
        <path
           id="path3175"
           style="fill:none;stroke:#000000;stroke-width:2.5;stroke-linecap:butt;stroke-linejoin:miter;stroke-miterlimit:3.79999995;stroke-opacity:1;stroke-dasharray:none"
           d="m 5052,84 52,0"
           inkscape:connector-curvature="0" />
        <path
           id="path3177"
           style="fill:none;stroke:#000000;stroke-width:2.5;stroke-linecap:butt;stroke-linejoin:miter;stroke-miterlimit:3.79999995;stroke-opacity:1;stroke-dasharray:none"
           d="m 5104,84 25,0"
           inkscape:connector-curvature="0" />
        <path
           id="path3179"
           style="fill:none;stroke:#000000;stroke-width:5;stroke-linecap:butt;stroke-linejoin:miter;stroke-miterlimit:3.79999995;stroke-opacity:1;stroke-dasharray:none"
           d="m 630,84 4499,0 0,1847.5 -4499,0 L 630,84 z"
           inkscape:connector-curvature="0" />
      </g>
    </g>
    <path
       style="fill:#00ffff;stroke:#000000;stroke-width:1.05969357000000008px;stroke-linecap:butt;stroke-linejoin:miter;stroke-opacity:1"
       d="m 374.95977,417.41792 0.003,210.22554"
       id="path3287"
       inkscape:path-effect="#path-effect3289"
       inkscape:original-d="m 374.95977,417.41792 c 0.003,210.22554 0.003,210.22554 0.003,210.22554"
       inkscape:connector-curvature="0" />
    <g
       style="font-style:normal;font-variant:normal;font-weight:normal;font-stretch:normal;letter-spacing:normal;word-spacing:normal;text-anchor:start;fill:none;stroke:#000000;stroke-linecap:butt;stroke-linejoin:miter;stroke-miterlimit:10.43299961;stroke-opacity:1;stroke-dasharray:none;stroke-dashoffset:0"
       id="content"
       transform="matrix(4.2671496,0,0,-4.0413685,-591.9688,3509.2288)"
       xml:space="preserve"
       stroke-miterlimit="10.433"
       font-style="normal"
       font-variant="normal"
       font-weight="normal"
       font-stretch="normal"
       font-size-adjust="none"
       letter-spacing="normal"
       word-spacing="normal"
       ns0:text="$\\mu$"
       ns0:preamble=""><path
         style="fill:#000000;stroke-width:0"
         inkscape:connector-curvature="0"
         d="m 225.73,710.61 0,0.02 0.01,0.02 0.01,0.02 0,0.03 0.01,0.02 0,0.02 0.01,0.05 0.02,0.05 0.01,0.05 0.01,0.05 0.01,0.05 0.01,0.02 0,0.03 0.01,0.02 0.01,0.02 0,0.02 0,0.02 0.01,0.02 0,0.02 0.01,0.01 0,0.02 0,0.01 0,0.01 0.01,0.01 0,0.01 0,0.01 0,0 0,0.01 c 0,0.17 -0.12,0.27 -0.29,0.27 -0.03,0 -0.31,-0.01 -0.4,-0.36 l -1.43,-5.75 c -0.03,-0.12 -0.03,-0.14 -0.03,-0.16 0,-0.15 0.11,-0.27 0.28,-0.27 0.21,0 0.33,0.18 0.35,0.21 0.04,0.09 0.17,0.6 0.54,2.13 0.32,-0.27 0.77,-0.3 0.97,-0.3 0.7,0 1.08,0.44 1.32,0.72 0.09,-0.45 0.46,-0.72 0.9,-0.72 0.35,0 0.57,0.22 0.73,0.54 0.17,0.36 0.3,0.97 0.3,0.99 0,0.1 -0.09,0.1 -0.12,0.1 -0.1,0 -0.11,-0.05 -0.14,-0.18 -0.16,-0.65 -0.34,-1.24 -0.75,-1.24 -0.27,0 -0.3,0.26 -0.3,0.46 0,0.22 0.12,0.69 0.2,1.03 l 0.28,1.08 c 0.03,0.15 0.13,0.52 0.17,0.67 0.05,0.23 0.15,0.61 0.15,0.67 0,0.18 -0.14,0.27 -0.29,0.27 -0.05,0 -0.31,-0.01 -0.39,-0.35 l -0.47,-1.86 c -0.12,-0.5 -0.23,-0.91 -0.26,-1.01 -0.01,-0.05 -0.49,-0.96 -1.29,-0.96 -0.5,0 -0.74,0.33 -0.74,0.87 0,0.29 0.07,0.56 0.14,0.84 z"
         id="path3395" /></g>    <g
       ns0:preamble=""
       ns0:text="$\\phi(t)$"
       word-spacing="normal"
       letter-spacing="normal"
       font-size-adjust="none"
       font-stretch="normal"
       font-weight="normal"
       font-variant="normal"
       font-style="normal"
       stroke-miterlimit="10.433"
       xml:space="preserve"
       transform="matrix(0,-3,-3,0,2190.3339,1214.7161)"
       id="g3601"
       style="font-style:normal;font-variant:normal;font-weight:normal;font-stretch:normal;letter-spacing:normal;word-spacing:normal;text-anchor:start;fill:none;stroke:#000000;stroke-linecap:butt;stroke-linejoin:miter;stroke-miterlimit:10.43299961;stroke-opacity:1;stroke-dasharray:none;stroke-dashoffset:0"><path
         id="path3603"
         d="m 227.78,713.78 0,0 0,0 0,0 0,0.01 0,0 0,0 0,0 0,0 0,0.01 0,0 0,0 0,0.01 0.01,0 0,0.01 0,0.01 0,0 0,0.01 0,0 0,0.01 0.01,0.02 0,0 0,0.01 0,0 0,0.01 0,0 0.01,0.01 0,0 0,0.01 0,0 0,0 0,0 0,0 0,0 0,0.01 0,0 0,0 0,0 0,0 0,0 c 0,0.01 0,0.1 -0.12,0.1 -0.1,0 -0.11,-0.03 -0.15,-0.2 l -0.58,-2.29 c -1.58,-0.05 -3.04,-1.37 -3.04,-2.73 0,-0.94 0.7,-1.72 1.91,-1.79 l 0.05,0.21 c -0.6,0.03 -1.31,0.38 -1.31,1.37 0,1.2 0.85,2.59 2.33,2.72 l -1.02,-4.09 -0.05,-0.21 c -0.08,-0.31 -0.15,-0.63 -0.23,-0.94 -0.12,-0.47 -0.22,-0.84 -0.22,-0.87 0,-0.1 0.07,-0.11 0.12,-0.11 0.05,0 0.07,0.01 0.1,0.04 0.02,0.02 0.08,0.26 0.11,0.4 l 0.38,1.48 0.05,0.21 1.02,4.09 c 0.76,-0.04 1.33,-0.5 1.33,-1.37 0,-1.18 -0.86,-2.6 -2.35,-2.72 l -0.05,-0.21 c 1.6,0.04 3.04,1.39 3.04,2.72 0,0.78 -0.52,1.7 -1.91,1.8 z"
         inkscape:connector-curvature="0"
         style="fill:#000000;stroke-width:0" /><path
         id="path3605"
         d="m 232.66,704.74 0,0.01 0,0 0,0 0,0.01 0,0 0,0 0,0.01 0,0 -0.01,0 0,0.01 0,0 0,0.01 -0.01,0 0,0.01 0,0 -0.01,0.01 0,0.01 -0.01,0 0,0.01 -0.01,0 0,0.01 0,0 -0.01,0 0,0.01 -0.01,0 0,0.01 0,0 -0.01,0.01 0,0 -0.01,0.01 0,0 -0.01,0.01 -0.01,0.01 0,0 -0.01,0.01 0,0.01 -0.01,0 -0.01,0.01 -0.01,0.01 0,0 -0.01,0.01 -0.01,0.01 c -1.24,1.25 -1.56,3.13 -1.56,4.65 0,1.73 0.38,3.46 1.6,4.7 0.13,0.12 0.13,0.14 0.13,0.17 0,0.07 -0.04,0.1 -0.1,0.1 -0.1,0 -0.99,-0.68 -1.58,-1.94 -0.51,-1.09 -0.63,-2.2 -0.63,-3.03 0,-0.78 0.11,-1.98 0.66,-3.1 0.6,-1.22 1.45,-1.87 1.55,-1.87 0.06,0 0.1,0.03 0.1,0.1 z"
         inkscape:connector-curvature="0"
         style="fill:#000000;stroke-width:0" /><path
         id="path3607"
         d="m 235.29,711.1 h 0.94 c 0.2,0 0.3,0 0.3,0.2 0,0.11 -0.1,0.11 -0.28,0.11 h -0.88 c 0.36,1.41 0.41,1.61 0.41,1.67 0,0.16 -0.12,0.26 -0.29,0.26 -0.03,0 -0.31,-0.01 -0.4,-0.35 l -0.38,-1.58 h -0.94 c -0.2,0 -0.3,0 -0.3,-0.19 0,-0.12 0.08,-0.12 0.28,-0.12 h 0.88 c -0.72,-2.82 -0.76,-2.99 -0.76,-3.17 0,-0.54 0.38,-0.91 0.92,-0.91 1.01,0 1.58,1.45 1.58,1.53 0,0.1 -0.08,0.1 -0.12,0.1 -0.09,0 -0.1,-0.04 -0.15,-0.14 -0.43,-1.04 -0.96,-1.28 -1.3,-1.28 -0.2,0 -0.3,0.13 -0.3,0.46 0,0.24 0.02,0.31 0.06,0.48 z"
         inkscape:connector-curvature="0"
         style="fill:#000000;stroke-width:0" /><path
         id="path3609"
         d="m 239.71,709.61 0,0.07 0,0.08 0,0.08 0,0.08 -0.01,0.17 -0.01,0.17 -0.02,0.18 -0.02,0.19 -0.03,0.2 -0.03,0.2 -0.04,0.2 -0.04,0.21 -0.06,0.21 -0.06,0.21 -0.07,0.21 -0.08,0.21 -0.04,0.11 -0.04,0.11 -0.05,0.1 -0.05,0.11 c -0.6,1.22 -1.45,1.87 -1.55,1.87 -0.06,0 -0.1,-0.04 -0.1,-0.1 0,-0.03 0,-0.05 0.19,-0.23 0.97,-0.99 1.54,-2.57 1.54,-4.64 0,-1.7 -0.37,-3.45 -1.6,-4.7 -0.13,-0.12 -0.13,-0.14 -0.13,-0.17 0,-0.06 0.04,-0.1 0.1,-0.1 0.1,0 0.99,0.68 1.58,1.94 0.51,1.09 0.62,2.19 0.62,3.03 z"
         inkscape:connector-curvature="0"
         style="fill:#000000;stroke-width:0" /></g>  </g>
</svg>
