<?xml version="1.0" encoding="UTF-8" standalone="no"?>
<!-- Created with Inkscape (http://www.inkscape.org/) -->

<svg
   xmlns:ns0="http://www.iki.fi/pav/software/textext/"
   xmlns:dc="http://purl.org/dc/elements/1.1/"
   xmlns:cc="http://creativecommons.org/ns#"
   xmlns:rdf="http://www.w3.org/1999/02/22-rdf-syntax-ns#"
   xmlns:svg="http://www.w3.org/2000/svg"
   xmlns="http://www.w3.org/2000/svg"
   xmlns:sodipodi="http://sodipodi.sourceforge.net/DTD/sodipodi-0.dtd"
   xmlns:inkscape="http://www.inkscape.org/namespaces/inkscape"
   width="210mm"
   height="297mm"
   id="svg2"
   version="1.1"
   inkscape:version="0.48.4 r9939"
   sodipodi:docname="phi0.01.eps">
  <sodipodi:namedview
     id="base"
     pagecolor="#ffffff"
     bordercolor="#666666"
     borderopacity="1.0"
     inkscape:pageopacity="0.0"
     inkscape:pageshadow="2"
     inkscape:zoom="0.98994949"
     inkscape:cx="385.64014"
     inkscape:cy="582.5717"
     inkscape:document-units="px"
     inkscape:current-layer="layer1"
     showgrid="false"
     inkscape:window-width="985"
     inkscape:window-height="685"
     inkscape:window-x="787"
     inkscape:window-y="70"
     inkscape:window-maximized="0" />
  <defs
     id="defs4" />
  <metadata
     id="metadata7">
    <rdf:RDF>
      <cc:Work
         rdf:about="">
        <dc:format>image/svg+xml</dc:format>
        <dc:type
           rdf:resource="http://purl.org/dc/dcmitype/StillImage" />
        <dc:title></dc:title>
      </cc:Work>
    </rdf:RDF>
  </metadata>
  <g
     inkscape:label="レイヤー 1"
     inkscape:groupmode="layer"
     id="layer1">
    <g
       id="g3024"
       inkscape:label="ink_ext_XXXXXX"
       transform="matrix(1.25,0,0,-1.25,36.218827,569.47353)">
      <g
         id="g3026"
         transform="scale(0.1,0.1)">
        <path
           inkscape:connector-curvature="0"
           d="m 830,469 31.5,0 m 3027.5,0 -31.5,0"
           style="fill:none;stroke:#000000;stroke-width:5;stroke-linecap:butt;stroke-linejoin:miter;stroke-miterlimit:3.79999995;stroke-opacity:1;stroke-dasharray:none"
           id="path3028" />
        <g
           id="g3030"
           transform="scale(10,10)">
          <text
             transform="matrix(1,0,0,-1,71.05,41.7352)"
             id="text3032">
            <tspan
               style="font-size:15.5px;font-variant:normal;font-weight:normal;writing-mode:lr-tb;fill:#000000;fill-opacity:1;fill-rule:nonzero;stroke:none;font-family:Times New Roman;-inkscape-font-specification:Times New"
               x="0"
               y="0"
               id="tspan3034">0</tspan>
          </text>
        </g>
        <path
           inkscape:connector-curvature="0"
           d="m 830,731 31.5,0 m 3027.5,0 -31.5,0"
           style="fill:none;stroke:#000000;stroke-width:5;stroke-linecap:butt;stroke-linejoin:miter;stroke-miterlimit:3.79999995;stroke-opacity:1;stroke-dasharray:none"
           id="path3036" />
        <g
           id="g3038"
           transform="scale(10,10)">
          <text
             transform="matrix(1,0,0,-1,71.05,67.9352)"
             id="text3040">
            <tspan
               style="font-size:15.5px;font-variant:normal;font-weight:normal;writing-mode:lr-tb;fill:#000000;fill-opacity:1;fill-rule:nonzero;stroke:none;font-family:Times New Roman;-inkscape-font-specification:Times New"
               x="0"
               y="0"
               id="tspan3042">5</tspan>
          </text>
        </g>
        <path
           inkscape:connector-curvature="0"
           d="m 830,993.5 31.5,0 m 3027.5,0 -31.5,0"
           style="fill:none;stroke:#000000;stroke-width:5;stroke-linecap:butt;stroke-linejoin:miter;stroke-miterlimit:3.79999995;stroke-opacity:1;stroke-dasharray:none"
           id="path3044" />
        <g
           id="g3046"
           transform="scale(10,10)">
          <text
             transform="matrix(1,0,0,-1,63.3,94.1852)"
             id="text3048">
            <tspan
               style="font-size:15.5px;font-variant:normal;font-weight:normal;writing-mode:lr-tb;fill:#000000;fill-opacity:1;fill-rule:nonzero;stroke:none;font-family:Times New Roman;-inkscape-font-specification:Times New"
               x="0 7.75"
               y="0"
               sodipodi:role="line"
               id="tspan3050">10</tspan>
          </text>
        </g>
        <path
           inkscape:connector-curvature="0"
           d="m 830,1255.5 31.5,0 m 3027.5,0 -31.5,0"
           style="fill:none;stroke:#000000;stroke-width:5;stroke-linecap:butt;stroke-linejoin:miter;stroke-miterlimit:3.79999995;stroke-opacity:1;stroke-dasharray:none"
           id="path3052" />
        <g
           id="g3054"
           transform="scale(10,10)">
          <text
             transform="matrix(1,0,0,-1,63.3,120.385)"
             id="text3056">
            <tspan
               style="font-size:15.5px;font-variant:normal;font-weight:normal;writing-mode:lr-tb;fill:#000000;fill-opacity:1;fill-rule:nonzero;stroke:none;font-family:Times New Roman;-inkscape-font-specification:Times New"
               x="0 7.75"
               y="0"
               sodipodi:role="line"
               id="tspan3058">15</tspan>
          </text>
        </g>
        <path
           inkscape:connector-curvature="0"
           d="m 830,1518 31.5,0 m 3027.5,0 -31.5,0"
           style="fill:none;stroke:#000000;stroke-width:5;stroke-linecap:butt;stroke-linejoin:miter;stroke-miterlimit:3.79999995;stroke-opacity:1;stroke-dasharray:none"
           id="path3060" />
        <g
           id="g3062"
           transform="scale(10,10)">
          <text
             transform="matrix(1,0,0,-1,63.3,146.635)"
             id="text3064">
            <tspan
               style="font-size:15.5px;font-variant:normal;font-weight:normal;writing-mode:lr-tb;fill:#000000;fill-opacity:1;fill-rule:nonzero;stroke:none;font-family:Times New Roman;-inkscape-font-specification:Times New"
               x="0 7.75"
               y="0"
               sodipodi:role="line"
               id="tspan3066">20</tspan>
          </text>
        </g>
        <path
           inkscape:connector-curvature="0"
           d="m 830,1780 31.5,0 m 3027.5,0 -31.5,0"
           style="fill:none;stroke:#000000;stroke-width:5;stroke-linecap:butt;stroke-linejoin:miter;stroke-miterlimit:3.79999995;stroke-opacity:1;stroke-dasharray:none"
           id="path3068" />
        <g
           id="g3070"
           transform="scale(10,10)">
          <text
             transform="matrix(1,0,0,-1,63.3,172.835)"
             id="text3072">
            <tspan
               style="font-size:15.5px;font-variant:normal;font-weight:normal;writing-mode:lr-tb;fill:#000000;fill-opacity:1;fill-rule:nonzero;stroke:none;font-family:Times New Roman;-inkscape-font-specification:Times New"
               x="0 7.75"
               y="0"
               sodipodi:role="line"
               id="tspan3074">25</tspan>
          </text>
        </g>
        <path
           inkscape:connector-curvature="0"
           d="m 830,2042.5 31.5,0 m 3027.5,0 -31.5,0"
           style="fill:none;stroke:#000000;stroke-width:5;stroke-linecap:butt;stroke-linejoin:miter;stroke-miterlimit:3.79999995;stroke-opacity:1;stroke-dasharray:none"
           id="path3076" />
        <g
           id="g3078"
           transform="scale(10,10)">
          <text
             transform="matrix(1,0,0,-1,63.3,199.085)"
             id="text3080">
            <tspan
               style="font-size:15.5px;font-variant:normal;font-weight:normal;writing-mode:lr-tb;fill:#000000;fill-opacity:1;fill-rule:nonzero;stroke:none;font-family:Times New Roman;-inkscape-font-specification:Times New"
               x="0 7.75"
               y="0"
               sodipodi:role="line"
               id="tspan3082">30</tspan>
          </text>
        </g>
        <path
           inkscape:connector-curvature="0"
           d="m 830,2304.5 31.5,0 m 3027.5,0 -31.5,0"
           style="fill:none;stroke:#000000;stroke-width:5;stroke-linecap:butt;stroke-linejoin:miter;stroke-miterlimit:3.79999995;stroke-opacity:1;stroke-dasharray:none"
           id="path3084" />
        <g
           id="g3086"
           transform="scale(10,10)">
          <text
             transform="matrix(1,0,0,-1,63.3,225.285)"
             id="text3088">
            <tspan
               style="font-size:15.5px;font-variant:normal;font-weight:normal;writing-mode:lr-tb;fill:#000000;fill-opacity:1;fill-rule:nonzero;stroke:none;font-family:Times New Roman;-inkscape-font-specification:Times New"
               x="0 7.75"
               y="0"
               sodipodi:role="line"
               id="tspan3090">35</tspan>
          </text>
        </g>
        <path
           inkscape:connector-curvature="0"
           d="m 1548.5,469 0,31.5 m 0,1804 0,-31.5"
           style="fill:none;stroke:#000000;stroke-width:5;stroke-linecap:butt;stroke-linejoin:miter;stroke-miterlimit:3.79999995;stroke-opacity:1;stroke-dasharray:none"
           id="path3092" />
        <g
           id="g3094"
           transform="scale(10,10)">
          <text
             transform="matrix(1,0,0,-1,141.287,34.7352)"
             id="text3096">
            <tspan
               style="font-size:15.5px;font-variant:normal;font-weight:normal;writing-mode:lr-tb;fill:#000000;fill-opacity:1;fill-rule:nonzero;stroke:none;font-family:Times New Roman;-inkscape-font-specification:Times New"
               x="0 7.75 11.625 19.375"
               y="0"
               sodipodi:role="line"
               id="tspan3098">0.05</tspan>
          </text>
        </g>
        <path
           inkscape:connector-curvature="0"
           d="m 2280,469 0,31.5 m 0,1804 0,-31.5"
           style="fill:none;stroke:#000000;stroke-width:5;stroke-linecap:butt;stroke-linejoin:miter;stroke-miterlimit:3.79999995;stroke-opacity:1;stroke-dasharray:none"
           id="path3100" />
        <g
           id="g3102"
           transform="scale(10,10)">
          <text
             transform="matrix(1,0,0,-1,214.438,34.7352)"
             id="text3104">
            <tspan
               style="font-size:15.5px;font-variant:normal;font-weight:normal;writing-mode:lr-tb;fill:#000000;fill-opacity:1;fill-rule:nonzero;stroke:none;font-family:Times New Roman;-inkscape-font-specification:Times New"
               x="0 7.75 11.625 19.375"
               y="0"
               sodipodi:role="line"
               id="tspan3106">0.10</tspan>
          </text>
        </g>
        <path
           inkscape:connector-curvature="0"
           d="m 3011,469 0,31.5 m 0,1804 0,-31.5"
           style="fill:none;stroke:#000000;stroke-width:5;stroke-linecap:butt;stroke-linejoin:miter;stroke-miterlimit:3.79999995;stroke-opacity:1;stroke-dasharray:none"
           id="path3108" />
        <g
           id="g3110"
           transform="scale(10,10)">
          <text
             transform="matrix(1,0,0,-1,287.538,34.7352)"
             id="text3112">
            <tspan
               style="font-size:15.5px;font-variant:normal;font-weight:normal;writing-mode:lr-tb;fill:#000000;fill-opacity:1;fill-rule:nonzero;stroke:none;font-family:Times New Roman;-inkscape-font-specification:Times New"
               x="0 7.75 11.625 19.375"
               y="0"
               sodipodi:role="line"
               id="tspan3114">0.15</tspan>
          </text>
        </g>
        <path
           inkscape:connector-curvature="0"
           d="m 3742.5,469 0,31.5 m 0,1804 0,-31.5"
           style="fill:none;stroke:#000000;stroke-width:5;stroke-linecap:butt;stroke-linejoin:miter;stroke-miterlimit:3.79999995;stroke-opacity:1;stroke-dasharray:none"
           id="path3116" />
        <g
           id="g3118"
           transform="scale(10,10)">
          <text
             transform="matrix(1,0,0,-1,360.688,34.7352)"
             id="text3120">
            <tspan
               style="font-size:15.5px;font-variant:normal;font-weight:normal;writing-mode:lr-tb;fill:#000000;fill-opacity:1;fill-rule:nonzero;stroke:none;font-family:Times New Roman;-inkscape-font-specification:Times New"
               x="0 7.75 11.625 19.375"
               y="0"
               sodipodi:role="line"
               id="tspan3122">0.20</tspan>
          </text>
        </g>
        <path
           inkscape:connector-curvature="0"
           d="m 830,469 3059,0 0,1835.5 -3059,0 0,-1835.5 z"
           style="fill:none;stroke:#000000;stroke-width:5;stroke-linecap:butt;stroke-linejoin:miter;stroke-miterlimit:3.79999995;stroke-opacity:1;stroke-dasharray:none"
           id="path3124" />
        <g
           id="g3126"
           transform="scale(10,10)">
          <text
             transform="matrix(1,0,0,-1,209.477,3.23516)"
             id="text3128">
            <tspan
               style="font-size:15.5px;font-variant:normal;font-weight:normal;writing-mode:lr-tb;fill:#000000;fill-opacity:1;fill-rule:nonzero;stroke:none;font-family:Times New Roman;-inkscape-font-specification:Times"
               x="0 9.4705 13.7795 25.838499 32.720501 36.595501 41.757 47.786499"
               y="0"
               sodipodi:role="line"
               id="tspan3130">Time [s]</tspan>
          </text>
        </g>
        <path
           inkscape:connector-curvature="0"
           d="m 830,469 741.5,0 31,0.5 31,0 31,1 30.5,1 31,2 31,4 31,5.5 31,9.5 30.5,14.5 31,21.5 31,31.5 31,43.5 31,59.5 30.5,77.5 31,98 31,119 31,139.5 31,156.5 30.5,167.5 31,171 31,164.5 31,147 31,119 30.5,81 31,37.5 31,-10.5 31,-56.5 30.5,-98 31,-132.5 31,-155.5 31,-168.5 31,-171 30.5,-163.5 31,-149.5 31,-131 31,-110.5 31,-89 30.5,-69.5 31,-52.5 31,-38 31,-26.5 31,-18.5 30.5,-12 31,-7.5 31,-5 31,-3 31,-1.5 30.5,-1 31,-0.5 31,0 31,-0.5 741.5,0"
           style="fill:none;stroke:#000000;stroke-width:2.5;stroke-linecap:butt;stroke-linejoin:miter;stroke-miterlimit:3.79999995;stroke-opacity:1;stroke-dasharray:none"
           id="path3132" />
        <path
           inkscape:connector-curvature="0"
           d="m 830,469 3059,0 0,1835.5 -3059,0 0,-1835.5 z"
           style="fill:none;stroke:#000000;stroke-width:5;stroke-linecap:butt;stroke-linejoin:miter;stroke-miterlimit:3.79999995;stroke-opacity:1;stroke-dasharray:none"
           id="path3134" />
      </g>
    </g>
    <g
       ns0:preamble=""
       ns0:text="$\\phi(t)$"
       word-spacing="normal"
       letter-spacing="normal"
       font-size-adjust="none"
       font-stretch="normal"
       font-weight="normal"
       font-variant="normal"
       font-style="normal"
       stroke-miterlimit="10.433"
       xml:space="preserve"
       transform="matrix(0,-2.240692,-1.9760352,0,876.74344,716.15087)"
       id="content"
       style="font-style:normal;font-variant:normal;font-weight:normal;font-stretch:normal;letter-spacing:normal;word-spacing:normal;text-anchor:start;fill:none;stroke:#000000;stroke-linecap:butt;stroke-linejoin:miter;stroke-miterlimit:10.43299961;stroke-opacity:1;stroke-dasharray:none;stroke-dashoffset:0"><path
         id="path3254"
         d="m 139.39165,404.16824 0,0 0,0 0,0 0,0.01 0,0 0,0 0,0 0,0 0,0.01 0,0 0,0 0,0.01 0.01,0 0,0.01 0,0.01 0,0 0,0.01 0,0 0,0.01 0.01,0.02 0,0 0,0.01 0,0 0,0.01 0,0 0.01,0.01 0,0 0,0.01 0,0 0,0 0,0 0,0 0,0 0,0.01 0,0 0,0 0,0 0,0 0,0 c 0,0.01 0,0.1 -0.12,0.1 -0.1,0 -0.11,-0.03 -0.15,-0.2 l -0.58,-2.29 c -1.58,-0.05 -3.04,-1.37 -3.04,-2.73 0,-0.94 0.7,-1.72 1.91,-1.79 l 0.05,0.21 c -0.6,0.03 -1.31,0.38 -1.31,1.37 0,1.2 0.85,2.59 2.33,2.72 l -1.02,-4.09 -0.05,-0.21 c -0.08,-0.31 -0.15,-0.63 -0.23,-0.94 -0.12,-0.47 -0.22,-0.84 -0.22,-0.87 0,-0.1 0.07,-0.11 0.12,-0.11 0.05,0 0.07,0.01 0.1,0.04 0.02,0.02 0.08,0.26 0.11,0.4 l 0.38,1.48 0.05,0.21 1.02,4.09 c 0.76,-0.04 1.33,-0.5 1.33,-1.37 0,-1.18 -0.86,-2.6 -2.35,-2.72 l -0.05,-0.21 c 1.6,0.04 3.04,1.39 3.04,2.72 0,0.78 -0.52,1.7 -1.91,1.8 z"
         inkscape:connector-curvature="0"
         style="fill:#000000;stroke-width:0" /><path
         id="path3256"
         d="m 144.27165,395.12824 0,0.01 0,0 0,0 0,0.01 0,0 0,0 0,0.01 0,0 -0.01,0 0,0.01 0,0 0,0.01 -0.01,0 0,0.01 0,0 -0.01,0.01 0,0.01 -0.01,0 0,0.01 -0.01,0 0,0.01 0,0 -0.01,0 0,0.01 -0.01,0 0,0.01 0,0 -0.01,0.01 0,0 -0.01,0.01 0,0 -0.01,0.01 -0.01,0.01 0,0 -0.01,0.01 0,0.01 -0.01,0 -0.01,0.01 -0.01,0.01 0,0 -0.01,0.01 -0.01,0.01 c -1.24,1.25 -1.56,3.13 -1.56,4.65 0,1.73 0.38,3.46 1.6,4.7 0.13,0.12 0.13,0.14 0.13,0.17 0,0.07 -0.04,0.1 -0.1,0.1 -0.1,0 -0.99,-0.68 -1.58,-1.94 -0.51,-1.09 -0.63,-2.2 -0.63,-3.03 0,-0.78 0.11,-1.98 0.66,-3.1 0.6,-1.22 1.45,-1.87 1.55,-1.87 0.06,0 0.1,0.03 0.1,0.1 z"
         inkscape:connector-curvature="0"
         style="fill:#000000;stroke-width:0" /><path
         id="path3258"
         d="m 146.90165,401.48824 h 0.94 c 0.2,0 0.3,0 0.3,0.2 0,0.11 -0.1,0.11 -0.28,0.11 h -0.88 c 0.36,1.41 0.41,1.61 0.41,1.67 0,0.16 -0.12,0.26 -0.29,0.26 -0.03,0 -0.31,-0.01 -0.4,-0.35 l -0.38,-1.58 h -0.94 c -0.2,0 -0.3,0 -0.3,-0.19 0,-0.12 0.08,-0.12 0.28,-0.12 h 0.88 c -0.72,-2.82 -0.76,-2.99 -0.76,-3.17 0,-0.54 0.38,-0.91 0.92,-0.91 1.01,0 1.58,1.45 1.58,1.53 0,0.1 -0.08,0.1 -0.12,0.1 -0.09,0 -0.1,-0.04 -0.15,-0.14 -0.43,-1.04 -0.96,-1.28 -1.3,-1.28 -0.2,0 -0.3,0.13 -0.3,0.46 0,0.24 0.02,0.31 0.06,0.48 z"
         inkscape:connector-curvature="0"
         style="fill:#000000;stroke-width:0" /><path
         id="path3260"
         d="m 151.32165,399.99824 0,0.07 0,0.08 0,0.08 0,0.08 -0.01,0.17 -0.01,0.17 -0.02,0.18 -0.02,0.19 -0.03,0.2 -0.03,0.2 -0.04,0.2 -0.04,0.21 -0.06,0.21 -0.06,0.21 -0.07,0.21 -0.08,0.21 -0.04,0.11 -0.04,0.11 -0.05,0.1 -0.05,0.11 c -0.6,1.22 -1.45,1.87 -1.55,1.87 -0.06,0 -0.1,-0.04 -0.1,-0.1 0,-0.03 0,-0.05 0.19,-0.23 0.97,-0.99 1.54,-2.57 1.54,-4.64 0,-1.7 -0.37,-3.45 -1.6,-4.7 -0.13,-0.12 -0.13,-0.14 -0.13,-0.17 0,-0.06 0.04,-0.1 0.1,-0.1 0.1,0 0.99,0.68 1.58,1.94 0.51,1.09 0.62,2.19 0.62,3.03 z"
         inkscape:connector-curvature="0"
         style="fill:#000000;stroke-width:0" /><flowRoot
         xml:space="preserve"
         id="flowRoot3326"
         style="font-size:18px;font-style:italic;font-variant:normal;font-weight:normal;font-stretch:normal;text-align:start;line-height:125%;letter-spacing:0px;word-spacing:0px;writing-mode:lr-tb;text-anchor:start;fill:#000000;fill-opacity:1;stroke:none;font-family:Times New Roman;-inkscape-font-specification:'Times New Roman, Italic'"
         transform="matrix(1,0,0,-1,55,829.64286)"><flowRegion
           id="flowRegion3328"><rect
             id="rect3330"
             width="41.964287"
             height="33.92857"
             x="65.714287"
             y="417.18362" /></flowRegion><flowPara
           id="flowPara3332" /></flowRoot></g>  </g>
</svg>
