<?xml version="1.0" encoding="UTF-8" standalone="no"?>
<!-- Created with Inkscape (http://www.inkscape.org/) -->

<svg
   xmlns:ns0="http://www.iki.fi/pav/software/textext/"
   xmlns:dc="http://purl.org/dc/elements/1.1/"
   xmlns:cc="http://creativecommons.org/ns#"
   xmlns:rdf="http://www.w3.org/1999/02/22-rdf-syntax-ns#"
   xmlns:svg="http://www.w3.org/2000/svg"
   xmlns="http://www.w3.org/2000/svg"
   xmlns:sodipodi="http://sodipodi.sourceforge.net/DTD/sodipodi-0.dtd"
   xmlns:inkscape="http://www.inkscape.org/namespaces/inkscape"
   width="210mm"
   height="297mm"
   id="svg2"
   version="1.1"
   inkscape:version="0.48.4 r9939"
   sodipodi:docname="phi.eps">
  <sodipodi:namedview
     id="base"
     pagecolor="#ffffff"
     bordercolor="#666666"
     borderopacity="1.0"
     inkscape:pageopacity="0.0"
     inkscape:pageshadow="2"
     inkscape:zoom="1"
     inkscape:cx="142.43555"
     inkscape:cy="666.43965"
     inkscape:document-units="px"
     inkscape:current-layer="layer1"
     showgrid="false"
     inkscape:window-width="1847"
     inkscape:window-height="1056"
     inkscape:window-x="73"
     inkscape:window-y="24"
     inkscape:window-maximized="1" />
  <defs
     id="defs4">
    <inkscape:path-effect
       effect="spiro"
       id="path-effect4924"
       is_visible="true" />
    <marker
       style="overflow:visible"
       id="TriangleOutM"
       refX="0.0"
       refY="0.0"
       orient="auto"
       inkscape:stockid="TriangleOutM">
      <path
         transform="scale(0.4)"
         style="fill-rule:evenodd;stroke:#000000;stroke-width:1.0pt"
         d="M 5.77,0.0 L -2.88,5.0 L -2.88,-5.0 L 5.77,0.0 z "
         id="path4396" />
    </marker>
    <inkscape:path-effect
       is_visible="true"
       id="path-effect3477"
       effect="spiro" />
  </defs>
  <metadata
     id="metadata7">
    <rdf:RDF>
      <cc:Work
         rdf:about="">
        <dc:format>image/svg+xml</dc:format>
        <dc:type
           rdf:resource="http://purl.org/dc/dcmitype/StillImage" />
        <dc:title></dc:title>
      </cc:Work>
    </rdf:RDF>
  </metadata>
  <g
     inkscape:label="レイヤー 1"
     inkscape:groupmode="layer"
     id="layer1">
    <g
       transform="matrix(1.25,0,0,-1.25,50.198121,628.59442)"
       inkscape:label="ink_ext_XXXXXX"
       id="g2993">
      <g
         transform="scale(0.1,0.1)"
         id="g2995">
        <path
           id="path2997"
           style="fill:none;stroke:#000000;stroke-width:5;stroke-linecap:butt;stroke-linejoin:miter;stroke-miterlimit:3.79999995;stroke-opacity:1;stroke-dasharray:none"
           d="m 630,434 31.5,0 m 4467.5,0 -31.5,0"
           inkscape:connector-curvature="0" />
        <g
           transform="scale(10,10)"
           id="g2999">
          <text
             id="text3001"
             transform="matrix(1,0,0,-1,51.05,38.2352)">
            <tspan
               id="tspan3003"
               y="0"
               x="0"
               style="font-size:15.5px;font-variant:normal;font-weight:normal;writing-mode:lr-tb;fill:#000000;fill-opacity:1;fill-rule:nonzero;stroke:none;font-family:Times New Roman;-inkscape-font-specification:Times New">0</tspan>
          </text>
        </g>
        <path
           id="path3005"
           style="fill:none;stroke:#000000;stroke-width:5;stroke-linecap:butt;stroke-linejoin:miter;stroke-miterlimit:3.79999995;stroke-opacity:1;stroke-dasharray:none"
           d="m 630,648 31.5,0 m 4467.5,0 -31.5,0"
           inkscape:connector-curvature="0" />
        <g
           transform="scale(10,10)"
           id="g3007">
          <text
             id="text3009"
             transform="matrix(1,0,0,-1,51.05,59.6352)">
            <tspan
               id="tspan3011"
               y="0"
               x="0"
               style="font-size:15.5px;font-variant:normal;font-weight:normal;writing-mode:lr-tb;fill:#000000;fill-opacity:1;fill-rule:nonzero;stroke:none;font-family:Times New Roman;-inkscape-font-specification:Times New">5</tspan>
          </text>
        </g>
        <path
           id="path3013"
           style="fill:none;stroke:#000000;stroke-width:5;stroke-linecap:butt;stroke-linejoin:miter;stroke-miterlimit:3.79999995;stroke-opacity:1;stroke-dasharray:none"
           d="m 630,862 31.5,0 m 4467.5,0 -31.5,0"
           inkscape:connector-curvature="0" />
        <g
           transform="scale(10,10)"
           id="g3015">
          <text
             id="text3017"
             transform="matrix(1,0,0,-1,43.3,81.0352)">
            <tspan
               id="tspan3019"
               sodipodi:role="line"
               y="0"
               x="0 7.75"
               style="font-size:15.5px;font-variant:normal;font-weight:normal;writing-mode:lr-tb;fill:#000000;fill-opacity:1;fill-rule:nonzero;stroke:none;font-family:Times New Roman;-inkscape-font-specification:Times New">10</tspan>
          </text>
        </g>
        <path
           id="path3021"
           style="fill:none;stroke:#000000;stroke-width:5;stroke-linecap:butt;stroke-linejoin:miter;stroke-miterlimit:3.79999995;stroke-opacity:1;stroke-dasharray:none"
           d="m 630,1076 31.5,0 m 4467.5,0 -31.5,0"
           inkscape:connector-curvature="0" />
        <g
           transform="scale(10,10)"
           id="g3023">
          <text
             id="text3025"
             transform="matrix(1,0,0,-1,43.3,102.435)">
            <tspan
               id="tspan3027"
               sodipodi:role="line"
               y="0"
               x="0 7.75"
               style="font-size:15.5px;font-variant:normal;font-weight:normal;writing-mode:lr-tb;fill:#000000;fill-opacity:1;fill-rule:nonzero;stroke:none;font-family:Times New Roman;-inkscape-font-specification:Times New">15</tspan>
          </text>
        </g>
        <path
           id="path3029"
           style="fill:none;stroke:#000000;stroke-width:5;stroke-linecap:butt;stroke-linejoin:miter;stroke-miterlimit:3.79999995;stroke-opacity:1;stroke-dasharray:none"
           d="m 630,1289.5 31.5,0 m 4467.5,0 -31.5,0"
           inkscape:connector-curvature="0" />
        <g
           transform="scale(10,10)"
           id="g3031">
          <text
             id="text3033"
             transform="matrix(1,0,0,-1,43.3,123.785)">
            <tspan
               id="tspan3035"
               sodipodi:role="line"
               y="0"
               x="0 7.75"
               style="font-size:15.5px;font-variant:normal;font-weight:normal;writing-mode:lr-tb;fill:#000000;fill-opacity:1;fill-rule:nonzero;stroke:none;font-family:Times New Roman;-inkscape-font-specification:Times New">20</tspan>
          </text>
        </g>
        <path
           id="path3037"
           style="fill:none;stroke:#000000;stroke-width:5;stroke-linecap:butt;stroke-linejoin:miter;stroke-miterlimit:3.79999995;stroke-opacity:1;stroke-dasharray:none"
           d="m 630,1503.5 31.5,0 m 4467.5,0 -31.5,0"
           inkscape:connector-curvature="0" />
        <g
           transform="scale(10,10)"
           id="g3039">
          <text
             id="text3041"
             transform="matrix(1,0,0,-1,43.3,145.185)">
            <tspan
               id="tspan3043"
               sodipodi:role="line"
               y="0"
               x="0 7.75"
               style="font-size:15.5px;font-variant:normal;font-weight:normal;writing-mode:lr-tb;fill:#000000;fill-opacity:1;fill-rule:nonzero;stroke:none;font-family:Times New Roman;-inkscape-font-specification:Times New">25</tspan>
          </text>
        </g>
        <path
           id="path3045"
           style="fill:none;stroke:#000000;stroke-width:5;stroke-linecap:butt;stroke-linejoin:miter;stroke-miterlimit:3.79999995;stroke-opacity:1;stroke-dasharray:none"
           d="m 630,1717.5 31.5,0 m 4467.5,0 -31.5,0"
           inkscape:connector-curvature="0" />
        <g
           transform="scale(10,10)"
           id="g3047">
          <text
             id="text3049"
             transform="matrix(1,0,0,-1,43.3,166.585)">
            <tspan
               id="tspan3051"
               sodipodi:role="line"
               y="0"
               x="0 7.75"
               style="font-size:15.5px;font-variant:normal;font-weight:normal;writing-mode:lr-tb;fill:#000000;fill-opacity:1;fill-rule:nonzero;stroke:none;font-family:Times New Roman;-inkscape-font-specification:Times New">30</tspan>
          </text>
        </g>
        <path
           id="path3053"
           style="fill:none;stroke:#000000;stroke-width:5;stroke-linecap:butt;stroke-linejoin:miter;stroke-miterlimit:3.79999995;stroke-opacity:1;stroke-dasharray:none"
           d="m 630,1931.5 31.5,0 m 4467.5,0 -31.5,0"
           inkscape:connector-curvature="0" />
        <g
           transform="scale(10,10)"
           id="g3055">
          <text
             id="text3057"
             transform="matrix(1,0,0,-1,43.3,187.985)">
            <tspan
               id="tspan3059"
               sodipodi:role="line"
               y="0"
               x="0 7.75"
               style="font-size:15.5px;font-variant:normal;font-weight:normal;writing-mode:lr-tb;fill:#000000;fill-opacity:1;fill-rule:nonzero;stroke:none;font-family:Times New Roman;-inkscape-font-specification:Times New">35</tspan>
          </text>
        </g>
        <path
           id="path3061"
           style="fill:none;stroke:#000000;stroke-width:5;stroke-linecap:butt;stroke-linejoin:miter;stroke-miterlimit:3.79999995;stroke-opacity:1;stroke-dasharray:none"
           d="m 630,434 0,31.5 m 0,1466 0,-31.5"
           inkscape:connector-curvature="0" />
        <g
           transform="scale(10,10)"
           id="g3063">
          <text
             id="text3065"
             transform="matrix(1,0,0,-1,49.4375,31.2352)">
            <tspan
               id="tspan3067"
               sodipodi:role="line"
               y="0"
               x="0 7.75 11.625 19.375"
               style="font-size:15.5px;font-variant:normal;font-weight:normal;writing-mode:lr-tb;fill:#000000;fill-opacity:1;fill-rule:nonzero;stroke:none;font-family:Times New Roman;-inkscape-font-specification:Times New">0.00</tspan>
          </text>
        </g>
        <path
           id="path3069"
           style="fill:none;stroke:#000000;stroke-width:5;stroke-linecap:butt;stroke-linejoin:miter;stroke-miterlimit:3.79999995;stroke-opacity:1;stroke-dasharray:none"
           d="m 844,434 0,15.5 m 0,1482 0,-15.5 m 214.5,-1482 0,15.5 m 0,1482 0,-15.5 m 214,-1482 0,15.5 m 0,1482 0,-15.5 M 1487,434 l 0,15.5 m 0,1482 0,-15.5 m 214,-1482 0,31.5 m 0,1466 0,-31.5"
           inkscape:connector-curvature="0" />
        <g
           transform="scale(10,10)"
           id="g3071">
          <text
             id="text3073"
             transform="matrix(1,0,0,-1,156.538,31.2352)">
            <tspan
               id="tspan3075"
               sodipodi:role="line"
               y="0"
               x="0 7.75 11.625 19.375"
               style="font-size:15.5px;font-variant:normal;font-weight:normal;writing-mode:lr-tb;fill:#000000;fill-opacity:1;fill-rule:nonzero;stroke:none;font-family:Times New Roman;-inkscape-font-specification:Times New">0.05</tspan>
          </text>
        </g>
        <path
           id="path3077"
           style="fill:none;stroke:#000000;stroke-width:5;stroke-linecap:butt;stroke-linejoin:miter;stroke-miterlimit:3.79999995;stroke-opacity:1;stroke-dasharray:none"
           d="m 1915.5,434 0,15.5 m 0,1482 0,-15.5 m 214,-1482 0,15.5 m 0,1482 0,-15.5 M 2344,434 l 0,15.5 m 0,1482 0,-15.5 m 214,-1482 0,15.5 m 0,1482 0,-15.5 m 214.5,-1482 0,31.5 m 0,1466 0,-31.5"
           inkscape:connector-curvature="0" />
        <g
           transform="scale(10,10)"
           id="g3079">
          <text
             id="text3081"
             transform="matrix(1,0,0,-1,263.688,31.2352)">
            <tspan
               id="tspan3083"
               sodipodi:role="line"
               y="0"
               x="0 7.75 11.625 19.375"
               style="font-size:15.5px;font-variant:normal;font-weight:normal;writing-mode:lr-tb;fill:#000000;fill-opacity:1;fill-rule:nonzero;stroke:none;font-family:Times New Roman;-inkscape-font-specification:Times New">0.10</tspan>
          </text>
        </g>
        <path
           id="path3085"
           style="fill:none;stroke:#000000;stroke-width:5;stroke-linecap:butt;stroke-linejoin:miter;stroke-miterlimit:3.79999995;stroke-opacity:1;stroke-dasharray:none"
           d="m 2986.5,434 0,15.5 m 0,1482 0,-15.5 M 3201,434 l 0,15.5 m 0,1482 0,-15.5 m 214,-1482 0,15.5 m 0,1482 0,-15.5 m 214.5,-1482 0,15.5 m 0,1482 0,-15.5 m 214,-1482 0,31.5 m 0,1466 0,-31.5"
           inkscape:connector-curvature="0" />
        <g
           transform="scale(10,10)"
           id="g3087">
          <text
             id="text3089"
             transform="matrix(1,0,0,-1,370.788,31.2352)">
            <tspan
               id="tspan3091"
               sodipodi:role="line"
               y="0"
               x="0 7.75 11.625 19.375"
               style="font-size:15.5px;font-variant:normal;font-weight:normal;writing-mode:lr-tb;fill:#000000;fill-opacity:1;fill-rule:nonzero;stroke:none;font-family:Times New Roman;-inkscape-font-specification:Times New">0.15</tspan>
          </text>
        </g>
        <path
           id="path3093"
           style="fill:none;stroke:#000000;stroke-width:5;stroke-linecap:butt;stroke-linejoin:miter;stroke-miterlimit:3.79999995;stroke-opacity:1;stroke-dasharray:none"
           d="m 4058,434 0,15.5 m 0,1482 0,-15.5 m 214,-1482 0,15.5 m 0,1482 0,-15.5 m 214.5,-1482 0,15.5 m 0,1482 0,-15.5 m 214,-1482 0,15.5 m 0,1482 0,-15.5 M 4915,434 l 0,31.5 m 0,1466 0,-31.5"
           inkscape:connector-curvature="0" />
        <g
           transform="scale(10,10)"
           id="g3095">
          <text
             id="text3097"
             transform="matrix(1,0,0,-1,477.938,31.2352)">
            <tspan
               id="tspan3099"
               sodipodi:role="line"
               y="0"
               x="0 7.75 11.625 19.375"
               style="font-size:15.5px;font-variant:normal;font-weight:normal;writing-mode:lr-tb;fill:#000000;fill-opacity:1;fill-rule:nonzero;stroke:none;font-family:Times New Roman;-inkscape-font-specification:Times New">0.20</tspan>
          </text>
        </g>
        <path
           id="path3101"
           style="fill:none;stroke:#000000;stroke-width:5;stroke-linecap:butt;stroke-linejoin:miter;stroke-miterlimit:3.79999995;stroke-opacity:1;stroke-dasharray:none"
           d="m 5129,434 0,15.5 m 0,1482 0,-15.5"
           inkscape:connector-curvature="0" />
        <path
           id="path3103"
           style="fill:none;stroke:#000000;stroke-width:5;stroke-linecap:butt;stroke-linejoin:miter;stroke-miterlimit:3.79999995;stroke-opacity:1;stroke-dasharray:none"
           d="m 630,434 4499,0 0,1497.5 -4499,0 0,-1497.5 z"
           inkscape:connector-curvature="0" />
        <g
           transform="scale(10,10)"
           id="g3105">
          <text
             id="text3107"
             transform="matrix(1,0,0,-1,261.477,-0.264844)">
            <tspan
               id="tspan3109"
               sodipodi:role="line"
               y="0"
               x="0 9.4705 13.7795 25.838499 32.720501 36.595501 41.757 47.786499"
               style="font-size:15.5px;font-variant:normal;font-weight:normal;writing-mode:lr-tb;fill:#000000;fill-opacity:1;fill-rule:nonzero;stroke:none;font-family:Times New Roman;-inkscape-font-specification:Times">Time [s]</tspan>
          </text>
        </g>
        <path
           id="path3111"
           style="fill:none;stroke:#000000;stroke-width:2.5;stroke-linecap:butt;stroke-linejoin:miter;stroke-miterlimit:3.79999995;stroke-opacity:1;stroke-dasharray:none"
           d="m 630,434 468.5,0"
           inkscape:connector-curvature="0" />
        <path
           id="path3113"
           style="fill:none;stroke:#000000;stroke-width:2.5;stroke-linecap:butt;stroke-linejoin:miter;stroke-miterlimit:3.79999995;stroke-opacity:1;stroke-dasharray:none"
           d="m 1098.5,434 468,0"
           inkscape:connector-curvature="0" />
        <path
           id="path3115"
           style="fill:none;stroke:#000000;stroke-width:2.5;stroke-linecap:butt;stroke-linejoin:miter;stroke-miterlimit:3.79999995;stroke-opacity:1;stroke-dasharray:none"
           d="m 1566.5,434 198.5,0 4.5,0.5 72,0 4.5,0.5 31.5,0 4.5,0.5 18,0 4.5,0.5 13.5,0 4.5,0.5 9,0 4.5,0.5 9,0 4.5,0.5 9,0 4.5,0.5 4.5,0 4.5,0.5 4.5,0 4.5,0.5 4.5,0 4.5,0.5 4.5,0.5 4.5,0 4.5,0.5 4.5,0.5 4.5,0 4.5,0.5 4.5,0.5 4.5,0.5 4.5,0.5 4.5,0.5"
           inkscape:connector-curvature="0" />
        <path
           id="path3117"
           style="fill:none;stroke:#000000;stroke-width:2.5;stroke-linecap:butt;stroke-linejoin:miter;stroke-miterlimit:3.79999995;stroke-opacity:1;stroke-dasharray:none"
           d="m 2035,443.5 4.5,0.5 4.5,0.5 4.5,0.5 4.5,0.5 4.5,1 4.5,0.5 4.5,0.5 4.5,1 4.5,0.5 4.5,1 4.5,0.5 4.5,1 4.5,1 4.5,1 4.5,1 4.5,1 4.5,1 4.5,1 4.5,1 4.5,1.5 4.5,1 4.5,1.5 4.5,1.5 4.5,1 4.5,1.5 4.5,1.5 4.5,2 4.5,1.5 4.5,1.5 4.5,2 4.5,2 4.5,1.5 4.5,2 4.5,2.5 4.5,2 4.5,2 4.5,2.5 4.5,2.5 4.5,2.5 4.5,2.5 4.5,2.5 4.5,3 4.5,3 4.5,3 5,3 4.5,3 4.5,3.5 4.5,3 4.5,3.5 4.5,3.5 4.5,4 4.5,4 4.5,4 4.5,4 4.5,4 4.5,4.5 4.5,4.5 4.5,4.5 4.5,4.5 4.5,5 4.5,5 4.5,5.5 4.5,5 4.5,5.5 4.5,5.5 4.5,6 4.5,5.5 4.5,6.5 4.5,6 4.5,6.5 4.5,6.5 4.5,6.5 4.5,7 4.5,7 4.5,7 4.5,7.5 4.5,7.5 4.5,7.5 4.5,8 4.5,8 4.5,8 4.5,8.5 4.5,8.5 4.5,8.5 4.5,9 4.5,9 4.5,9.5 4.5,9.5 4.5,9.5 4.5,9.5 4.5,10 4.5,10 4.5,10.5 4.5,10 4.5,10.5 4.5,11 4.5,11 4.5,11 4.5,11 4.5,11.5 4.5,11.5 4.5,11.5 4.5,12 4.5,12"
           inkscape:connector-curvature="0" />
        <path
           id="path3119"
           style="fill:none;stroke:#000000;stroke-width:2.5;stroke-linecap:butt;stroke-linejoin:miter;stroke-miterlimit:3.79999995;stroke-opacity:1;stroke-dasharray:none"
           d="m 2503.5,943.5 4.5,12 4.5,12.5 4.5,12 4.5,12.5 4.5,13 4.5,12.5 4.5,13 4.5,13 4.5,13 4.5,13 4.5,13.5 4.5,13.5 4.5,13 4.5,13.5 4.5,14 4.5,13.5 4.5,13.5 4.5,14 4.5,14 4.5,13.5 4.5,14 4.5,14 4.5,14 4.5,13.5 4.5,14 4.5,14 4.5,14 4.5,14 4.5,13.5 4.5,14 4.5,14 4.5,13.5 4.5,13.5 4.5,13.5 4.5,13.5 4.5,13.5 4.5,13.5 4.5,13 4.5,13 4.5,13 4.5,12.5 4.5,13 4.5,12.5 4.5,12 4.5,12.5 4.5,12 4.5,11.5 4.5,11.5 4.5,11.5 4.5,11 4.5,11 4.5,11 4.5,10 4.5,10.5 4.5,10 4.5,9.5 4.5,9.5 4.5,9 4.5,9 4.5,8.5 4.5,8 4.5,8 4.5,7.5 4.5,7.5 4.5,7 4.5,6.5 4.5,6.5 4.5,6 4.5,5.5 4.5,5.5 4.5,4.5 4.5,4.5 4.5,4.5 4.5,3.5 4.5,3.5 4.5,3 4.5,3 4.5,2 4.5,2 4.5,1.5 4.5,1.5 4.5,0.5 4.5,0.5 5,0 4.5,-0.5 4.5,-0.5 4.5,-1.5 4.5,-1.5 4.5,-2 4.5,-2 4.5,-3 4.5,-3 4.5,-3.5 4.5,-3.5 4.5,-4.5 4.5,-4.5 4.5,-4.5 4.5,-5.5 4.5,-5.5 4.5,-6 4.5,-6.5 4.5,-6.5 4.5,-7 4.5,-7.5"
           inkscape:connector-curvature="0" />
        <path
           id="path3121"
           style="fill:none;stroke:#000000;stroke-width:2.5;stroke-linecap:butt;stroke-linejoin:miter;stroke-miterlimit:3.79999995;stroke-opacity:1;stroke-dasharray:none"
           d="m 2972,1720.5 4.5,-7.5 4.5,-8 4.5,-8 4.5,-8.5 4.5,-9 4.5,-9 4.5,-9.5 4.5,-9.5 4.5,-10 4.5,-10.5 4.5,-10 4.5,-11 4.5,-11 4.5,-11 4.5,-11.5 4.5,-11.5 4.5,-11.5 4.5,-12 4.5,-12.5 4.5,-12 4.5,-12.5 4.5,-13 4.5,-12.5 4.5,-13 4.5,-13 4.5,-13 4.5,-13.5 4.5,-13.5 4.5,-13.5 4.5,-13.5 4.5,-13.5 4.5,-13.5 4.5,-14 4.5,-14 4.5,-13.5 4.5,-14 4.5,-14 4.5,-14 4.5,-14 4.5,-13.5 4.5,-14 4.5,-14 4.5,-14 4.5,-13.5 4.5,-14 4.5,-14 4.5,-13.5 4.5,-13.5 4.5,-14 4.5,-13.5 4.5,-13 4.5,-13.5 4.5,-13.5 4.5,-13 4.5,-13 4.5,-13 4.5,-13 4.5,-12.5 4.5,-13 4.5,-12.5 4.5,-12 4.5,-12.5 4.5,-12 4.5,-12 4.5,-12 4.5,-11.5 4.5,-11.5 4.5,-11.5 4.5,-11 4.5,-11 4.5,-11 4.5,-11 4.5,-10.5 4.5,-10 4.5,-10.5 4.5,-10 4.5,-10 4.5,-9.5 4.5,-9.5 4.5,-9.5 4.5,-9.5 4.5,-9 4.5,-9 4.5,-8.5 4.5,-8.5 4.5,-8.5 4.5,-8 4.5,-8 4.5,-8 4.5,-7.5 4.5,-7.5 4.5,-7.5 4.5,-7 4.5,-7 4.5,-7 4.5,-6.5 4.5,-6.5 4.5,-6.5 4.5,-6 4.5,-6.5 4.5,-5.5 4.5,-6 4.5,-5.5 4.5,-5.5"
           inkscape:connector-curvature="0" />
        <path
           id="path3123"
           style="fill:none;stroke:#000000;stroke-width:2.5;stroke-linecap:butt;stroke-linejoin:miter;stroke-miterlimit:3.79999995;stroke-opacity:1;stroke-dasharray:none"
           d="m 3440,586.5 4.5,-5 4.5,-5.5 4.5,-5 4.5,-5 4.5,-4.5 4.5,-4.5 4.5,-4.5 4.5,-4.5 4.5,-4 4.5,-4 4.5,-4 4.5,-4 4.5,-4 4.5,-3.5 4.5,-3.5 4.5,-3 4.5,-3.5 4.5,-3 5,-3 4.5,-3 4.5,-3 4.5,-3 4.5,-2.5 4.5,-2.5 4.5,-2.5 4.5,-2.5 4.5,-2.5 4.5,-2 4.5,-2 4.5,-2.5 4.5,-2 4.5,-1.5 4.5,-2 4.5,-2 4.5,-1.5 4.5,-1.5 4.5,-2 4.5,-1.5 4.5,-1.5 4.5,-1 4.5,-1.5 4.5,-1.5 4.5,-1 4.5,-1.5 4.5,-1 4.5,-1 4.5,-1 4.5,-1 4.5,-1 4.5,-1 4.5,-1 4.5,-1 4.5,-0.5 4.5,-1 4.5,-0.5 4.5,-1 4.5,-0.5 4.5,-0.5 4.5,-1 4.5,-0.5 4.5,-0.5 4.5,-0.5 4.5,-0.5 4.5,-0.5 4.5,-0.5 4.5,-0.5 4.5,-0.5 4.5,-0.5 4.5,0 4.5,-0.5 4.5,-0.5 4.5,0 4.5,-0.5 4.5,-0.5 4.5,0 4.5,-0.5 4.5,0 4.5,-0.5 4.5,0 4.5,-0.5 9,0 4.5,-0.5 9,0 4.5,-0.5 9,0 4.5,-0.5 13.5,0 4.5,-0.5 18,0 4.5,-0.5 27,0"
           inkscape:connector-curvature="0" />
        <path
           id="path3125"
           style="fill:none;stroke:#000000;stroke-width:2.5;stroke-linecap:butt;stroke-linejoin:miter;stroke-miterlimit:3.79999995;stroke-opacity:1;stroke-dasharray:none"
           d="m 3908.5,435 4.5,0 4.5,-0.5 72,0 4.5,-0.5 383,0"
           inkscape:connector-curvature="0" />
        <path
           id="path3127"
           style="fill:none;stroke:#000000;stroke-width:2.5;stroke-linecap:butt;stroke-linejoin:miter;stroke-miterlimit:3.79999995;stroke-opacity:1;stroke-dasharray:none"
           d="m 4377,434 468.5,0"
           inkscape:connector-curvature="0" />
        <path
           id="path3129"
           style="fill:none;stroke:#000000;stroke-width:2.5;stroke-linecap:butt;stroke-linejoin:miter;stroke-miterlimit:3.79999995;stroke-opacity:1;stroke-dasharray:none"
           d="m 4845.5,434 283.5,0"
           inkscape:connector-curvature="0" />
        <path
           id="path3131"
           style="fill:#0000ff;fill-opacity:1;fill-rule:nonzero;stroke:none"
           d="m 661.5,434 c 0,17.395 -14.105,31.5 -31.5,31.5 -17.395,0 -31.5,-14.105 -31.5,-31.5 0,-17.395 14.105,-31.5 31.5,-31.5 17.395,0 31.5,14.105 31.5,31.5"
           inkscape:connector-curvature="0" />
        <path
           id="path3133"
           style="fill:#0000ff;fill-opacity:1;fill-rule:nonzero;stroke:none"
           d="m 875.5,434 c 0,17.395 -14.105,31.5 -31.5,31.5 -17.395,0 -31.5,-14.105 -31.5,-31.5 0,-17.395 14.105,-31.5 31.5,-31.5 17.395,0 31.5,14.105 31.5,31.5"
           inkscape:connector-curvature="0" />
        <path
           id="path3135"
           style="fill:#0000ff;fill-opacity:1;fill-rule:nonzero;stroke:none"
           d="m 1090,434 c 0,17.395 -14.11,31.5 -31.5,31.5 -17.39,0 -31.5,-14.105 -31.5,-31.5 0,-17.395 14.11,-31.5 31.5,-31.5 17.39,0 31.5,14.105 31.5,31.5"
           inkscape:connector-curvature="0" />
        <path
           id="path3137"
           style="fill:#0000ff;fill-opacity:1;fill-rule:nonzero;stroke:none"
           d="m 1304,434 c 0,17.395 -14.11,31.5 -31.5,31.5 -17.39,0 -31.5,-14.105 -31.5,-31.5 0,-17.395 14.11,-31.5 31.5,-31.5 17.39,0 31.5,14.105 31.5,31.5"
           inkscape:connector-curvature="0" />
        <path
           id="path3139"
           style="fill:#0000ff;fill-opacity:1;fill-rule:nonzero;stroke:none"
           d="m 1518.5,434 c 0,17.395 -14.11,31.5 -31.5,31.5 -17.39,0 -31.5,-14.105 -31.5,-31.5 0,-17.395 14.11,-31.5 31.5,-31.5 17.39,0 31.5,14.105 31.5,31.5"
           inkscape:connector-curvature="0" />
        <path
           id="path3141"
           style="fill:#0000ff;fill-opacity:1;fill-rule:nonzero;stroke:none"
           d="m 1732.5,434 c 0,17.395 -14.11,31.5 -31.5,31.5 -17.39,0 -31.5,-14.105 -31.5,-31.5 0,-17.395 14.11,-31.5 31.5,-31.5 17.39,0 31.5,14.105 31.5,31.5"
           inkscape:connector-curvature="0" />
        <path
           id="path3143"
           style="fill:#0000ff;fill-opacity:1;fill-rule:nonzero;stroke:none"
           d="m 1947,436 c 0,17.395 -14.11,31.5 -31.5,31.5 -17.39,0 -31.5,-14.105 -31.5,-31.5 0,-17.395 14.11,-31.5 31.5,-31.5 17.39,0 31.5,14.105 31.5,31.5"
           inkscape:connector-curvature="0" />
        <path
           id="path3145"
           style="fill:#0000ff;fill-opacity:1;fill-rule:nonzero;stroke:none"
           d="m 2161,461 c 0,17.395 -14.11,31.5 -31.5,31.5 -17.39,0 -31.5,-14.105 -31.5,-31.5 0,-17.395 14.11,-31.5 31.5,-31.5 17.39,0 31.5,14.105 31.5,31.5"
           inkscape:connector-curvature="0" />
        <path
           id="path3147"
           style="fill:#0000ff;fill-opacity:1;fill-rule:nonzero;stroke:none"
           d="m 2375.5,619 c 0,17.395 -14.11,31.5 -31.5,31.5 -17.39,0 -31.5,-14.105 -31.5,-31.5 0,-17.395 14.11,-31.5 31.5,-31.5 17.39,0 31.5,14.105 31.5,31.5"
           inkscape:connector-curvature="0" />
        <path
           id="path3149"
           style="fill:#0000ff;fill-opacity:1;fill-rule:nonzero;stroke:none"
           d="m 2589.5,1098.5 c 0,17.39 -14.11,31.5 -31.5,31.5 -17.39,0 -31.5,-14.11 -31.5,-31.5 0,-17.39 14.11,-31.5 31.5,-31.5 17.39,0 31.5,14.11 31.5,31.5"
           inkscape:connector-curvature="0" />
        <path
           id="path3151"
           style="fill:#0000ff;fill-opacity:1;fill-rule:nonzero;stroke:none"
           d="m 2804,1694.5 c 0,17.39 -14.11,31.5 -31.5,31.5 -17.39,0 -31.5,-14.11 -31.5,-31.5 0,-17.39 14.11,-31.5 31.5,-31.5 17.39,0 31.5,14.11 31.5,31.5"
           inkscape:connector-curvature="0" />
        <path
           id="path3153"
           style="fill:#0000ff;fill-opacity:1;fill-rule:nonzero;stroke:none"
           d="m 3018,1694.5 c 0,17.39 -14.11,31.5 -31.5,31.5 -17.39,0 -31.5,-14.11 -31.5,-31.5 0,-17.39 14.11,-31.5 31.5,-31.5 17.39,0 31.5,14.11 31.5,31.5"
           inkscape:connector-curvature="0" />
        <path
           id="path3155"
           style="fill:#0000ff;fill-opacity:1;fill-rule:nonzero;stroke:none"
           d="m 3232.5,1098.5 c 0,17.39 -14.11,31.5 -31.5,31.5 -17.39,0 -31.5,-14.11 -31.5,-31.5 0,-17.39 14.11,-31.5 31.5,-31.5 17.39,0 31.5,14.11 31.5,31.5"
           inkscape:connector-curvature="0" />
        <path
           id="path3157"
           style="fill:#0000ff;fill-opacity:1;fill-rule:nonzero;stroke:none"
           d="m 3446.5,619 c 0,17.395 -14.11,31.5 -31.5,31.5 -17.39,0 -31.5,-14.105 -31.5,-31.5 0,-17.395 14.11,-31.5 31.5,-31.5 17.39,0 31.5,14.105 31.5,31.5"
           inkscape:connector-curvature="0" />
        <path
           id="path3159"
           style="fill:#0000ff;fill-opacity:1;fill-rule:nonzero;stroke:none"
           d="m 3661,461 c 0,17.395 -14.11,31.5 -31.5,31.5 -17.39,0 -31.5,-14.105 -31.5,-31.5 0,-17.395 14.11,-31.5 31.5,-31.5 17.39,0 31.5,14.105 31.5,31.5"
           inkscape:connector-curvature="0" />
        <path
           id="path3161"
           style="fill:#0000ff;fill-opacity:1;fill-rule:nonzero;stroke:none"
           d="m 3875,436 c 0,17.395 -14.11,31.5 -31.5,31.5 -17.39,0 -31.5,-14.105 -31.5,-31.5 0,-17.395 14.11,-31.5 31.5,-31.5 17.39,0 31.5,14.105 31.5,31.5"
           inkscape:connector-curvature="0" />
        <path
           id="path3163"
           style="fill:#0000ff;fill-opacity:1;fill-rule:nonzero;stroke:none"
           d="m 4089.5,434 c 0,17.395 -14.11,31.5 -31.5,31.5 -17.39,0 -31.5,-14.105 -31.5,-31.5 0,-17.395 14.11,-31.5 31.5,-31.5 17.39,0 31.5,14.105 31.5,31.5"
           inkscape:connector-curvature="0" />
        <path
           id="path3165"
           style="fill:#0000ff;fill-opacity:1;fill-rule:nonzero;stroke:none"
           d="m 4303.5,434 c 0,17.395 -14.11,31.5 -31.5,31.5 -17.39,0 -31.5,-14.105 -31.5,-31.5 0,-17.395 14.11,-31.5 31.5,-31.5 17.39,0 31.5,14.105 31.5,31.5"
           inkscape:connector-curvature="0" />
        <path
           id="path3167"
           style="fill:#0000ff;fill-opacity:1;fill-rule:nonzero;stroke:none"
           d="m 4518,434 c 0,17.395 -14.11,31.5 -31.5,31.5 -17.39,0 -31.5,-14.105 -31.5,-31.5 0,-17.395 14.11,-31.5 31.5,-31.5 17.39,0 31.5,14.105 31.5,31.5"
           inkscape:connector-curvature="0" />
        <path
           id="path3169"
           style="fill:#0000ff;fill-opacity:1;fill-rule:nonzero;stroke:none"
           d="m 4732,434 c 0,17.395 -14.11,31.5 -31.5,31.5 -17.39,0 -31.5,-14.105 -31.5,-31.5 0,-17.395 14.11,-31.5 31.5,-31.5 17.39,0 31.5,14.105 31.5,31.5"
           inkscape:connector-curvature="0" />
        <path
           id="path3171"
           style="fill:#0000ff;fill-opacity:1;fill-rule:nonzero;stroke:none"
           d="m 4946.5,434 c 0,17.395 -14.11,31.5 -31.5,31.5 -17.39,0 -31.5,-14.105 -31.5,-31.5 0,-17.395 14.11,-31.5 31.5,-31.5 17.39,0 31.5,14.105 31.5,31.5"
           inkscape:connector-curvature="0" />
        <path
           id="path3173"
           style="fill:#0000ff;fill-opacity:1;fill-rule:nonzero;stroke:none"
           d="m 5160.5,434 c 0,17.395 -14.11,31.5 -31.5,31.5 -17.39,0 -31.5,-14.105 -31.5,-31.5 0,-17.395 14.11,-31.5 31.5,-31.5 17.39,0 31.5,14.105 31.5,31.5"
           inkscape:connector-curvature="0" />
        <path
           id="path3175"
           style="fill:none;stroke:#000000;stroke-width:5;stroke-linecap:butt;stroke-linejoin:miter;stroke-miterlimit:3.79999995;stroke-opacity:1;stroke-dasharray:none"
           d="m 630,434 4499,0 0,1497.5 -4499,0 0,-1497.5 z"
           inkscape:connector-curvature="0" />
      </g>
    </g>
    <g
       style="font-style:normal;font-variant:normal;font-weight:normal;font-stretch:normal;letter-spacing:normal;word-spacing:normal;text-anchor:start;fill:none;stroke:#000000;stroke-linecap:butt;stroke-linejoin:miter;stroke-miterlimit:10.43299961;stroke-opacity:1;stroke-dasharray:none;stroke-dashoffset:0"
       id="content"
       transform="matrix(2,0,0,-2,-127.49692,1865.2092)"
       xml:space="preserve"
       stroke-miterlimit="10.433"
       font-style="normal"
       font-variant="normal"
       font-weight="normal"
       font-stretch="normal"
       font-size-adjust="none"
       letter-spacing="normal"
       word-spacing="normal"
       ns0:text="$\\phi(t)$"
       ns0:preamble=""><path
         style="fill:#000000;stroke-width:0"
         inkscape:connector-curvature="0"
         d="m 227.78,713.78 0,0 0,0 0,0 0,0.01 0,0 0,0 0,0 0,0 0,0.01 0,0 0,0 0,0.01 0.01,0 0,0.01 0,0.01 0,0 0,0.01 0,0 0,0.01 0.01,0.02 0,0 0,0.01 0,0 0,0.01 0,0 0.01,0.01 0,0 0,0.01 0,0 0,0 0,0 0,0 0,0 0,0.01 0,0 0,0 0,0 0,0 0,0 c 0,0.01 0,0.1 -0.12,0.1 -0.1,0 -0.11,-0.03 -0.15,-0.2 l -0.58,-2.29 c -1.58,-0.05 -3.04,-1.37 -3.04,-2.73 0,-0.94 0.7,-1.72 1.91,-1.79 l 0.05,0.21 c -0.6,0.03 -1.31,0.38 -1.31,1.37 0,1.2 0.85,2.59 2.33,2.72 l -1.02,-4.09 -0.05,-0.21 c -0.08,-0.31 -0.15,-0.63 -0.23,-0.94 -0.12,-0.47 -0.22,-0.84 -0.22,-0.87 0,-0.1 0.07,-0.11 0.12,-0.11 0.05,0 0.07,0.01 0.1,0.04 0.02,0.02 0.08,0.26 0.11,0.4 l 0.38,1.48 0.05,0.21 1.02,4.09 c 0.76,-0.04 1.33,-0.5 1.33,-1.37 0,-1.18 -0.86,-2.6 -2.35,-2.72 l -0.05,-0.21 c 1.6,0.04 3.04,1.39 3.04,2.72 0,0.78 -0.52,1.7 -1.91,1.8 z"
         id="path3367" /><path
         style="fill:#000000;stroke-width:0"
         inkscape:connector-curvature="0"
         d="m 232.66,704.74 0,0.01 0,0 0,0 0,0.01 0,0 0,0 0,0.01 0,0 -0.01,0 0,0.01 0,0 0,0.01 -0.01,0 0,0.01 0,0 -0.01,0.01 0,0.01 -0.01,0 0,0.01 -0.01,0 0,0.01 0,0 -0.01,0 0,0.01 -0.01,0 0,0.01 0,0 -0.01,0.01 0,0 -0.01,0.01 0,0 -0.01,0.01 -0.01,0.01 0,0 -0.01,0.01 0,0.01 -0.01,0 -0.01,0.01 -0.01,0.01 0,0 -0.01,0.01 -0.01,0.01 c -1.24,1.25 -1.56,3.13 -1.56,4.65 0,1.73 0.38,3.46 1.6,4.7 0.13,0.12 0.13,0.14 0.13,0.17 0,0.07 -0.04,0.1 -0.1,0.1 -0.1,0 -0.99,-0.68 -1.58,-1.94 -0.51,-1.09 -0.63,-2.2 -0.63,-3.03 0,-0.78 0.11,-1.98 0.66,-3.1 0.6,-1.22 1.45,-1.87 1.55,-1.87 0.06,0 0.1,0.03 0.1,0.1 z"
         id="path3369" /><path
         style="fill:#000000;stroke-width:0"
         inkscape:connector-curvature="0"
         d="m 235.29,711.1 h 0.94 c 0.2,0 0.3,0 0.3,0.2 0,0.11 -0.1,0.11 -0.28,0.11 h -0.88 c 0.36,1.41 0.41,1.61 0.41,1.67 0,0.16 -0.12,0.26 -0.29,0.26 -0.03,0 -0.31,-0.01 -0.4,-0.35 l -0.38,-1.58 h -0.94 c -0.2,0 -0.3,0 -0.3,-0.19 0,-0.12 0.08,-0.12 0.28,-0.12 h 0.88 c -0.72,-2.82 -0.76,-2.99 -0.76,-3.17 0,-0.54 0.38,-0.91 0.92,-0.91 1.01,0 1.58,1.45 1.58,1.53 0,0.1 -0.08,0.1 -0.12,0.1 -0.09,0 -0.1,-0.04 -0.15,-0.14 -0.43,-1.04 -0.96,-1.28 -1.3,-1.28 -0.2,0 -0.3,0.13 -0.3,0.46 0,0.24 0.02,0.31 0.06,0.48 z"
         id="path3371" /><path
         style="fill:#000000;stroke-width:0"
         inkscape:connector-curvature="0"
         d="m 239.71,709.61 0,0.07 0,0.08 0,0.08 0,0.08 -0.01,0.17 -0.01,0.17 -0.02,0.18 -0.02,0.19 -0.03,0.2 -0.03,0.2 -0.04,0.2 -0.04,0.21 -0.06,0.21 -0.06,0.21 -0.07,0.21 -0.08,0.21 -0.04,0.11 -0.04,0.11 -0.05,0.1 -0.05,0.11 c -0.6,1.22 -1.45,1.87 -1.55,1.87 -0.06,0 -0.1,-0.04 -0.1,-0.1 0,-0.03 0,-0.05 0.19,-0.23 0.97,-0.99 1.54,-2.57 1.54,-4.64 0,-1.7 -0.37,-3.45 -1.6,-4.7 -0.13,-0.12 -0.13,-0.14 -0.13,-0.17 0,-0.06 0.04,-0.1 0.1,-0.1 0.1,0 0.99,0.68 1.58,1.94 0.51,1.09 0.62,2.19 0.62,3.03 z"
         id="path3373" /></g>    <path
       inkscape:connector-curvature="0"
       inkscape:original-d="m 356.33131,444.50288 c 25.25381,0 25.00128,0 25.00128,0"
       inkscape:path-effect="#path-effect3477"
       id="path3475"
       d="m 356.33131,444.50288 25.00128,0"
       style="fill:none;stroke:#000000;stroke-width:1px;stroke-linecap:butt;stroke-linejoin:miter;stroke-opacity:1;marker-end:url(#TriangleOutM)" />
    <g
       ns0:preamble=""
       ns0:text="$\\phi(kT_s)$"
       word-spacing="normal"
       letter-spacing="normal"
       font-size-adjust="none"
       font-stretch="normal"
       font-weight="normal"
       font-variant="normal"
       font-style="normal"
       stroke-miterlimit="10.433"
       xml:space="preserve"
       transform="matrix(2,0,0,-2,47.750116,1904.061)"
       id="g4797"
       style="font-style:normal;font-variant:normal;font-weight:normal;font-stretch:normal;letter-spacing:normal;word-spacing:normal;text-anchor:start;fill:none;stroke:#000000;stroke-linecap:butt;stroke-linejoin:miter;stroke-miterlimit:10.43299961;stroke-opacity:1;stroke-dasharray:none;stroke-dashoffset:0"><path
         id="path4799"
         d="m 227.78,713.78 0,0 0,0 0,0 0,0.01 0,0 0,0 0,0 0,0 0,0.01 0,0 0,0 0,0.01 0.01,0 0,0.01 0,0.01 0,0 0,0.01 0,0 0,0.01 0.01,0.02 0,0 0,0.01 0,0 0,0.01 0,0 0.01,0.01 0,0 0,0.01 0,0 0,0 0,0 0,0 0,0 0,0.01 0,0 0,0 0,0 0,0 0,0 c 0,0.01 0,0.1 -0.12,0.1 -0.1,0 -0.11,-0.03 -0.15,-0.2 l -0.58,-2.29 c -1.58,-0.05 -3.04,-1.37 -3.04,-2.73 0,-0.94 0.7,-1.72 1.91,-1.79 l 0.05,0.21 c -0.6,0.03 -1.31,0.38 -1.31,1.37 0,1.2 0.85,2.59 2.33,2.72 l -1.02,-4.09 -0.05,-0.21 c -0.08,-0.31 -0.15,-0.63 -0.23,-0.94 -0.12,-0.47 -0.22,-0.84 -0.22,-0.87 0,-0.1 0.07,-0.11 0.12,-0.11 0.05,0 0.07,0.01 0.1,0.04 0.02,0.02 0.08,0.26 0.11,0.4 l 0.38,1.48 0.05,0.21 1.02,4.09 c 0.76,-0.04 1.33,-0.5 1.33,-1.37 0,-1.18 -0.86,-2.6 -2.35,-2.72 l -0.05,-0.21 c 1.6,0.04 3.04,1.39 3.04,2.72 0,0.78 -0.52,1.7 -1.91,1.8 z"
         inkscape:connector-curvature="0"
         style="fill:#000000;stroke-width:0" /><path
         id="path4801"
         d="m 232.66,704.74 0,0.01 0,0 0,0 0,0.01 0,0 0,0 0,0.01 0,0 -0.01,0 0,0.01 0,0 0,0.01 -0.01,0 0,0.01 0,0 -0.01,0.01 0,0.01 -0.01,0 0,0.01 -0.01,0 0,0.01 0,0 -0.01,0 0,0.01 -0.01,0 0,0.01 0,0 -0.01,0.01 0,0 -0.01,0.01 0,0 -0.01,0.01 -0.01,0.01 0,0 -0.01,0.01 0,0.01 -0.01,0 -0.01,0.01 -0.01,0.01 0,0 -0.01,0.01 -0.01,0.01 c -1.24,1.25 -1.56,3.13 -1.56,4.65 0,1.73 0.38,3.46 1.6,4.7 0.13,0.12 0.13,0.14 0.13,0.17 0,0.07 -0.04,0.1 -0.1,0.1 -0.1,0 -0.99,-0.68 -1.58,-1.94 -0.51,-1.09 -0.63,-2.2 -0.63,-3.03 0,-0.78 0.11,-1.98 0.66,-3.1 0.6,-1.22 1.45,-1.87 1.55,-1.87 0.06,0 0.1,0.03 0.1,0.1 z"
         inkscape:connector-curvature="0"
         style="fill:#000000;stroke-width:0" /><path
         id="path4803"
         d="m 236.1,713.91 0,0 0,0 0,0 0,0 0,0.01 0,0 0,0 0,0.01 0,0 0,0.01 -0.01,0 0,0 0,0.01 0,0 0,0.01 -0.01,0 0,0.01 0,0 0,0.01 -0.01,0 0,0.01 -0.01,0 0,0 0,0 0,0.01 -0.01,0 0,0 0,0 -0.01,0 0,0.01 0,0 -0.01,0 0,0 -0.01,0 0,0 0,0 -0.01,0 0,0.01 -0.01,0 0,0 -0.01,0 0,0 -0.01,0 -0.01,0 0,0 c -0.23,0 -0.96,-0.08 -1.21,-0.1 -0.08,-0.01 -0.19,-0.02 -0.19,-0.2 0,-0.12 0.09,-0.12 0.23,-0.12 0.48,0 0.5,-0.07 0.5,-0.17 l -0.03,-0.2 -1.44,-5.72 c -0.04,-0.14 -0.04,-0.16 -0.04,-0.22 0,-0.22 0.2,-0.27 0.29,-0.27 0.13,0 0.28,0.08 0.34,0.2 0.05,0.09 0.49,1.93 0.55,2.18 0.34,-0.03 1.16,-0.19 1.16,-0.85 0,-0.06 0,-0.1 -0.03,-0.2 -0.02,-0.12 -0.04,-0.24 -0.04,-0.35 0,-0.59 0.4,-0.98 0.91,-0.98 0.3,0 0.57,0.15 0.79,0.52 0.25,0.44 0.36,0.99 0.36,1.01 0,0.1 -0.09,0.1 -0.12,0.1 -0.1,0 -0.11,-0.05 -0.14,-0.18 -0.2,-0.73 -0.43,-1.24 -0.87,-1.24 -0.19,0 -0.31,0.11 -0.31,0.47 0,0.17 0.03,0.4 0.08,0.56 0.03,0.17 0.03,0.21 0.03,0.31 0,0.64 -0.62,0.93 -1.47,1.04 0.31,0.18 0.63,0.49 0.86,0.73 0.48,0.53 0.93,0.96 1.42,0.96 0.06,0 0.07,0 0.09,-0.01 0.12,-0.02 0.13,-0.02 0.21,-0.08 0.02,-0.01 0.02,-0.02 0.04,-0.04 -0.48,-0.03 -0.57,-0.42 -0.57,-0.54 0,-0.16 0.11,-0.35 0.38,-0.35 0.26,0 0.55,0.22 0.55,0.61 0,0.3 -0.23,0.63 -0.68,0.63 -0.28,0 -0.74,-0.08 -1.45,-0.88 -0.34,-0.38 -0.73,-0.77 -1.11,-0.92 z"
         inkscape:connector-curvature="0"
         style="fill:#000000;stroke-width:0" /><path
         id="path4805"
         d="m 242.99,713.16 0,0.02 0.01,0.02 0.01,0.03 0,0.02 0.01,0.02 0,0.02 0.01,0.02 0.01,0.02 0,0.01 0.01,0.02 0,0.01 0.01,0.02 0,0.01 0.01,0.01 0.01,0.01 0,0.01 0.01,0.01 0.01,0.01 0,0.01 0.01,0.01 0.01,0 0,0.01 0.01,0.01 0.01,0 0.01,0.01 0.01,0 0.01,0.01 0,0 0.01,0 0.01,0.01 0.01,0 0.02,0 c 0.08,0.02 0.41,0.02 0.62,0.02 1.01,0 1.45,-0.04 1.45,-0.81 0,-0.15 -0.03,-0.54 -0.08,-0.8 0,-0.04 -0.03,-0.16 -0.03,-0.19 0,-0.06 0.03,-0.13 0.12,-0.13 0.11,0 0.13,0.09 0.15,0.23 l 0.27,1.73 c 0.01,0.04 0.02,0.14 0.02,0.17 0,0.11 -0.1,0.11 -0.27,0.11 h -5.52 c -0.24,0 -0.25,-0.01 -0.32,-0.2 l -0.59,-1.75 c -0.01,-0.02 -0.06,-0.16 -0.06,-0.18 0,-0.06 0.05,-0.11 0.12,-0.11 0.1,0 0.11,0.05 0.17,0.21 0.53,1.54 0.79,1.72 2.26,1.72 h 0.39 c 0.28,0 0.28,-0.04 0.28,-0.12 0,-0.06 -0.03,-0.18 -0.04,-0.21 l -1.33,-5.3 c -0.09,-0.37 -0.12,-0.48 -1.19,-0.48 -0.35,0 -0.41,0 -0.41,-0.19 0,-0.12 0.11,-0.12 0.17,-0.12 0.26,0 0.54,0.03 0.81,0.03 0.28,0 0.57,0.01 0.85,0.01 0.28,0 0.55,-0.01 0.82,-0.01 0.29,0 0.59,-0.03 0.87,-0.03 0.1,0 0.22,0 0.22,0.2 0,0.11 -0.08,0.11 -0.34,0.11 -0.25,0 -0.38,0 -0.64,0.02 -0.29,0.03 -0.37,0.06 -0.37,0.22 0,0.01 0,0.06 0.04,0.21 z"
         inkscape:connector-curvature="0"
         style="fill:#000000;stroke-width:0" /><path
         id="path4807"
         d="m 247.57,708.25 -0.02,-0.01 -0.02,0 -0.01,-0.01 -0.02,0 -0.01,-0.01 -0.02,-0.01 -0.01,-0.01 -0.02,0 -0.01,-0.01 -0.01,-0.01 -0.01,-0.01 -0.02,-0.01 -0.01,-0.01 -0.01,-0.01 -0.01,-0.01 -0.01,-0.01 -0.01,-0.01 -0.01,-0.01 0,-0.02 -0.01,-0.01 -0.01,-0.01 0,-0.01 -0.01,-0.01 -0.01,-0.02 0,-0.01 0,-0.01 -0.01,-0.02 0,-0.01 0,-0.01 0,-0.01 -0.01,-0.02 0,-0.01 c 0,-0.16 0.14,-0.22 0.23,-0.22 0.07,0 0.34,0.04 0.34,0.39 0,0.45 -0.5,0.61 -0.93,0.61 -1.08,0 -1.28,-0.8 -1.28,-1.02 0,-0.26 0.15,-0.42 0.24,-0.51 0.18,-0.13 0.31,-0.16 0.79,-0.25 0.15,-0.02 0.59,-0.11 0.59,-0.45 0,-0.12 -0.07,-0.39 -0.37,-0.56 -0.27,-0.15 -0.61,-0.15 -0.69,-0.15 -0.28,0 -0.68,0.06 -0.84,0.29 0.23,0.03 0.39,0.2 0.39,0.4 0,0.17 -0.13,0.25 -0.28,0.25 -0.2,0 -0.4,-0.16 -0.4,-0.46 0,-0.42 0.45,-0.68 1.12,-0.68 1.28,0 1.52,0.88 1.52,1.15 0,0.64 -0.7,0.76 -0.96,0.81 -0.06,0.02 -0.24,0.04 -0.28,0.06 -0.26,0.05 -0.38,0.19 -0.38,0.35 0,0.16 0.12,0.34 0.27,0.44 0.19,0.12 0.44,0.13 0.55,0.13 0.15,0 0.51,-0.02 0.67,-0.25 z"
         inkscape:connector-curvature="0"
         style="fill:#000000;stroke-width:0" /><path
         id="path4809"
         d="m 251.7,709.61 0,0.07 0,0.08 -0.01,0.08 0,0.08 -0.01,0.17 -0.01,0.17 -0.01,0.18 -0.03,0.19 -0.02,0.2 -0.03,0.2 -0.04,0.2 -0.05,0.21 -0.05,0.21 -0.06,0.21 -0.07,0.21 -0.08,0.21 -0.05,0.11 -0.04,0.11 -0.05,0.1 -0.05,0.11 c -0.59,1.22 -1.45,1.87 -1.55,1.87 -0.06,0 -0.1,-0.04 -0.1,-0.1 0,-0.03 0,-0.05 0.19,-0.23 0.97,-0.99 1.54,-2.57 1.54,-4.64 0,-1.7 -0.37,-3.45 -1.6,-4.7 -0.13,-0.12 -0.13,-0.14 -0.13,-0.17 0,-0.06 0.04,-0.1 0.1,-0.1 0.1,0 1,0.68 1.58,1.94 0.51,1.09 0.63,2.19 0.63,3.03 z"
         inkscape:connector-curvature="0"
         style="fill:#000000;stroke-width:0" /></g>    <path
       style="fill:none;stroke:#000000;stroke-width:1px;stroke-linecap:butt;stroke-linejoin:miter;stroke-opacity:1;marker-end:url(#TriangleOutM)"
       d="m 490.42906,485.16153 -27.27412,4.54568"
       id="path4922"
       inkscape:path-effect="#path-effect4924"
       inkscape:original-d="m 490.42906,485.16153 c -27.27412,4.54568 -27.27412,4.54568 -27.27412,4.54568"
       inkscape:connector-curvature="0" />
    <g
       style="font-style:normal;font-variant:normal;font-weight:normal;font-stretch:normal;letter-spacing:normal;word-spacing:normal;text-anchor:start;fill:none;stroke:#000000;stroke-linecap:butt;stroke-linejoin:miter;stroke-miterlimit:10.43299961;stroke-opacity:1;stroke-dasharray:none;stroke-dashoffset:0"
       id="content-0"
       transform="matrix(0,-2,-2,0,1495.9916,941.21536)"
       xml:space="preserve"
       stroke-miterlimit="10.433"
       font-style="normal"
       font-variant="normal"
       font-weight="normal"
       font-stretch="normal"
       font-size-adjust="none"
       letter-spacing="normal"
       word-spacing="normal"
       ns0:text="$\\phi(t)$"
       ns0:preamble=""><path
         style="fill:#000000;stroke-width:0"
         inkscape:connector-curvature="0"
         d="m 227.78,713.78 0,0 0,0 0,0 0,0.01 0,0 0,0 0,0 0,0 0,0.01 0,0 0,0 0,0.01 0.01,0 0,0.01 0,0.01 0,0 0,0.01 0,0 0,0.01 0.01,0.02 0,0 0,0.01 0,0 0,0.01 0,0 0.01,0.01 0,0 0,0.01 0,0 0,0 0,0 0,0 0,0 0,0.01 0,0 0,0 0,0 0,0 0,0 c 0,0.01 0,0.1 -0.12,0.1 -0.1,0 -0.11,-0.03 -0.15,-0.2 l -0.58,-2.29 c -1.58,-0.05 -3.04,-1.37 -3.04,-2.73 0,-0.94 0.7,-1.72 1.91,-1.79 l 0.05,0.21 c -0.6,0.03 -1.31,0.38 -1.31,1.37 0,1.2 0.85,2.59 2.33,2.72 l -1.02,-4.09 -0.05,-0.21 c -0.08,-0.31 -0.15,-0.63 -0.23,-0.94 -0.12,-0.47 -0.22,-0.84 -0.22,-0.87 0,-0.1 0.07,-0.11 0.12,-0.11 0.05,0 0.07,0.01 0.1,0.04 0.02,0.02 0.08,0.26 0.11,0.4 l 0.38,1.48 0.05,0.21 1.02,4.09 c 0.76,-0.04 1.33,-0.5 1.33,-1.37 0,-1.18 -0.86,-2.6 -2.35,-2.72 l -0.05,-0.21 c 1.6,0.04 3.04,1.39 3.04,2.72 0,0.78 -0.52,1.7 -1.91,1.8 z"
         id="path3367-3" /><path
         style="fill:#000000;stroke-width:0"
         inkscape:connector-curvature="0"
         d="m 232.66,704.74 0,0.01 0,0 0,0 0,0.01 0,0 0,0 0,0.01 0,0 -0.01,0 0,0.01 0,0 0,0.01 -0.01,0 0,0.01 0,0 -0.01,0.01 0,0.01 -0.01,0 0,0.01 -0.01,0 0,0.01 0,0 -0.01,0 0,0.01 -0.01,0 0,0.01 0,0 -0.01,0.01 0,0 -0.01,0.01 0,0 -0.01,0.01 -0.01,0.01 0,0 -0.01,0.01 0,0.01 -0.01,0 -0.01,0.01 -0.01,0.01 0,0 -0.01,0.01 -0.01,0.01 c -1.24,1.25 -1.56,3.13 -1.56,4.65 0,1.73 0.38,3.46 1.6,4.7 0.13,0.12 0.13,0.14 0.13,0.17 0,0.07 -0.04,0.1 -0.1,0.1 -0.1,0 -0.99,-0.68 -1.58,-1.94 -0.51,-1.09 -0.63,-2.2 -0.63,-3.03 0,-0.78 0.11,-1.98 0.66,-3.1 0.6,-1.22 1.45,-1.87 1.55,-1.87 0.06,0 0.1,0.03 0.1,0.1 z"
         id="path3369-2" /><path
         style="fill:#000000;stroke-width:0"
         inkscape:connector-curvature="0"
         d="m 235.29,711.1 h 0.94 c 0.2,0 0.3,0 0.3,0.2 0,0.11 -0.1,0.11 -0.28,0.11 h -0.88 c 0.36,1.41 0.41,1.61 0.41,1.67 0,0.16 -0.12,0.26 -0.29,0.26 -0.03,0 -0.31,-0.01 -0.4,-0.35 l -0.38,-1.58 h -0.94 c -0.2,0 -0.3,0 -0.3,-0.19 0,-0.12 0.08,-0.12 0.28,-0.12 h 0.88 c -0.72,-2.82 -0.76,-2.99 -0.76,-3.17 0,-0.54 0.38,-0.91 0.92,-0.91 1.01,0 1.58,1.45 1.58,1.53 0,0.1 -0.08,0.1 -0.12,0.1 -0.09,0 -0.1,-0.04 -0.15,-0.14 -0.43,-1.04 -0.96,-1.28 -1.3,-1.28 -0.2,0 -0.3,0.13 -0.3,0.46 0,0.24 0.02,0.31 0.06,0.48 z"
         id="path3371-5" /><path
         style="fill:#000000;stroke-width:0"
         inkscape:connector-curvature="0"
         d="m 239.71,709.61 0,0.07 0,0.08 0,0.08 0,0.08 -0.01,0.17 -0.01,0.17 -0.02,0.18 -0.02,0.19 -0.03,0.2 -0.03,0.2 -0.04,0.2 -0.04,0.21 -0.06,0.21 -0.06,0.21 -0.07,0.21 -0.08,0.21 -0.04,0.11 -0.04,0.11 -0.05,0.1 -0.05,0.11 c -0.6,1.22 -1.45,1.87 -1.55,1.87 -0.06,0 -0.1,-0.04 -0.1,-0.1 0,-0.03 0,-0.05 0.19,-0.23 0.97,-0.99 1.54,-2.57 1.54,-4.64 0,-1.7 -0.37,-3.45 -1.6,-4.7 -0.13,-0.12 -0.13,-0.14 -0.13,-0.17 0,-0.06 0.04,-0.1 0.1,-0.1 0.1,0 0.99,0.68 1.58,1.94 0.51,1.09 0.62,2.19 0.62,3.03 z"
         id="path3373-1" /></g>    <rect
       style="fill:#ffffff"
       id="rect5138"
       width="12.232142"
       height="27.946428"
       x="111.51786"
       y="565.2193" />
    <rect
       style="fill:#ffffff"
       id="rect5140"
       width="37.32143"
       height="13.839286"
       x="117.32143"
       y="578.70148" />
    <rect
       style="fill:#ffffff"
       id="rect5142"
       width="8.7053576"
       height="4.6875"
       x="136.58482"
       y="576.08984" />
    <path
       style="fill:#ffffff"
       d="m 133.13105,578.64873 c -0.20842,-0.53696 -0.42273,-0.90196 -0.68133,-1.16035 -0.15587,-0.15574 -0.33212,-0.26567 -0.53018,-0.33069 l -0.14884,-0.0489 0.13849,-0.15918 c 0.0762,-0.0875 0.17219,-0.20628 0.21337,-0.26384 l 0.0749,-0.10467 0.12555,0.0454 c 0.50361,0.18214 1.03039,0.55338 1.44732,1.01997 0.23074,0.25822 0.48799,0.6002 0.64795,0.86134 l 0.11705,0.19109 -0.69238,0 -0.69238,0 -0.0195,-0.0502 z"
       id="path5156"
       inkscape:connector-curvature="0" />
    <path
       style="fill:#ffffff"
       d="m 128.27592,578.67105 c 0.008,-0.0153 0.0658,-0.1094 0.12743,-0.20902 l 0.11211,-0.18113 0.41519,-9.8e-4 c 0.31424,-7.4e-4 0.47751,-0.012 0.67149,-0.0462 0.14096,-0.0249 0.25855,-0.043 0.2613,-0.0402 0.003,0.003 -0.0423,0.11727 -0.10004,0.25448 l -0.10506,0.24948 -0.69886,7.5e-4 c -0.55255,6e-4 -0.69566,-0.005 -0.68356,-0.0272 z"
       id="path5158"
       inkscape:connector-curvature="0" />
    <rect
       style="fill:#ffffff"
       id="rect5160"
       width="2.1428571"
       height="3.3035715"
       x="132.27678"
       y="576.4693" />
    <rect
       style="fill:#ffffff"
       id="rect5162"
       width="2.3214285"
       height="0.49107143"
       x="133.21428"
       y="578.29968" />
    <rect
       style="fill:#ffffff"
       id="rect5166"
       width="2.9921875"
       height="0.4140625"
       x="127.46484"
       y="578.34656" />
    <rect
       style="fill:#ffffff"
       id="rect5168"
       width="0.3203125"
       height="0.16015625"
       x="129.75781"
       y="578.245" />
    <rect
       style="fill:#ffffff"
       id="rect5170"
       width="0.4921875"
       height="0.07421875"
       x="129.84375"
       y="578.21765" />
    <rect
       style="fill:#ffffff"
       id="rect5172"
       width="0.90625"
       height="0.3125"
       x="131.73438"
       y="577.12781" />
    <rect
       style="fill:#ffffff"
       id="rect5174"
       width="0.15625"
       height="0.26953125"
       x="132.19141"
       y="576.57312" />
    <rect
       style="fill:#ffffff"
       id="rect5176"
       width="0.09765625"
       height="0.1953125"
       x="131.72656"
       y="577.15125" />
    <rect
       style="fill:#ffffff"
       id="rect5178"
       width="0.1640625"
       height="0.55078125"
       x="131.75391"
       y="577.11218" />
    <rect
       style="fill:#ffffff"
       id="rect5180"
       width="0.6171875"
       height="0.1015625"
       x="128.14453"
       y="578.28015" />
    <rect
       style="fill:#ffffff"
       id="rect5182"
       width="0.265625"
       height="0.12109375"
       x="129.90625"
       y="578.15125" />
    <rect
       style="fill:#ffffff"
       id="rect5184"
       width="0.62890625"
       height="0.06640625"
       x="129.85156"
       y="578.1825" />
    <flowRoot
       xml:space="preserve"
       id="flowRoot5186"
       style="font-size:18px;font-style:normal;font-variant:normal;font-weight:normal;font-stretch:normal;text-align:start;line-height:125%;letter-spacing:0px;word-spacing:0px;writing-mode:lr-tb;text-anchor:start;fill:#000000;fill-opacity:1;stroke:none;font-family:Times New Roman;-inkscape-font-specification:'Times New Roman,'"
       transform="matrix(1.2293416,0,0,1.1142799,-148.26215,342.88052)"><flowRegion
         id="flowRegion5188"><rect
           id="rect5190"
           width="41.719299"
           height="21.920311"
           x="214.25336"
           y="203.83405"
           style="font-style:normal;-inkscape-font-specification:'Times New Roman,'" /></flowRegion><flowPara
         id="flowPara5192">0</flowPara><flowPara
         id="flowPara5194" /></flowRoot>  </g>
</svg>
